<?xml version="1.0" encoding="utf-8"?>
<!-- Generator: Adobe Illustrator 24.1.2, SVG Export Plug-In . SVG Version: 6.00 Build 0)  -->
<svg version="1.1" id="Layer_1" xmlns="http://www.w3.org/2000/svg" xmlns:xlink="http://www.w3.org/1999/xlink" x="0px" y="0px"
	 viewBox="0 0 390.93 284.31" style="enable-background:new 0 0 390.93 284.31;" xml:space="preserve">
<style type="text/css">
	.st0{fill:none;stroke:#0C2553;stroke-width:3;stroke-miterlimit:10;}
</style>
<g id="logo" transform="translate(58.716 -7.44)">
	<g id="logo-2" transform="translate(31.166 34.366)">
		<path id="Path_247" class="st0" d="M-86.4,252.2v-92.86l59.36-73.37l23.31,14.91l61.9-60.48l52.07-62.96l47.34,62.96l41.48,19.44
			l71.72,77.74v44.66l26.5,16.05v53.89l-383.67,1.93V252.2z"/>
		<path id="Path_248" class="st0" d="M-86.4,159.35l56.09-29.4l3.26-41.09"/>
		<path id="Path_249" class="st0" d="M68.64,27.75l29.03-10.33l12.57-39.97"/>
		<path id="Path_250" class="st0" d="M-3.73,100.88l82.72-26.62L58.17,40.41"/>
		<path id="Path_251" class="st0" d="M8.59,135.46"/>
		<path id="Path_252" class="st0" d="M-27.23,171.17"/>
		<path id="Path_253" class="st0" d="M106.86,252.29l-27.45-61.83l-6.4-29.69l-17.44-28.34l-11.29,39.78l-6.45,79.98"/>
		<path id="Path_254" class="st0" d="M270.77,137.09h-30.01l-41.71-77.25"/>
		<path id="Path_255" class="st0" d="M297.27,198.06h-31.66l5.16-14.84"/>
		<path id="Path_256" class="st0" d="M24.35,252.2l-10.63-24.78l-13.7-3.81L8.6,202.4h-27.87l-13.52-43.2l-20.1,34.31v58.7"/>
		<path id="Path_257" class="st0" d="M125.6,49.94l75.01,72.65v62.88l29.21,41.15v25.68H126.79l3.91-29.65l20.96-14.92l0.71-12.67
			h-14.52L125.6,159.2l12.11-43.42L125.6,49.94z"/>
	</g>
</g>
</svg>
