<?xml version="1.0" encoding="utf-8"?>
<!-- Generator: Adobe Illustrator 24.1.2, SVG Export Plug-In . SVG Version: 6.00 Build 0)  -->
<svg version="1.1" xmlns="http://www.w3.org/2000/svg" xmlns:xlink="http://www.w3.org/1999/xlink" x="0px" y="0px"
	 viewBox="0 0 690.19 660.45" style="enable-background:new 0 0 690.19 660.45;" xml:space="preserve">
<style type="text/css">
	.st0{fill:#EDBE96;}
	.st1{fill:#FFFFFF;}
	.st2{opacity:0.5;fill:#EDBE96;}
	.st3{fill:#BC7F4C;}
	.st4{opacity:0.5;fill:#BC7F4C;}
</style>
<g id="Layer_2">
	<path class="st0" d="M646.06,629.91c0,0,14.27-78.65,36.36-127.97c32.23-71.97-37.29-228.16-180.32-274.85
		c-17.92-5.85-19.33-38.67-59.62-69.8c-42.52-32.85-76.99-10.27-101.8-17.45c-23.79-6.88-56.73-56.83-75.62-63.99
		c-20.62-7.81-24.03-32.49-42.17-39.26c-5.45-2.03,10.73-12.11,6.21-23.97c-4.63-12.16-24.23-15.07-31.5-10.7
		c-7.27,4.36-11.58,17.17-11.58,17.17s-56.91-10.52-77.88-5.25c-15.84,3.98-11.93,3.69-11.93,3.69s-10.6-1.69-14.04-0.34
		c-4.57,1.8-9.82,11.41-17.79,13.59C52.47,34.02,14.5,38.92,7.66,44.78c-4.55,3.9-12.06,42.78-4.31,46.57
		c4.11,8.93,82.9,48,100.29,63.03c19.14,16.54,57.66,107.65,90.16,132.33c9.06,6.88-7.01,79.81-8.13,109.31
		c-1.16,30.58,21.03,86.61,22.13,119.23c0.69,20.45-0.98,69.36-12.54,88.47c0,0-18.73,5.35-26.41,19.62
		c-4.78,8.87-9.07,25.72-2.74,29.63c9.82,6.07,162.9,13.24,182.16,0c7.41-5.09,22.97-24.47,27.71-46.4
		c3.38-16.21,13.13-36.46,20.75-38.28c10.58-2.53,33.25,31.39,33.25,31.39s-46.26,12.42-47.29,42.4
		c-0.48,13.79,65.77,8.53,87.42,5.28c21.72-3.26,62.92-9.94,87.25-10.18C580.8,636.95,640.93,648.74,646.06,629.91z"/>
</g>
<g id="Layer_3">
	<path class="st1" d="M178.45,270.94c0,0,54.56,30.36,74.45,36.74c8.46,2.71,11.86,33.5,11.86,33.5v20.94
		C221.61,337.82,208.26,306.72,178.45,270.94z"/>
	<path class="st1" d="M440.69,540.35c-0.82,13.86,0,55.55,0,55.55l-10.72,3.78c0,0-37.29-27.14-33.25-31.39
		c7.64-8.01,3.89-4.48,13.11-17.16c6-8.25,23.12-37.24,4.65-80l28.98,42.41C443.99,509.52,441.41,528.27,440.69,540.35z"/>
</g>
<g id="Layer_4">
	<polygon class="st1" points="405.51,608.32 402.18,609.34 377.88,614.42 379.36,613.24 	"/>
	<polygon class="st2" points="411.96,606.79 406.61,609.7 373.48,615.34 374.09,613.53 	"/>
	<path class="st3" d="M443.46,513.56c8.09-74.45,73.34-149.35,72.66-148.9c-0.68,0.45-62.13,54.29-79.21,139.31L443.46,513.56z"/>
	<path class="st3" d="M294.19,499.75c-35.64-51.34-28.87-155.8-29.14-155.03c-0.27,0.77-8.83,88.13,20.76,157.26
		c10.74,25.1-8.03,101.03-8.03,101.03C305.19,554.66,294.62,500.37,294.19,499.75z"/>
	<path class="st3" d="M414.56,471.34c-10.44-29.29-35.51-74.56-35.21-74.32c0.3,0.24,28.37,36.92,38.37,78.88L414.56,471.34z"/>
	<path class="st3" d="M404.71,439.66c-6.9-30.17,12.44-93.93,12.13-93.5c-0.31,0.43-19.42,36.84-18.17,81.75
		C398.7,428.84,404.91,440.56,404.71,439.66z"/>
	<path class="st3" d="M406.46,140.4c53.41,9.31,111.78,126.88,111.78,126.06s-22.38-63.96-75.77-109.17
		C427.02,144.2,406.46,140.4,406.46,140.4z"/>
	<path class="st3" d="M345.1,160.28c-3.05-0.7-14.64-1.41-14.64,0s5.62,26,5.62,26l-14.06,51.31l19.68-48.85l-1.41-21.44
		L345.1,160.28z"/>
	<path class="st3" d="M130.48,192.94l-5.71-41.54c11.61,36.19,23.95,73.67,23.19,72.35S130.48,192.94,130.48,192.94z"/>
	<path class="st3" d="M76.71,136.78c0,0,14.98,2.15,23.76,0l-14.85,5.33L76.71,136.78z"/>
	<path id="Path_374" class="st3" d="M9.79,44.02c3.23-0.76,6.61-0.57,9.73,0.55c4.53,1.64,14.95,2.97,15.54,7.58
		c0.33,2.59-3.58,11.55-6.13,12.35c-1.95,0.62-6.26-1.62-8.23-1.03c-3,4.93-7.86,6.03-7.86,6.03C6.18,66.2,9.88,61.23,6.88,58.8
		c-2.22-1.8-2.97-5.52-2.77-7.77C4.68,48.01,7.37,45.97,9.79,44.02z"/>
	<path class="st3" d="M11.5,68.72c-0.15,0.06,1.26,11.61-0.4,15.24c-1.18,2.58-9.45,1.65-10.03,4.32c-0.38,1.78,4.11,4.11,5.92,4.21
		c1.87,0.1,4.58-1.98,7.38-1.41c7.03,1.45,27.39,10.99,39.74,12.47c3.28,0.39,4.28-4.37,1.64-5.04
		c-11.46-2.95-32.23-6.95-37.56-12.48c-3.57-3.71-2.94-17.49-2.94-17.49L11.5,68.72z"/>
	<path id="Path_373" class="st3" d="M129.49,38.22c-3.96-1.33-8.08-2.36-12.32-3.09c-1.41-0.17-4.5-0.87-5.78-0.07
		c-1.87,1.84-2.98,4.15-3.11,6.46c0.03,1.39,0.5,4.42,1.72,5.14c2.14,0.83,4.67,0.86,7.09,0.07c1.81-1.36,3.43-2.91,4.82-4.62
		l5.28-0.12C127.19,41.99,129.94,39.08,129.49,38.22z"/>
	<path class="st4" d="M59.36,31.95c0,0,14.28,0.38,19.1-1.57c4.84-1.96,17.78-13.56,17.76-13.21c-0.02,0.35-11.51,6.39-14.51,8.33
		C74.78,30.01,66.92,31.58,59.36,31.95z"/>
	<path class="st3" d="M440.69,595.9c11.92-4.97,31.92-9.75,31.92-9.75s-23.42-1.95-31.98,6.74L440.69,595.9z"/>
	<path class="st3" d="M195.25,603.74c15.42-6.67,38.49-8.21,38.49-8.21s-26.76-3.33-36.33,4.04L195.25,603.74z"/>
	<path class="st3" d="M230.83,659.49c0,0-8.49-11.12-7.28-20.5c2.94-22.86,13.35-26.69,20.3-30.68c7.45-4.28,33.94-5.31,33.94-5.31
		s-22.56,4.27-29.54,7.28c-5.57,2.41-9.32,6.02-15.4,18.76C230.11,634.77,230.83,659.49,230.83,659.49z"/>
</g>
<g id="Layer_5">
	<path class="st1" d="M543.62,270.94c0,0,45.33,22.91,76.32,60.91c38.63,47.37,50.11,93.05,50.11,93.05
		c-48.7-46.53-97.64-62.79-97.64-62.79S574.62,314.69,543.62,270.94z"/>
	<path class="st1" d="M377.88,171.55c5.25-8.74,29.41-15.65,38.97-12.08c24.79,9.26,55.77,89.97,55.77,89.97
		s-38.24-13.24-54.62-46.01c-9.06-18.12-40.12-10.02-40.12-10.02S375.06,176.24,377.88,171.55z"/>
	<path class="st1" d="M310.8,139.35c0,1.58,0,48.24,0,48.24c-28.99-72.65-57.98-79.65-57.98-79.65s2.81-27.61,8-23.99
		C310.8,118.86,310.8,139.35,310.8,139.35z"/>
	<path class="st1" d="M277.75,347.92c0,0-0.94,66.14,7.01,88.54c4.26,11.98,30.61,48.61,30.61,48.61s-20.14-43.1-24.63-59.49
		C285.83,407.69,277.75,347.92,277.75,347.92z"/>
	<path class="st1" d="M203.87,322.04c0,0-14.89,59.97-12.26,83.59c1.4,12.64,21.75,64.45,21.75,64.45s-12.76-53.44-13.39-70.42
		C199.28,381.11,203.87,322.04,203.87,322.04z"/>
	<path class="st1" d="M516.13,397.02c0,0-47.1,65.19-54.95,91.56c-11.89,39.91,7.46,78.72,7.46,78.72s5.84-57.61,10.32-72.94
		C483.86,477.62,516.13,397.02,516.13,397.02z"/>
	<path class="st1" d="M294.5,615.37c0,0-25.19-6.95-34.44-2.52c-14,6.71-25.01,33.22-25.01,33.22s19.26-17,24.63-19.63
		C265.53,623.56,294.5,615.37,294.5,615.37z"/>
	<path class="st1" d="M208.25,615.24c0,0-15.3-5.03-21.15-1c-8.85,6.1-16.5,28.77-16.5,28.77s12.43-14.94,15.82-17.33
		C190.13,623.08,208.25,615.24,208.25,615.24z"/>
	<path id="Path_409_1_" class="st1" d="M68.3,39.72c-9.64,1.94-26.18,6.68-26.18,6.68s28.8,3.36,39.21,0.53
		c8.6-2.33,2.75-6.77,2.75-6.77C78.89,38.86,73.5,38.71,68.3,39.72z"/>
	<path id="Path_408_1_" class="st1" d="M175.62,31.84c0,0,1.7-6.48-12.82-9.2c-17.6-3.3-56.35-3.34-56.35-3.34
		s24.49,4.16,40.69,6.45C156.86,27.24,166.38,29.27,175.62,31.84z"/>
	<path class="st1" d="M191.81,19.3c0.29-1.73,4.47-13.29,12.05-15.5c6.89-2.01,21.8,9.47,21.8,9.47S208.8,7.22,204.15,8.1
		C199.75,8.94,191.81,19.3,191.81,19.3z"/>
	<path class="st1" d="M462.35,612.63c0,0-27.62-6.96-37.58-3.21c-15.07,5.67-26.34,29.31-26.34,29.31s20.51-14.83,26.29-17.05
		C431.02,619.25,462.35,612.63,462.35,612.63z"/>
</g>
<g id="Layer_6">
	<path class="st1" d="M443.5,513.26C443.55,512.91,443.54,512.93,443.5,513.26L443.5,513.26z"/>
	<path class="st1" d="M415.63,473.92c0.15-0.14,0.3-0.28,0.45-0.43l-1.6-2.34C414.88,472.08,415.27,473,415.63,473.92z"/>
	<path class="st1" d="M443.5,513.26C443.55,512.91,443.54,512.93,443.5,513.26L443.5,513.26z"/>
	<path class="st4" d="M669.76,535.41c0,0-9,27.2-41.66,68.23c-5.52,6.93-14.81,36.97-14.81,36.97s30.73,0.13,32.36-8.59
		C652.42,595.9,669.76,535.41,669.76,535.41z"/>
	<path class="st4" d="M263.69,361.5c-28.95-16.79-46.24-39.64-46.09-39.46S229.35,428.66,238.92,463
		c7.91,28.4,45.27,108.89,45.27,108.89s11.35-47.45,2.6-67.18c-9.08-20.48-17.12-53.79-19.37-72.46
		C264.77,410.08,263.69,361.5,263.69,361.5z"/>
	<path class="st4" d="M205.73,81.05c0,0-16.8,43.38-27.99,49.41c-15.45,8.33-64.29,4.94-64.29,4.94s45.82-5.96,59.44-12.2
		C183.23,118.46,205.73,81.05,205.73,81.05z"/>
	<path class="st4" d="M436.91,503.97l-22.44-32.83c-18.07-41.06-13.55-75.62-11.43-68.3c14.94,51.57,44.79,63.46,44.79,63.46
		L436.91,503.97z"/>
	<path class="st2" d="M443.5,513.26l-29.02-42.11c0,0,9.92,18.83,7.94,45.62c0,0,8.23,4.25,18.63,18.64L443.5,513.26z"/>
</g>
</svg>
