<?xml version="1.0" encoding="utf-8"?>
<!-- Generator: Adobe Illustrator 24.1.2, SVG Export Plug-In . SVG Version: 6.00 Build 0)  -->
<svg version="1.1" xmlns="http://www.w3.org/2000/svg" xmlns:xlink="http://www.w3.org/1999/xlink" x="0px" y="0px"
	 viewBox="0 0 273.29 786.95" style="enable-background:new 0 0 273.29 786.95;" xml:space="preserve">
<style type="text/css">
	.st0{fill:#EDBE96;}
	.st1{fill:#FFFFFF;}
	.st2{fill:#BC7F4C;}
	.st3{opacity:0.5;fill:#BC7F4C;}
	.st4{opacity:0.5;fill:#EDBE96;}
</style>
<g id="Layer_2">
	<path class="st0" d="M228.3,21.43c0,0-38.95-37.97-108.33,8.88c-4.29,2.89-17.15-21.81-36.42-5.72
		c-27.01,22.56,23.73,34.85,19.48,42.57c-14.59,26.49-3.82,45.05-11.23,78.53c-4,18.08-3.75,39.27-28.9,50.45
		c-13.21,5.87-36.73,13.82-54.86,30.95c-9.7,9.16-16.11,93.7,14.37,123.92c10.53,10.44,29.54-6.03,29.1-0.14
		c-1.4,18.77-40.99,119.03-0.39,175.21c7.17,9.92-5.92,19.58-20.72,66.34c-7.34,23.2-14.27,72.37,19.43,150.17
		c0.8,1.86-15.59-11.04-28.44-2.92c-23.35,14.77-22.1,57.68,14.7,44.97c19.92-6.88,44.87,3.67,59.21,0c0,0,35.22-28.11,20.72-103.62
		c-2.42-12.58,4.24-18.96,17.07-21.11c15.48-2.6,17.27-4.47,21.47,2.12c17.52,27.53,19.51,67.47,13.91,99.31
		c-3.19,18.12,24.82,23.69,45.36,20.42c17.02-2.71,33.7-2.14,38.68-10.78c10.55-18.29-6.16-33.32-8.67-47.12
		c-1.4-7.68,18.83-52.78,26.37-108.05c6.01-44.08,2.54-88.05-4.31-112.52c-15.68-56-32.06-137.97-23.73-167.99
		c5.38-10.59,12.27-35.42,13.15-52.89c1.71-33.79,0.83-79.13-5.04-106.05c-7.25-33.3,3.24-31.34,6.72-64.89
		c4.55-43.76-0.5-50.78-4.48-61.87c-2.85-7.94,33.8-24.44,13.09-43.92C245.41-13.32,228.3,21.43,228.3,21.43z"/>
</g>
<g id="Layer_3">
	<path class="st1" d="M33.53,476.5c6.66,60.45,36.17,125.49,115.87,181.16c0,0,0.01-0.19,0.05-0.57
		c0.46-5.08,5.25-44.16,46.69-111.68c7.46-12.14,7.32-25.6,7.72-34.07c1.8-37.76-13.19-109.09-13.19-109.09s-34.44-3.8-47.18-24.76
		c-5.68-9.33-12.76-34.55-25.24-49.65c-10.52-12.72-20.51-16-27.01-20.49c-2.31-1.58-4.18-3.33-5.47-5.7
		c-2.38-4.35,3.56-16.96,3.56-16.96l-20.93,2.48C60.23,309.87,27.06,417.73,33.53,476.5z"/>
	<path class="st1" d="M106.35,246.87l-1.77,7.44c0,0,0.61-0.33,1.7-0.89c6.75-3.51,31.88-16.04,42.24-13.99
		c4.48,0.89,23.76,20.73,23.76,20.73s1.04-21.18,0.58-31.16c-0.6-12.89-8.72-36.93-8.72-36.93s-14.89,24.21-22.28,21.76
		c-5.34-1.77-5.85-14.39-5.62-22.37c0.12-3.82,0.4-6.58,0.4-6.58l-27.3,16.87c-5.77,2.41,7.55-22.32,7.89-22.96
		c-17.3,10.53-30.86,37.76-30.86,37.76L106.35,246.87z"/>
</g>
<g id="Layer_4">
	<path class="st2" d="M68.4,287.17c-13.1,5.9-46.06-39.99-46.06-39.99S40,287.55,66.39,292.88L68.4,287.17z"/>
	<path class="st2" d="M172.28,260.16c19.28,20.23,29.25,48.15,29.25,48.15l-12.85-35.96c3.48-2.77,31.86,20.53,31.86,20.53
		s-18.17-24.77-48.1-36.33L172.28,260.16z"/>
	<path class="st2" d="M253.54,197.39c-2.18-10.24-17.28-27.9-17.28-27.9s17.28,27.9,19.31,55.79
		C255.57,225.27,255.57,206.93,253.54,197.39z"/>
	<path class="st2" d="M86.37,216.54c0,0-11.09-13.61-19.14-15.89c-4.82-1.36-9.39-2.34-9.39-2.34s8.21,0.29,13.14,1.42
		c6.09,1.4,16.53,14.66,16.53,14.66L86.37,216.54z"/>
	<path class="st2" d="M28.4,212.17c-8.05,6.77-8.49,21.54-8.49,21.54s-1.21-13.78,1.46-17.16C22.34,215.31,28.4,212.17,28.4,212.17z
		"/>
	<path class="st2" d="M270.84,529c-11.71-10.96-34.6,3.96-34.6,3.96s10.08-17.28,33.47-11.75L270.84,529z"/>
	<path class="st2" d="M244.28,725.82c-10.81-14.08-38.93-13.32-53.58,4.79c0,0,5.19-7.79,28.66-9.13
		C235.34,720.56,244.28,725.82,244.28,725.82z"/>
	<path class="st2" d="M242.73,777.43c2.89-5.36-4.3-19.13-4.3-18.62s2.88,14.58-3.41,20.24
		C235.01,779.04,242.32,778.19,242.73,777.43z"/>
	<path class="st2" d="M223.28,780.5c4.54-2.98-3-20.46-3-20.46s0.53,16.6-2.79,21.18C217.49,781.23,222.75,780.85,223.28,780.5z"/>
	<path class="st2" d="M203.82,782.64c-3.55-6.1-0.29-21.1-0.29-21.1s-11.75,10.52-6.38,20.94
		C197.32,782.81,203.82,782.64,203.82,782.64z"/>
	<path class="st2" d="M11.02,782.23c-2.12-13.81,3.36-20.12,3.36-20.12s-8.61,6.74-7.86,11.84
		C7.41,779.99,11.02,782.23,11.02,782.23z"/>
	<path class="st2" d="M25.7,768.93c0,0-9.65,11.47-9.65,16.63c0,2.04,10.02,1.23,10.02,1.23C20.49,783.41,25.7,768.93,25.7,768.93z"
		/>
	<path class="st2" d="M49.82,742.6c0,0,18.41,7.37,23.08,13.97c5.92,8.36,5.23,13.24,5.23,13.24
		C70.64,752.39,49.82,742.6,49.82,742.6z"/>
	<path class="st2" d="M218.78,132.46c0,0-34.11,34.35-48.74,39.01c-13.65,4.34-23.53-1.99-23.53-1.99s2.9,4.39,6.78,6.4
		c4.89,2.54,12.58,1.2,17.88-0.27c8.61-2.39,19.76-11.9,28.51-21.58C201.79,151.7,218.78,132.46,218.78,132.46z"/>
	<path class="st2" d="M227.36,105.75c-0.09-8.36-9.47-25.78-9.47-25.78s8,24.12,5.58,46.43
		C223.47,126.4,227.44,113.54,227.36,105.75z"/>
	<path class="st2" d="M172.98,77.44c3.8,3.8,20.55,22.43,19.52,38.3s-34.19,23.81-34.19,23.81s24.03-13.97,27.18-22.43
		C189.94,105.18,172.98,77.44,172.98,77.44z"/>
	<path class="st2" d="M148.15,78.09c0,0-8.32,6.39-13.41,20.15c-5.8,15.68-4.58,23.9-4.58,23.9s-4.16-11.52,3.24-28.16
		C139.14,81.04,148.15,78.09,148.15,78.09z"/>
	<path class="st2" d="M139.68,120.05c1.19-1.35,5.03-2.24,6.83-2.27c3.55-0.07,11.99,0.83,13.63,3.98c0.92,1.77-0.31,6.49-1.84,7.77
		c-1.18,0.98-4.74,0.56-5.93,1.52c-2.06,1.66-3.41,10.02-3.41,10.02s-9.37-9.91-10.39-14.19
		C138.17,125.19,138.54,121.35,139.68,120.05z"/>
	<path class="st2" d="M148.96,141.06c0,0,0.2,3.95-0.82,4.44c-2.23,1.06-8.66-4.75-8.66-4.75s0.67,2.65,2.37,4.94
		c1.84,2.48,5.07,3.76,7.57,4.36c4.25,1.01,13.3,1.32,19.32-0.11c5.07-1.2,23.78-11.14,23.78-11.14s-12.64,5.81-23.78,7.4
		c-11.08,1.58-12.7,1.4-15.85-1.02C151.78,144.32,148.96,141.06,148.96,141.06z"/>
	<path class="st2" d="M203.92,69.88c-0.2-0.27-9.95-2.2-13.33-2.33c-1.47-0.06-4.8-0.56-5.89,0.44c-1.39,1.29-1.91,5.61-1.44,7.44
		c0.4,1.54,1.68,4.86,3.11,5.55c1.63,0.79,5.74,0.48,7.22-0.56c1.36-0.95,3.66-5.55,3.66-5.55l5.33-0.61
		C202.59,74.27,204.6,70.81,203.92,69.88z"/>
	<path class="st2" d="M124.39,71.11c0.22-0.2,7.67,0.14,10.11,0.74c1.06,0.26,3.31,1.17,3.8,2.32c0.63,1.48,0.05,4.9-0.79,6.47
		c-0.71,1.32-2.54,4.08-3.75,4.41c-1.38,0.37-4.21-0.8-4.97-2.07c-0.7-1.17-1.06-5.87-1.06-5.87l-3.62-1.71
		C124.11,75.41,123.65,71.81,124.39,71.11z"/>
	<path class="st1" d="M109.2,67.38c0,0-5.53,11.76-6.21,26.42c-0.76,16.7-0.33,36.33-0.33,36.33s-5.93-23.21-3.94-41.31
		C100.27,74.73,109.2,67.38,109.2,67.38z"/>
	<path class="st1" d="M74.84,216.54c0,0-14.04-14.84-30.75-4.38c-17.11,10.72-7.59,36.98-7.59,36.98s2.58-18.01,12.98-26.21
		C60.03,214.61,74.84,216.54,74.84,216.54z"/>
	<path class="st1" d="M159.13,254.88c0,0-14.04-14.84-30.75-4.38c-17.11,10.72-15.43,36.98-15.43,36.98s10.42-18.01,20.82-26.21
		C144.33,252.94,159.13,254.88,159.13,254.88z"/>
	<path class="st1" d="M13.32,233.71c0,0-4.67,22.53-3.58,37.16c1.51,20.2,9.89,70.33,9.89,70.33S4.59,300.53,3.69,270.03
		C3.14,251.51,13.32,233.71,13.32,233.71z"/>
	<path class="st1" d="M54.1,589.47l-4.28-26.07c0,0-12.93,19.29-17.09,49.02c-2.86,20.44,10.69,81.87,10.69,81.87
		S32.73,612.41,54.1,589.47z"/>
	<path class="st1" d="M48.23,748.91c0,0-11.45-8.67-15.9-8.21c-4.11,0.42-12.82,10.42-12.82,10.42s9.21-4.94,12.82-5.22
		C35.91,745.63,48.23,748.91,48.23,748.91z"/>
	<path class="st1" d="M242,733.47c0,0-6.99-7.55-19.05-7.55c-14.9,0-23.17,9.9-23.17,9.9s9.74-4.95,22.93-5.22
		C231.02,730.44,242,733.47,242,733.47z"/>
	<path class="st1" d="M242,552.14c-5.76-6.62-26.43,3.88-27.97,11.26c-6.13,29.29,3.45,127.24,3.45,127.24S263.09,576.41,242,552.14
		z"/>
</g>
<g id="Layer_5">
	<path class="st3" d="M66.39,292.88c-16.92-3.01-31.12-23.76-31.12-23.76c-9.8,15.56,10.1,81.92,10.1,81.92l5.45-1.42L66.39,292.88z
		"/>
	<path class="st3" d="M149.19,116.73l16.82-50.45c0,0,25.09,31.82,27.56,44.68c1.82,9.47,4.15,21.94-2.44,27.09
		c-10.93,8.54-18.16,8.36-28.39,8.93c-5.16,0.29-13.65-0.65-15.18-11.06C145.76,123.64,149.19,116.73,149.19,116.73z"/>
	<path class="st4" d="M172.28,260.16c0,0,1.04-21.18,0.58-31.16c-0.6-12.89-8.72-36.93-8.72-36.93s-14.89,24.21-22.28,21.76
		l1.05,25.59C150.86,236.27,172.28,260.16,172.28,260.16z"/>
	<path class="st4" d="M149.45,657.09c0.46-5.08,5.25-44.16,46.69-111.68c7.46-12.14,7.32-25.6,7.72-34.07
		c1.8-37.76-13.19-109.09-13.19-109.09s-22.92-2.65-40.8-17.02C149.87,385.23,172.28,425.25,149.45,657.09z"/>
	<path class="st3" d="M190.67,402.25c38.12,7.49,49.43-36.87,49.43-36.87c2.77,49.1,16.8,105.79,26.64,141.13
		c8.07,29,7.15,64.28,5.01,96.12c-2.94,43.71-27.24,114.75-25.84,110.24c40.49-130.95-10.95-306.19-10.95-306.19
		s-7.21,7.03-8.87,8.95c-8.2,9.54-30.42,13.17-30.42,13.17L190.67,402.25z"/>
	<path class="st3" d="M240.37,345.87c-3.02-38.73-26.91-61.18-26.91-61.18c21.69-8.08,42.56-43.73,42.56-43.73
		s1.11,32.61-2.06,53.73c-2.01,13.37-7.01,29.84-11.79,40.61C241.5,336.78,240.37,345.87,240.37,345.87z"/>
	<path class="st3" d="M149.4,657.66c0,0-44.37-29.63-67.77-63.63c0,0-12.17,58.42-12.31,76.19c-0.23,31.7,25.97,114.44,25.97,114.44
		c35.35-34.58,22.24-91.1,20.22-108.14c-0.67-5.61,3.71-11.56,7.42-13.27c6.02-2.78,12.19-3.64,16.16-4.4
		C143.69,657.95,149.4,657.66,149.4,657.66z"/>
	<path class="st3" d="M253.54,197.39l-22.47-36.77c13.94-15.77,17.59-26.3,20.49-44.09c7.4-45.48,0.96-66.93,0.96-66.93
		c8.37,16.68,6.2,39.13,6.12,40.17c-0.78,9.68-0.26,29.31-10.47,61.14C245.92,157.96,252.39,177.32,253.54,197.39z"/>
	<path class="st4" d="M50.82,349.62c0,0-13.48,58.96-13.44,105.66c0.05,49.97,13.61,87.91,13.44,87.49
		c-0.34-0.8-18.12-39.31-18.49-80.92C31.9,413.12,50.82,349.62,50.82,349.62z"/>
	<path class="st3" d="M93.8,133.85c0,0,3.41,13.84,5.91,18.42c0,0-4.92,3.06-11.63,12.17L93.8,133.85z"/>
</g>
<g id="Layer_6">
	<path class="st1" d="M161.65,71.05l-14.61,43.26c-5.18-1.11-8.63,2.22-8.63,2.22S146.07,89.71,161.65,71.05z"/>
	<path class="st1" d="M218.96,27.95c0,0-24.34-15.77-45.86-12.94c-26.06,3.43-43.2,22.84-43.2,22.84s28.43-11.57,45.52-13.54
		C192.54,22.33,218.96,27.95,218.96,27.95z"/>
	<path class="st1" d="M173.43,39.37c0,0-7.43-3.49-14.94-2.33c-9.11,1.41-15.31,12.67-15.31,12.67s7.13-6.75,15.31-8.59
		C165.68,39.5,173.43,39.37,173.43,39.37z"/>
	<path class="st1" d="M105.06,28.43c0,0-10.07-5.17-13.28-3.64c-3.07,1.46-9.21,4.71-9.21,11.14c0,7.33,8.24,11.98,8.24,11.98
		s-2.2-9.95,0.58-14.35C94.92,27.96,105.06,28.43,105.06,28.43z"/>
	<path class="st1" d="M260.86,29.4c0,0,6.6-9.19,5.57-12.6c-0.99-3.26-3.3-9.81-9.66-10.76c-7.25-1.08-13.07,6.38-13.07,6.38
		s10.17-0.7,14.11,2.69C262.83,19.44,260.86,29.4,260.86,29.4z"/>
	<circle class="st1" cx="131.21" cy="75.23" r="2.21"/>
	<circle class="st1" cx="187.7" cy="73.02" r="2.21"/>
</g>
</svg>
