<?xml version="1.0" encoding="utf-8"?>
<!-- Generator: Adobe Illustrator 24.1.2, SVG Export Plug-In . SVG Version: 6.00 Build 0)  -->
<svg version="1.1" xmlns="http://www.w3.org/2000/svg" xmlns:xlink="http://www.w3.org/1999/xlink" x="0px" y="0px"
	 viewBox="0 0 1024 1024" style="enable-background:new 0 0 1024 1024;" xml:space="preserve">
<style type="text/css">
	.st0{fill:#BAD1F1;}
	.st1{fill:#82A7E7;}
	.st2{fill:#FFFFFF;stroke:#C3DCFC;stroke-miterlimit:10;}
	.st3{fill:#FFFFFF;}
	.st4{fill:#EDBE96;}
	.st5{opacity:0.5;fill:#EDBE96;enable-background:new    ;}
	.st6{fill:#BC7F4C;}
	.st7{opacity:0.5;fill:#BC7F4C;enable-background:new    ;}
	.st8{fill:#AC6C3C;}
	.st9{fill:#FFFFFF;stroke:#FFFFFF;stroke-width:0.5;stroke-miterlimit:10;}
	.st10{fill:#0C2553;}
	.st11{font-family:'ObjektivMk2-Thin';}
	.st12{font-size:107.6036px;}
	.st13{fill:none;stroke:#0C2553;stroke-width:3;stroke-miterlimit:10;}
</style>
<g id="Layer_4_2_">
	<polygon class="st0" points="139.17,985.74 139.17,718.55 289.17,547.12 429.19,586.62 564.83,444.16 983.31,297.12 910.32,475.47 
		983.31,547.12 983.31,729.57 983.31,891.15 983.31,985.74 452.58,985.74 	"/>
	<polyline class="st1" points="983.31,868.43 951.73,798.58 983.31,729.57 	"/>
	<polyline class="st1" points="983.31,297.12 910.32,475.47 983.31,547.12 	"/>
	<polyline class="st1" points="270.72,985.74 194.93,985.74 208.26,870.64 273.24,816.13 	"/>
	<polygon class="st2" points="611.56,562.23 568.46,680.78 611.56,729.57 490.85,900.93 490.85,985.74 680.54,985.74 659.07,665.7 	
		"/>
	<polygon class="st1" points="774.02,985.74 728.76,696.34 659.07,665.7 680.54,985.74 	"/>
	<polygon class="st2" points="983.31,985.74 962.91,900.93 906.78,874.86 882.24,781.7 889.25,985.74 	"/>
	<path class="st3" d="M564.83,444.16"/>
	<polygon class="st2" points="429.19,586.62 597.5,535.97 983.31,297.12 564.83,444.16 	"/>
	<polygon class="st2" points="289.17,547.12 283.08,605.92 275.21,681.84 139.17,718.55 	"/>
	<polygon class="st1" points="275.21,681.84 273.24,816.13 270.72,985.74 380.11,985.74 326.71,664.46 289.17,547.12 	"/>
</g>
<g id="Layer_1">
	<path class="st3" d="M588.63,321.13"/>
	<g id="Layer_2_1_">
		<path class="st4" d="M910.54,989.14c-13.32,0.13-35.87,3.79-47.76,5.57c-11.85,1.78-48.12,4.66-47.86-2.89
			c0.56-16.41,25.89-23.21,25.89-23.21s-12.41-18.57-18.2-17.18c-4.17,1-9.51,12.08-11.36,20.96c-2.59,12-11.11,22.61-15.17,25.4
			c-10.54,7.25-94.34,3.32-99.72,0c-3.47-2.14-1.12-11.36,1.5-16.22c4.2-7.81,14.46-10.74,14.46-10.74
			c6.33-10.46,7.24-37.24,6.86-48.43c-0.6-17.86-12.75-48.53-12.11-65.27c0.61-16.15,9.41-56.07,4.45-59.84
			c-17.79-13.51-38.88-63.39-49.36-72.44c-9.52-8.23-52.65-29.62-54.9-34.5c-4.24-2.07-0.13-23.36,2.36-25.49
			c3.74-3.21,24.52-5.89,31.04-7.67c4.36-1.19,7.24-6.45,9.74-7.44c1.88-0.74,7.69,0.19,7.69,0.19s-2.14,0.16,6.53-2.02
			c11.48-2.88,42.63,2.87,42.63,2.87s2.36-7.01,6.34-9.4c3.98-2.39,14.71-0.8,17.24,5.86c2.47,6.49-6.38,12.01-3.4,13.12
			c9.93,3.71,11.8,17.22,23.08,21.49c10.34,3.92,28.37,31.26,41.4,35.03c13.58,3.93,32.45-8.43,55.73,9.55
			c22.06,17.04,22.83,35.01,32.64,38.21c78.3,25.56,116.35,111.06,98.71,150.46c-12.09,27-19.9,70.05-19.9,70.05
			C956.29,995.47,923.37,989.01,910.54,989.14z"/>
	</g>
	<g id="Layer_3">
		<path class="st3" d="M750.36,838.56V827.1c0,0-1.86-16.86-6.49-18.34c-10.89-3.49-40.76-20.11-40.76-20.11
			C719.43,808.24,726.74,825.26,750.36,838.56z"/>
		<path class="st3" d="M848.19,921.45l-15.86-23.22c10.11,23.41,0.74,39.28-2.55,43.79c-5.05,6.94-2.99,5.01-7.18,9.39
			c-2.21,2.33,18.2,17.18,18.2,17.18l5.87-2.07c0,0-0.45-22.82,0-30.41C847.06,929.52,848.48,919.25,848.19,921.45z"/>
	</g>
	<g id="Layer_4">
		<polygon class="st3" points="813.1,976.03 812.28,976.68 825.59,973.9 827.41,973.34 		"/>
		<polygon class="st5" points="810.21,976.19 809.88,977.18 828.01,974.09 830.94,972.5 		"/>
		<path class="st6" d="M844.6,916.22c9.35-46.54,42.99-76.01,43.36-76.26s-35.35,40.76-39.78,81.51L844.6,916.22z"/>
		<path class="st6" d="M757.49,970.43c0,0,10.28-41.57,4.4-55.31c-16.2-37.84-11.51-85.67-11.36-86.09s-3.56,56.76,15.95,84.87
			C766.71,914.25,772.5,943.96,757.49,970.43z"/>
		<path class="st6" d="M834.1,900.85c-5.47-22.97-20.84-43.05-21-43.18c-0.16-0.13,13.56,24.65,19.27,40.68L834.1,900.85z"/>
		<path class="st6" d="M823.66,874.58c-0.68-24.58,9.78-44.52,9.95-44.75c0.17-0.24-10.42,34.67-6.64,51.18
			C827.08,881.5,823.68,875.09,823.66,874.58z"/>
		<path class="st6" d="M847.64,726.44c29.23,24.75,41.48,59.31,41.48,59.76c0,0.45-31.95-63.91-61.19-69.01
			C827.93,717.19,839.18,719.27,847.64,726.44z"/>
		<path class="st6" d="M791.7,731.92l0.77,11.74l-10.77,26.74l7.7-28.09c0,0-3.08-13.46-3.08-14.23s6.34-0.38,8.01,0L791.7,731.92z"
			/>
		<path class="st6" d="M686.43,762.82c0.42,0.72-6.34-19.79-12.69-39.61l3.13,22.74C676.86,745.95,686.01,762.1,686.43,762.82z"/>
		<path class="st6" d="M652.29,718.13l8.13-2.92c-4.81,1.18-13.01,0-13.01,0L652.29,718.13z"/>
		<path id="Path_374" class="st6" d="M610.78,664.43c1.77-0.42,3.62-0.31,5.33,0.3c2.48,0.9,8.18,1.63,8.51,4.15
			c0.18,1.42-1.96,6.32-3.36,6.76c-1.07,0.34-3.43-0.88-4.51-0.56c-1.64,2.7-4.3,3.3-4.3,3.3c-3.64-1.8-1.61-4.52-3.26-5.85
			c-1.22-0.99-1.63-3.02-1.52-4.25C607.99,666.61,609.46,665.5,610.78,664.43z"/>
		<path class="st6" d="M613.78,677.85c0,0-0.34,7.54,1.61,9.57c2.92,3.03,14.29,5.22,20.56,6.83c1.45,0.37,0.9,2.97-0.9,2.76
			c-6.76-0.81-17.91-6.03-21.75-6.83c-1.53-0.31-3.02,0.83-4.04,0.77c-0.99-0.05-3.45-1.33-3.24-2.3c0.32-1.46,4.84-0.95,5.49-2.36
			c0.91-1.99,0.14-8.31,0.22-8.34L613.78,677.85z"/>
		<path id="Path_373" class="st6" d="M676.31,661.26c-2.17-0.73-4.42-1.29-6.74-1.69c-0.77-0.09-2.46-0.48-3.16-0.04
			c-1.02,1.01-1.63,2.27-1.7,3.54c0.02,0.76,0.27,2.42,0.94,2.81c1.17,0.45,2.56,0.47,3.88,0.04c0.99-0.74,1.88-1.59,2.64-2.53
			l2.89-0.07C675.06,663.32,676.56,661.73,676.31,661.26z"/>
		<path class="st7" d="M650.16,654.29c1.64-1.06,7.93-4.37,7.94-4.56c0.01-0.19-7.07,6.16-9.72,7.23
			c-2.64,1.07-10.46,0.86-10.46,0.86C642.06,657.62,646.37,656.76,650.16,654.29z"/>
		<path class="st6" d="M846.64,964.89c4.69-4.76,17.51-3.69,17.51-3.69s-10.95,2.62-17.47,5.34L846.64,964.89z"/>
		<path class="st6" d="M713.49,968.55c5.24-4.03,19.89-2.21,19.89-2.21s-12.63,0.84-21.07,4.49L713.49,968.55z"/>
		<path class="st6" d="M732.9,984.68c3.33-6.97,5.38-8.95,8.43-10.27c3.82-1.65,16.17-3.99,16.17-3.99s-14.5,0.56-18.58,2.91
			c-3.8,2.18-9.5,4.28-11.11,16.79c-0.66,5.13,3.99,11.22,3.99,11.22S731.4,987.82,732.9,984.68z"/>
	</g>
	<g id="Layer_5">
		<path class="st3" d="M918.78,838.56c0,0,26.79,8.9,53.45,34.37c0,0-6.28-25.01-27.43-50.94c-16.96-20.8-41.78-33.34-41.78-33.34
			C919.99,812.6,918.78,838.56,918.78,838.56z"/>
		<path class="st3" d="M812.28,746.21c0,0,17-4.43,21.96,5.49c8.97,17.94,29.9,25.19,29.9,25.19s-16.96-44.18-30.53-49.25
			c-5.23-1.95-18.46,1.83-21.33,6.61C810.74,736.81,812.28,746.21,812.28,746.21z"/>
		<path class="st3" d="M748.2,686.29c-2.84-1.98-4.38,13.13-4.38,13.13s15.87,3.83,31.74,43.6c0,0,0-25.54,0-26.41
			C775.56,716.62,775.56,705.4,748.2,686.29z"/>
		<path class="st3" d="M764.59,873.3c2.46,8.97,13.48,32.57,13.48,32.57s-14.42-20.05-16.76-26.61
			c-4.35-12.26-3.84-48.47-3.84-48.47S761.9,863.51,764.59,873.3z"/>
		<path class="st3" d="M714.9,859.11c0.34,9.3,7.33,38.55,7.33,38.55s-11.14-28.36-11.91-35.28c-1.44-12.93,6.71-45.76,6.71-45.76
			S714.52,848.96,714.9,859.11z"/>
		<path class="st3" d="M867.62,910.96c-2.45,8.39-5.65,39.93-5.65,39.93s-10.59-21.25-4.08-43.09c4.3-14.44,30.08-50.12,30.08-50.12
			S870.3,901.79,867.62,910.96z"/>
		<path class="st3" d="M747.58,983.26c-2.94,1.44-13.48,10.75-13.48,10.75s6.03-14.51,13.69-18.19c5.06-2.43,18.85,1.38,18.85,1.38
			S750.79,981.68,747.58,983.26z"/>
		<path class="st3" d="M707.48,982.84c-1.86,1.31-8.66,9.49-8.66,9.49s4.19-12.41,9.03-15.75c3.2-2.21,11.58,0.55,11.58,0.55
			S709.51,981.42,707.48,982.84z"/>
		<path id="Path_409" class="st3" d="M642.82,662.07c-5.28,1.06-14.33,3.66-14.33,3.66s15.77,1.84,21.46,0.29
			c4.71-1.28,1.51-3.71,1.51-3.71C648.61,661.61,645.66,661.52,642.82,662.07z"/>
		<path id="Path_408" class="st3" d="M701.56,657.76c0,0,0.93-3.55-7.02-5.04c-9.63-1.81-30.85-1.83-30.85-1.83
			s13.41,2.28,22.27,3.53C691.3,655.24,696.51,656.36,701.56,657.76z"/>
		<path class="st3" d="M717.18,644.77c2.55-0.49,11.78,2.82,11.78,2.82s-8.16-6.28-11.93-5.18c-4.15,1.21-6.44,7.54-6.6,8.48
			C710.43,650.9,714.77,645.23,717.18,644.77z"/>
		<path class="st3" d="M837.93,980.65c-3.16,1.22-14.39,9.33-14.39,9.33s6.17-12.94,14.42-16.04c5.45-2.05,20.57,1.76,20.57,1.76
			S841.38,979.32,837.93,980.65z"/>
	</g>
	<g id="Layer_6">
		<path class="st3" d="M848.2,921.3C848.23,921.12,848.23,921.11,848.2,921.3L848.2,921.3z"/>
		<path class="st3" d="M832.32,898.25l0.88,1.28c-0.08,0.08-0.16,0.16-0.25,0.24C832.75,899.26,832.54,898.76,832.32,898.25z"/>
		<path class="st3" d="M848.2,921.3C848.23,921.12,848.23,921.11,848.2,921.3L848.2,921.3z"/>
		<path class="st7" d="M958.87,986.31c-0.89,4.77-17.71,4.7-17.71,4.7s5.09-16.44,8.11-20.24c17.88-22.46,22.81-37.35,22.81-37.35
			S962.58,966.54,958.87,986.31z"/>
		<path class="st7" d="M751.82,876.95c1.23,10.22,5.63,28.45,10.6,39.67c4.79,10.8-1.42,36.78-1.42,36.78s-20.46-44.06-24.79-59.61
			c-5.23-18.8-11.58-77.07-11.67-77.16c-0.08-0.1,9.38,12.41,25.23,21.6C749.78,838.23,750.37,864.82,751.82,876.95z"/>
		<path class="st7" d="M700.07,707.78c-7.46,3.42-32.54,6.68-32.54,6.68s26.74,1.86,35.19-2.7c6.13-3.3,15.32-27.05,15.32-27.05
			S705.73,705.18,700.07,707.78z"/>
		<path class="st7" d="M850.58,895.59c0,0-16.34-6.51-24.52-34.74c-1.16-4.01-3.63,14.91,6.26,37.39l12.28,17.97L850.58,895.59z"/>
		<path class="st5" d="M846.86,933.43c-5.69-7.88-10.2-10.2-10.2-10.2c1.08-14.67-4.35-24.97-4.35-24.97l15.89,23.05L846.86,933.43z
			"/>
	</g>
</g>
<g id="Layer_3_1_">
	<g id="Layer_6_1_">
		<path class="st4" d="M113.64,287.95c0,0-11.44,7.03-16.79-1.03c-3.62-5.46,2.87-13.61,2.87-13.61s-7.86-8.34-2.87-15.48
			c4.47-6.39,15.04-3.44,15.04-3.44s-4.78-9.17,5.3-12.75c9.19-3.27,10.17,6.74,10.17,6.74s2.84-8.81,11.03-4.45
			c7.84,4.18,2.87,12.18,2.87,12.18s-13.34,6.15-19.18,12.64C115.05,276.6,113.64,287.95,113.64,287.95z"/>
	</g>
	<g id="Layer_3_2_">
		<path class="st6" d="M90.21,410.51c1.73-5.89,3.52-23.61,3.52-23.61s59.99-6.79,71.72-12.88c0.5-0.26-0.43,5.63-2.59,9.17
			c-0.69,1.13-2.38,3.42-7.75,5.41c-11.82,4.39-52.89,3.49-52.89,3.49s-8.37,36.39-12.31,39.88c-1.58,1.41-3.12,2.87-6.17,2.87
			c-2.38,0-4.72-2.51-4.72-2.51C85.92,427.09,88.52,416.24,90.21,410.51z"/>
	</g>
	<g id="Layer_2_2_">
		<path class="st4" d="M378.04,166.48c-3.68-17.38,1.21-21.47-0.93-24.94c-3.51-5.67-32.98-12.22-55.06-32.12
			c-24.48-22.06-43.48-51.16-39.51-58.12c3.06-5.36,18.3,5.07,18.3,5.07s-6.32-15.14-1.99-17.94c5.92-3.83,43.84,26.04,56.4,38.71
			c11.73,11.83,31.29,49.36,31.29,49.36c18.92-6.27,39.88,4.41,51.72,12.27c13.52,8.98,46.13,49.31,38.23,65.11
			s-38.21,12.38-44.13,15.85c-5.92,3.47,10.42,6.69,17.32,17.55c6.91,10.86,12.26,33.72,2.98,54.26
			c-0.72,1.59-10.71,3.93-10.99-2.75c-0.24-5.68-3.41-6.82-3.41-6.82s-5.69,11.44-8.71,12.8c-4.98,2.25-10.15,7.21-15.5,0.97
			c-3.92-4.58-5.65-11.63-3.14-33.87c0.54-4.81-12.88,3.31-16.53,4.73c-24.9,9.75-43.09,50.2-76.68,60.2
			c-27.04,8.05-97.25-16.94-130.19,6.85c-11.25,8.12-15.55,39.08-29.01,48.9c-12.17,8.88-64.78,4.33-64.78,4.33
			s-2.85,44.98-16.67,52.88s-16.52-3.27-16.67-7.71c-1.13-33.71,4.03-65.02,15.58-67.17c11.39-2.12,21.45,1.04,42.02-6.5
			c15.74-5.77,19.05-24.28,10.78-29.88c-12.13-8.2-13.75-15.38-16.16-21.87c-3.88-10.47-0.52-33.85,6.01-42.3
			c9.9-12.81,41.62-25.39,57.15-24.41c32.16,2.05,75.45,9.56,98,0c21.74-9.22,50.85-49.87,70.72-62.62
			C351.89,172.57,378.04,166.48,378.04,166.48z"/>
	</g>
	<g id="Layer_4_1_">
		<path class="st6" d="M431.77,222.6c0,0,21.07,32.21,6.49,59.38c-2.38,4.44,1.82,13.32,7.51,13.78
			c10.22,0.84,20.77-7.68,11.47-40.36C452.28,237.98,449.09,230.71,431.77,222.6z"/>
	</g>
	<g id="Layer_5_1_">
		<path class="st6" d="M183.61,337.66c0,0,28.94-34.62,61.32-31.68c12.88,1.17,21.72,7.29,33.87,13.03
			c12.1,5.72,22.38,9.45,22.38,9.45s3.93,1.13-48.5-4.31C198.67,318.54,183.61,337.66,183.61,337.66z"/>
		<path class="st3" d="M301.18,328.47c0,0-37.96-11.44-34.44-11c21.55,2.72,55.75-6.68,59.71-10.36
			c8.12-7.53,24.98-23.01,35.93-27.99c5.68-2.58,23.62-8.01,23.62-8.01c-11.21,7.29-31.75,34.69-51.16,47.44
			C313.95,332.29,301.18,328.47,301.18,328.47z"/>
		<path id="Path_6" class="st8" d="M430.62,167.34c-6.8-1.85-13.95-1.97-20.81-0.35c0.27-9.07,5.01-16.29,10.68-16.2
			C426.16,150.88,430.65,158.26,430.62,167.34z"/>
		<path id="Path_7" class="st9" d="M452.61,173.55c-4.7-3.58-10.12-6.1-15.89-7.38c-0.56-0.2-1.18-0.16-1.71,0.1
			c-2.17,1.49-1.69-0.38-3.36,1.66c-7.42-3.27-9.48-1.04-17.36-2.97c-0.99-0.36-2.08-0.35-3.06,0.01c-0.92,0.48-1.82-0.05-0.92,0.48
			c-1.51-1.89-4.16-1.91-6.3-0.76c-2.14,1.15-2.09-1.01-7.9-0.78c-6.11,1.15-9.39,3.43-10.99,8.69c-2.42,5.43-1.92,9.41-7.63,11.71
			l10.61,0.73l-6.93,9.87c3.72-1.62,7.62-2.77,11.62-3.42c-1.39,5.43-3.76,10.57-7.02,15.14c8.33-1.13,16.41-3.68,23.87-7.55
			c-1.14,2.11-1.73,4.48-1.72,6.89c0.09,2.47,2,4.5,4.46,4.75c1.29-0.14,2.51-0.64,3.54-1.42c5.05-3.2,9.99-6.56,14.83-10.06
			c-1.2,2.53-0.12,5.55,2.42,6.74c0.52,0.24,1.07,0.4,1.64,0.46c2.04-0.16,3.96-1,5.46-2.4c5.46-4.2,10.21-9.24,14.09-14.94
			c-1.04,1.39-1.34,3.21-0.81,4.86c2.88-1.76,5.36-4.12,7.26-6.91c1.89-2.9,1.74-6.68-0.37-9.41
			C457.43,174.42,455.17,177.12,452.61,173.55"/>
		<ellipse id="Ellipse_12" class="st3" cx="419.81" cy="159.16" rx="3.63" ry="3.63"/>
		<path class="st8" d="M474.51,189.57c1.96,0.04,3.02,0.33,3.86,1.63c1.48,2.27,0.7,11.84-1.88,12.68c-0.9,0.29-2.06-0.74-2.72-3.08
			c-0.46-1.62-0.23-2.29-1.09-3.17c-0.72-0.73-3.9-0.39-4.78-0.89c-0.6-0.34-2.69-3.88-2.32-5.12
			C465.98,190.3,472.06,189.52,474.51,189.57z"/>
		<path class="st3" d="M140.54,245.42c-6.04,2.09-17.73,8.65-21.53,13.79c-5.98,8.11-10.23,19.74-10.23,26.95
			c0,9.55,3.81,20.5,3.81,20.5c9.7-40.78,24.57-40.78,47.23-45.52c28.73-6.01,47.45-0.31,61.28,0.57
			c15.27,0.97,40.39-7.69,52.12-14.34c11.15-6.32,29.87-21.68,38.3-30.57c8.33-8.77,30.32-37.66,30.32-37.66
			c-20.1,13.21-35.81,34.78-49.89,43.47c-11.39,7.02-36.28,18.45-49.53,20.29c-17.51,2.44-61.62-5.09-70.62-3.9
			C163.37,240.12,148.96,242.51,140.54,245.42z"/>
		<path class="st5" d="M140.54,245.42c-6.04,2.09-17.73,8.65-21.53,13.79c-5.98,8.11-10.23,19.74-10.23,26.95
			c0,9.55,3.81,20.5,3.81,20.5c9.7-40.78,24.57-40.78,47.23-45.52c28.73-6.01,47.45-0.31,61.28,0.57
			c15.27,0.97,40.39-7.69,52.12-14.34c11.15-6.32,29.87-21.68,38.3-30.57c8.33-8.77,30.32-37.66,30.32-37.66
			c-20.1,13.21-35.81,34.78-49.89,43.47c-11.39,7.02-36.28,18.45-49.53,20.29c-17.51,2.44-61.62-5.09-70.62-3.9
			C163.37,240.12,148.96,242.51,140.54,245.42z"/>
		<path class="st7" d="M103,380.03c1.66-0.31,42.36,2.01,48.55-1.9c7.64-4.82,16.17-32.31,16.17-32.31s-18.77,1.31-22.72,5.63
			c-3.57,3.91-4.4,11.98-7.92,15.95C134.06,370.79,103,380.03,103,380.03z"/>
		<path class="st6" d="M93.71,386.9c0.22-3.19-2.04-11.13-2.04-11.13s4.52,6.51,4.52,9.04c0,2.28,0,2.28,0,2.28
			S93.68,387.52,93.71,386.9z"/>
		<path class="st6" d="M410.88,261.22c-1.75-5.91,5.89-23.2,5.89-22.89s-5.79,10.11-6.95,14.9c0,0-1.39,3.17-0.69,7.16
			C409.13,260.39,411.01,261.69,410.88,261.22z"/>
		<path class="st6" d="M379.85,129.42c0,0-25.45-32.56-40.27-44.02c-9.01-6.97-42.19-27.24-46.24-22.94
			c-3.74,3.98,24.96,30.6,33.36,38.16C343.6,115.83,379.85,129.42,379.85,129.42z"/>
		<path id="Path_7_1_" class="st9" d="M196.04,253.92c-5.91-2.95-8.88-1.11-18.38-3.82c-6.9-3.52-19.78-0.13-25.6,0.1
			c-6.48-0.64-14,1.68-21.22,7.44c-5.91,4.81-10.27,20.13-10.27,20.13s17-13.2,20.33-9.85l-13.81,14.82
			c3.72-1.62,24.9-10.13,28.9-10.79c-1.39,5.43-20.94,19.67-24.19,24.24c8.33-1.13,28.4-12.01,30.29-10.82
			c2.04,1.28-8.42,15.89-8.42,15.89s22.53-9.9,27.37-13.4c-1.2,2.53-9.43,12.74-9.43,12.74s12.6-2.12,18.94-7.94
			c5.46-4.2,9.73-13.71,9.73-13.71l0.21,9.65c0,0,10.35-8.1,12.26-10.89c1.89-2.9,2.97-5.74,1.22-11.52c-3-3.21-3.26-3.55-6.61-6.4
			C204.69,257.51,200.42,256.11,196.04,253.92z"/>
	</g>
	<g id="Layer_7">
		<path class="st3" d="M242.43,305.83c0,0,22.11,22.07,56.69,14.02c26.59-6.18,74.98-44.97,74.98-44.97s-31.87,7.7-42.18,11.27
			c-8.52,2.96-28.92,12.46-33.3,13.88C285.18,304.39,242.43,305.83,242.43,305.83z"/>
		<path class="st5" d="M242.5,305.65c0,0,23.57,23.13,57.3,14.02c26.36-7.12,74.36-44.97,74.36-44.97s-31.87,7.7-42.18,11.27
			c-8.52,2.96-28.92,12.46-33.3,13.88C285.26,304.22,242.5,305.65,242.5,305.65z"/>
		<path class="st6" d="M287.45,327.59c-8.48-0.2-25.19,3.46-26.57,1.36c-1.01-1.52,7.24-2.82,4.05-3.6
			c-3.34-0.82-16.59,5.81-18.93,3.6c-1.54-1.46,1.73-2.59,0.45-3.33c-4.42-2.55-11.92,3.67-14.51,1.53c-2-1.65,1.56-3.97-1.41-3.9
			c-2.76,0.08-8.42,4.45-11.58,3.56c-1.96-0.55-1.51-2.79-3.5-2.32c-5.49,1.3-6.1,6.27-10.48,5.02c-6.01-1.72-9.1,0.1-9.1,0.1
			l28.21-14.47C224.08,315.16,292.65,327.71,287.45,327.59z"/>
		<path class="st4" d="M386.01,271.12c-1.89,3.38-18.15,27.73-22.02,27.71c-1.53-0.01-0.18-2.96-1.21-1.94
			c-1.5,1.49-1.66,9.32-5.15,8.93c-1.46-0.16-0.76-3.21-1.81-2.17c-1.2,1.2-3.1,10.82-7.08,10.42c-1.39-0.14-1.17-3.54-2.2-2.6
			c-1.13,1.03-4.92,12.35-8.65,11c-1.55-0.56,0.14-4.52-0.87-3.23c-2.33,2.97-5.89,11.63-9.78,9.75c-1.49-0.72,2.54-7.35,1.11-6.51
			c-3.62,2.12-13.36,12.92-17.09,10.19c0,0,3.59-2.94,2.81-3.67c-2.4-2.25-10,4.92-12.83,3.21c0,0,1.88-1.44,1.22-2.44
			c-2.1-3.19-10.43,0.67-12.62-1.15c0,0,2.76-1.49,2.12-2.33c-2.04-2.68-11.24,2.25-12.58-0.84c0,0,2.42-1.55,1.44-1.97
			c-3.6-1.53-8.41-0.65-8.54-2.83c0,0,6.54,0.99,8.74,1.13c10.2,0.65,40.88,0,40.88,0S388.7,266.3,386.01,271.12z"/>
		<path class="st3" d="M380.39,274.06c-4.73,3.32-13.88,17.98-17.01,17.96c-1.24-0.01-0.14-2.4-0.98-1.57
			c-1.21,1.2-1.34,7.54-4.16,7.21c-1.18-0.14-0.62-2.6-1.46-1.75c-0.98,0.98-2.51,8.75-5.72,8.41c-1.13-0.12-0.94-2.86-1.77-2.1
			c-0.92,0.83-3.97,9.98-6.99,8.89c-1.24-0.45,0.12-3.66-0.71-2.62c-1.89,2.4-4.76,9.39-7.91,7.88c-1.2-0.58-0.89-3.01-2.04-2.34
			c-2.93,1.72-8.85,11.27-11.86,9.05c0,0,1.14-3.48,0.51-4.07c-0.82-0.77-2.18,2.58-5.51,2.76c-4.22,0.23-7.67,4.32-10.89,1.28
			c-4.84-4.56,26.6-15.34,26.6-15.34S384.04,271.5,380.39,274.06z"/>
	</g>
	<g id="Layer_9">
		<path class="st4" d="M340.33,294.7c-1.6,0.82-2.25-3.73-4.66-1.81c-8.54,6.78-20.16,18-20.7,16.86
			c-0.62-1.3,8.08-13.29,6.16-13.93c-4.62-1.55-21.05,18.76-22.94,18.21c-2.8-0.81,4.41-12.1,1.79-11.52
			c-4.58,1.03-15.58,11.53-17.43,10.76c-1.85-0.77,4.58-7.04,2.55-7.6c-5.09-1.42-14.11,4.92-15.57,4.54
			c-1.21-0.31,1.19-2.58,0.38-4.41c-1.26-2.83-12.16,1.83-10.63,0c7.16-8.54,35.88-13.83,44.8-16.23
			c9.79-2.64,28.52-3.69,67.11-14.13c2.24-0.6-13.06,8.37-16.36,8.44C346.29,284.07,343.75,292.94,340.33,294.7z"/>
		<path class="st3" d="M433.38,234.64c0,0,5.66,20.51,6.08,27.37c0.31,4.98-3.33,14.7-8.36,18.15c-4.54,3.1-12.39,1.91-12.39,1.91
			l9.29-12.42c0,0-9.69,5.03-11.24,3.18l9.33-15.69c0,0-6.18,1.61-7.38,0c0,0,6.57-6.22,9.41-10.25
			C431.45,242.19,433.38,234.64,433.38,234.64z"/>
		<path class="st3" d="M81.81,381.51c-0.29,11.23-9.03,19.17-9.03,19.17c0.52,1.91,8.43,4.22,8.43,4.22l-8.43,5.72
			c1.33,1.29,7.73,1.96,7.73,1.96c1.39,1.5-3.78,7.27-3.78,7.27c6.76-1.42,9-7.84,10.09-11.41c1.21-3.95,1.1-10.49,0.11-14.51
			C86.35,391.55,81.81,381.51,81.81,381.51z"/>
		<path class="st3" d="M350.35,182.55c-12.38,9.66-35.08,52.09-35.08,52.09s23.67-11.09,32.79-35.13
			c6.38-16.82,23.35-24.98,23.35-24.98S357.01,177.35,350.35,182.55z"/>
		<path class="st3" d="M403.18,126.58c11.46-0.22,36.19,16.93,36.19,16.93s-29.78-15.86-52.04-12.5
			C387.33,131,397.9,126.68,403.18,126.58z"/>
	</g>
</g>
<g id="Layer_2">
	<text transform="matrix(1 0 0 1 303.6971 440.8622)"><tspan x="0" y="0" class="st10 st11 st12">designing my</tspan><tspan x="-283.86" y="129.12" class="st10 st11 st12">website and brand</tspan></text>
	<rect class="st13" width="1024" height="1024"/>
</g>
</svg>
