<?xml version="1.0" encoding="utf-8"?>
<!-- Generator: Adobe Illustrator 24.1.2, SVG Export Plug-In . SVG Version: 6.00 Build 0)  -->
<svg version="1.1" id="Layer_1" xmlns="http://www.w3.org/2000/svg" xmlns:xlink="http://www.w3.org/1999/xlink" x="0px" y="0px"
	 viewBox="0 0 291.62 554.36" style="enable-background:new 0 0 291.62 554.36;" xml:space="preserve">
<style type="text/css">
	.st0{fill:#FFFFFF;}
	.st1{fill:#EDBE96;}
	.st2{fill:#BC7F4C;}
	.st3{fill:#FFFFFF;stroke:#FFFFFF;stroke-width:0.5;stroke-miterlimit:10;}
	.st4{fill:#A87119;}
	.st5{fill:#EDBE96;stroke:#D39AA7;stroke-miterlimit:10;}
	.st6{fill:#EDBE96;stroke:#EDBE96;stroke-width:0.75;stroke-miterlimit:10;}
</style>
<g id="Layer_11" transform="translate(83.856 99.617)">
	<path id="Path_1" class="st0" d="M163.5,206.64c1.27,24-11.88,45.34-19.71,52.08c-0.93,0.57-1.61,0.97-2,1.19
		c-0.03,0.02-0.06,0.03-0.09,0.05l17.39-66.48l7.36-25.18l0.4,0.05C166.32,177.6,162.75,192.4,163.5,206.64z"/>
</g>
<g id="Layer_3" transform="translate(0 0)">
	<path id="Path_2" class="st1" d="M189.62,540.41c-0.05-0.05-0.09-0.1-0.13-0.15c0.25-4.34-0.05-8.7-0.91-12.97
		c0.02-0.05,0.05-0.11,0.08-0.16c0.39-0.84,0.81-1.71,1.25-2.6c0.48-0.7,1.03-1.44,1.66-2.23c4.06-5.56,7.71-11.4,10.92-17.48
		c0.02-0.05,0.05-0.08,0.07-0.13c0.34-0.62,0.7-1.25,1.04-1.88c0.02-0.03,0.03-0.07,0.06-0.1c5.9-10.85,12.34-24.13,17.81-36.8
		c0.04-0.06,0.07-0.13,0.1-0.2c2.39-5.27,4.59-10.62,6.48-16.03c0.4-1.15,0.81-2.32,1.18-3.5c0-0.02,0-0.03,0-0.05
		c2.48-7.48,4.15-15.2,4.96-23.04l0,0c0.01-0.1,0.02-0.2,0.02-0.3l0.03-0.31l0,0c0.1-0.07,0.65-0.42,1.42-0.98
		c0.24-0.05,0.49-0.08,0.73-0.08c0.49,0.01,0.97,0.22,1.31,0.57l0,0c0.12,0.11,0.22,0.24,0.3,0.39c0.11,0.15,0.2,0.32,0.27,0.49l0,0
		c0,0.75-0.02,1.5-0.05,2.25c-6.05,16.89-17.78,50.79-25.42,79.98c3.07-6.55,6.33-13.53,9.46-20.78c0.51-1.2,1.03-2.4,1.53-3.62
		c0.2-0.47,0.4-0.94,0.59-1.4c0.47-1.14,0.94-2.29,1.39-3.44c0.1-0.25,0.2-0.5,0.3-0.74c0.32-0.79,0.63-1.58,0.93-2.36
		c0.72-1.84,1.4-3.69,2.08-5.55c-5.25,15.66-11.37,31.01-18.32,45.99c-2.64,9.99-4.39,20.2-5.21,30.5
		c-0.02,0.57-0.09,1.14-0.22,1.69c2.06,2.51,4.85,4.32,7.97,5.19c0.17,0,0.33,0.02,0.5,0.02c0.79,0,2.11,0.05,3.86,0.11
		c17,0.62,74.46,3.26,73.96-11.3c-0.75-22.22-9.6-31.61-15.19-37.19c-1.71-1.44-3.16-3.15-4.3-5.07c-0.18-0.38-0.27-0.8-0.29-1.22
		c-1.39-81.32-27.53-78.32-26.36-81.71l0,0c0-0.01,0-0.03,0-0.05c0-0.01,0-0.02,0-0.02c4.32-12.68,0.45-47.68,2.66-52.47
		c4.65-10.08,19.63-15.68,23.59-45.58c3.83-28.9-13.68-54.08-18.09-59.86c-0.05-0.07-0.09-0.13-0.14-0.18l0,0
		c-0.02,0.08-0.04,0.16-0.05,0.24c-0.01,0.02-0.02,0.05-0.02,0.08c-0.16,0.7-0.31,1.4-0.45,2.14v0.05
		c-4.21,23.13,4.15,64.87-2.42,77.73c-5.35,10.41-17.78,18.86-22.96,22.07c-0.93,0.57-1.61,0.97-2,1.19
		c-0.03,0.02-0.06,0.03-0.09,0.05c-0.16,0.1-0.24,0.15-0.24,0.15l17.48-66.82l7.31-25.01l0.05-0.17l0.4,0.05l0.16,0.02l0.43,0.06
		c0,0,0.58-4.35,1.46-8.5l0.96-3.3c-0.06-0.07-0.1-0.15-0.13-0.24c-1.21-3.2,9.88-18.51,13.23-21.48c3.44-3.04,1.39-9.1,1.65-13.67
		c0.01-0.26,0.05-0.52,0.11-0.77c0-0.02,1.33,3.36,1.33,3.33c1.3-3.02,2.86-5.92,4.65-8.67c4.45-10.35-0.25-29.38-3.33-33.98
		c-5.63-9.35-13.19-17.39-22.19-23.57c-9.25-6.24-54.74-26.48-54.74-26.48c-1.48-1.42-0.82-11.87,0.05-14.23
		c0.93-2.5,45.8-137.9,21.22-113.32S170.21,64.1,163.56,82.7s5.29,46.78,1.08,49.8c-4.06,1.85-8.3,3.27-12.66,4.23
		C149.35,120.49-5.36,42.88,0.14,72.08c7.05,37.33,55.57,76.29,76.75,83.11c15.49,4.99,44.74,8.72,56.77,17.96
		c2.4,1.65,4.19,4.05,5.06,6.83c0.49,1.97,0.38,4.05-0.32,5.96c-0.42,0.82-0.9,1.61-1.43,2.36c-5.93,8.81-10.89,18.24-14.79,28.11
		c-3.7,11.25-6.38,22.8-8.02,34.52c-0.08,0.44-0.2,0.87-0.36,1.29c-3.55,7.17-19.26,1.12-16.41,56.72c0.07,1.34,0.04,2.68-0.08,4.01
		c-1.83,20.46-26.06,30.97-39.56,86.87c-14.33,59.47-6.96,101.92-6.96,101.92c-3.86,19.33,6.28,29.48,6.28,29.48
		c9.05,7.06,20.49,10.35,31.91,9.17c1.4-0.07,2.8,0.15,4.11,0.63c8.17,2.57,20.6,11.98,23.98,12.42
		c10.94,1.43,63.71,1.45,69.51-1.93c4.59-2.67,3.74-8.07,3.18-10.22 M161.69,495.94c-0.57-0.22-0.81-1.42-0.83-3.41
		c0.1,1.75,2.12,3.41,4.85,5.08C164.44,497.03,163.09,496.47,161.69,495.94z M211.18,421.25c-0.39,0.32-0.81,0.61-1.26,0.86
		c-0.09,0.06-0.18,0.11-0.27,0.16c-1.03,0.56-2.13,0.99-3.28,1.26c-0.1,0.03-0.2,0.06-0.3,0.08l0,0
		c-8.96,1.35-17.97-2.09-23.75-9.06c-0.01-0.03-0.03-0.06-0.06-0.08c-1.87-2.34-3.1-5.13-3.56-8.09
		c-1.86-12.31-2.74-28.53-7.6-35.45c-0.13-0.19-0.26-0.37-0.41-0.54c-0.72-0.96-1.65-1.74-2.73-2.27
		c-7.71-3.58-12.93,0.56-21.74-1.1c-7.67-1.44-8.66,0.25-19.65-8.16c-0.08-0.07-0.17-0.13-0.25-0.19h64.25
		c0,0.07,0.02,0.13,0.03,0.19c2.04,12.37,3.77,21.92,6.19,24.96c0.05,0.06,0.1,0.12,0.15,0.18c0.15,0.18,0.33,0.34,0.51,0.48
		c1.18,0.86,5.58-3.38,10.69-8.63c-0.14-0.22-0.29-0.43-0.43-0.64c-0.1-0.15-0.22-0.3-0.34-0.45c-0.89-1.2-2.1-2.14-3.5-2.69
		c-1.16-0.46-2.17-1.21-2.96-2.18c-0.14-0.16-0.27-0.33-0.4-0.5c-0.02-0.02-0.04-0.05-0.06-0.08c-2.17-3.25-3.76-6.85-4.7-10.65
		h8.18c0.03,0.07,0.07,0.13,0.1,0.19c0.35,0.72,0.75,1.42,1.2,2.09c0.1,0.16,0.2,0.31,0.31,0.46c0.16,0.24,0.33,0.46,0.5,0.68
		c0.81,1.09,1.91,1.94,3.17,2.46c1.41,0.56,2.63,1.5,3.52,2.73c0.15,0.18,0.3,0.37,0.43,0.57c0.38,0.56,0.73,1.15,1.05,1.75
		c0.03,0.08,0.08,0.15,0.11,0.23c6.35,12.52,4.41,42.09-2.07,50.27c-0.02,0.03-0.05,0.06-0.07,0.09
		C211.9,420.57,211.56,420.93,211.18,421.25z"/>
	<path id="Path_3" class="st0" d="M165.71,497.62c-1.27-0.59-2.62-1.15-4.03-1.68c-0.57-0.22-0.81-1.42-0.83-3.41
		C160.96,494.29,162.99,495.94,165.71,497.62z"/>
	<path id="Path_4" class="st0" d="M214.36,369.82c-2.03,2.08-4.1,4.23-6.07,6.24c-0.18-0.29-0.38-0.57-0.58-0.83
		c-0.1-0.15-0.22-0.3-0.34-0.45c-0.89-1.21-2.1-2.14-3.5-2.69c-1.35-0.56-2.51-1.49-3.35-2.69c-0.02-0.02-0.04-0.05-0.06-0.08
		c-2.08-3.21-3.62-6.74-4.55-10.45h8.13c0.35,0.72,0.75,1.42,1.2,2.09c0.09,0.16,0.2,0.31,0.31,0.46c0.16,0.24,0.33,0.46,0.5,0.67
		c0.83,1.18,1.98,2.1,3.31,2.65c1.33,0.53,2.49,1.4,3.37,2.54c0.15,0.18,0.3,0.37,0.43,0.57c0.38,0.56,0.73,1.15,1.05,1.75
		C214.29,369.67,214.33,369.74,214.36,369.82z"/>
	<path id="Path_5" class="st1" d="M50.74,481.05c-1.85-1.9-4.64-0.42-6.23,1.84c-2.05,3.08-3.03,6.75-2.81,10.45
		c-2.95,2.83-4.82,6.59-5.29,10.64c-0.31,4.34,2.37,9.17,5.65,8.62c-2.83,3.46-3.61,8.15-2.07,12.34c1.07,3.79,4.95,6.04,8.77,5.08
		c-1.49,2.55-1.12,5.78,0.92,7.92c1.85,1.54,4.32,2.13,6.67,1.58c2.93-0.18,5.61-1.73,7.21-4.2c2.67-4.57,0.88-11.11-0.99-16.31
		L48.69,480.4"/>
	<path id="Path_6" class="st2" d="M192.03,173.65c-8.93,0.81-17.52,3.84-24.98,8.81c-3.71-10.94-1.25-21.66,5.56-24.06
		C179.43,156,188.06,162.8,192.03,173.65z"/>
	<path id="Path_7" class="st3" d="M208.06,172.51c-5.44-1.65-11.17-2.11-16.8-1.33c-0.57,0.01-1.11,0.25-1.5,0.67
		c-1.46,2.07-1.65,0.23-2.47,2.63c-7.8-0.45-8.9,2.24-16.65,3.15c-1.01,0.01-1.99,0.37-2.75,1.04c-0.67,0.75-0.48,2.24,0.5,2.42
		c-2.22-0.91-4.77-0.18-6.19,1.75c-1.54,1.75-2.47,3.98-4.08,5.66c-1.43,1.5-3.33,2.49-4.84,3.91c-4.32,4.06-4.94,11-9.32,15
		l9.82-2.9l-2.93,11.22c2.81-2.71,5.94-5.06,9.32-6.99c0.57,5.37,0.15,10.79-1.25,16c7.13-3.81,13.55-8.82,18.98-14.81
		c-0.32,2.29-0.05,4.62,0.76,6.79c0.91,2.2,3.31,3.39,5.62,2.79c1.11-0.56,2.05-1.42,2.72-2.47c3.47-4.58,6.81-9.26,10-14.05
		c-0.23,2.68,1.75,5.04,4.43,5.27c0.55,0.05,1.1,0,1.63-0.14c1.78-0.83,3.24-2.23,4.12-3.99c3.51-5.62,6.11-11.76,7.69-18.19
		c-0.47,1.6-0.13,3.34,0.9,4.65c2.01-2.55,3.45-5.51,4.23-8.66c0.73-3.25-0.67-6.6-3.5-8.36c-3.79-1.88-8.88,0.69-12.37-1.68"/>
</g>
<g id="Layer_4" transform="translate(41.756 135.313)">
	<path id="Path_8" class="st0" d="M158.96,402.73c0.48-0.7,3.26-11.03,3.89-11.83c2.96-3.77,20.42-45.45,24.61-53.07
		c-12.66-4.11-51.13,23.1-62.6,22.49l16.56,20.59l6.46,24.17L158.96,402.73z"/>
	<path id="Path_9" class="st0" d="M192.46,287.47c-2.96,1.93-2.99,14.32-4.99,23.35c0,0,0,0.02,0,0.05"/>
	<path id="Path_10" class="st0" d="M185.38,340.46c-5.47,12.67-17.44,16.26-23.34,27.11c-0.07-0.04-0.14-0.07-0.21-0.09
		c-1.11-0.54-2.23-1.06-3.37-1.57c-2.05-0.57-4.25-0.13-5.94,1.16c-5.45,3.14-11.48,9.84-14.34,5.28c-2.11-2.67-4.79-4.84-7.84-6.36
		c-2.07-1.21-4.21-2.35-6.07-3.47c-0.11-0.08-0.23-0.15-0.33-0.22c-2.73-1.68-4.75-3.34-4.85-5.08
		c-0.22-13.58,9.79-63.68-4.09-80.62c-10.56-12.88-23.54-21.52-42.78-22.99c-1.86-0.14-1.99-2.06-1.19-4.77
		c2.15-7.26,10.91-20.23,10.91-20.23c8.81,6.94,25.45,10.9,39.38,11.12c15.69,0.25,6.16,39.93,18.53,48.64
		c11.48,8.07,19.9,8.48,24.61,0.12l0,0c0.05-0.09,0.1-0.18,0.15-0.27c0.9-1.72,1.6-3.53,2.1-5.4c1.19,0.78,2.45,1.47,3.75,2.06
		l0.22,0.1c7.57,2.82,15.83,3.18,23.61,1.04c0.29-0.09,0.6-0.09,0.89,0c0.36,0.15,0.2,0.27,0.63,0.46c0.11,0.07,0.21,0.14,0.31,0.22
		c0.31,0.13,0.41,0.21,0.47,0.21c0,0-1.99,17.44-2.96,24.74C192.47,320.53,185.38,340.46,185.38,340.46z"/>
</g>
<g id="Layer_5" transform="translate(49.29 72.352)">
	<g id="Group_2">
		<g id="Group_1" transform="translate(0.267 20.29)">
			<path id="Path_11" class="st0" d="M201.19,173.74c0,0.45-0.02,0.91-0.03,1.4c-0.01,0.06-0.01,0.11,0,0.17l-0.4-0.05l-7.36,25.18
				L176,266.94l-0.09,0.34c-4.04,2.87-7.75,6.18-11.07,9.87c-0.35-0.68-0.75-1.33-1.2-1.94c-0.14-0.21-0.29-0.39-0.43-0.57
				c-0.88-1.13-2.04-2.01-3.37-2.54c-1.33-0.55-2.48-1.47-3.31-2.65c-0.17-0.22-0.34-0.43-0.5-0.68c-0.1-0.15-0.2-0.3-0.31-0.46
				c-0.42-0.68-0.8-1.37-1.15-2.09h-8.18c0.93,3.71,2.47,7.24,4.55,10.45c0.02,0.03,0.03,0.06,0.06,0.08
				c0.14,0.17,0.27,0.34,0.4,0.5c0.8,1.05,1.87,1.87,3.1,2.38c1.31,0.52,2.46,1.39,3.34,2.5c0.13,0.15,0.24,0.3,0.34,0.45
				c0.2,0.27,0.4,0.54,0.58,0.83c-5.11,5.24-9.52,9.48-10.69,8.63c-0.25-0.19-0.47-0.42-0.66-0.67c-0.05-0.06-0.1-0.12-0.15-0.18
				c-2.36-3.28-4.07-12.76-6.08-24.96c-5.43-32.86-13.1-85.41-41.88-89.3c-8.47-1.13-14.99-9.07-15.49-14.86
				c-0.04-0.43-0.04-0.87,0-1.3c0.08-1.86,1.22-3.5,2.92-4.24l113.81,11.95C201.08,170.18,201.31,171.96,201.19,173.74z"/>
			<path id="Path_12" class="st0" d="M144.04,157.02"/>
		</g>
		<path id="Path_13" class="st0" d="M218.07,162.17c-4.68,6.02-8.98,12.33-12.88,18.88c-0.36,0.84-0.66,1.71-0.89,2.59
			c0,0.02,0,0.03,0,0.06c-0.03,0.07-0.04,0.15-0.06,0.23c-0.01,0.02-0.02,0.05-0.02,0.08c-0.27,0.98-0.51,2.07-0.74,3.18
			c-0.88,4.15-1.46,8.5-1.46,8.5l-0.59-0.08l-0.4-0.05l-0.19-0.02l-116.78-14.5l-0.74-0.09c0-10.33,8.72-19.03,8.72-19.03
			c12.58,8.74,28.16,12.02,43.2,9.1c26.16-4.62,70.02-48.79,70.02-48.79l13.93,25.25l0.14,0.25l0.42,0.77
			C219.73,148.5,221.69,158.01,218.07,162.17z"/>
	</g>
</g>
<g id="Layer_8" transform="translate(18.232 64.452)">
	<path id="Path_14" class="st2" d="M124.62,128.86c-9.22,19.69-17.33,39.88-24.3,60.48v0.02c-4.39,12.64-8.83,26.42-13.08,41
		c-22.99,78.75-40.37,180.43-12.22,246.41c-1.32-0.48-2.71-0.7-4.11-0.63c-11.42,1.15-22.83-2.14-31.9-9.17
		c0,0-10.15-10.15-6.28-29.47c0,0-7.38-42.45,6.97-101.92c2.67-11.4,6.4-22.52,11.14-33.22c13.79-30.66,29.43-39.62,28.51-57.67
		c-1.28-24.8,1.14-37.33,4.53-44.24c4.2-8.59,9.91-8.5,11.87-12.47c0.86-1.72,2.47-19.79,8.37-35.82
		c2.08-5.54,4.58-10.91,7.48-16.06c4.41-7.95,8.46-13.61,8.74-14.42c0.71-1.92,0.82-4.02,0.31-6.01c-0.18-0.7-0.45-1.37-0.79-2.01
		c-1.06-1.88-2.52-3.51-4.26-4.77c2.56-0.04,5.09,0.62,7.31,1.9l0.27,0.17C127.58,113.89,129,119.88,124.62,128.86z"/>
	<path id="Path_15" class="st2" d="M59.48,475.83c-7.47-1.13-14.53-4.18-20.47-8.85c0,0-10.15-10.15-6.28-29.48
		c0,0-7.38-42.45,6.97-101.92c2.67-11.4,6.4-22.52,11.14-33.22c-5.65,18.17-10.78,73.1-10.78,73.1S45.04,439.08,59.48,475.83z"/>
	<path id="Path_16" class="st2" d="M135.13,310.02c-0.59,0.06-1.19,0.13-1.78,0.19c-2.67-2.55-5.24-5.17-7.7-7.86
		c-2.4-2.58-4.69-5.23-6.88-7.94c-15.3-18.64-26.09-40.55-31.53-64.04c-2.23-9.82-3.36-19.85-3.37-29.92
		c4.2-8.59,9.91-8.5,11.87-12.47c0.16-0.42,0.27-0.85,0.34-1.29l0,0c1.64-11.72,4.33-23.28,8.02-34.52
		c2.08-5.54,4.58-10.91,7.48-16.06c-5.76,15.46-9.42,31.62-10.88,48.05c-0.16,1.74-0.3,3.46-0.4,5.2v0.02
		c-2.17,36.68,6.45,73.2,24.79,105.05c1.68,2.94,3.45,5.83,5.3,8.67C131.93,305.43,133.5,307.74,135.13,310.02z"/>
	<path id="Path_17" class="st2" d="M201.61,481.79c0.1,2.69-0.74,4.03-1.99,4.67c-1.75-0.07-3.07-0.12-3.86-0.12
		c-0.17,0-0.33,0-0.5-0.02c-3.13-0.68-5.97-2.33-8.11-4.71c0.05-0.16,0.1-0.32,0.14-0.48c0.13-0.56,0.2-1.12,0.22-1.69
		c0.82-10.3,2.56-20.51,5.21-30.5c6.96-14.98,13.08-30.33,18.32-45.99c0.03-0.07,0.06-0.14,0.08-0.22
		c1.95-5.44,3.71-10.97,5.14-16.51c2.24-8.28,3.56-16.78,3.92-25.35c0.02-0.75,0.05-1.5,0.05-2.25l0,0
		c0.08-0.07,0.48-0.38,1.08-0.88c2.5-1.91,4.54-4.36,5.97-7.16C224.86,358.9,200.27,448.25,201.61,481.79z"/>
	<path id="Path_18" class="st4" d="M227.42,350.05c-0.03,0.15-0.08,0.3-0.14,0.44C227.34,350.3,227.39,350.15,227.42,350.05z"/>
	<path id="Path_19" class="st2" d="M258.39,437.98c-15.16-0.23-28.43,2.65-38.12,8.49c7.33-8.26,19.5-12.91,33.83-13.56
		C255.24,434.83,256.69,436.54,258.39,437.98z"/>
	<path id="Path_20" class="st2" d="M147.93,433.39h-0.13c-16.91-0.89-31.76,1.97-42.34,8.34c7.9-8.88,21.39-13.61,37.15-13.64
		c0.02,1.99,0.27,3.19,0.83,3.41c1.4,0.54,2.75,1.08,4.03,1.68C147.64,433.24,147.79,433.32,147.93,433.39z"/>
	<path id="Path_21" class="st4" d="M193.82,442.84c-0.11,0.27-0.24,0.51-0.36,0.77"/>
	<path id="Path_22" class="st4" d="M168.31,468.24"/>
	<path id="Path_23" class="st2" d="M192.71,448.95c-2.64,9.99-4.39,20.2-5.21,30.5c-0.02,0.57-0.09,1.14-0.22,1.69
		c-1.36-1.42-2.62-2.92-3.79-4.5l-0.66-0.02c-0.11-1.2-1.19-2.23-1.27-4.39v-0.02c0.8-2.79,1.75-5.54,2.85-8.24
		c0.42-0.73,0.91-1.52,1.47-2.37C188.42,457.53,190.7,453.31,192.71,448.95z"/>
	<path id="Path_24" class="st4" d="M184.4,463.97c-1.09,2.69-2.04,5.44-2.85,8.24C181.71,469.25,182.7,466.4,184.4,463.97z"/>
	<path id="Path_25" class="st4" d="M187.28,481.14c-0.04,0.16-0.08,0.32-0.14,0.48c-0.98-0.93-1.89-1.93-2.74-2.98
		c-0.79-0.72-1.51-1.52-2.15-2.38c-0.65-0.88-0.61-1.88-0.69-4.03c0.08,2.15,1.15,3.19,1.27,4.39l0.66,0.02
		C184.66,478.22,185.92,479.72,187.28,481.14z"/>
</g>
<g id="Layer_9" transform="translate(28.397 95.276)">
	<path id="Path_26" class="st2" d="M222.37,241.19c-6.29,12.26-22.44,21.82-24.96,23.26c0.65-0.41,1.27-0.87,1.85-1.38
		c7.83-6.74,20.98-28.08,19.71-52.08c-0.75-14.23,2.83-29.05,3.35-38.29l0.59,0.08c0,0,0.58-4.35,1.46-8.5l0.29-1v-0.05l0.66-2.26
		C219.93,183.46,229.2,227.87,222.37,241.19z"/>
	<path id="Path_27" class="st2" d="M224.37,164.27c-0.74,4.2-1.23,8.61-1.23,8.61l-0.5-0.08l-0.33-0.1l0.36-1.5L224.37,164.27z"/>
	<path id="Path_28" class="st2" d="M73.7,211.59c-4.27,1.85-8.35,4.09-12.2,6.69c-0.83,0.56-1.75,1.55-1.22,2.4
		c0.4,0.46,1,0.72,1.61,0.69l5.03,0.54l-8.65,6.19c-1.75,1.03-3.18,2.52-4.14,4.3c-0.91,1.89-0.12,4.16,1.76,5.09
		c-7.34,6.77-10.07,17.19-6.99,26.69c0.02,0.66,0.31,1.29,0.81,1.73c1.03,0.67,2.25-0.51,2.86-1.57c2.15-3.92,4-8,5.53-12.19
		L74,211.78"/>
</g>
<g id="Layer_6" transform="translate(35.653 64.452)">
	<path id="Path_29" class="st1" d="M174.15,358.01c-0.7,2.47-2.02,4.71-3.85,6.51c-8.81,7.16-30.27-0.27-32.48-14.86
		c-2.21-14.59-3.03-34.7-10.73-38.26c-2.94-1.34-6.19-1.82-9.39-1.38c-0.59,0.06-1.19,0.13-1.78,0.19
		c-3.5,0.61-7.07,0.64-10.58,0.09c-8.81-1.66-8.81,0.82-25.31-12.66c-12.28-10.03-16.33-30.52-18.2-48.95
		c-0.64-6.36-1.03-12.46-1.39-17.81c-1.76-25.37,9.95-38.65,18.22-44.21l0,0c1.45-1,3-1.85,4.63-2.54c0.87-0.43,1.82-0.68,2.79-0.73
		c1.79,0.15,5.76,2.8,11.61,6.83c4.94,3.39,11.22,7.77,18.67,12.43c16.25,10.19,13.77,9.92,26.7,28.22
		c9.36,13.24,11.8,45.13,17.23,63.52c2.08,7.05,4.59,12.12,8.1,13.41c1.8,0.76,3.29,2.09,4.26,3.78c-5.11,5.24-9.52,9.48-10.69,8.63
		c-2.8-2.04-4.65-12.26-6.89-25.82H90.81c9.91,7.61,11.81,7.16,17.41,7.94c0.75,0.12,1.58,0.24,2.49,0.41
		c0.79,0.15,1.54,0.25,2.27,0.32c7.48,0.66,12.44-2.48,19.47,0.78c7.71,3.59,8.53,23.67,10.74,38.26
		C145.27,355.93,164.63,363.34,174.15,358.01z"/>
	<path id="Path_30" class="st1" d="M174.15,358.01c-9.53,5.32-28.88-2.08-30.96-15.89c-2.21-14.59-3.03-34.67-10.74-38.26
		s-12.93,0.56-21.74-1.1c-7.72-1.45-8.67,0.27-19.9-8.34h64.25c2.24,13.56,4.09,23.77,6.89,25.82c1.18,0.86,5.58-3.38,10.69-8.63
		C178.89,321.34,178.52,345.65,174.15,358.01z"/>
	<path id="Path_31" class="st1" d="M172.65,311.61c-5.11,5.24-9.52,9.48-10.69,8.63c-2.8-2.04-4.65-12.26-6.89-25.82h5.22
		c2.08,7.05,4.59,12.12,8.1,13.41C170.18,308.58,171.68,309.91,172.65,311.61z"/>
	<path id="Path_32" class="st2" d="M175.67,356.99c-0.48,0.38-0.98,0.72-1.52,1.02c0.05-0.11,0.08-0.24,0.11-0.36
		c4.26-12.46,4.57-36.41-1.61-46.05c1.96-2.01,4.03-4.16,6.07-6.24l0.03-0.03C185.6,318.4,183.07,350.99,175.67,356.99z"/>
	<path id="Path_33" class="st2" d="M231.87,124.04c-3.15,3.27-7.54,5.04-12.08,4.85c-7.8,0-14.11-4.48-14.11-10.01
		c0.11-2.8,1.57-5.37,3.91-6.9c-1.27,1.41-1.98,3.24-2.01,5.14c0,5.52,6.32,10,14.11,10C225.32,127.2,228.89,126.12,231.87,124.04z"
		/>
	<path id="Path_34" class="st4" d="M233.89,118.89c-0.03,1.91-0.75,3.74-2.02,5.15c-2.98,2.08-6.54,3.16-10.18,3.09
		c-7.8,0-14.11-4.48-14.11-10c0.03-1.9,0.74-3.73,2.01-5.14c2.98-2.09,6.56-3.18,10.2-3.11
		C227.57,108.88,233.89,113.36,233.89,118.89z"/>
	<path id="Path_35" class="st2" d="M233.89,118.89c-0.03,1.91-0.75,3.74-2.02,5.15c-2.98,2.08-6.54,3.16-10.18,3.09
		c-7.8,0-14.11-4.48-14.11-10c0.03-1.9,0.74-3.73,2.01-5.14c2.98-2.09,6.56-3.18,10.2-3.11
		C227.57,108.88,233.89,113.36,233.89,118.89z"/>
</g>
<g id="Layer_10" transform="translate(27.925 75.034)">
	<path id="Path_36" class="st5" d="M220.43,126.76"/>
	<path id="Path_38" class="st1" d="M78.43,186.44c-3.13,1.76-6.04,3.9-8.65,6.36c-2.63,2.49-4.3,5.83-4.72,9.43
		c-0.15,0.77,0.08,1.57,0.63,2.13c0.35,0.23,0.75,0.36,1.17,0.37c1.69,0.17,3.38-0.21,4.84-1.08c-5.75,4.73-8.39,12.27-6.85,19.55
		c0.06,0.48,0.28,0.92,0.62,1.26c0.36,0.24,0.8,0.35,1.23,0.31c1.93-0.16,3.7-1.16,4.84-2.73c1.12-1.56,1.97-3.3,2.52-5.14
		c3.47-9.96,5.32-20.42,5.46-30.97"/>
	<path id="Path_39" class="st6" d="M217.22,147.02c-2.42,4.88-6.8,8.51-12.04,9.97c-0.82,0.14-1.6,0.47-2.27,0.97
		c-0.56,0.69-0.99,1.49-1.26,2.33c-1.88,3.95-7.02,4.69-10.98,6.54c-4.27,2.39-7.98,5.68-10.88,9.62c2.42,0.42,4.83-2.82,6.88-1.5
		c1.76,1.13,0.61,3.82-0.54,5.57c-1.15,1.75-1.65,4.84,0.39,5.29c1.03,0.06,2.04-0.35,2.74-1.1l5.46-4.42
		c0.57-0.46,1.34-0.95,1.98-0.58c0.68,0.39,0.59,1.38,0.41,2.15l-3.96,16.94c4.33-0.35,5.95-5.65,7.33-9.77
		c1.58-4.66,4.13-8.93,7.5-12.52c0.88-0.94,2.07-1.9,3.32-1.59c0.72,0.18,1.31,0.77,2.05,0.88c1.44,0.22,2.42-1.41,2.87-2.8
		c1.95-6.19,2.06-13.87,7.49-17.44c-2.38-0.38-3.23-3.48-2.77-5.84c0.83-2.26,1.27-4.65,1.32-7.05c-0.03-0.68-0.4-1.29-0.99-1.64
		c-0.9-0.38-1.84,0.41-2.44,1.18c-2.32,2.97-3.77,6.52-4.2,10.26"/>
	<path id="Path_40" class="st6" d="M175.52,380.2c0.32,2.68-1.59,5.12-4.27,5.44c-1.53,0.19-3.07-0.37-4.13-1.49
		c-1.46-1.54-2.37-4.24-4.49-4.11c-1.68,0.1-2.55,2-3.06,3.6l-2.44,7.66c2-0.61,4.15,0.33,5.07,2.21c0.83,1.85,1.25,3.86,1.21,5.89
		c-0.04,2.03,0.53,4.03,1.61,5.75c2.6-2.46,2.76-7.08,5.92-8.76c1.04-0.42,2.1-0.78,3.17-1.09c2.84-1.57,4.83-4.31,5.45-7.49
		c0.6-3.15,1.81-6.14,3.58-8.81c0.94-1.13,2.15-2.01,3.1-3.13c2.68-3.39,3.31-7.96,1.65-11.94c-0.21-0.72-0.67-1.34-1.3-1.75
		c-1.19-0.43-2.51,0.09-3.09,1.21c-0.52,1.1-0.82,2.3-0.89,3.52c-0.78,5.13-3.39,9.8-7.36,13.14"/>
	<path id="Path_41" class="st6" d="M70.1,242.07c-2.1,7.16-4.11,14.35-6.11,21.54l-4.33,15.51c-1.85,5.01-2.43,10.41-1.68,15.7
		c0.32,1,0.48,2.05,0.48,3.1c-0.15,0.99-0.48,1.94-0.97,2.81c-2.41,4.87-3.6,10.25-3.48,15.68c0.5,3.49,0.69,7.02,0.56,10.54
		c-0.55,4.13-2.9,7.77-4.14,11.75c-1.24,3.98-0.96,9.06,2.51,11.35c-4.66,2.48-6.09,8.56-5.69,13.82s2.13,10.44,1.73,15.7
		c-0.61,3.01-0.8,6.08-0.57,9.14c0.82,2.11,1.37,4.32,1.61,6.57c-0.1,1.61-0.93,3.08-1.14,4.67c-0.03,2.32,0.43,4.62,1.34,6.75
		c1.22,4.09,1.36,8.43,2.32,12.6c0.67,4.27,3.11,8.07,6.72,10.45c0.44,0.3,0.97,0.41,1.49,0.33c0.84-0.22,1.15-1.23,1.3-2.08
		c2.85-15.48,1.78-31.36,1.67-47.1c0.12-33,3.51-65.91,10.11-98.25c2.84-14.7,5.89-30.97-1.8-43.81"/>
	<path id="Path_42" class="st1" d="M173,461.65c0-16.43-21.35-39.32-43.44-39.32s-40,13.32-40,29.76
		c0,16.43,17.46,26.83,39.54,26.83S173,478.08,173,461.65z"/>
</g>
<ellipse id="Ellipse_12" class="st0" cx="173.32" cy="169.71" rx="1.34" ry="4.03"/>
</svg>
