<?xml version="1.0" encoding="utf-8"?>
<!-- Generator: Adobe Illustrator 24.1.2, SVG Export Plug-In . SVG Version: 6.00 Build 0)  -->
<svg version="1.1" xmlns="http://www.w3.org/2000/svg" xmlns:xlink="http://www.w3.org/1999/xlink" x="0px" y="0px"
	 viewBox="0 0 339.47 396.53" style="enable-background:new 0 0 339.47 396.53;" xml:space="preserve">
<style type="text/css">
	.st0{fill:#FFFFFF;}
	.st1{fill:#EDBE96;}
	.st2{fill:#BC7F4C;}
	.st3{fill:#FFFFFF;stroke:#FFFFFF;stroke-width:0.5;stroke-miterlimit:10;}
	.st4{fill:#A87119;}
	.st5{fill:#EDBE96;stroke:#D39AA7;stroke-miterlimit:10;}
	.st6{fill:#EDBE96;stroke:#EDBE96;stroke-width:0.75;stroke-miterlimit:10;}
</style>
<g id="Layer_1">
	<g id="Layer_11_1_" transform="translate(31.346 204.992)">
		<path class="st0" d="M19.06,191.54H5.68c-0.09-0.43-0.17-0.87-0.25-1.31c-0.05-0.27-0.1-0.55-0.15-0.84
			c-0.02-0.12-0.04-0.24-0.06-0.36c-0.08-0.47-0.16-0.93-0.23-1.41c-0.1-0.65-0.19-1.3-0.28-1.96c-0.09-0.75-0.18-1.49-0.26-2.23
			c-0.05-0.52-0.1-1.04-0.14-1.56c-0.01-0.09-0.02-0.18-0.02-0.27c-0.05-0.6-0.09-1.2-0.12-1.8c-0.01-0.16-0.02-0.33-0.03-0.5
			c-0.03-0.6-0.06-1.2-0.07-1.81c-0.02-0.68-0.03-1.37-0.03-2.06c0-1.33,0.04-2.67,0.11-4.02c0.12-2.23,0.15-4.47,0.11-6.71
			c0-0.33-0.01-0.66-0.02-0.99c-0.03-1.36-0.09-2.73-0.17-4.08c-0.03-0.57-0.07-1.13-0.1-1.69c-0.22-3.08-0.53-6.13-0.88-9.1
			c-0.11-0.93-0.23-1.86-0.35-2.78c0-0.01,0-0.02,0-0.02c-0.12-0.92-0.24-1.83-0.37-2.73c0.01-0.01,0-0.01,0-0.02
			c-0.12-0.9-0.24-1.79-0.37-2.67c0-0.01,0-0.01,0-0.01c-0.12-0.88-0.25-1.75-0.37-2.6l-0.18-1.29c-0.18-1.26-0.35-2.49-0.51-3.68
			c0,0,0,0,0-0.01c-0.1-0.79-0.2-1.57-0.3-2.33c-0.05-0.38-0.09-0.76-0.13-1.13c-0.1-0.84-0.19-1.65-0.26-2.44
			c-0.02-0.27-0.05-0.52-0.07-0.78c-0.06-0.69-0.1-1.36-0.14-2l0.48-0.05h0.01l9.04,30.94L19.06,191.54z"/>
	</g>
	<g id="Layer_3_1_" transform="translate(0 0)">
		<path id="Path_2_1_" class="st1" d="M28.49,317.78l-0.01-0.06c-0.17-0.9-0.35-1.77-0.55-2.63c0-0.03-0.01-0.06-0.03-0.09
			c0-0.03-0.01-0.05-0.01-0.08c0-0.03-0.01-0.05-0.01-0.07c-0.01-0.05-0.02-0.1-0.03-0.15c0,0,0,0.01-0.01,0.01
			c0,0.01,0,0.01-0.01,0.01c-0.04,0.06-0.1,0.14-0.16,0.22c-5.4,7.1-26.93,38.05-22.22,73.57c0.38,2.85,0.83,5.51,1.36,8.02h21.56
			C27.45,374.13,32.42,339.37,28.49,317.78z M152.68,168.03c0,0-12.39-2.97-15.55-5.2c-5.2-3.71,9.48-38.34,1.3-61.2
			c-8.17-22.85-33.47-67.76-63.68-97.97c-30.22-30.21,24.93,136.19,26.07,139.27c1.07,2.91,1.88,15.75,0.06,17.49
			c0,0-55.91,24.88-67.28,32.55c-12.43,8.37-19.4,17.14-27.27,28.96c-3.77,5.66-9.56,29.05-4.09,41.77
			c0.74,1.71,5.06,7.66,5.72,10.66c0,0,0.36-0.9,0.74-1.86c0.43-1.08,0.88-2.24,0.89-2.24c0.08,0.31,0.13,0.62,0.14,0.94
			c0.31,5.62-2.2,13.07,2.02,16.81c4.11,3.65,17.75,22.46,16.26,26.39c-0.04,0.11-0.09,0.21-0.16,0.3l1.18,4.05
			c0.34,1.59,0.64,3.21,0.9,4.68c0.56,3.24,0.9,5.77,0.9,5.77l0.49-0.07l0.04-0.01l0.2-0.02l0.49-0.06l0.05,0.21l8.99,30.74
			l9.56,36.54h172.46c-1.72-3.83-2.86-7.69-3.24-11.88c-0.03-0.34-0.06-0.67-0.07-1.01c0-0.01,0-0.01,0-0.01
			c-0.09-1.25-0.1-2.5-0.04-3.75c0-0.05,0.01-0.11,0.01-0.16c0.22-4.33,0.35-8.35,0.4-12.1c0.12-9.36-0.27-16.96-1.02-23.18
			c0-0.01,0-0.01,0-0.01c-0.05-0.35-0.09-0.69-0.13-1.03c-0.97-7.38-2.46-12.74-4.21-16.72c-0.02-0.04-0.04-0.08-0.05-0.12
			c-0.31-0.71-0.63-1.37-0.96-1.99v-0.01c-1.21-2.33-2.52-4.09-3.84-5.51c0-0.01-0.01-0.01-0.02-0.02
			c-4.21-4.52-8.54-5.4-10.33-9.02c-0.15-0.39-0.26-0.78-0.36-1.18c-0.03-0.13-0.05-0.27-0.08-0.41
			c-1.16-5.81-3.47-25.08-9.85-42.43c-5.58-15.13-14.44-28.73-18.19-34.55c-0.65-0.93-1.23-1.9-1.75-2.91
			c-0.86-2.35-1-4.9-0.39-7.33c0.48-1.54,1.2-3.01,2.11-4.32c0.02-0.03,0.04-0.06,0.07-0.09c1.01-1.44,2.27-2.71,3.71-3.75
			c0.11-0.08,0.21-0.16,0.32-0.23c14.79-11.36,50.73-15.94,69.77-22.07c26.03-8.41,85.66-56.28,94.32-102.17
			C346.06,52.69,155.91,148.08,152.68,168.03z"/>
		<path id="Path_6_1_" class="st2" d="M103.48,213.43c10.98,1,21.53,4.72,30.7,10.83c4.56-13.45,1.54-26.62-6.83-29.57
			C118.98,191.74,108.36,200.1,103.48,213.43z"/>
		<path id="Path_7_1_" class="st3" d="M83.78,212.04c6.68-2.03,13.73-2.59,20.65-1.63c0.7,0.01,1.37,0.31,1.85,0.82
			c1.79,2.55,2.03,0.28,3.04,3.23c9.57-0.56,10.93,2.76,20.46,3.88c1.24,0.01,2.44,0.46,3.37,1.28c0.82,0.92,0.6,2.76-0.62,2.97
			c2.46-1.47,5.71,0.01,7.61,2.16c1.9,2.15,3.04,4.89,5.01,6.96c1.77,1.85,4.1,3.05,5.96,4.81c5.31,4.98,6.08,13.52,11.46,18.43
			l-12.07-3.56l3.61,13.79c-3.45-3.32-7.3-6.21-11.46-8.58c-0.71,6.59-0.18,13.26,1.54,19.67c-8.76-4.68-16.66-10.84-23.33-18.2
			c0.39,2.81,0.06,5.68-0.94,8.34c-1.22,2.55-4.27,4.47-6.91,3.43c-1.37-0.69-2.52-1.74-3.34-3.04
			c-4.27-5.63-8.37-11.38-12.29-17.26c0.28,3.29-2.16,6.19-5.45,6.47c-0.67,0.06-1.35,0-2-0.17c-2.19-1.02-3.98-2.75-5.06-4.9
			c-4.32-6.9-7.51-14.45-9.45-22.36c0.58,1.97,0.16,4.1-1.11,5.71c-2.23-3.29-4.52-6.72-5.19-10.64c-0.67-3.92,0.74-8.5,4.3-10.28
			c4.66-2.32,10.9,0.84,15.21-2.07"/>
	</g>
	<g id="Layer_5_1_" transform="translate(16.932 148.886)">
		<g id="Group_2_1_">
			<g id="Group_1_1_" transform="translate(14.374 41.753)">
				<path class="st0" d="M144.3,122.4c0,0.01,0,0.01,0,0.02c-0.63,7.12-8.64,16.86-19.04,18.25c-23.78,3.22-35.83,33.48-43.21,65.23
					H19.1l-9.5-36.31l-9.04-30.93v-0.01l-0.48,0.05H0.07c0-0.07,0-0.14-0.01-0.21c-0.02-0.6-0.05-1.17-0.05-1.72
					c-0.14-2.2,0.14-4.41,0.85-6.49l23.95-2.52l7.23-0.76l6.37-0.66h0.01l7.63-0.81l94.67-9.94c2.1,0.9,3.5,2.92,3.6,5.21
					C144.36,121.33,144.36,121.87,144.3,122.4z"/>
				<path id="Path_12_1_" class="st0" d="M70.25,116.22L70.25,116.22z"/>
			</g>
			<path id="Path_13_1_" class="st0" d="M-6.03,139.36c0,0,13.16,17.28,15.82,23.21c0.44,1.03,0.81,2.1,1.1,3.19
				c0,0.03,0.01,0.04,0.01,0.07c0.03,0.09,0.06,0.19,0.07,0.28c0.02,0.03,0.03,0.06,0.03,0.1c0.32,1.21,0.63,2.54,0.91,3.9
				c1.08,5.1,1.8,10.44,1.8,10.44l0.73-0.1l0.49-0.06l0.24-0.03l143.52-17.82l0.91-0.11c0-12.69-10.71-23.39-10.71-23.39
				s-20.95,16.85-53.09,11.19C63.67,144.58,9.75,90.27,9.75,90.27L-7.36,121.3l-0.16,0.31l-0.52,0.94
				C-8.04,122.55-10.48,134.25-6.03,139.36z"/>
		</g>
	</g>
	<g id="Layer_8_1_" transform="translate(11.514 132.629)">
		<path class="st2" d="M208.16,252.38c0.38,4.07,1.47,7.81,3.13,11.53h-3.6c-0.2-0.81-0.41-1.61-0.61-2.41
			c-0.7-2.72-1.41-5.43-2.13-8.12c-0.4-1.49-0.8-2.99-1.2-4.47c-0.39-1.46-0.79-2.91-1.19-4.35c-1.38-5.01-2.79-9.96-4.21-14.84
			c-5.22-17.91-10.68-34.86-16.07-50.39v-0.02c0-0.01-0.01-0.03-0.01-0.04c-0.83-2.38-1.66-4.73-2.48-7.05
			c-10.33-29.04-20.19-52.54-27.38-67.24c-5.39-11.04-3.63-18.41,1.76-22.02l0.34-0.21c2.7-1.55,5.75-2.36,8.86-2.33h0.12
			c-1.45,1.06-2.75,2.32-3.83,3.75c-0.03,0.03-0.05,0.06-0.07,0.09c-0.49,0.65-0.93,1.32-1.33,2.03c-0.42,0.78-0.74,1.61-0.97,2.47
			c-0.63,2.44-0.5,5.02,0.38,7.39c0.34,1,5.32,7.95,10.74,17.72c0.01,0.02,0.02,0.03,0.03,0.05c1.77,3.15,3.42,6.36,4.95,9.64
			c1.53,3.29,2.94,6.64,4.22,10.05c0.23,0.62,0.45,1.23,0.67,1.85c0.43,1.24,0.84,2.49,1.24,3.74c0.59,1.87,1.14,3.74,1.65,5.6
			c0.5,1.86,0.97,3.71,1.41,5.52c1.38,5.73,2.39,11.13,3.17,15.59c0.04,0.23,0.08,0.47,0.12,0.7c0.08,0.46,0.15,0.91,0.23,1.34
			c0.07,0.44,0.14,0.87,0.21,1.28c0.04,0.21,0.07,0.41,0.1,0.61c0.09,0.56,0.18,1.09,0.27,1.6c0.13,0.81,0.25,1.55,0.36,2.22
			c0.05,0.28,0.1,0.55,0.14,0.8c0.1,0.6,0.2,1.13,0.29,1.58c0.03,0.14,0.06,0.28,0.09,0.4c0.04,0.19,0.08,0.37,0.13,0.55
			c0.07,0.29,0.14,0.5,0.21,0.63c0.15,0.3,0.32,0.59,0.51,0.86c0.19,0.27,0.39,0.53,0.6,0.77c0.11,0.12,0.23,0.24,0.34,0.35
			c2.08,2.09,5.29,3.37,8.49,6.63c0.71,0.72,1.42,1.54,2.12,2.49c0.62,0.85,1.23,1.79,1.81,2.86c0.25,0.44,0.49,0.89,0.72,1.37
			c0,0.01,0.01,0.01,0.01,0.02c1.99,4.05,3.7,9.67,4.77,17.73c0.05,0.28,0.08,0.57,0.12,0.86c0.78,6.23,1.19,13.88,1.08,23.34
			c-0.05,3.79-0.18,7.87-0.4,12.27c0,0.05-0.01,0.11-0.01,0.16C207.97,249.07,208.01,250.75,208.16,252.38z"/>
		<path class="st2" d="M202.5,192.95c0,0.01,0,0.01,0,0.02c-0.01,8.76-0.71,17.5-2.09,26.14c-0.57,3.56-1.26,7.09-2.06,10.61
			c-2.72,11.77-6.53,23.21-11.37,34.19h-15.46c8.75-27.15,12.45-55.82,10.75-84.57v-0.07c-0.13-2.13-0.29-4.23-0.49-6.35
			c-1.79-20.18-6.27-40.03-13.34-59c1.78,3.15,3.43,6.36,4.95,9.64c1.54,3.29,2.95,6.64,4.23,10.05c0.23,0.61,0.45,1.23,0.66,1.85
			c0.43,1.24,0.84,2.49,1.24,3.74c0.59,1.87,1.14,3.74,1.65,5.6c0.51,1.86,0.98,3.71,1.41,5.52c1.38,5.73,2.4,11.12,3.17,15.59
			c0.04,0.23,0.08,0.47,0.12,0.7c0.08,0.46,0.15,0.91,0.23,1.34c0.07,0.44,0.14,0.87,0.21,1.28c0.04,0.21,0.07,0.41,0.1,0.61
			c0.1,0.56,0.18,1.09,0.27,1.6c0.13,0.81,0.25,1.55,0.36,2.22c0.05,0.28,0.1,0.55,0.14,0.8c0.1,0.6,0.2,1.13,0.29,1.58h0.02
			c0.02,0.14,0.04,0.27,0.07,0.4c0.04,0.19,0.08,0.37,0.13,0.55c0.07,0.21,0.14,0.42,0.22,0.63c0.15,0.3,0.32,0.59,0.5,0.86
			c0.19,0.27,0.39,0.53,0.6,0.77c0.11,0.12,0.22,0.24,0.34,0.35c2.08,2.09,5.29,3.37,8.49,6.63c0.71,0.72,1.43,1.54,2.12,2.49
			c0.63,0.85,1.24,1.8,1.83,2.87C202.03,192.02,202.27,192.48,202.5,192.95z"/>
	</g>
	<g id="Layer_9_1_" transform="translate(29.039 196.059)">
		<path class="st2" d="M7.98,200.48h-8.84c-0.92-23.51,4.56-60.44-0.51-81.59l0.81,2.78l0.02,0.06l0.35,1.21l0.01,0.06
			c0.01,0.05,0.02,0.09,0.03,0.14c0.06,0.28,0.12,0.56,0.17,0.84c0.1,0.49,0.2,0.99,0.29,1.47c0.09,0.48,0.19,0.96,0.27,1.43
			c0.14,0.81,0.27,1.58,0.39,2.29c0.01,0.09,0.03,0.17,0.04,0.26c0,0.01,0,0.01,0,0.02c0.04,0.21,0.07,0.42,0.1,0.62
			c0.02,0.12,0.04,0.24,0.06,0.36c0.07,0.48,0.14,0.91,0.19,1.29c0.03,0.19,0.06,0.36,0.08,0.52c0.04,0.23,0.07,0.43,0.09,0.59
			c0.01,0.07,0.02,0.13,0.02,0.18c0.04,0.2,0.05,0.33,0.06,0.37c0,0.01,0,0.01,0,0.01l0.71-0.1h0.02c0.04,0.64,0.08,1.31,0.14,2
			c0.02,0.26,0.05,0.51,0.07,0.78c0.07,0.79,0.16,1.6,0.26,2.44c0.04,0.37,0.08,0.75,0.13,1.13c0.1,0.76,0.2,1.54,0.3,2.33
			c0,0.01,0,0.01,0,0.01c0.16,1.19,0.33,2.42,0.51,3.68l0.18,1.29c0.12,0.85,0.25,1.72,0.37,2.6c0,0,0,0,0,0.01
			c0.13,0.88,0.25,1.77,0.37,2.67c0,0.01,0.01,0.01,0,0.02c0.13,0.9,0.25,1.81,0.37,2.73c0,0,0,0.01,0,0.02
			c0.12,0.92,0.24,1.85,0.35,2.78c0.35,2.97,0.66,6.02,0.88,9.1c0.03,0.56,0.07,1.12,0.1,1.69c0.08,1.35,0.14,2.72,0.17,4.08
			c0.01,0.33,0.02,0.66,0.02,0.99c0.04,2.24,0.01,4.48-0.11,6.71c-0.07,1.35-0.11,2.69-0.11,4.02c0,0.69,0.01,1.38,0.03,2.06
			c0.01,0.61,0.04,1.21,0.07,1.81c0.01,0.17,0.02,0.34,0.03,0.5c0.03,0.6,0.07,1.2,0.12,1.8c0,0.09,0.01,0.18,0.02,0.27
			c0.04,0.52,0.09,1.04,0.14,1.56c0.08,0.74,0.17,1.48,0.26,2.23c0.09,0.66,0.18,1.31,0.28,1.96c0.07,0.48,0.15,0.94,0.23,1.41
			c0.02,0.12,0.04,0.24,0.06,0.36c0.05,0.29,0.1,0.57,0.15,0.84C7.81,199.61,7.89,200.05,7.98,200.48z"/>
		<path id="Path_27_1_" class="st2" d="M-0.19,122.93c0.91,5.16,1.51,10.57,1.51,10.57l0.61-0.1l0.4-0.12l-0.45-1.84L-0.19,122.93z"
			/>
		<path class="st2" d="M202.62,200.48h-10.5l-0.68-1.73l-1.49-3.78l-1.45-3.69l-2.28-5.8l-1.62-4.12l0.36-0.26
			c0.02,0.01,0.05,0.02,0.07,0.03c1.87,0.81,3.71,1.68,5.51,2.61c0.06,0.03,0.12,0.06,0.18,0.09c0.13,0.06,0.25,0.13,0.37,0.2
			c3.05,1.59,6.01,3.36,8.86,5.29c1.02,0.69,2.15,1.91,1.5,2.96c-0.49,0.56-1.22,0.88-1.97,0.85l-6.18,0.65L202.62,200.48z"/>
	</g>
	<g id="Layer_6_1_" transform="translate(16.933 132.629)">
		<path class="st1" d="M204.46,230.37c-0.11,1.62-0.22,3.3-0.35,5.02c-0.25,3.82-0.54,7.88-0.91,12.07
			c-0.1,1.17-0.21,2.36-0.33,3.55c0,0,0,0,0,0.01c-0.04,0.41-0.08,0.82-0.12,1.24c0,0.04-0.01,0.08-0.01,0.12
			c-0.17,1.68-0.36,3.37-0.56,5.07c-0.04,0.32-0.08,0.63-0.12,0.95c-0.13,1.03-0.26,2.06-0.4,3.1c-0.11,0.8-0.23,1.61-0.34,2.41
			H91.18c2.9-13.49,6.4-25.99,11.74-33.54c15.9-22.49,12.85-22.15,32.81-34.68c9.16-5.73,16.87-11.09,22.94-15.26
			c0-0.01,0.01-0.01,0.01-0.01c7.18-4.96,12.06-8.22,14.26-8.4c0.48,0.03,0.96,0.09,1.43,0.2c0.69,0.15,1.36,0.38,1.99,0.7h0.01
			c1.99,0.85,3.9,1.89,5.68,3.12h0.02c0.08,0.06,0.17,0.11,0.25,0.17c3.38,2.3,7.19,5.63,10.69,10.2c0.01,0.01,0.02,0.01,0.02,0.02
			c1.25,1.62,2.45,3.39,3.57,5.33c0.43,0.7,0.83,1.43,1.23,2.18c0.01,0.04,0.03,0.08,0.05,0.12c2.49,4.77,4.52,10.43,5.69,17.08
			c0.17,0.9,0.31,1.82,0.43,2.75C204.68,218.85,204.88,224.33,204.46,230.37z"/>
		<path id="Path_33_1_" class="st2" d="M-6.23,99.05c3.02,3.58,8.54,5.97,14.84,5.97c9.58,0,17.34-5.5,17.34-12.3
			c-0.14-3.44-1.93-6.59-4.8-8.48c1.56,1.74,2.44,3.98,2.47,6.32c0,6.78-7.76,12.29-17.34,12.29C1.82,102.93-2.56,101.6-6.23,99.05z
			"/>
		<path id="Path_34_1_" class="st4" d="M-8.71,92.72c0.03,2.34,0.92,4.59,2.48,6.33c3.66,2.56,8.04,3.88,12.51,3.79
			c9.58,0,17.34-5.5,17.34-12.29c-0.03-2.34-0.91-4.58-2.47-6.32c-3.67-2.57-8.06-3.91-12.54-3.82
			C-0.95,80.42-8.71,85.92-8.71,92.72z"/>
		<path id="Path_35_1_" class="st2" d="M-8.71,92.72c0.03,2.34,0.92,4.59,2.48,6.33c3.66,2.56,8.04,3.88,12.51,3.79
			c9.58,0,17.34-5.5,17.34-12.29c-0.03-2.34-0.91-4.58-2.47-6.32c-3.67-2.57-8.06-3.91-12.54-3.82
			C-0.95,80.42-8.71,85.92-8.71,92.72z"/>
	</g>
	<g id="Layer_10_1_" transform="translate(30.632 154.404)">
		<path id="Path_36_1_" class="st5" d="M3.63,93.62"/>
		<path id="Path_38_1_" class="st1" d="M178.15,166.96c3.85,2.17,7.42,4.79,10.64,7.81c3.23,3.06,5.28,7.17,5.8,11.59
			c0.19,0.95-0.1,1.93-0.77,2.62c-0.43,0.28-0.92,0.44-1.43,0.46c-2.07,0.2-4.15-0.27-5.94-1.33c7.07,5.81,10.31,15.08,8.41,24.03
			c-0.08,0.59-0.35,1.14-0.77,1.55c-0.44,0.3-0.98,0.44-1.51,0.39c-2.38-0.19-4.56-1.42-5.96-3.35c-1.37-1.92-2.42-4.05-3.1-6.31
			c-4.27-12.24-6.53-25.09-6.71-38.06L178.15,166.96z"/>
		<path id="Path_39_1_" class="st6" d="M7.58,118.52c2.97,6,8.35,10.46,14.8,12.25c1.01,0.17,1.97,0.58,2.79,1.2
			c0.69,0.85,1.21,1.83,1.55,2.87c2.3,4.86,8.63,5.77,13.49,8.04c5.43,2.54,9.49,7.25,13.37,11.83c-2.96,0.52-5.93-3.47-8.46-1.84
			c-2.16,1.39-0.75,4.69,0.66,6.84c1.41,2.15,2.03,5.94-0.48,6.5c-1.27,0.07-2.51-0.42-3.37-1.35l-6.71-5.43
			c-0.7-0.57-1.66-1.16-2.44-0.71c-0.84,0.48-0.73,1.7-0.51,2.64l4.87,20.83c-5.32-0.43-7.31-6.96-9.01-12.01
			c-1.94-5.73-5.08-10.97-9.21-15.38c-1.09-1.15-2.54-2.34-4.08-1.95c-0.89,0.22-1.61,0.95-2.51,1.08
			c-1.77,0.26-2.98-1.73-3.52-3.44c-2.4-7.6-2.53-17.05-9.2-21.43c2.93-0.47,3.96-4.27,3.4-7.18c-0.56-2.91-2.04-5.74-1.62-8.67
			c0.04-0.83,0.49-1.59,1.21-2.01c1.1-0.47,2.26,0.51,3,1.45c2.85,3.65,4.64,8.01,5.16,12.61"/>
		<path class="st6" d="M189.85,240.4c0.17,0.57,0.33,1.15,0.5,1.73h-8.8c0.92-3.66,2.31-7.19,4.28-10.53
			c0.04-0.08,0.08-0.15,0.13-0.23l0.95,1.56l1.47,2.4c0.03,0.11,0.07,0.23,0.1,0.34C188.94,237.24,189.4,238.82,189.85,240.4z"/>
	</g>
	<circle id="Ellipse_12_1_" class="st0" cx="123.41" cy="206.9" r="4.02"/>
</g>
<g id="Layer_2">
</g>
</svg>
