<?xml version="1.0" encoding="utf-8"?>
<!-- Generator: Adobe Illustrator 24.1.2, SVG Export Plug-In . SVG Version: 6.00 Build 0)  -->
<svg version="1.1" id="Layer_1" xmlns="http://www.w3.org/2000/svg" xmlns:xlink="http://www.w3.org/1999/xlink" x="0px" y="0px"
	 viewBox="0 0 753 126" style="enable-background:new 0 0 753 126;" xml:space="preserve">
<style type="text/css">
	.st0{fill:#0C2553;}
	.st1{fill:#BFD2EF;}
	.st2{fill:#EDBE96;}
	.st3{fill:#88A7E2;}
	.st4{fill:#FFFFFF;}
	.st5{fill:#BC7F4C;}
	.st6{fill:none;}
	.st7{font-family:'MyriadPro-Regular';}
	.st8{font-size:12px;}
</style>
<g id="Group_29" transform="translate(-477.914 -1518.57)">
	<rect id="Rectangle_594" x="477.91" y="1518.57" class="st0" width="126" height="126"/>
	<rect id="Rectangle_596" x="728.91" y="1518.57" class="st1" width="125" height="126"/>
	<rect id="Rectangle_598" x="979.91" y="1518.57" class="st2" width="125" height="126"/>
	<rect id="Rectangle_595" x="603.91" y="1518.57" class="st3" width="125" height="126"/>
	<rect id="Rectangle_597" x="853.91" y="1518.57" class="st4" width="126" height="126"/>
	<rect id="Rectangle_599" x="1104.91" y="1518.57" class="st5" width="126" height="126"/>
</g>
<rect x="39.67" y="56.92" class="st6" width="46.67" height="12.16"/>
<text transform="matrix(1 0 0 1 41.1486 65.4425)" class="st4 st7 st8">#0C2553</text>
<rect x="165.17" y="56.92" class="st6" width="46.67" height="12.16"/>
<text transform="matrix(1 0 0 1 166.5822 65.4425)" class="st4 st7 st8">#88A7E2</text>
<rect x="287.17" y="56.65" class="st6" width="46.67" height="12.16"/>
<text transform="matrix(1 0 0 1 288.3962 65.1738)" class="st4 st7 st8">#BFD2EF</text>
<rect x="415.67" y="56.65" class="st6" width="46.67" height="12.16"/>
<text transform="matrix(1 0 0 1 418.486 65.1738)" class="st0 st7 st8">#FFFFFF</text>
<rect x="541.17" y="53.42" class="st6" width="46.67" height="12.16"/>
<text transform="matrix(1 0 0 1 542.2106 61.9415)" class="st4 st7 st8">#EDBE96</text>
<rect x="666.67" y="53.42" class="st6" width="46.67" height="12.16"/>
<text transform="matrix(1 0 0 1 667.7281 61.9415)" class="st4 st7 st8">#BC7F4C</text>
</svg>
