<?xml version="1.0" encoding="utf-8"?>
<!-- Generator: Adobe Illustrator 24.2.1, SVG Export Plug-In . SVG Version: 6.00 Build 0)  -->
<svg version="1.1" id="Layer_1" xmlns="http://www.w3.org/2000/svg" xmlns:xlink="http://www.w3.org/1999/xlink" x="0px" y="0px"
	 viewBox="0 0 1482 1212" style="enable-background:new 0 0 1482 1212;" xml:space="preserve">
<style type="text/css">
	.st0{fill:#BAD1F1;}
	.st1{fill:#FFFFFF;}
	.st2{fill:#82A7E7;}
	.st3{fill:#EDBE96;}
	.st4{fill:#BC7F4C;}
	.st5{fill:#DCACB6;}
	.st6{fill:none;}
	.st7{fill:#F3DEE8;}
	.st8{fill:#F0C563;}
</style>
<polygon class="st0" points="0.26,1146 0.26,630.54 275.52,437.58 543.11,0.06 727.13,221.16 848.58,509.69 1074.79,437.58 
	1218.95,730.87 1347.19,957.08 1406.56,1047.56 1481.96,1146 535.46,1146 "/>
<polyline class="st1" points="543.11,0.06 603.58,216.23 727.13,221.16 948.32,477.9 "/>
<polyline class="st1" points="1481.96,1146 1193.33,897.35 1074.79,437.58 "/>
<polygon class="st2" points="275.52,437.58 233.73,603.67 0.26,630.54 "/>
<polygon class="st2" points="848.58,509.69 981.67,523.63 1074.79,437.58 "/>
<polygon class="st2" points="626.84,1146 543.11,238.98 417.3,721.22 305.25,791.79 401.29,829.27 254.67,912.01 143.35,1042.06 
	104.81,1146 "/>
<polygon class="st2" points="981.55,941.31 1093.6,1146 901.51,1146 901.51,692.49 "/>
<polygon class="st1" points="543.11,238.98 691.98,710.17 848.58,1146 626.84,1146 "/>
<polygon class="st1" points="848.58,509.69 948.32,477.9 727.13,221.16 "/>
<g>
	<path class="st1" d="M377.29,926.02c1.46,27.67-13.69,52.26-22.71,60.03c-1.07,0.66-1.87,1.12-2.3,1.37
		c-0.04,0.03-0.08,0.04-0.11,0.05l20.04-76.62l8.48-29.02l0.46,0.05C380.55,892.55,376.42,909.61,377.29,926.02z"/>
	<path class="st3" d="M310.73,1195.91c-0.05-0.05-0.11-0.12-0.14-0.17c0.16-2.37,0.33-8.06-1.05-14.95
		c0.03-0.07,0.05-0.12,0.09-0.18c0.45-0.97,0.92-1.98,1.44-3c0.55-0.8,1.19-1.66,1.91-2.57c3.38-4.31,7.78-11.46,12.59-20.16
		c0.03-0.05,0.05-0.09,0.08-0.14c0.4-0.71,0.8-1.44,1.2-2.17c0.03-0.04,0.04-0.08,0.07-0.12c6.79-12.51,14.22-27.81,20.53-42.41
		c0.05-0.08,0.08-0.14,0.12-0.24c2.75-6.07,5.29-12.25,7.47-18.47c0.46-1.33,0.92-2.67,1.36-4.02c0-0.03,0-0.04,0.01-0.05
		c2.84-8.82,4.89-17.72,5.71-26.56c0,0,0.01,0,0.01-0.01c0.01-0.12,0.03-0.22,0.03-0.34c0.01-0.12,0.03-0.24,0.04-0.36
		c0,0,0,0,0.01,0c0.12-0.08,0.75-0.49,1.63-1.13c0.3-0.07,0.58-0.09,0.84-0.09c0.61,0.03,1.11,0.25,1.51,0.66
		c0.01,0,0.01,0,0.01,0.01c0.13,0.13,0.25,0.28,0.34,0.45c0.12,0.17,0.22,0.36,0.32,0.57c-0.01,0-0.01,0-0.01,0
		c0,0.87-0.03,1.72-0.05,2.59c-6.98,19.46-20.49,58.54-29.3,92.19c3.54-7.55,7.3-15.59,10.9-23.95c0.59-1.38,1.19-2.77,1.76-4.17
		c0.24-0.54,0.46-1.08,0.68-1.62c0.54-1.32,1.08-2.63,1.61-3.96c0.12-0.29,0.24-0.58,0.34-0.86c0.37-0.91,0.72-1.82,1.07-2.73
		c0.83-2.12,1.62-4.25,2.4-6.4c-6.35,18.8-14.33,38.82-21.12,53.03c-3.33,13.77-5.62,26.14-6,35.16c-0.03,0.74-0.12,1.38-0.25,1.95
		c2.66,2.75,6.11,5.64,9.19,5.98c0.2,0.01,0.38,0.03,0.58,0.03c0.91,0,2.44,0.05,4.45,0.13c19.59,0.71,85.83,3.75,85.26-13.02
		c-0.87-25.61-11.06-36.44-17.51-42.86c-2.37-2.37-4.24-4.15-4.95-5.85c-0.21-0.47-0.32-0.93-0.33-1.41
		c-1.61-93.73-31.73-90.28-30.39-94.18c0-0.01,0-0.01,0-0.01c0.01-0.03,0.01-0.04,0.01-0.05c0,0,0.01-0.01,0.01-0.03
		c4.98-14.62,0.51-54.96,3.07-60.48c5.36-11.61,22.62-18.07,27.19-52.54c4.41-33.31-15.78-62.34-20.84-69
		c-0.05-0.08-0.11-0.14-0.16-0.21c-0.01,0-0.01-0.01-0.01-0.01c-0.03,0.09-0.04,0.17-0.05,0.28c-0.01,0.03-0.03,0.05-0.03,0.09
		c-0.18,0.8-0.36,1.62-0.51,2.46l-0.01,0.05c-4.86,26.67,4.78,74.77-2.8,89.58c-6.16,12-20.49,21.74-26.47,25.44
		c-1.07,0.66-1.87,1.12-2.3,1.37c-0.04,0.03-0.08,0.04-0.11,0.05c-0.18,0.12-0.28,0.17-0.28,0.17l20.15-77.02l8.43-28.82l0.05-0.2
		l0.46,0.05l0.18,0.03l0.5,0.07c0,0,0.67-5.02,1.69-9.8l1.11-3.81c-0.07-0.08-0.11-0.17-0.14-0.28
		c-1.4-3.69,11.39-21.33,15.25-24.76c3.96-3.5,1.61-10.49,1.9-15.76c0.01-0.3,0.05-0.61,0.13-0.88c0-0.03,0.01-0.04,0.01-0.07
		c0.62-2.8,3.17-4.87,3.87-6.48c5.14-11.93,2.71-33.47-0.83-38.78c-7.39-11.09-13.92-19.32-25.57-27.17
		c-10.67-7.19-63.1-30.52-63.1-30.52c-1.71-1.63-0.95-13.68,0.05-16.41c1.07-2.88,52.79-158.95,24.45-130.61
		c-28.34,28.32-52.07,70.45-59.73,91.89c-7.65,21.45,6.1,53.92,1.22,57.4c-2.96,2.09-14.59,4.87-14.59,4.87
		c-3.03-18.71-181.36-108.17-175.02-74.52c8.12,43.03,64.05,87.94,88.46,95.81c17.86,5.75,51.57,10.05,65.43,20.7
		c2.99,2.29,5.06,4.9,5.83,7.87c0.55,2.09,0.47,4.37-0.37,6.87c-0.11,0.32-0.7,1.26-1.65,2.73c-3.52,5.46-11.82,18.21-17.05,32.41
		c-5.99,16.28-8.15,34.36-9.24,39.79c-0.16,0.74-0.29,1.25-0.41,1.49c-4.1,8.27-22.2,1.29-18.91,65.38
		c0.08,1.59,0.05,3.13-0.09,4.62c-2.11,23.58-30.04,35.7-45.6,100.14c-16.54,68.54-8.03,117.47-8.03,117.47
		c-4.45,22.28,7.24,33.97,7.24,33.97s14.59,12.83,36.76,10.57c1.33-0.13,2.95,0.14,4.74,0.72c9.42,2.96,23.74,13.81,27.64,14.31
		c12.61,1.65,73.44,1.67,80.11-2.23c5.29-3.08,4.31-9.31,3.66-11.77 M278.54,1144.66c-0.66-0.25-0.93-1.63-0.96-3.92
		c0.12,2.01,2.45,3.92,5.6,5.86C281.71,1145.91,280.16,1145.27,278.54,1144.66z M335.58,1058.57c-0.45,0.37-0.93,0.7-1.45,0.99
		c-0.09,0.07-0.2,0.13-0.3,0.18c-1.16,0.65-2.42,1.12-3.78,1.45c-0.11,0.04-0.22,0.07-0.34,0.09h-0.01
		c-8.74,1.92-20.92-2.26-27.38-10.44c-0.01-0.03-0.04-0.07-0.07-0.09c-2.11-2.7-3.58-5.83-4.11-9.32
		c-2.15-14.18-3.16-32.88-8.76-40.86c-0.14-0.21-0.3-0.42-0.47-0.62c-0.91-1.17-1.96-2.07-3.15-2.62
		c-8.89-4.12-14.91,0.65-25.06-1.26c-8.84-1.66-9.98,0.29-22.65-9.4c-0.09-0.08-0.2-0.14-0.29-0.22h74.06
		c0.01,0.08,0.03,0.14,0.04,0.22c2.36,14.26,4.35,25.27,7.14,28.77c0.05,0.07,0.11,0.14,0.17,0.21c0.2,0.22,0.4,0.41,0.59,0.55
		c1.36,0.99,6.43-3.9,12.33-9.94c-0.16-0.25-0.33-0.5-0.5-0.74c-0.12-0.17-0.25-0.34-0.4-0.51c-1.15-1.47-2.5-2.54-4.02-3.11
		c-1.22-0.45-2.34-1.3-3.4-2.52c-0.16-0.18-0.3-0.38-0.46-0.58c-0.03-0.03-0.04-0.05-0.07-0.09c-2.13-2.78-3.87-7.06-5.41-12.27
		h9.43c0.04,0.08,0.08,0.14,0.12,0.22c0.43,0.88,0.9,1.69,1.38,2.41c0.12,0.18,0.24,0.36,0.36,0.53c0.18,0.28,0.38,0.53,0.58,0.78
		c1.11,1.37,2.32,2.34,3.65,2.83c1.54,0.57,2.9,1.65,4.06,3.15c0.17,0.21,0.34,0.42,0.5,0.66c0.42,0.62,0.83,1.29,1.21,2.01
		c0.04,0.09,0.09,0.17,0.13,0.26c7.32,14.43,5.08,48.51-2.38,57.94c-0.03,0.04-0.05,0.07-0.08,0.11
		C336.4,1057.82,336,1058.23,335.58,1058.57z"/>
	<path class="st1" d="M283.17,1146.6c-1.46-0.68-3.02-1.33-4.64-1.94c-0.66-0.25-0.93-1.63-0.96-3.92
		C277.7,1142.75,280.03,1144.66,283.17,1146.6z"/>
	<path class="st1" d="M339.26,999.29c-2.34,2.4-4.73,4.87-6.99,7.19c-0.21-0.33-0.43-0.66-0.67-0.96c-0.12-0.17-0.25-0.34-0.4-0.51
		c-1.15-1.47-2.5-2.54-4.02-3.11c-1.41-0.51-2.69-1.58-3.86-3.09c-0.03-0.03-0.04-0.05-0.07-0.09c-2.05-2.78-3.74-6.97-5.24-12.05
		h9.38c0.43,0.88,0.9,1.69,1.38,2.41c0.11,0.18,0.22,0.36,0.36,0.53c0.18,0.28,0.38,0.53,0.58,0.78c1.15,1.49,2.41,2.54,3.82,3.05
		c1.46,0.54,2.75,1.54,3.88,2.92c0.17,0.21,0.34,0.42,0.5,0.66c0.42,0.62,0.83,1.29,1.21,2.01
		C339.16,999.12,339.22,999.2,339.26,999.29z"/>
	<g>
		<path class="st1" d="M150.66,1127.5c-2.13-2.19-5.34-0.48-7.18,2.12c-2.26,3.2-3.46,7.67-3.23,12.04
			c-2.98,3.13-5.74,7.26-6.1,12.27c-0.36,5.01,2.73,10.57,6.51,9.94c-3.13,3.25-4.19,9.53-2.38,14.22
			c1.81,4.69,6.27,7.27,10.11,5.85c-1.94,2.41-1.09,7.06,1.06,9.13c2.15,2.07,5.04,2.18,7.69,1.82c3.1-0.42,6.41-1.58,8.31-4.84
			c3.07-5.25,1.01-12.8-1.14-18.8c-5.33-14.83-10.66-29.67-16-44.5"/>
		<g>
			<path class="st1" d="M151.19,1126.97c-2.51-2.36-5.84-0.78-7.78,1.52c-2.37,2.8-3.53,6.62-3.86,10.22c-0.07,0.75,0.16,2-0.09,2.7
				c-0.12,0.34-0.64,0.7-0.88,0.99c-0.31,0.37-0.61,0.74-0.91,1.12c-1.15,1.49-2.15,3.1-2.89,4.83c-1.42,3.31-1.9,7.04-0.75,10.5
				c0.94,2.83,3.22,6.21,6.63,5.78c-0.18-0.43-0.35-0.85-0.53-1.28c-3.49,3.75-4.36,9.86-2.69,14.62c1.58,4.49,6.2,8.4,11.15,6.7
				c-0.28-0.37-0.56-0.73-0.85-1.1c-3.07,4.11-0.22,10.59,4.45,11.89c2.54,0.71,5.5,0.33,7.98-0.47c2.58-0.84,4.81-2.46,6.11-4.88
				c2.85-5.32,1.13-12-0.66-17.36c-2.4-7.17-5.1-14.25-7.66-21.36c-2.97-8.28-5.95-16.55-8.92-24.83c-0.32-0.9-1.77-0.51-1.45,0.4
				c4.6,12.8,9.2,25.61,13.81,38.41c2.01,5.58,4.6,11.36,4.84,17.37c0.11,2.64-0.29,5.41-1.86,7.61c-1.59,2.22-4.16,3.28-6.77,3.73
				c-2.9,0.5-6.42,0.38-8.27-2.29c-1.44-2.09-1.88-5.34-0.3-7.45c0.39-0.52-0.26-1.3-0.85-1.1c-4.44,1.52-8.36-2.3-9.52-6.33
				c-1.19-4.11-0.46-9.28,2.52-12.49c0.39-0.42,0.16-1.37-0.53-1.28c-3.56,0.45-5.36-4.15-5.71-6.98c-0.5-4.07,1.24-8.12,3.61-11.33
				c0.61-0.82,1.28-1.58,1.96-2.35c0.59-0.67,0.44-1.18,0.45-2.07c0.02-2.1,0.37-4.18,1.04-6.17c0.63-1.88,1.57-3.82,2.98-5.24
				c1.36-1.37,3.49-2.51,5.15-0.95C150.83,1128.69,151.89,1127.63,151.19,1126.97L151.19,1126.97z"/>
		</g>
	</g>
	<path class="st4" d="M313.52,773.17c-4.69,0.36-9.82,1.44-15.03,3.28c-5.21,1.84-9.89,4.22-13.76,6.88
		c-4.28-12.61-1.44-24.96,6.41-27.73C298.98,752.82,308.93,760.67,313.52,773.17z"/>
	<g>
		<path class="st1" d="M331.99,771.87c-6.24-1.9-12.9-2.43-19.36-1.53c-0.64,0.09-1.36,0.23-1.73,0.77
			c-1.68,2.39-1.9,0.26-2.85,3.03c-8.98-0.52-10.26,2.58-19.19,3.64c-1.15,0.14-2.4,0.34-3.17,1.2s-0.56,2.59,0.58,2.79
			c-2.3-1.38-5.36,0.01-7.14,2.02c-1.78,2.01-2.85,4.59-4.7,6.53c-1.65,1.73-3.84,2.87-5.59,4.51c-4.98,4.68-5.7,12.68-10.75,17.29
			c3.77-1.11,7.54-2.23,11.32-3.34c-1.13,4.31-2.25,8.62-3.38,12.94c3.23-3.11,6.85-5.82,10.75-8.05
			c0.66,6.17,0.17,12.46-1.44,18.44c8.2-4.38,15.64-10.18,21.88-17.07c-0.14,2.65-0.27,5.43,0.88,7.82c1.14,2.39,4,4.19,6.47,3.22
			c1.33-0.52,2.27-1.71,3.13-2.85c4.01-5.28,7.85-10.68,11.53-16.19c-0.6,3.62,3.52,7.11,6.99,5.91c2.13-0.73,3.55-2.69,4.75-4.6
			c4.04-6.46,7.05-13.57,8.86-20.97c-0.55,1.81-0.15,3.89,1.04,5.36c2.09-3.09,4.24-6.3,4.87-9.98c0.63-3.68-0.69-7.97-4.03-9.64
			c-4.36-2.18-10.22,0.79-14.26-1.94"/>
		<g>
			<path class="st1" d="M332.19,771.14c-5.43-1.62-11.13-2.28-16.78-1.86c-1.19,0.09-2.48,0.13-3.63,0.44
				c-1.06,0.29-1.31,0.97-2.08,1.64c-0.39,0.34-0.88,0.36-1.29,0.66c-0.6,0.44-0.85,1.23-1.09,1.9c0.24-0.18,0.48-0.37,0.72-0.55
				c-2.71-0.14-5.41,0.01-8.04,0.72c-2.17,0.58-4.25,1.44-6.42,2.02c-1.44,0.38-2.9,0.66-4.38,0.86c-1.27,0.17-2.61,0.28-3.66,1.11
				c-1.47,1.16-1.48,3.81,0.51,4.4c0.81,0.24,1.33-0.96,0.58-1.37c-3.19-1.72-6.68,0.33-8.68,2.91c-1.28,1.65-2.2,3.55-3.54,5.16
				c-1.4,1.69-3.29,2.81-5,4.15c-5.99,4.73-6.43,13.14-11.88,18.24c-0.55,0.51,0.02,1.46,0.73,1.25c3.77-1.11,7.54-2.23,11.32-3.34
				c-0.31-0.31-0.62-0.62-0.92-0.92c-1.13,4.31-2.25,8.62-3.38,12.94c-0.19,0.73,0.71,1.25,1.25,0.73c3.21-3.07,6.75-5.71,10.6-7.93
				c-0.38-0.22-0.75-0.43-1.13-0.65c0.63,6.13,0.16,12.28-1.42,18.25c-0.17,0.65,0.53,1.15,1.1,0.85
				c8.26-4.44,15.72-10.25,22.03-17.19c-0.43-0.18-0.85-0.35-1.28-0.53c-0.17,3.21-0.31,6.88,1.84,9.53
				c1.73,2.14,4.81,3.35,7.33,1.8c1.39-0.86,2.33-2.26,3.3-3.54c1.26-1.68,2.51-3.37,3.75-5.07c2.47-3.4,4.86-6.85,7.2-10.35
				c-0.47-0.13-0.93-0.25-1.4-0.38c-0.37,2.9,1.67,5.61,4.35,6.56c3.25,1.16,6-0.92,7.83-3.45c4.77-6.59,7.94-14.72,9.89-22.57
				c0.23-0.94-1.2-1.33-1.45-0.4c-0.55,2.07-0.18,4.22,1.12,5.94c0.35,0.46,0.96,0.5,1.3,0c3.48-5.14,7.51-12.09,3.42-18.09
				c-1.69-2.48-4.37-3.44-7.28-3.52c-3.26-0.08-6.9,0.88-9.83-0.98c-0.82-0.52-1.57,0.78-0.76,1.3c2.35,1.49,5.09,1.4,7.77,1.26
				c2.93-0.15,6.17-0.32,8.31,2.07c4.73,5.28,0.26,12.5-2.92,17.21c0.43,0,0.86,0,1.3,0c-1.06-1.42-1.42-3.06-0.97-4.78
				c-0.48-0.13-0.96-0.27-1.45-0.4c-1.66,6.69-4.25,13.12-7.74,19.07c-1.4,2.38-3.26,6.03-6.43,6.19c-2.85,0.14-5.31-2.63-4.96-5.4
				c0.1-0.8-1.03-0.93-1.4-0.38c-3.78,5.65-7.64,11.34-11.89,16.66c-0.87,1.09-1.94,2.22-3.43,2.27c-1.36,0.05-2.64-0.71-3.54-1.68
				c-2.16-2.34-1.9-5.93-1.75-8.87c0.03-0.64-0.85-1-1.28-0.53c-6.23,6.85-13.57,12.57-21.73,16.95c0.37,0.28,0.73,0.56,1.1,0.85
				c1.61-6.08,2.11-12.39,1.47-18.64c-0.06-0.55-0.6-0.95-1.13-0.65c-3.95,2.28-7.6,5.02-10.9,8.17c0.42,0.24,0.84,0.49,1.25,0.73
				c1.13-4.31,2.25-8.62,3.38-12.94c0.14-0.54-0.37-1.09-0.92-0.92c-3.77,1.11-7.54,2.23-11.32,3.34c0.24,0.42,0.49,0.84,0.73,1.25
				c4.98-4.67,5.63-12.1,10.36-16.91c1.32-1.34,2.93-2.32,4.4-3.48c1.47-1.17,2.61-2.55,3.63-4.11c1.77-2.72,4.85-7.89,8.87-5.72
				c0.19-0.46,0.39-0.91,0.58-1.37c-0.55-0.16-0.56-0.89-0.36-1.32c0.25-0.53,0.86-0.79,1.4-0.94c1.07-0.32,2.23-0.35,3.33-0.53
				c2.01-0.33,3.96-0.87,5.89-1.51c1.55-0.52,3.09-1.08,4.69-1.43c2.18-0.48,4.41-0.53,6.63-0.42c0.35,0.02,0.61-0.25,0.72-0.55
				c0.23-0.65,0.32-0.93,0.87-1.2c0.51-0.26,0.92-0.46,1.32-0.9c0.4-0.44,0.63-0.82,1.21-1.05c0.42-0.16,0.94-0.16,1.38-0.21
				c1.23-0.15,2.48-0.24,3.72-0.28c4.92-0.17,9.81,0.5,14.52,1.9C332.72,772.87,333.11,771.42,332.19,771.14L332.19,771.14z"/>
		</g>
	</g>
	<path class="st1" d="M323.53,1193.19c0.55-0.8,3.76-12.72,4.48-13.63c3.4-4.33,23.53-52.4,28.37-61.17
		c-14.59-4.74-58.94,26.62-72.16,25.92l19.09,23.74l7.43,27.86L323.53,1193.19z"/>
	<path class="st1" d="M362.14,1060.33c-3.42,2.23-3.45,16.51-5.75,26.92c-0.01,0.01-0.01,0.03-0.01,0.05"/>
	<path class="st1" d="M353.97,1121.42c-6.31,14.6-20.1,18.74-26.9,31.25c-0.08-0.04-0.16-0.08-0.24-0.11
		c-1.28-0.63-2.57-1.22-3.88-1.8c-2-0.88-4.37-0.08-6.85,1.34c-6.28,3.62-13.23,11.34-16.53,6.08c-1.74-2.75-5.28-5.14-9.03-7.33
		c-2.38-1.4-4.86-2.71-6.99-4c-0.13-0.09-0.26-0.17-0.38-0.25c-3.15-1.94-5.48-3.85-5.6-5.86c-0.25-15.66,11.28-73.4-4.71-92.93
		c-12.17-14.84-27.14-24.81-49.31-26.49c-2.15-0.16-2.29-2.37-1.37-5.5c2.48-8.37,12.58-23.32,12.58-23.32
		c10.15,8.01,29.34,12.56,45.39,12.81c18.08,0.29,7.1,46.02,21.36,56.07c13.23,9.31,22.95,9.77,28.36,0.13h0.01
		c0.05-0.11,0.12-0.21,0.17-0.32c0.93-1.75,1.75-3.82,2.42-6.23c0,0,1.59,1.11,4.32,2.37c0.08,0.04,0.17,0.08,0.25,0.12
		c5.58,2.53,16.14,4.03,27.22,1.2c0.45-0.12,0.81-0.07,1.02,0.01c0.41,0.17,0.24,0.32,0.72,0.53c0.01,0,0.36,0.24,0.36,0.26
		c0.36,0.14,0.47,0.24,0.54,0.24c0,0-2.3,20.1-3.41,28.52C362.14,1098.44,353.97,1121.42,353.97,1121.42z"/>
	<g>
		<g>
			<path class="st1" d="M381.2,880.06c0,0.51-0.03,1.05-0.04,1.62c-0.01,0.07-0.01,0.13-0.01,0.2l-0.46-0.05l-8.48,29.02
				l-20.04,76.62l-0.11,0.4c-3.04,1.7-7.81,6.33-12.76,11.38c-0.42-0.82-0.88-1.57-1.38-2.24c-0.16-0.24-0.33-0.45-0.5-0.66
				c-1.13-1.38-2.42-2.38-3.88-2.92c-1.41-0.51-2.67-1.57-3.82-3.05c-0.2-0.25-0.4-0.5-0.58-0.78c-0.12-0.17-0.24-0.34-0.36-0.53
				c-0.46-0.74-0.9-1.53-1.33-2.41h-9.43c1.5,5.08,3.19,9.27,5.24,12.05c0.03,0.04,0.04,0.07,0.07,0.09c0.16,0.2,0.3,0.4,0.46,0.58
				c1.08,1.32,2.26,2.25,3.57,2.74c1.45,0.54,2.73,1.53,3.85,2.88c0.14,0.17,0.28,0.34,0.4,0.51c0.24,0.3,0.46,0.63,0.67,0.96
				c-5.9,6.04-10.97,10.93-12.33,9.94c-0.26-0.2-0.53-0.46-0.76-0.78c-0.07-0.07-0.12-0.14-0.17-0.21
				c-2.73-3.78-4.69-14.71-7.01-28.77c-6.25-37.87-15.1-98.44-48.27-102.93c-9.76-1.3-17.28-10.46-17.86-17.13
				c-0.05-0.53-0.05-1.03-0.01-1.5c0.18-2.16,1.25-3.94,3.37-4.89l131.18,13.77C381.02,875.5,381.25,877.56,381.2,880.06z"/>
			<path class="st1" d="M315.32,860.79"/>
		</g>
		<path class="st1" d="M400.34,843.34c0,0-12.34,16.21-14.84,21.77c-0.36,0.78-0.7,1.82-1.03,2.99c0,0.03-0.01,0.04-0.01,0.07
			c-0.03,0.08-0.05,0.17-0.07,0.26c-0.01,0.03-0.03,0.05-0.03,0.09c-0.3,1.13-0.59,2.38-0.86,3.66c-1.01,4.78-1.69,9.8-1.69,9.8
			l-0.68-0.09l-0.46-0.05l-0.22-0.03l-134.6-16.71l-0.86-0.11c0-11.9,10.05-21.94,10.05-21.94s19.65,15.8,49.79,10.49
			c30.15-5.32,80.71-56.24,80.71-56.24l16.05,29.1l0.16,0.29l0.49,0.88C402.24,827.58,404.52,838.55,400.34,843.34z"/>
	</g>
	<path class="st4" d="M256.82,795.84c-7.28,14.89-17.49,39.41-28.01,69.71c0,0.01,0,0.01,0,0.03
		c-5.06,14.56-10.18,30.46-15.08,47.26c-26.49,90.77-46.54,207.97-14.09,284.02c-1.79-0.58-3.41-0.86-4.74-0.72
		c-4.77,0.49-9.18,0.28-13.17-0.37c-14.6-2.3-23.6-10.21-23.6-10.21s-11.69-11.69-7.24-33.97c0,0-8.51-48.93,8.03-117.47
		c3.74-15.5,8.2-27.97,12.84-38.29c15.89-35.36,33.92-45.67,32.85-66.47c-1.47-28.59,1.32-43.03,5.23-51
		c4.85-9.9,11.42-9.8,13.68-14.38c0.99-1.99,2.84-22.81,9.65-41.28c2.46-6.7,5.61-13.08,8.63-18.51
		c5.08-9.16,9.76-15.68,10.07-16.62c0.86-2.52,0.93-4.82,0.36-6.93c-0.21-0.8-0.51-1.57-0.91-2.32c-1.07-2.01-2.74-3.83-4.91-5.5
		c3.27,0.05,6.16,0.78,8.43,2.19c0.11,0.07,0.21,0.13,0.32,0.2C260.24,778.58,261.88,785.49,256.82,795.84z"/>
	<path class="st3" d="M181.74,1195.77c-14.6-2.3-23.6-10.21-23.6-10.21s-11.69-11.69-7.24-33.97c0,0-8.51-48.93,8.03-117.47
		c3.74-15.5,8.2-27.97,12.84-38.29C158.78,1037.55,148.32,1110.72,181.74,1195.77z"/>
	<path class="st3" d="M268.94,1004.65c-0.68,0.07-1.37,0.14-2.05,0.22c-3.08-2.94-6.04-5.95-8.88-9.06
		c-2.77-2.98-5.4-6.03-7.93-9.15c-18.12-22.33-30.5-47.75-36.34-73.82c-2.58-11.44-3.9-23-3.88-34.49
		c4.85-9.9,11.42-9.8,13.68-14.38c0.12-0.24,0.25-0.75,0.4-1.49h0.01c1.09-5.44,3.25-23.52,9.24-39.79
		c2.46-6.7,5.61-13.08,8.63-18.51c-6.74,18.08-10.88,36.7-12.54,55.38c-0.18,2-0.34,3.99-0.46,5.99c0,0.01,0,0.01,0,0.03
		c-2.54,42.16,7.45,84.38,28.57,121.08c1.94,3.38,3.98,6.72,6.11,9.99C265.25,999.35,267.07,1002.01,268.94,1004.65z"/>
	<path class="st4" d="M345.56,1202.64c0.12,3.09-0.86,4.65-2.29,5.39c-2.01-0.08-3.54-0.13-4.45-0.13c-0.2,0-0.38-0.01-0.58-0.03
		c-3.36-0.29-6.9-3.05-9.35-5.43c0.07-0.17,0.11-0.36,0.16-0.55c0.13-0.57,0.22-1.21,0.25-1.95c0.38-9.02,2.67-21.38,6-35.16
		c6.79-14.21,14.77-34.22,21.12-53.03c0.04-0.08,0.07-0.16,0.09-0.25c2.25-6.27,4.28-12.64,5.93-19.03
		c2.54-9.77,4.21-19.59,4.52-29.22c0.03-0.87,0.05-1.72,0.05-2.59c0,0,0,0,0.01,0c0.09-0.08,0.55-0.43,1.22-1.01
		c1.98-1.65,5.71-5.08,6.89-8.26C372.37,1060.99,344.02,1163.98,345.56,1202.64z"/>
	<path class="st5" d="M375.32,1050.79c-0.04,0.17-0.09,0.34-0.16,0.51C375.23,1051.08,375.28,1050.91,375.32,1050.79z"/>
	<path class="st4" d="M411.02,1152.14c-17.47-0.26-32.78,3.05-43.94,9.78c8.45-9.52,22.48-14.89,38.99-15.63
		C406.78,1147.99,408.65,1149.77,411.02,1152.14z"/>
	<path class="st4" d="M283.7,1146.85h-0.14c-19.49-1.03-36.61,2.26-48.8,9.61c9.11-10.24,24.65-15.68,42.82-15.72
		c0.03,2.29,0.3,3.67,0.96,3.92c1.62,0.61,3.17,1.25,4.64,1.94C283.36,1146.68,283.53,1146.77,283.7,1146.85z"/>
	<path class="st6" d="M336.58,1157.75c-0.13,0.3-0.28,0.59-0.41,0.88"/>
	<path class="st4" d="M381.21,960.84c-7.26,14.13-25.86,25.15-28.77,26.81c0.66-0.41,1.37-0.93,2.13-1.59
		c9.02-7.77,24.18-32.37,22.71-60.03c-0.87-16.41,3.27-33.47,3.86-44.14l0.68,0.09c0,0,0.67-5.02,1.69-9.8l0.33-1.15l0.01-0.05
		l0.76-2.61C378.4,894.3,389.08,945.48,381.21,960.84z"/>
	<path class="st7" d="M383.51,872.18c-1.01,4.78-1.69,9.8-1.69,9.8l-0.68-0.09l-0.46-0.05l0.51-1.76L383.51,872.18z"/>
	<g>
		<path class="st3" d="M209.86,926.72c-4.91,2.13-9.63,4.71-14.06,7.71c-0.95,0.65-2.01,1.79-1.41,2.77
			c0.37,0.59,1.16,0.73,1.85,0.8c1.93,0.21,3.86,0.41,5.8,0.62c-3.32,2.38-6.63,4.76-9.95,7.15c-1.89,1.36-3.87,2.82-4.77,4.97
			s-0.18,5.15,2.03,5.87c-3.15,3.73-6.36,7.58-7.93,12.2c-2.01,5.92-1.08,12.38-0.13,18.56c0.11,0.75,0.28,1.58,0.92,1.99
			c1.18,0.77,2.59-0.59,3.3-1.81c2.59-4.45,4.48-9.26,6.37-14.06c6.1-15.51,12.21-31.02,18.31-46.53"/>
		<g>
			<path class="st3" d="M209.29,925.75c-4.96,2.16-10.16,4.69-14.46,8.01c-1.48,1.14-2.64,3.47-0.65,4.78
				c0.94,0.62,2.19,0.61,3.27,0.72c1.53,0.16,3.06,0.32,4.59,0.49c-0.19-0.7-0.38-1.4-0.57-2.1c-2.45,1.76-4.91,3.53-7.36,5.29
				c-2.11,1.52-4.5,2.95-6.24,4.92c-1.38,1.57-2.26,3.48-1.99,5.6c0.24,1.95,1.33,3.52,3.18,4.23c-0.17-0.63-0.33-1.25-0.5-1.88
				c-4.44,5.26-8.47,10.59-9.27,17.64c-0.4,3.52-0.08,7.08,0.39,10.58c0.28,2.12,0.28,7.29,3.75,6.63c1.24-0.24,2.19-1.23,2.87-2.24
				c1.01-1.5,1.8-3.23,2.57-4.86c1.58-3.34,2.93-6.79,4.28-10.23c2.84-7.22,5.68-14.44,8.52-21.65c3.2-8.14,6.41-16.28,9.61-24.42
				c0.53-1.35-1.64-1.93-2.17-0.6c-5.08,12.9-10.15,25.8-15.23,38.7c-2.41,6.14-4.63,12.42-7.57,18.32
				c-0.66,1.32-1.29,2.85-2.24,3.97c-0.44,0.52-1.04,1.13-1.48,0.38c-0.33-0.57-0.32-1.69-0.42-2.33c-0.48-3.23-0.89-6.5-0.81-9.77
				c0.09-3.55,0.89-6.95,2.59-10.08c1.67-3.08,3.94-5.78,6.19-8.45c0.57-0.68,0.33-1.57-0.5-1.88c-1.38-0.53-1.76-2.3-1.51-3.61
				c0.35-1.84,1.97-3.25,3.38-4.33c3.61-2.77,7.4-5.33,11.09-7.99c0.94-0.67,0.56-1.98-0.57-2.1c-1.13-0.12-2.25-0.24-3.38-0.36
				c-0.48-0.05-0.97-0.1-1.45-0.15c-0.36-0.04-1.04,0.02-1.37-0.17c-0.4,0.01-0.52-0.17-0.35-0.55c0.16-0.22,0.34-0.42,0.54-0.59
				c0.33-0.3,0.73-0.53,1.1-0.78c0.83-0.55,1.67-1.08,2.52-1.6c3.46-2.12,7.06-3.98,10.78-5.6
				C211.75,927.12,210.6,925.18,209.29,925.75L209.29,925.75z"/>
		</g>
	</g>
	<path class="st3" d="M334,1059.97c-1.22,3.46-2.71,6.11-4.44,7.51c-10.15,8.26-34.9-0.32-37.44-17.13
		c-2.53-16.82-3.49-39.98-12.36-44.1c-3.98-1.84-7.37-1.91-10.82-1.59c-0.68,0.07-1.37,0.14-2.05,0.22
		c-3.63,0.43-7.47,0.99-12.19,0.11c-10.15-1.91-10.15,0.95-29.18-14.59c-14.16-11.56-18.82-35.18-20.98-56.41
		c-0.74-7.33-1.19-14.37-1.61-20.53c-2.03-29.25,11.46-44.55,21-50.96h0.01c2.01-1.36,3.86-2.32,5.33-2.92
		c1.51-0.63,2.65-0.9,3.21-0.84c2.07,0.17,6.64,3.23,13.38,7.87c5.69,3.91,12.93,8.95,21.52,14.33
		c18.72,11.75,15.87,11.43,30.77,32.52c10.78,15.26,13.6,52.01,19.86,73.21c2.4,8.12,5.29,13.97,9.34,15.46
		c1.92,0.71,3.57,2.24,4.91,4.36c-5.9,6.04-10.97,10.93-12.33,9.94c-3.23-2.36-5.36-14.13-7.94-29.76h-74.06
		c11.42,8.77,13.62,8.26,20.07,9.15c0.87,0.13,1.82,0.28,2.87,0.47c0.91,0.17,1.78,0.29,2.62,0.37c8.63,0.76,14.34-2.86,22.44,0.9
		c8.89,4.13,9.84,27.28,12.38,44.1C300.71,1057.57,323.02,1066.1,334,1059.97z"/>
	<path class="st3" d="M334,1059.97c-10.98,6.14-33.29-2.4-35.69-18.32c-2.54-16.82-3.49-39.96-12.38-44.1
		c-8.89-4.12-14.91,0.65-25.06-1.26c-8.9-1.67-9.99,0.32-22.94-9.63H312c2.58,15.63,4.71,27.4,7.94,29.76
		c1.36,0.99,6.43-3.9,12.33-9.94C339.47,1017.7,339.03,1045.72,334,1059.97z"/>
	<path class="st3" d="M332.26,1006.48c-5.9,6.04-10.97,10.93-12.33,9.94c-3.23-2.36-5.36-14.13-7.94-29.76h6.02
		c2.4,8.12,5.29,13.97,9.34,15.46C329.27,1002.83,330.92,1004.36,332.26,1006.48z"/>
	<path class="st4" d="M335.75,1058.79c-0.54,0.43-1.13,0.83-1.75,1.17c0.05-0.13,0.09-0.28,0.13-0.41
		c4.91-14.37,5.27-41.97-1.87-53.08c2.26-2.32,4.65-4.79,6.99-7.19l0.04-0.04C347.2,1014.31,344.27,1051.87,335.75,1058.79z"/>
	<path class="st4" d="M400.53,790.29c-2.83,3.36-8.01,5.6-13.92,5.6c-8.98,0-16.26-5.16-16.26-11.54c0-3.09,1.71-5.9,4.5-7.95
		c-1.47,1.72-2.32,3.75-2.32,5.93c0,6.36,7.28,11.52,16.26,11.52C393.4,793.84,397.58,792.48,400.53,790.29z"/>
	<path class="st5" d="M402.86,784.35c0,2.17-0.84,4.21-2.33,5.94c-2.95,2.2-7.12,3.56-11.73,3.56c-8.98,0-16.26-5.16-16.26-11.52
		c0-2.17,0.84-4.2,2.32-5.93c2.95-2.21,7.14-3.58,11.76-3.58C395.58,772.81,402.86,777.97,402.86,784.35z"/>
	<path class="st4" d="M402.86,784.35c0,2.17-0.84,4.21-2.33,5.94c-2.95,2.2-7.12,3.56-11.73,3.56c-8.98,0-16.26-5.16-16.26-11.52
		c0-2.17,0.84-4.2,2.32-5.93c2.95-2.21,7.14-3.58,11.76-3.58C395.58,772.81,402.86,777.97,402.86,784.35z"/>
	<g>
		<path class="st4" d="M385.54,797.3c0.31,2.09-7.1,8.31-7.1,8.31s-13.93,11.94-22.52,18.48"/>
		<g>
			<path class="st4" d="M384.04,797.3c0.02,0.26,0.01,0.2-0.23,0.61c-0.27,0.46-0.59,0.88-0.93,1.29c-0.91,1.08-1.91,2.08-2.93,3.05
				c-0.92,0.87-1.87,1.71-2.84,2.53c-4.12,3.52-8.28,7.01-12.47,10.45c-3.13,2.57-6.27,5.12-9.49,7.57
				c-1.52,1.15-0.02,3.76,1.51,2.59c5.96-4.54,11.73-9.34,17.46-14.16c2.67-2.25,5.4-4.46,7.94-6.86c1.17-1.1,2.31-2.25,3.31-3.51
				c0.77-0.97,1.77-2.23,1.66-3.56C386.88,795.39,383.88,795.38,384.04,797.3L384.04,797.3z"/>
		</g>
	</g>
	<g>
		<path class="st4" d="M386.29,797.3c5.5,6.11,8.99,13.65,12.24,21.19"/>
		<g>
			<path class="st4" d="M385.23,798.36c5.4,6.05,8.83,13.51,12.01,20.89c0.32,0.75,1.41,0.9,2.05,0.54
				c0.77-0.44,0.86-1.31,0.54-2.05c-3.29-7.64-6.89-15.23-12.48-21.5C386.06,794.8,383.95,796.93,385.23,798.36L385.23,798.36z"/>
		</g>
	</g>
	<g>
		<path class="st3" d="M214.75,874.4c-3.53,2.16-7.07,4.38-9.97,7.33s-5.14,6.74-5.44,10.87c-0.07,0.89,0.02,1.92,0.73,2.46
			c0.38,0.29,0.87,0.38,1.35,0.43c1.93,0.19,3.92-0.25,5.58-1.25c-6.56,5.24-9.75,14.35-7.89,22.53c0.12,0.54,0.29,1.11,0.72,1.46
			c0.39,0.31,0.92,0.37,1.42,0.36c2.21-0.06,4.23-1.41,5.59-3.14s2.18-3.84,2.9-5.92c4-11.46,6.13-23.56,6.29-35.69"/>
	</g>
	<g>
		<path class="st3" d="M374.73,828.97c-2.71,5.57-7.91,9.87-13.88,11.49c-0.93,0.25-1.92,0.47-2.61,1.12
			c-0.75,0.7-1.01,1.76-1.45,2.69c-2.16,4.55-8.09,5.41-12.66,7.54c-5.1,2.39-8.9,6.8-12.54,11.1c2.78,0.48,5.56-3.26,7.93-1.73
			c2.03,1.3,0.7,4.4-0.62,6.42c-1.32,2.02-1.9,5.57,0.45,6.09c1.15,0.26,2.25-0.53,3.16-1.27c2.1-1.7,4.2-3.39,6.29-5.09
			c0.66-0.53,1.55-1.09,2.29-0.67c0.78,0.45,0.68,1.59,0.48,2.47c-1.52,6.51-3.04,13.02-4.56,19.53c4.99-0.4,6.86-6.52,8.45-11.26
			c1.8-5.35,4.77-10.31,8.64-14.43c1.02-1.08,2.38-2.19,3.82-1.83c0.83,0.21,1.51,0.89,2.36,1.01c1.66,0.25,2.8-1.62,3.3-3.23
			c2.25-7.13,2.38-15.99,8.63-20.1c-2.74-0.44-3.71-4.01-3.19-6.74c0.52-2.73,1.92-5.38,1.52-8.13c-0.11-0.76-0.43-1.58-1.14-1.88
			c-1.03-0.44-2.12,0.48-2.82,1.36c-2.66,3.4-4.36,7.54-4.84,11.83"/>
		<g>
			<path class="st8" d="M373.76,828.4c-1.66,3.33-4.14,6.2-7.25,8.26c-1.52,1-3.16,1.83-4.89,2.4c-1.65,0.54-3.5,0.76-4.61,2.24
				c-1.06,1.4-1.31,3.13-2.61,4.4c-1.15,1.13-2.64,1.89-4.12,2.51c-3.3,1.39-6.73,2.33-9.73,4.37c-3.79,2.58-6.81,6.07-9.75,9.54
				c-0.67,0.79-0.18,1.8,0.8,1.92c1.59,0.19,3.03-0.56,4.4-1.26c0.99-0.51,3.24-1.67,3.45,0.3c0.17,1.62-1.07,3.12-1.79,4.45
				c-0.66,1.22-1.1,2.69-1,4.09c0.09,1.31,0.73,2.56,2.02,3.03c1.84,0.68,3.45-0.47,4.83-1.58c1.79-1.44,3.58-2.9,5.37-4.34
				c0.18-0.15,1.23-1.17,1.53-1.06c0.36,0.13,0.17,0.78,0.13,1.02c-0.2,1.17-0.54,2.33-0.81,3.49c-1.26,5.4-2.52,10.8-3.78,16.2
				c-0.15,0.64,0.32,1.5,1.08,1.42c4.05-0.43,6.29-3.7,7.76-7.19c0.84-2,1.45-4.07,2.2-6.1c0.91-2.42,2.08-4.74,3.45-6.93
				c1.42-2.25,3.06-4.61,5.06-6.38c0.44-0.39,0.98-0.85,1.58-0.96c0.69-0.12,1.21,0.31,1.79,0.59c0.93,0.46,1.89,0.63,2.87,0.24
				c1.87-0.74,2.67-2.87,3.19-4.65c0.6-2.08,1.04-4.2,1.52-6.31c1.03-4.51,2.28-9.55,6.34-12.3c0.74-0.5,0.75-1.85-0.27-2.06
				c-2.9-0.6-2.68-4.47-2.1-6.64c0.71-2.66,2.69-7.23,0.19-9.56c-2.73-2.53-5.57,1.92-6.74,3.91c-1.77,3.02-2.82,6.35-3.24,9.81
				c-0.17,1.43,2.08,1.42,2.25,0c0.38-3.13,1.42-6.15,3.03-8.85c0.45-0.76,1.94-3.58,3-3.22c1.25,0.43,0.37,3.67,0.14,4.54
				c-0.69,2.58-1.64,5.02-1.08,7.72c0.43,2.09,1.77,4.01,3.95,4.46c-0.09-0.69-0.18-1.37-0.27-2.06c-3.41,2.31-5.23,5.89-6.38,9.75
				c-0.6,2.02-1.04,4.08-1.5,6.14c-0.44,1.94-0.75,4.22-1.72,5.97c-0.54,0.97-1.12,1.56-2.21,1.07c-1.14-0.51-2.05-1.07-3.36-0.74
				c-2.29,0.58-3.98,2.93-5.37,4.69c-3.08,3.9-5.34,8.26-6.92,12.96c-1.18,3.5-2.73,9.37-7.17,9.84c0.36,0.47,0.72,0.95,1.08,1.42
				c1.21-5.16,2.41-10.32,3.62-15.48c0.3-1.27,0.6-2.54,0.89-3.81c0.2-0.87,0.37-1.79,0.1-2.66c-0.61-1.94-2.76-1.86-4.16-0.87
				c-2.05,1.44-3.94,3.17-5.89,4.75c-0.72,0.58-1.88,1.85-2.91,1.74c-0.79-0.08-0.88-0.9-0.85-1.55c0.15-3.25,4.03-5.91,2.49-9.38
				c-0.74-1.67-2.59-2.28-4.27-1.83c-1.87,0.5-3.49,2.17-5.51,1.93c0.27,0.64,0.53,1.28,0.8,1.92c2.68-3.16,5.41-6.41,8.8-8.84
				c3.02-2.17,6.47-3.14,9.85-4.56c3.12-1.31,5.72-3.08,7.07-6.27c0.42-0.99,0.76-1.75,1.83-2.14c0.86-0.32,1.77-0.49,2.64-0.79
				c1.73-0.6,3.39-1.41,4.92-2.4c3.5-2.27,6.36-5.44,8.21-9.17C376.35,828.25,374.41,827.11,373.76,828.4L373.76,828.4z"/>
		</g>
	</g>
	<g>
		<path class="st3" d="M326.66,1097.73c0.28,2.33-1.07,4.77-3.2,5.77s-4.86,0.49-6.48-1.21c-1.69-1.77-2.73-4.89-5.17-4.74
			c-1.93,0.11-2.94,2.3-3.52,4.14c-0.94,2.94-1.88,5.89-2.82,8.83c2.13-0.94,4.7,0.52,5.84,2.55c1.14,2.03,1.24,4.46,1.4,6.79
			c0.16,2.33,0.45,4.78,1.87,6.63c2.99-2.84,3.18-8.16,6.82-10.1c1.14-0.61,2.46-0.77,3.66-1.26c3.41-1.39,5.22-5.1,6.29-8.63
			c1.07-3.53,1.77-7.33,4.13-10.16c1.08-1.3,2.47-2.32,3.57-3.6c3.19-3.68,3.69-9.23,1.9-13.76c-0.31-0.8-0.74-1.62-1.5-2.02
			c-1.25-0.65-2.84,0.19-3.56,1.4c-0.72,1.21-0.82,2.67-1.03,4.06c-0.86,5.85-3.94,11.35-8.48,15.14"/>
		<g>
			<path class="st3" d="M325.54,1097.73c0.28,3.28-2.63,5.96-5.89,4.92c-2.77-0.88-3.33-4.19-5.67-5.65
				c-2.5-1.55-4.97,0.23-6.07,2.55c-0.69,1.47-1.11,3.07-1.6,4.62c-0.64,2.01-1.28,4.03-1.93,6.04c-0.25,0.77,0.58,1.69,1.38,1.38
				c3.77-1.44,5.4,3.4,5.66,6.19c0.3,3.19,0.21,6.55,2.18,9.26c0.42,0.58,1.21,0.78,1.77,0.23c1.87-1.86,2.67-4.33,3.83-6.64
				c0.51-1.01,1.09-2.04,1.97-2.76c1.35-1.11,3.23-1.19,4.77-1.92c5.59-2.65,6.29-9.54,8.13-14.69c0.52-1.47,1.2-2.92,2.19-4.13
				c1.15-1.41,2.66-2.48,3.81-3.89c1.77-2.17,2.73-4.85,2.96-7.63c0.23-2.71-0.18-6.25-1.81-8.52c-1.82-2.54-5.25-1.44-6.51,1.05
				c-0.8,1.58-0.8,3.41-1.14,5.12c-0.34,1.71-0.86,3.39-1.57,4.97c-1.47,3.29-3.67,6.17-6.42,8.51c-1.1,0.94,0.49,2.52,1.59,1.59
				c4.25-3.62,7.31-8.62,8.49-14.09c0.29-1.34,0.35-2.73,0.7-4.06c0.34-1.32,1.87-3.41,3.13-1.66c0.73,1.01,1.03,2.65,1.21,3.85
				c0.21,1.39,0.2,2.84-0.04,4.23c-0.52,2.97-2.06,5.1-4.21,7.12c-2.12,2-3.57,4.18-4.55,6.93c-1.7,4.77-2.28,11.85-7.96,13.66
				c-1.46,0.46-2.9,0.79-4.12,1.77c-0.96,0.77-1.68,1.78-2.27,2.85c-1.23,2.25-1.9,4.89-3.77,6.75c0.59,0.08,1.18,0.15,1.77,0.23
				c-2.45-3.4-1.27-7.86-2.51-11.66c-1.05-3.19-4.32-6.19-7.87-4.83c0.46,0.46,0.92,0.92,1.38,1.38c0.64-2.01,1.28-4.03,1.93-6.04
				c0.51-1.6,0.88-3.38,1.77-4.83c2.07-3.37,4.21,1.07,5.53,2.66c1.82,2.21,4.96,3.12,7.66,2.11c2.82-1.05,4.6-4.02,4.35-6.99
				C327.67,1096.3,325.41,1096.29,325.54,1097.73L325.54,1097.73z"/>
		</g>
	</g>
	<g>
		<path class="st1" d="M207.42,934.82c-2.42,8.25-7,20.25-9.31,28.54c-1.66,5.96-3.33,11.92-4.99,17.88
			c-1.65,5.91-3.31,12.12-1.94,18.1c0.27,1.18,0.66,2.37,0.56,3.58c-0.1,1.14-0.63,2.2-1.11,3.24c-2.65,5.64-4.3,11.85-4.01,18.08
			c0.19,4.06,1.19,8.12,0.65,12.15c-0.64,4.76-3.35,8.96-4.77,13.54c-1.42,4.58-1.11,10.44,2.9,13.09
			c-5.37,2.86-7.02,9.86-6.56,15.92c0.46,6.06,2.45,12.03,1.99,18.1c-0.27,3.53-1.36,7.08-0.66,10.55c0.52,2.56,2.02,4.97,1.85,7.57
			c-0.12,1.85-1.07,3.55-1.31,5.39c-0.35,2.64,0.79,5.22,1.55,7.78c1.41,4.72,1.57,9.72,2.67,14.52s3.44,9.69,7.76,12.04
			c0.53,0.29,1.14,0.54,1.72,0.39c0.97-0.25,1.32-1.41,1.5-2.4c3.29-17.84,2.05-36.15,1.92-54.29
			c-0.26-38.01,4.44-75.93,11.65-113.24C212.78,968.37,216.29,949.62,207.42,934.82"/>
		<g>
			<path class="st1" d="M206.34,934.52c-2.29,7.76-5.16,15.33-7.64,23.03c-1.36,4.23-2.51,8.52-3.71,12.8
				c-1.35,4.82-2.79,9.63-4,14.49c-1.15,4.6-1.93,9.39-1.03,14.1c0.22,1.15,0.69,2.33,0.68,3.52c-0.01,1.28-0.65,2.4-1.17,3.53
				c-0.96,2.1-1.8,4.25-2.45,6.47c-1.35,4.6-1.82,9.34-1.34,14.11c0.24,2.33,0.6,4.66,0.62,7.01c0.03,2.46-0.48,4.79-1.32,7.1
				c-1.58,4.34-4,8.4-4.34,13.1c-0.28,3.89,0.86,7.89,4.19,10.19c0-0.65,0-1.3,0-1.94c-3.6,2-5.72,5.67-6.61,9.61
				c-1.08,4.78-0.35,9.56,0.48,14.32c0.49,2.82,0.99,5.64,1.06,8.5c0.07,2.82-0.5,5.54-0.81,8.32c-0.3,2.69,0.01,5.13,0.91,7.68
				c0.38,1.09,0.82,2.21,0.99,3.36c0.21,1.45-0.22,2.77-0.65,4.13c-0.83,2.64-0.75,5.01,0.03,7.66c0.78,2.65,1.59,5.21,2.05,7.94
				c0.84,5.01,1.21,10.11,3.33,14.8c0.89,1.98,2.11,3.85,3.67,5.37c1.29,1.25,3.49,3.14,5.44,2.62c2.14-0.57,2.33-3.32,2.62-5.09
				c0.47-2.81,0.83-5.63,1.11-8.47c1.16-11.62,0.86-23.31,0.65-34.97c-0.22-11.81-0.14-23.61,0.44-35.41
				c1.17-23.61,4.05-47.12,8.05-70.41c1.83-10.68,4.26-21.29,5.67-32.04c1.27-9.67,1.59-19.88-1.8-29.18
				c-0.82-2.26-1.85-4.44-3.08-6.51c-0.74-1.25-2.68-0.11-1.94,1.14c4.9,8.3,5.9,17.97,5.29,27.42
				c-0.64,10.01-2.92,19.83-4.73,29.66c-4.04,22-7.16,44.19-8.86,66.5c-0.85,11.14-1.34,22.3-1.42,33.47
				c-0.08,11.13,0.42,22.25,0.32,33.38c-0.05,5.58-0.27,11.16-0.81,16.71c-0.28,2.88-0.65,5.74-1.14,8.59
				c-0.11,0.65-0.16,2.43-0.75,2.89c-0.72,0.56-2.39-0.92-2.94-1.39c-3.34-2.86-4.85-7.26-5.67-11.45
				c-0.52-2.65-0.81-5.33-1.25-7.99c-0.42-2.58-1.1-5.04-1.89-7.52c-0.39-1.24-0.77-2.51-0.82-3.81c-0.05-1.37,0.39-2.62,0.78-3.91
				c0.72-2.32,0.69-4.39-0.06-6.7c-0.8-2.48-1.58-4.66-1.41-7.31c0.17-2.63,0.81-5.2,0.9-7.84c0.34-9.22-4.97-19.34-0.05-28.08
				c0.96-1.71,2.29-3.08,4.01-4.03c0.79-0.44,0.67-1.48,0-1.94c-2.89-2-3.42-5.86-2.99-9.11c0.55-4.19,2.84-7.92,4.25-11.85
				c1.59-4.44,1.35-8.72,0.83-13.34c-0.53-4.69-0.34-9.23,0.89-13.8c0.61-2.26,1.41-4.47,2.37-6.6c0.88-1.95,1.8-3.72,1.47-5.93
				c-0.35-2.44-1.02-4.68-0.98-7.18c0.04-2.42,0.43-4.81,0.97-7.17c1.06-4.71,2.5-9.34,3.8-13.99c1.19-4.26,2.31-8.54,3.62-12.76
				c2.61-8.45,5.82-16.7,8.32-25.18C208.92,933.73,206.75,933.13,206.34,934.52L206.34,934.52z"/>
		</g>
	</g>
	<path class="st3" d="M323.76,1191.62c0-18.94-24.61-45.32-50.07-45.32s-46.1,15.36-46.1,34.3c0,18.94,20.12,30.92,45.59,30.92
		S323.76,1210.56,323.76,1191.62z"/>
	<g>
		<g>
			<path class="st1" d="M292.42,778.49c-0.13-1.57-0.27-3.13-0.4-4.7c-0.13-1.51-0.35-3.04-0.32-4.56c0.04-2.65,2.03-4.16,4.03-5.57
				c-0.68-0.68-1.37-1.37-2.05-2.05c-0.43,0.89-1.31,1.42-2,2.1c-0.92,0.92-1.5,2.05-1.44,3.37c0.07,1.52,0.71,3.09,1.11,4.54
				c0.43,1.55,0.86,3.1,1.3,4.65c0.52,1.86,3.41,1.07,2.89-0.8c-0.4-1.45-0.81-2.89-1.21-4.34c-0.36-1.27-0.87-2.6-1.07-3.91
				c-0.13-0.86,0.39-1.29,0.99-1.82c0.77-0.68,1.55-1.34,2.01-2.29c0.29-0.61,0.26-1.32-0.23-1.82c-0.44-0.44-1.28-0.61-1.82-0.23
				c-2.47,1.73-4.95,3.71-5.41,6.89c-0.24,1.68,0,3.37,0.14,5.05c0.16,1.83,0.31,3.65,0.47,5.48c0.07,0.81,0.64,1.5,1.5,1.5
				C291.68,779.99,292.49,779.31,292.42,778.49L292.42,778.49z"/>
		</g>
	</g>
</g>
</svg>
