<?xml version="1.0" encoding="utf-8"?>
<!-- Generator: Adobe Illustrator 24.2.1, SVG Export Plug-In . SVG Version: 6.00 Build 0)  -->
<svg version="1.1" id="Layer_1" xmlns="http://www.w3.org/2000/svg" xmlns:xlink="http://www.w3.org/1999/xlink" x="0px" y="0px"
	 viewBox="0 0 612 792" style="enable-background:new 0 0 612 792;" xml:space="preserve">
<style type="text/css">
	.st0{fill:#F1F2F2;}
	.st1{fill:#FFFFFF;}
	.st2{font-family:'Avenir-Light';}
	.st3{font-size:51.282px;}
	.st4{font-size:11px;}
	.st5{font-family:'Avenir-Medium';}
	.st6{font-size:12px;}
	.st7{fill:#4A68B1;}
	.st8{fill:none;}
	.st9{font-family:'Avenir-Black';}
	.st10{font-size:10px;}
	.st11{fill:none;stroke:#F1F2F2;stroke-width:2;stroke-miterlimit:10;}
	.st12{font-family:'Avenir-Heavy';}
	.st13{font-family:'Avenir-Roman';}
	.st14{font-size:9px;}
	.st15{fill:#6D6E71;}
	.st16{font-size:8px;}
</style>
<rect x="373" y="145" class="st0" width="239" height="647"/>
<rect x="388" y="622" class="st1" width="211" height="77"/>
<text transform="matrix(1 0 0 1 19.1447 65.1388)" class="st2 st3">Ella Juengst</text>
<text transform="matrix(1 0 0 1 540.1471 58.5362)" class="st2 st4">109 Grant st</text>
<text transform="matrix(1 0 0 1 491.8357 73.9294)" class="st2 st4">Chapel Hill, NC 27516</text>
<text transform="matrix(1 0 0 1 518.5645 25.1428)" class="st5 st6">(571) 421-9248</text>
<text transform="matrix(1 0 0 1 474.8137 40.8322)" class="st5 st6">ellajuengst@gmail.com</text>
<g>
	<text transform="matrix(1 0 0 1 491.9013 93.8793)" class="st7 st5 st4" style="text-decoration: underline;">ellajuengst@github.io</text>
</g>
<g>
	<text transform="matrix(1 0 0 1 461.5632 111.1177)" class="st7 st5 st4" style="text-decoration: underline;">linkedin.com/in/ella-juengst</text>
</g>
<g>
	<text transform="matrix(1 0 0 1 484.3885 129.7342)" class="st7 st5 st4" style="text-decoration: underline;">github.com/ellajuengst</text>
</g>
<rect x="19.1" y="160.4" class="st8" width="88.7" height="15.7"/>
<text transform="matrix(1 0 0 1 19.1346 170.6326)" class="st7 st9 st6">EDUCATION</text>
<g>
	<text transform="matrix(1 0 0 1 388.9293 174.811)" class="st7 st9 st6">Languages &amp; Technologies</text>
</g>
<rect x="19.1" y="84.5" class="st8" width="339.6" height="74.3"/>
<text transform="matrix(1 0 0 1 19.1342 92.0885)" class="st2 st10">Driven and passionate Computer Science student with experience writing </text>
<text transform="matrix(1 0 0 1 19.1342 104.0885)" class="st2 st10">efficient code and designing beautiful applications. Exhibits a natural </text>
<text transform="matrix(1 0 0 1 19.1342 116.0885)" class="st2 st10">curiosity to learn new technologies, strong problem solving skills, and a </text>
<text transform="matrix(1 0 0 1 19.1342 128.0885)" class="st2 st10">developed eye for design. </text>
<line class="st11" x1="418" y1="146" x2="0" y2="146"/>
<line class="st11" x1="375" y1="145" x2="375" y2="0"/>
<g>
	<rect x="19.1" y="179.6" class="st8" width="280" height="15.5"/>
	<text transform="matrix(1 0 0 1 19.1345 189.8484)" class="st12 st6">University of North Carolina </text>
	<text transform="matrix(1 0 0 1 180.0345 189.8484)" class="st2 st6">| Chapel Hill, NC</text>
	<rect x="19.1" y="194.1" class="st8" width="280" height="12.6"/>
	<text transform="matrix(1 0 0 1 19.1344 202.657)" class="st13 st10">BS in Computer Science </text>
	<text transform="matrix(1 0 0 1 130.1344 202.657)" class="st2 st10">|</text>
	<text transform="matrix(1 0 0 1 132.3344 202.657)" class="st13 st10"> Minor in Advertising and PR</text>
	<text transform="matrix(1 0 0 1 263.7408 202.6567)" class="st2 st10">— </text>
	<text transform="matrix(1 0 0 1 276.3408 202.6567)" class="st5 st10">GPA: 3.9</text>
	<rect x="19.1" y="218.2" class="st8" width="349.1" height="11.4"/>
	<text transform="matrix(1 0 0 1 19.1346 225.8411)" class="st5 st14">Honors: </text>
	<text transform="matrix(1 0 0 1 53.8346 225.8411)" class="st2 st14">Dean’s List (2018-19), Washington D.C. Carolina Club Scholarship Recipient</text>
	<rect x="19.1" y="206.9" class="st8" width="107.4" height="8.8"/>
	<text transform="matrix(1 0 0 1 19.1348 213.7672)" class="st15 st2 st16">Expected Class of 2022</text>
	<rect x="19" y="231.3" class="st8" width="360.3" height="46.8"/>
	<text transform="matrix(1 0 0 1 19.0341 238.1293)" class="st5 st14">Relevant Coursework:</text>
	<text transform="matrix(1 0 0 1 108.4341 238.1293)" class="st2 st14"> Foundations of Programming (Object-Oriented), Introduction to </text>
	<text transform="matrix(1 0 0 1 19.0341 248.9293)" class="st2 st14">Web Development, Computer Organization, Data Structures, Files and Databases, </text>
	<text transform="matrix(1 0 0 1 19.0341 259.7293)" class="st2 st14">Modern Web Programming, Models of Languages and Computation, Foundations of </text>
	<text transform="matrix(1 0 0 1 19.0341 270.5293)" class="st2 st14">Interactive Media. </text>
	<text transform="matrix(1 0 0 1 93.0341 270.5293)" class="st13 st14">By summer 2021:</text>
	<text transform="matrix(1 0 0 1 162.9341 270.5293)" class="st2 st14"> UX Strategy and Design, Algorithms and Analysis. </text>
</g>
<g>
	<rect x="19.1" y="285.6" class="st8" width="298.9" height="15.5"/>
	<text transform="matrix(1 0 0 1 19.1345 295.8611)" class="st12 st6">H-B Woodlawn Secondary Program </text>
	<text transform="matrix(1 0 0 1 220.8345 295.8611)" class="st2 st6">| Arlington, VA</text>
	<rect x="19.1" y="300.1" class="st8" width="169.8" height="12.6"/>
	<text transform="matrix(1 0 0 1 19.1344 308.6697)" class="st13 st10">High School Diploma </text>
	<text transform="matrix(1 0 0 1 116.9344 308.6697)" class="st2 st10">— </text>
	<text transform="matrix(1 0 0 1 129.5344 308.6697)" class="st5 st10">GPA: 4.2</text>
	<rect x="19.1" y="324.2" class="st8" width="318.7" height="24.6"/>
	<text transform="matrix(1 0 0 1 19.1346 331.8538)" class="st5 st14">Honors: </text>
	<text transform="matrix(1 0 0 1 53.8346 331.8538)" class="st2 st14">National Honors Society (2016-18), AP Scholar with Distinction (2017), </text>
	<text transform="matrix(1 0 0 1 19.1346 342.6538)" class="st2 st14">ACT Score: 33</text>
	<rect x="19.1" y="312.9" class="st8" width="64.6" height="8.8"/>
	<text transform="matrix(1 0 0 1 19.1348 319.7799)" class="st15 st2 st16">Class of 2018</text>
</g>
<rect x="19.1" y="355.6" class="st8" width="88.7" height="15.7"/>
<text transform="matrix(1 0 0 1 19.1095 365.8788)" class="st7 st9 st6">EXPERIENCE</text>
<g>
	<rect x="19.1" y="375.8" class="st8" width="340.7" height="15.5"/>
	<text transform="matrix(1 0 0 1 19.1093 386.0947)" class="st12 st6">UX/UI and Web Development Intern </text>
	<text transform="matrix(1 0 0 1 226.9093 386.0947)" class="st2 st6">| </text>
	<text transform="matrix(1 0 0 1 232.6093 386.0947)" class="st5 st6">Float </text>
	<text transform="matrix(1 0 0 1 263.5093 386.0947)" class="st2 st6">| Chapel Hill, NC </text>
	<rect x="19.1" y="390.4" class="st8" width="97.7" height="12.5"/>
	<text transform="matrix(1 0 0 1 19.1093 398.9033)" class="st7 st13 st10">www.floatup.co</text>
	<rect x="19.1" y="403.2" class="st8" width="77.1" height="8.8"/>
	<text transform="matrix(1 0 0 1 19.1097 410.0135)" class="st15 st2 st16">July 2020 - Present</text>
	<rect x="19" y="415.7" class="st8" width="346.2" height="52.9"/>
	<text transform="matrix(1 0 0 1 19.0094 422.5121)" class="st2 st14">Float is an innovative startup that connects homeowners, businesses, and community </text>
	<text transform="matrix(1 0 0 1 19.0094 433.3121)" class="st2 st14">centers with renters looking for monthly parking. Helps develop the website using </text>
	<text transform="matrix(1 0 0 1 19.0094 444.1121)" class="st2 st14">JavaScript and React.js. Designs mockups and prototypes in Figma for website </text>
	<text transform="matrix(1 0 0 1 19.0094 454.9121)" class="st2 st14">architecture and design. Creates UI elements, illustrations, and animations for the </text>
	<text transform="matrix(1 0 0 1 19.0094 465.7121)" class="st2 st14">website and social media. </text>
</g>
<g>
	<rect x="19.1" y="481.2" class="st8" width="314.1" height="28.5"/>
	<text transform="matrix(1 0 0 1 19.0843 491.4161)" class="st12 st6">Director of Marketing </text>
	<text transform="matrix(1 0 0 1 145.2843 491.4161)" class="st2 st6">| </text>
	<text transform="matrix(1 0 0 1 151.0843 491.4161)" class="st5 st6">Kappa Theta Pi - Professional </text>
	<text transform="matrix(1 0 0 1 19.0843 505.8161)" class="st5 st6">Technology Fraternity</text>
	<text transform="matrix(1 0 0 1 138.6843 505.8161)" class="st12 st6"> </text>
	<text transform="matrix(1 0 0 1 142.1843 505.8161)" class="st2 st6">| Chapel Hill, NC </text>
	<rect x="19.1" y="511.6" class="st8" width="77.2" height="8.8"/>
	<text transform="matrix(1 0 0 1 19.0851 518.4446)" class="st15 st2 st16">July 2020 - Present</text>
	<rect x="19" y="524.1" class="st8" width="340.8" height="21.6"/>
	<text transform="matrix(1 0 0 1 18.9844 530.9426)" class="st2 st14">Designs and builds  branding, logos, website, and merchandise. Creates and </text>
	<text transform="matrix(1 0 0 1 18.9844 541.7426)" class="st2 st14">manages marketing strategy and social media platforms. </text>
</g>
<g>
	<rect x="19.1" y="621.8" class="st8" width="340.7" height="28.5"/>
	<text transform="matrix(1 0 0 1 19.0843 632.0177)" class="st12 st6">Physics Teaching Assistant </text>
	<text transform="matrix(1 0 0 1 170.6843 632.0177)" class="st5 st6">| H-B Woodlawn Secondary Pro</text>
	<text transform="matrix(1 0 0 1 341.1843 632.0177)" class="st2 st6">-</text>
	<text transform="matrix(1 0 0 1 19.0843 646.4177)" class="st5 st6">gram</text>
	<text transform="matrix(1 0 0 1 46.8843 646.4177)" class="st12 st6"> </text>
	<text transform="matrix(1 0 0 1 50.3843 646.4177)" class="st2 st6">| Arlington, VA </text>
	<rect x="19.1" y="652.2" class="st8" width="112.6" height="8.8"/>
	<text transform="matrix(1 0 0 1 19.0851 659.0457)" class="st15 st2 st16">September 2017 - June 2018</text>
	<rect x="19" y="664.7" class="st8" width="340.8" height="21.6"/>
	<text transform="matrix(1 0 0 1 18.9844 671.5443)" class="st2 st14">Involved teaching lessons, assisting the teacher with planning, and helping students </text>
	<text transform="matrix(1 0 0 1 18.9844 682.3443)" class="st2 st14">with problems or questions in a high school physics class.</text>
</g>
<rect x="19.1" y="698.9" class="st8" width="314.1" height="25.7"/>
<text transform="matrix(1 0 0 1 19.1095 709.1307)" class="st12 st6">Administrative Assistant </text>
<text transform="matrix(1 0 0 1 158.4095 709.1307)" class="st2 st6">| </text>
<text transform="matrix(1 0 0 1 164.2095 709.1307)" class="st5 st6">Kevin Love Re/MAX Realty</text>
<text transform="matrix(1 0 0 1 309.6095 709.1307)" class="st12 st6"> </text>
<text transform="matrix(1 0 0 1 313.1095 709.1307)" class="st2 st6">| </text>
<text transform="matrix(1 0 0 1 19.1095 723.5307)" class="st2 st6">Arlington, VA </text>
<rect x="19.2" y="730.8" class="st8" width="105.9" height="8.8"/>
<text transform="matrix(1 0 0 1 19.185 737.6291)" class="st15 st2 st16">June 2016 - August 2016</text>
<rect x="19.1" y="743.3" class="st8" width="340.8" height="21.6"/>
<text transform="matrix(1 0 0 1 19.0847 749.9277)" class="st2 st14">Completed administrative tasks and maintained inventory.</text>
<rect x="397.6" y="662.1" class="st8" width="189.7" height="31.5"/>
<text transform="matrix(1 0 0 1 397.6203 668.9009)" class="st2 st14">A trivia skill-building React application which </text>
<text transform="matrix(1 0 0 1 397.6203 679.7009)" class="st2 st14">stores user information in a Firebase database </text>
<text transform="matrix(1 0 0 1 397.6203 690.5009)" class="st2 st14">and pulls from a public Trivia API.</text>
<g>
	<rect x="19.1" y="558.3" class="st8" width="340.7" height="14.2"/>
	<text transform="matrix(1 0 0 1 19.1346 568.5291)" class="st12 st6">Counselor </text>
	<text transform="matrix(1 0 0 1 79.3346 568.5291)" class="st2 st6">| </text>
	<text transform="matrix(1 0 0 1 85.1346 568.5291)" class="st5 st6">TIC Summer Camp</text>
	<text transform="matrix(1 0 0 1 187.6346 568.5291)" class="st12 st6"> </text>
	<text transform="matrix(1 0 0 1 191.1346 568.5291)" class="st2 st6">| McLean, VA</text>
	<rect x="19.1" y="575.1" class="st8" width="93.5" height="8.8"/>
	<text transform="matrix(1 0 0 1 19.1349 581.9327)" class="st15 st2 st16">June 2019 - August 2019</text>
	<rect x="19" y="587.6" class="st8" width="340.8" height="21.6"/>
	<text transform="matrix(1 0 0 1 19.0347 594.4313)" class="st2 st14">TIC is a summer camp which focuses on teaching campers the value of technology </text>
	<text transform="matrix(1 0 0 1 19.0347 605.2313)" class="st2 st14">(programming, digital arts, robotics) and athletics.</text>
</g>
<path class="st1" d="M453,206h-57c-5,0-9-4-9-9l0,0c0-5,4-9,9-9h57c5,0,9,4,9,9l0,0C462,202,458,206,453,206z"/>
<text transform="matrix(1 0 0 1 396.5579 200.1977)" class="st5 st6">JavaScript</text>
<path class="st1" d="M438,233h-41c-5,0-9-4-9-9l0,0c0-5,4-9,9-9h41c5,0,9,4,9,9l0,0C447,229,443,233,438,233z"/>
<text transform="matrix(1 0 0 1 397.4891 228.5148)" class="st5 st6">HTML5</text>
<path class="st1" d="M505,233h-36c-5,0-9-4-9-9l0,0c0-5,4-9,9-9h36c5,0,9,4,9,9l0,0C514,229,510,233,505,233z"/>
<text transform="matrix(1 0 0 1 472.6714 228.2652)" class="st5 st6">CSS3</text>
<path class="st1" d="M577,233h-43c-5,0-9-4-9-9l0,0c0-5,4-9,9-9h43c5,0,9,4,9,9l0,0C586,229,582,233,577,233z"/>
<path class="st1" d="M490,288h-43c-5,0-9-4-9-9l0,0c0-5,4-9,9-9h43c5,0,9,4,9,9l0,0C499,284,495,288,490,288z"/>
<text transform="matrix(1 0 0 1 534.6943 228.5148)" class="st5 st6">Node.js</text>
<path class="st1" d="M452,261h-56c-5,0-9-4-9-9l0,0c0-5,4-9,9-9h56c5,0,9,4,9,9l0,0C461,257,457,261,452,261z"/>
<text transform="matrix(1 0 0 1 395.8563 255.2879)" class="st5 st6">TypeScript</text>
<path class="st1" d="M419,288h-22c-5,0-9-4-9-9l0,0c0-5,4-9,9-9h22c5,0,9,4,9,9l0,0C428,284,424,288,419,288z"/>
<text transform="matrix(1 0 0 1 395.9308 281.6298)" class="st5 st6">npm</text>
<text transform="matrix(1 0 0 1 450.0621 283.0611)" class="st5 st6">SQLite</text>
<path class="st1" d="M571,288h-53c-5,0-9-4-9-9l0,0c0-5,4-9,9-9h53c5,0,9,4,9,9l0,0C580,284,576,288,571,288z"/>
<text transform="matrix(1 0 0 1 518.9346 282.6299)" class="st5 st6">Assembly</text>
<path class="st1" d="M501,261h-19c-5,0-9-4-9-9l0,0c0-5,4-9,9-9h19c5,0,9,4,9,9l0,0C510,257,506,261,501,261z"/>
<text transform="matrix(1 0 0 1 479.7143 256.288)" class="st5 st6">Sass</text>
<path class="st1" d="M581,261h-50c-5,0-9-4-9-9l0,0c0-5,4-9,9-9h50c5,0,9,4,9,9l0,0C590,257,586,261,581,261z"/>
<text transform="matrix(1 0 0 1 528.7959 256.288)" class="st5 st6">Bootstrap</text>
<path class="st1" d="M525,206h-42c-5,0-9-4-9-9l0,0c0-5,4-9,9-9h42c5,0,9,4,9,9l0,0C534,202,530,206,525,206z"/>
<text transform="matrix(1 0 0 1 482.8267 200.1979)" class="st5 st6">React.js</text>
<path class="st1" d="M582,206h-26c-5,0-9-4-9-9l0,0c0-5,4-9,9-9h26c5,0,9,4,9,9l0,0C591,202,587,206,582,206z"/>
<text transform="matrix(1 0 0 1 557.1573 200.1979)" class="st5 st6">Java</text>
<g>
	<text transform="matrix(1 0 0 1 388.929 321.9162)" class="st7 st9 st6">Soft Skills</text>
</g>
<path class="st1" d="M459,353h-63c-5,0-9-4-9-9l0,0c0-5,4-9,9-9h63c5,0,9,4,9,9l0,0C468,349,464,353,459,353z"/>
<text transform="matrix(1 0 0 1 398.2664 348.1339)" class="st5 st6">Work Ethic</text>
<path class="st1" d="M503,381H397c-5,0-9-4-9-9l0,0c0-5,4-9,9-9h106c5,0,9,4,9,9l0,0C512,377,508,381,503,381z"/>
<text transform="matrix(1 0 0 1 399.0783 375.8671)" class="st5 st6">Attention to Detail</text>
<path class="st1" d="M540,409H396c-5,0-9-4-9-9l0,0c0-5,4-9,9-9h144c5,0,9,4,9,9l0,0C549,405,545,409,540,409z"/>
<text transform="matrix(1 0 0 1 399.2684 403.5113)" class="st5 st6">Excellent Communication</text>
<path class="st1" d="M504,436H397c-5,0-9-4-9-9l0,0c0-5,4-9,9-9h107c5,0,9,4,9,9l0,0C513,432,509,436,504,436z"/>
<text transform="matrix(1 0 0 1 399.0852 431.1554)" class="st5 st6">Time Management</text>
<path class="st1" d="M564,353h-73c-5,0-9-4-9-9l0,0c0-5,4-9,9-9h73c5,0,9,4,9,9l0,0C573,349,569,353,564,353z"/>
<text transform="matrix(1 0 0 1 493.5848 348.1339)" class="st5 st6">Organization</text>
<g>
	<text transform="matrix(1 0 0 1 386.7555 468.5832)" class="st7 st9 st6">Other Skills</text>
</g>
<path class="st1" d="M455,499h-59c-5,0-9-4-9-9l0,0c0-5,4-9,9-9h59c5,0,9,4,9,9l0,0C464,495,460,499,455,499z"/>
<text transform="matrix(1 0 0 1 396.4278 493.2372)" class="st5 st6">UX Design</text>
<path class="st1" d="M489,525h-93c-5,0-9-4-9-9l0,0c0-5,4-9,9-9h93c5,0,9,4,9,9l0,0C498,521,494,525,489,525z"/>
<text transform="matrix(1 0 0 1 396.5163 519.9226)" class="st5 st6">Adobe Illustrator</text>
<path class="st1" d="M576,525h-55c-5,0-9-4-9-9l0,0c0-5,4-9,9-9h55c5,0,9,4,9,9l0,0C585,521,581,525,576,525z"/>
<text transform="matrix(1 0 0 1 520.3542 519.9227)" class="st5 st6">Adobe XD</text>
<path class="st1" d="M490,552h-95c-5,0-9-4-9-9l0,0c0-5,4-9,9-9h95c5,0,9,4,9,9l0,0C499,548,495,552,490,552z"/>
<text transform="matrix(1 0 0 1 393.1496 546.6081)" class="st5 st6">Adobe Photoshop</text>
<path class="st1" d="M558,552h-35c-5,0-9-4-9-9l0,0c0-5,4-9,9-9h35c5,0,9,4,9,9l0,0C567,548,563,552,558,552z"/>
<text transform="matrix(1 0 0 1 524.0668 546.6082)" class="st5 st6">Figma</text>
<path class="st1" d="M470,579h-75c-5,0-9-4-9-9l0,0c0-5,4-9,9-9h75c5,0,9,4,9,9l0,0C479,575,475,579,470,579z"/>
<text transform="matrix(1 0 0 1 396.5653 573.2936)" class="st5 st6">Google Drive</text>
<path class="st1" d="M595,579h-92c-5,0-9-4-9-9l0,0c0-5,4-9,9-9h92c5,0,9,4,9,9l0,0C604,575,600,579,595,579z"/>
<text transform="matrix(1 0 0 1 505.3136 573.2941)" class="st5 st6">Microsoft Office</text>
<path class="st1" d="M571,499h-85c-5,0-9-4-9-9l0,0c0-5,4-9,9-9h85c5,0,9,4,9,9l0,0C580,495,576,499,571,499z"/>
<text transform="matrix(1 0 0 1 486.9045 493.2372)" class="st5 st6">Graphic Design</text>
<g>
	<text transform="matrix(1 0 0 1 386.3795 609.1843)" class="st7 st9 st6">Projects</text>
</g>
<text transform="matrix(1 0 0 1 396.4282 641.2697)" class="st12 st4">Trivia Web App</text>
<text transform="matrix(1 0 0 1 476.7282 641.2697)" class="st12 st6"> </text>
<text transform="matrix(1 0 0 1 480.2282 641.2697)" class="st2 st6">| </text>
<text transform="matrix(1 0 0 1 486.0282 641.2697)" class="st2 st10">JavaScript, React.js</text>
<rect x="488.9" y="647.9" class="st8" width="93.5" height="8.8"/>
<text transform="matrix(1 0 0 1 488.9477 654.782)" class="st15 st2 st16">November 2020</text>
<rect x="388" y="707" class="st1" width="211" height="75"/>
<text transform="matrix(1 0 0 1 397.4887 725.9093)" class="st12 st4">COVID-19 U.S. </text>
<text transform="matrix(1 0 0 1 476.6887 725.9093)" class="st2 st6">| </text>
<text transform="matrix(1 0 0 1 482.4887 725.9093)" class="st2 st10">Node.js, Express, React.js</text>
<rect x="397.6" y="646.1" class="st8" width="97.7" height="12.5"/>
<text transform="matrix(1 0 0 1 397.6204 654.6455)" class="st7 st13 st10">trivia426.web.app</text>
<rect x="397.1" y="762" class="st8" width="189.7" height="21.2"/>
<text transform="matrix(1 0 0 1 397.1093 768.8047)" class="st2 st14">Web scraper and COVID-19 data visualization.</text>
<rect x="398.3" y="747.5" class="st8" width="57.9" height="8.8"/>
<text transform="matrix(1 0 0 1 398.266 755.3015)" class="st15 st2 st16">December 2020</text>
<rect x="398.3" y="732.9" class="st8" width="164.9" height="12.5"/>
<text transform="matrix(1 0 0 1 398.2668 740.4894)" class="st7 st13 st10">visualize-covid19-us.herokuapp.com</text>
</svg>
