<?xml version="1.0" encoding="utf-8"?>
<!-- Generator: Adobe Illustrator 24.2.1, SVG Export Plug-In . SVG Version: 6.00 Build 0)  -->
<svg version="1.1" xmlns="http://www.w3.org/2000/svg" xmlns:xlink="http://www.w3.org/1999/xlink" x="0px" y="0px"
	 viewBox="0 0 1442 860" style="enable-background:new 0 0 1442 860;" xml:space="preserve">
<style type="text/css">
	.st0{clip-path:url(#SVGID_2_);}
	.st1{fill:#FFFFFF;}
	.st2{fill:none;}
	.st3{fill:url(#SVGID_3_);}
	.st4{fill:#FAFAFA;}
	.st5{fill:#1890FF;}
	.st6{opacity:0.65;}
	.st7{fill:#F8F8F8;}
	.st8{fill:#EFEFEF;}
	.st9{fill:#E3E3E3;}
	.st10{fill:#262626;}
	.st11{fill:#40A9FF;}
</style>
<g id="Layer_1">
	<g>
		<defs>
			<rect id="SVGID_1_" x="-0.2" y="0.5" width="1440" height="860"/>
		</defs>
		<clipPath id="SVGID_2_">
			<use xlink:href="#SVGID_1_"  style="overflow:visible;"/>
		</clipPath>
		<g class="st0">
			<rect x="-0.2" y="0.5" class="st1" width="1440" height="860"/>
			<rect x="31.8" y="43.7" class="st2" width="91.1" height="30.5"/>
			<g>
				
					<linearGradient id="SVGID_3_" gradientUnits="userSpaceOnUse" x1="-183.1881" y1="730.5403" x2="-183.1881" y2="155.5403" gradientTransform="matrix(1 0 0 -1 287 848)">
					<stop  offset="0" style="stop-color:#40A9FF"/>
					<stop  offset="0.7552" style="stop-color:#597EF7"/>
				</linearGradient>
				<path class="st3" d="M-0.2,117.5h178c16.6,0,30,13.4,30,30v515c0,16.6-13.4,30-30,30h-178V117.5z"/>
			</g>
			<rect x="-0.2" y="181.5" class="st4" width="208" height="59"/>
			<path class="st5" d="M38.2,214.8h-9.1c-0.1,0-0.1,0.1-0.1,0.1v0.9c0,0.1,0.1,0.1,0.1,0.1h9.1c0.1,0,0.1-0.1,0.1-0.1V215
				C38.3,214.9,38.3,214.8,38.2,214.8z M38.2,206h-9.1c-0.1,0-0.1,0.1-0.1,0.1v0.9c0,0.1,0.1,0.1,0.1,0.1h9.1c0.1,0,0.1-0.1,0.1-0.1
				v-0.9C38.3,206,38.3,206,38.2,206z M38.2,210.4h-9.1c-0.1,0-0.1,0.1-0.1,0.1v0.9c0,0.1,0.1,0.1,0.1,0.1h9.1
				c0.1,0,0.1-0.1,0.1-0.1v-0.9C38.3,210.5,38.3,210.4,38.2,210.4z M27.2,214.1h-1.8c0,0-0.1,0-0.1,0.1v0.5c0,0,0,0.1,0.1,0.1h1.1
				v0.3h-0.6c0,0-0.1,0-0.1,0.1v0.5c0,0,0,0.1,0.1,0.1h0.6v0.3h-1.1c0,0-0.1,0-0.1,0.1v0.5c0,0,0,0.1,0.1,0.1h1.8c0,0,0.1,0,0.1-0.1
				L27.2,214.1C27.2,214.1,27.2,214.1,27.2,214.1z M25.4,205.9H26v1.9c0,0,0,0.1,0.1,0.1h0.6c0,0,0.1,0,0.1-0.1v-2.4
				c0-0.1-0.1-0.1-0.1-0.1h-1.2c0,0-0.1,0-0.1,0.1L25.4,205.9C25.3,205.9,25.3,205.9,25.4,205.9z M27.2,209.6h-1.8
				c0,0-0.1,0-0.1,0.1v0.6c0,0,0,0.1,0.1,0.1h1.1l-1.1,1.2c0,0,0,0.1,0,0.1v0.6c0,0,0,0.1,0.1,0.1h1.8c0,0,0.1,0,0.1-0.1v-0.6
				c0,0,0-0.1-0.1-0.1h-1.1l1.1-1.2c0,0,0-0.1,0-0.1L27.2,209.6C27.2,209.7,27.2,209.6,27.2,209.6z"/>
			<path class="st5" d="M55.7,216c-1,0-1.9-0.2-2.6-0.6c-0.8-0.4-1.4-1-1.8-1.8c-0.4-0.8-0.7-1.6-0.7-2.5c0-0.9,0.2-1.8,0.7-2.5
				c0.4-0.8,1.1-1.3,1.8-1.8c0.8-0.4,1.7-0.7,2.6-0.7s1.8,0.2,2.6,0.6c0.8,0.4,1.4,1,1.8,1.8c0.4,0.8,0.7,1.6,0.7,2.5
				c0,0.9-0.2,1.8-0.7,2.6c-0.4,0.8-1.1,1.3-1.8,1.8C57.5,215.8,56.7,216,55.7,216z M55.7,215.1c0.8,0,1.5-0.2,2.1-0.5
				c0.6-0.4,1.1-0.8,1.5-1.5c0.4-0.6,0.5-1.3,0.5-2.1s-0.2-1.5-0.5-2.1c-0.4-0.6-0.8-1.1-1.5-1.5c-0.6-0.4-1.3-0.5-2.1-0.5
				s-1.5,0.2-2.1,0.5c-0.6,0.3-1.1,0.8-1.5,1.5c-0.4,0.6-0.5,1.3-0.5,2.1s0.2,1.5,0.5,2.1c0.4,0.6,0.9,1.1,1.5,1.5
				C54.2,214.9,54.9,215.1,55.7,215.1z M69.1,208.6l-3.3,7.4h-1l-3.3-7.4h1l2.8,6.3l2.8-6.3H69.1z M76.7,212.6h-6.2
				c0.1,0.8,0.3,1.4,0.9,1.9c0.5,0.5,1.2,0.7,2,0.7c0.5,0,0.9-0.1,1.3-0.2c0.4-0.2,0.7-0.4,1-0.7l0.6,0.6c-0.3,0.4-0.7,0.7-1.2,0.9
				c-0.5,0.2-1,0.3-1.6,0.3c-0.8,0-1.4-0.2-2-0.5c-0.6-0.3-1-0.8-1.4-1.3c-0.3-0.6-0.5-1.2-0.5-1.9c0-0.7,0.2-1.4,0.5-1.9
				c0.3-0.6,0.7-1,1.3-1.3c0.6-0.3,1.2-0.5,1.8-0.5c0.7,0,1.3,0.2,1.8,0.5c0.5,0.3,1,0.8,1.3,1.3c0.3,0.6,0.5,1.2,0.5,1.9
				L76.7,212.6z M73.2,209.4c-0.7,0-1.3,0.2-1.8,0.7c-0.5,0.4-0.7,1-0.8,1.8h5.2c-0.1-0.7-0.3-1.3-0.8-1.8
				C74.5,209.6,73.9,209.4,73.2,209.4z M79.7,210c0.2-0.5,0.6-0.9,1-1.1c0.5-0.3,1-0.4,1.7-0.4v1l-0.2,0c-0.8,0-1.4,0.2-1.8,0.7
				c-0.4,0.5-0.7,1.1-0.7,2v3.8h-1v-7.4h1V210z M90.8,208.6l-3.3,7.4h-1l-3.3-7.4h1l2.8,6.3l2.8-6.3H90.8z M92.2,208.6h1v7.4h-1
				V208.6z M92.7,207c-0.2,0-0.4-0.1-0.5-0.2s-0.2-0.3-0.2-0.5c0-0.2,0.1-0.3,0.2-0.5s0.3-0.2,0.5-0.2c0.2,0,0.4,0.1,0.5,0.2
				c0.1,0.1,0.2,0.3,0.2,0.5c0,0.2-0.1,0.4-0.2,0.5S92.9,207,92.7,207z M102.4,212.6h-6.2c0.1,0.8,0.3,1.4,0.9,1.9
				c0.5,0.5,1.2,0.7,2,0.7c0.5,0,0.9-0.1,1.3-0.2c0.4-0.2,0.7-0.4,1-0.7l0.6,0.6c-0.3,0.4-0.7,0.7-1.2,0.9c-0.5,0.2-1,0.3-1.6,0.3
				c-0.8,0-1.4-0.2-2-0.5c-0.6-0.3-1-0.8-1.4-1.3c-0.3-0.6-0.5-1.2-0.5-1.9c0-0.7,0.2-1.4,0.5-1.9c0.3-0.6,0.7-1,1.3-1.3
				c0.6-0.3,1.2-0.5,1.8-0.5c0.7,0,1.3,0.2,1.8,0.5s1,0.8,1.3,1.3c0.3,0.6,0.5,1.2,0.5,1.9L102.4,212.6z M98.8,209.4
				c-0.7,0-1.3,0.2-1.8,0.7c-0.5,0.4-0.7,1-0.8,1.8h5.2c-0.1-0.7-0.3-1.3-0.8-1.8C100.1,209.6,99.5,209.4,98.8,209.4z M115.1,208.6
				l-2.8,7.4h-0.9l-2.3-6l-2.3,6h-0.9l-2.8-7.4h1l2.3,6.3l2.4-6.3h0.9l2.4,6.3l2.3-6.3H115.1z"/>
			<g class="st6">
				<path class="st1" d="M31.1,388c0,0.2,0.1,0.4,0.2,0.5c0.1,0.1,0.3,0.2,0.5,0.2c0.2,0,0.4-0.1,0.5-0.2c0.1-0.1,0.2-0.3,0.2-0.5
					s-0.1-0.4-0.2-0.5c-0.1-0.1-0.3-0.2-0.5-0.2c-0.2,0-0.4,0.1-0.5,0.2C31.1,387.6,31.1,387.8,31.1,388z M34.2,388
					c0,0.2,0.1,0.4,0.2,0.5c0.1,0.1,0.3,0.2,0.5,0.2c0.2,0,0.4-0.1,0.5-0.2c0.1-0.1,0.2-0.3,0.2-0.5s-0.1-0.4-0.2-0.5
					c-0.1-0.1-0.3-0.2-0.5-0.2c-0.2,0-0.4,0.1-0.5,0.2C34.3,387.6,34.2,387.8,34.2,388z M27.9,388c0,0.2,0.1,0.4,0.2,0.5
					c0.1,0.1,0.3,0.2,0.5,0.2c0.2,0,0.4-0.1,0.5-0.2c0.1-0.1,0.2-0.3,0.2-0.5s-0.1-0.4-0.2-0.5c-0.1-0.1-0.3-0.2-0.5-0.2
					c-0.2,0-0.4,0.1-0.5,0.2C28,387.6,27.9,387.8,27.9,388z M38.3,385.2c-0.4-0.8-0.9-1.6-1.5-2.2c-0.6-0.6-1.4-1.2-2.2-1.5
					c-0.9-0.4-1.8-0.5-2.7-0.5h0c-0.9,0-1.9,0.2-2.7,0.6c-0.8,0.4-1.6,0.9-2.2,1.5c-0.6,0.6-1.1,1.4-1.5,2.2
					c-0.4,0.9-0.5,1.8-0.5,2.7c0,1.1,0.3,2.2,0.8,3.1v2.4c0,0.2,0.1,0.4,0.2,0.5c0.1,0.1,0.3,0.2,0.5,0.2h2.4c1,0.5,2,0.7,3.1,0.8h0
					c0.9,0,1.8-0.2,2.7-0.5c0.8-0.3,1.6-0.9,2.2-1.5c0.6-0.6,1.2-1.4,1.5-2.2c0.4-0.9,0.6-1.8,0.6-2.7
					C38.8,387,38.6,386.1,38.3,385.2z M35.9,392.1c-1.1,1.1-2.5,1.7-4.1,1.7h0c-0.9,0-1.9-0.2-2.7-0.7l-0.1-0.1h-2.2v-2.2l-0.1-0.1
					c-0.4-0.8-0.7-1.8-0.7-2.7c0-1.6,0.6-3,1.7-4.1c1.1-1.1,2.5-1.7,4.1-1.7h0c0.8,0,1.5,0.2,2.3,0.5c0.7,0.3,1.3,0.7,1.9,1.2
					c0.5,0.5,1,1.2,1.2,1.9c0.3,0.7,0.5,1.5,0.5,2.3C37.6,389.5,37,391,35.9,392.1z"/>
				<path class="st1" d="M61.6,383.2v9.8h-1v-7.8l-3.8,6.6h-0.5l-3.8-6.6v7.8h-1v-9.8h0.9l4.3,7.3l4.2-7.3H61.6z M71,389.6h-6.2
					c0.1,0.8,0.3,1.4,0.9,1.9c0.5,0.5,1.2,0.7,2,0.7c0.5,0,0.9-0.1,1.3-0.2c0.4-0.2,0.7-0.4,1-0.7l0.6,0.6c-0.3,0.4-0.7,0.7-1.2,0.9
					c-0.5,0.2-1,0.3-1.6,0.3c-0.8,0-1.4-0.2-2-0.5c-0.6-0.3-1-0.8-1.4-1.3c-0.3-0.6-0.5-1.2-0.5-1.9s0.2-1.4,0.5-1.9
					c0.3-0.6,0.7-1,1.3-1.3c0.6-0.3,1.2-0.5,1.8-0.5c0.7,0,1.3,0.2,1.8,0.5c0.5,0.3,1,0.8,1.3,1.3c0.3,0.6,0.5,1.2,0.5,1.9L71,389.6
					z M67.4,386.4c-0.7,0-1.3,0.2-1.8,0.7c-0.5,0.4-0.7,1-0.8,1.8H70c-0.1-0.7-0.3-1.3-0.8-1.8C68.7,386.6,68.1,386.4,67.4,386.4z
					 M75,393c-0.6,0-1.2-0.1-1.7-0.3c-0.5-0.2-1-0.4-1.3-0.7l0.4-0.8c0.3,0.2,0.7,0.4,1.2,0.6c0.5,0.1,1,0.2,1.5,0.2
					c0.7,0,1.2-0.1,1.5-0.3c0.3-0.2,0.5-0.5,0.5-0.9c0-0.3-0.1-0.5-0.3-0.6c-0.2-0.2-0.4-0.3-0.7-0.4c-0.3-0.1-0.6-0.2-1.1-0.2
					c-0.6-0.1-1.1-0.2-1.4-0.3c-0.4-0.1-0.7-0.3-0.9-0.6c-0.3-0.3-0.4-0.7-0.4-1.2c0-0.6,0.3-1.1,0.8-1.5s1.2-0.6,2.1-0.6
					c0.5,0,1,0.1,1.4,0.2c0.5,0.1,0.9,0.3,1.2,0.5l-0.4,0.8c-0.6-0.4-1.3-0.6-2.2-0.6c-0.6,0-1.1,0.1-1.4,0.3
					c-0.3,0.2-0.5,0.5-0.5,0.9c0,0.3,0.1,0.5,0.3,0.7c0.2,0.2,0.4,0.3,0.7,0.4c0.3,0.1,0.6,0.2,1.1,0.2c0.6,0.1,1.1,0.2,1.4,0.3
					c0.4,0.1,0.7,0.3,0.9,0.6s0.4,0.6,0.4,1.1c0,0.6-0.3,1.2-0.8,1.5C76.7,392.8,75.9,393,75,393z M81.8,393c-0.6,0-1.2-0.1-1.7-0.3
					c-0.5-0.2-1-0.4-1.3-0.7l0.4-0.8c0.3,0.2,0.7,0.4,1.2,0.6c0.5,0.1,1,0.2,1.5,0.2c0.7,0,1.2-0.1,1.5-0.3c0.3-0.2,0.5-0.5,0.5-0.9
					c0-0.3-0.1-0.5-0.3-0.6c-0.2-0.2-0.4-0.3-0.7-0.4c-0.3-0.1-0.6-0.2-1.1-0.2c-0.6-0.1-1.1-0.2-1.4-0.3c-0.4-0.1-0.7-0.3-0.9-0.6
					c-0.3-0.3-0.4-0.7-0.4-1.2c0-0.6,0.3-1.1,0.8-1.5c0.5-0.4,1.2-0.6,2.1-0.6c0.5,0,1,0.1,1.4,0.2c0.5,0.1,0.9,0.3,1.2,0.5
					l-0.4,0.8c-0.6-0.4-1.3-0.6-2.2-0.6c-0.6,0-1.1,0.1-1.4,0.3c-0.3,0.2-0.5,0.5-0.5,0.9c0,0.3,0.1,0.5,0.3,0.7
					c0.2,0.2,0.4,0.3,0.7,0.4c0.3,0.1,0.6,0.2,1.1,0.2c0.6,0.1,1.1,0.2,1.4,0.3c0.4,0.1,0.7,0.3,0.9,0.6c0.3,0.3,0.4,0.6,0.4,1.1
					c0,0.6-0.3,1.2-0.8,1.5C83.5,392.8,82.8,393,81.8,393z M89.3,385.5c1,0,1.7,0.2,2.2,0.7c0.5,0.5,0.8,1.2,0.8,2.1v4.6h-1v-1.1
					c-0.2,0.4-0.6,0.7-1,0.9c-0.4,0.2-0.9,0.3-1.5,0.3c-0.8,0-1.5-0.2-2-0.6c-0.5-0.4-0.7-0.9-0.7-1.6c0-0.6,0.2-1.1,0.7-1.5
					c0.5-0.4,1.2-0.6,2.2-0.6h2.3v-0.4c0-0.6-0.2-1.1-0.5-1.4c-0.4-0.3-0.9-0.5-1.6-0.5c-0.5,0-0.9,0.1-1.3,0.2
					c-0.4,0.1-0.8,0.4-1.1,0.6l-0.4-0.7c0.4-0.3,0.8-0.6,1.3-0.7C88.2,385.6,88.7,385.5,89.3,385.5z M88.9,392.2
					c0.6,0,1-0.1,1.4-0.4c0.4-0.3,0.7-0.6,0.9-1.1v-1.2H89c-1.3,0-1.9,0.4-1.9,1.3c0,0.4,0.2,0.8,0.5,1
					C87.9,392.1,88.4,392.2,88.9,392.2z M101.8,385.6v6.5c0,1.3-0.3,2.2-0.9,2.8c-0.6,0.6-1.5,0.9-2.8,0.9c-0.7,0-1.3-0.1-1.9-0.3
					c-0.6-0.2-1.1-0.5-1.5-0.8l0.5-0.8c0.4,0.3,0.8,0.6,1.3,0.7c0.5,0.2,1.1,0.3,1.6,0.3c0.9,0,1.6-0.2,2.1-0.7
					c0.4-0.4,0.7-1.1,0.7-2v-0.9c-0.3,0.5-0.7,0.8-1.2,1.1c-0.5,0.2-1,0.4-1.7,0.4c-0.7,0-1.3-0.1-1.9-0.4c-0.6-0.3-1-0.7-1.3-1.3
					c-0.3-0.6-0.5-1.2-0.5-1.9c0-0.7,0.2-1.3,0.5-1.8c0.3-0.5,0.8-1,1.3-1.3c0.6-0.3,1.2-0.4,1.9-0.4c0.6,0,1.2,0.1,1.7,0.4
					c0.5,0.3,0.9,0.6,1.2,1.1v-1.4H101.8z M98.1,391.8c0.5,0,1-0.1,1.4-0.3c0.4-0.2,0.8-0.6,1-1c0.2-0.4,0.4-0.9,0.4-1.4
					c0-0.5-0.1-1-0.4-1.4c-0.2-0.4-0.6-0.7-1-1c-0.4-0.2-0.9-0.4-1.4-0.4c-0.5,0-1,0.1-1.4,0.3c-0.4,0.2-0.8,0.5-1,1
					c-0.2,0.4-0.3,0.9-0.3,1.4c0,0.5,0.1,1,0.3,1.4c0.2,0.4,0.6,0.7,1,1C97,391.7,97.5,391.8,98.1,391.8z M111,389.6h-6.2
					c0.1,0.8,0.3,1.4,0.9,1.9c0.5,0.5,1.2,0.7,2,0.7c0.5,0,0.9-0.1,1.3-0.2c0.4-0.2,0.7-0.4,1-0.7l0.6,0.6c-0.3,0.4-0.7,0.7-1.2,0.9
					c-0.5,0.2-1,0.3-1.6,0.3c-0.8,0-1.4-0.2-2-0.5c-0.6-0.3-1-0.8-1.4-1.3c-0.3-0.6-0.5-1.2-0.5-1.9s0.2-1.4,0.5-1.9
					c0.3-0.6,0.7-1,1.3-1.3c0.6-0.3,1.2-0.5,1.8-0.5c0.7,0,1.3,0.2,1.8,0.5c0.5,0.3,1,0.8,1.3,1.3c0.3,0.6,0.5,1.2,0.5,1.9
					L111,389.6z M107.5,386.4c-0.7,0-1.3,0.2-1.8,0.7c-0.5,0.4-0.7,1-0.8,1.8h5.2c-0.1-0.7-0.3-1.3-0.8-1.8
					C108.8,386.6,108.2,386.4,107.5,386.4z M115,393c-0.6,0-1.2-0.1-1.7-0.3c-0.5-0.2-1-0.4-1.3-0.7l0.4-0.8
					c0.3,0.2,0.7,0.4,1.2,0.6c0.5,0.1,1,0.2,1.5,0.2c0.7,0,1.2-0.1,1.5-0.3c0.3-0.2,0.5-0.5,0.5-0.9c0-0.3-0.1-0.5-0.3-0.6
					c-0.2-0.2-0.4-0.3-0.7-0.4c-0.3-0.1-0.6-0.2-1.1-0.2c-0.6-0.1-1.1-0.2-1.4-0.3c-0.4-0.1-0.7-0.3-0.9-0.6
					c-0.3-0.3-0.4-0.7-0.4-1.2c0-0.6,0.3-1.1,0.8-1.5c0.5-0.4,1.2-0.6,2.1-0.6c0.5,0,1,0.1,1.4,0.2c0.5,0.1,0.9,0.3,1.2,0.5
					l-0.4,0.8c-0.6-0.4-1.3-0.6-2.2-0.6c-0.6,0-1.1,0.1-1.4,0.3c-0.3,0.2-0.5,0.5-0.5,0.9c0,0.3,0.1,0.5,0.3,0.7
					c0.2,0.2,0.4,0.3,0.7,0.4c0.3,0.1,0.6,0.2,1.1,0.2c0.6,0.1,1.1,0.2,1.4,0.3c0.4,0.1,0.7,0.3,0.9,0.6s0.4,0.6,0.4,1.1
					c0,0.6-0.3,1.2-0.8,1.5C116.7,392.8,116,393,115,393z"/>
			</g>
			<g class="st6">
				<path class="st1" d="M38.3,559.5h-13c-0.3,0-0.5,0.2-0.5,0.5v10c0,0.3,0.2,0.5,0.5,0.5h13c0.3,0,0.5-0.2,0.5-0.5v-10
					C38.8,559.7,38.6,559.5,38.3,559.5z M37.7,561.2v8.1H25.9v-8.1l-0.4-0.3l0.6-0.8l0.7,0.5h10l0.7-0.5l0.6,0.8L37.7,561.2z
					 M36.8,560.6l-5,3.9l-5-3.9l-0.7-0.5l-0.6,0.8l0.4,0.3l5.3,4.2c0.2,0.1,0.3,0.2,0.5,0.2c0.2,0,0.4-0.1,0.5-0.2l5.3-4.1l0.4-0.3
					l-0.6-0.8L36.8,560.6z"/>
				<path class="st1" d="M55.7,570c-1,0-1.8-0.2-2.6-0.6c-0.8-0.4-1.4-1-1.8-1.8c-0.4-0.8-0.7-1.6-0.7-2.6c0-0.9,0.2-1.8,0.7-2.5
					c0.4-0.8,1.1-1.4,1.8-1.8s1.7-0.6,2.6-0.6c0.7,0,1.4,0.1,2,0.4c0.6,0.2,1.1,0.6,1.6,1.1l-0.7,0.7c-0.8-0.8-1.7-1.2-2.9-1.2
					c-0.8,0-1.5,0.2-2.1,0.5c-0.6,0.4-1.1,0.8-1.5,1.5c-0.4,0.6-0.5,1.3-0.5,2.1c0,0.8,0.2,1.5,0.5,2.1c0.4,0.6,0.9,1.1,1.5,1.5
					c0.6,0.4,1.3,0.5,2.1,0.5c1.2,0,2.1-0.4,2.9-1.2l0.7,0.7c-0.4,0.5-1,0.8-1.6,1.1C57.1,569.9,56.4,570,55.7,570z M63.9,570
					c-0.7,0-1.3-0.2-1.9-0.5c-0.6-0.3-1-0.8-1.3-1.3c-0.3-0.6-0.5-1.2-0.5-1.9s0.2-1.4,0.5-1.9c0.3-0.6,0.8-1,1.3-1.3
					c0.6-0.3,1.2-0.5,1.9-0.5c0.7,0,1.3,0.2,1.9,0.5c0.6,0.3,1,0.8,1.3,1.3c0.3,0.6,0.5,1.2,0.5,1.9s-0.2,1.4-0.5,1.9
					c-0.3,0.6-0.8,1-1.3,1.3C65.3,569.9,64.7,570,63.9,570z M63.9,569.1c0.5,0,1-0.1,1.4-0.3c0.4-0.2,0.7-0.6,1-1
					c0.2-0.4,0.3-0.9,0.3-1.5s-0.1-1.1-0.3-1.5c-0.2-0.4-0.6-0.8-1-1c-0.4-0.2-0.9-0.4-1.4-0.4c-0.5,0-1,0.1-1.4,0.4
					c-0.4,0.2-0.7,0.6-1,1c-0.2,0.4-0.4,0.9-0.4,1.5s0.1,1.1,0.4,1.5c0.2,0.4,0.6,0.8,1,1C62.9,569,63.4,569.1,63.9,569.1z
					 M73.5,562.5c0.9,0,1.7,0.3,2.2,0.8c0.6,0.5,0.8,1.3,0.8,2.3v4.3h-1v-4.2c0-0.8-0.2-1.3-0.6-1.8c-0.4-0.4-0.9-0.6-1.6-0.6
					c-0.8,0-1.4,0.2-1.9,0.7c-0.5,0.5-0.7,1.1-0.7,1.9v3.9h-1v-7.4h1v1.4c0.3-0.4,0.6-0.8,1.1-1C72.3,562.7,72.8,562.5,73.5,562.5z
					 M83.1,569.5c-0.2,0.2-0.4,0.3-0.7,0.4c-0.3,0.1-0.6,0.1-0.9,0.1c-0.7,0-1.2-0.2-1.6-0.6c-0.4-0.4-0.6-0.9-0.6-1.6v-4.5H78v-0.8
					h1.3V561h1v1.6h2.2v0.8h-2.2v4.4c0,0.4,0.1,0.8,0.3,1c0.2,0.2,0.5,0.3,1,0.3c0.2,0,0.4,0,0.6-0.1c0.2-0.1,0.4-0.2,0.5-0.3
					L83.1,569.5z M87.4,562.5c1,0,1.7,0.2,2.2,0.7c0.5,0.5,0.8,1.2,0.8,2.1v4.6h-1v-1.1c-0.2,0.4-0.6,0.7-1,0.9
					c-0.4,0.2-0.9,0.3-1.5,0.3c-0.8,0-1.5-0.2-2-0.6c-0.5-0.4-0.7-0.9-0.7-1.6c0-0.6,0.2-1.1,0.7-1.5c0.5-0.4,1.2-0.6,2.2-0.6h2.3
					v-0.4c0-0.6-0.2-1.1-0.5-1.4c-0.4-0.3-0.9-0.5-1.6-0.5c-0.5,0-0.9,0.1-1.3,0.2c-0.4,0.1-0.8,0.4-1.1,0.6l-0.4-0.7
					c0.4-0.3,0.8-0.6,1.3-0.7C86.3,562.6,86.9,562.5,87.4,562.5z M87.1,569.2c0.6,0,1-0.1,1.4-0.4c0.4-0.3,0.7-0.6,0.9-1.1v-1.2
					h-2.3c-1.3,0-1.9,0.4-1.9,1.3c0,0.4,0.2,0.8,0.5,1C86.1,569.1,86.5,569.2,87.1,569.2z M96.2,570c-0.7,0-1.4-0.2-2-0.5
					c-0.6-0.3-1-0.8-1.3-1.3c-0.3-0.6-0.5-1.2-0.5-1.9s0.2-1.4,0.5-1.9c0.3-0.6,0.8-1,1.3-1.3c0.6-0.3,1.2-0.5,2-0.5
					c0.6,0,1.2,0.1,1.7,0.4c0.5,0.2,0.9,0.6,1.2,1.1l-0.7,0.5c-0.2-0.4-0.6-0.6-0.9-0.8c-0.4-0.2-0.8-0.3-1.2-0.3
					c-0.5,0-1,0.1-1.4,0.4c-0.4,0.2-0.8,0.6-1,1c-0.2,0.4-0.3,0.9-0.3,1.5c0,0.6,0.1,1.1,0.3,1.5c0.2,0.4,0.6,0.8,1,1
					c0.4,0.2,0.9,0.3,1.4,0.3c0.4,0,0.8-0.1,1.2-0.3s0.7-0.4,0.9-0.8l0.7,0.5c-0.3,0.5-0.7,0.8-1.2,1.1
					C97.4,569.9,96.8,570,96.2,570z M105,569.5c-0.2,0.2-0.4,0.3-0.7,0.4c-0.3,0.1-0.6,0.1-0.9,0.1c-0.7,0-1.2-0.2-1.6-0.6
					c-0.4-0.4-0.6-0.9-0.6-1.6v-4.5H100v-0.8h1.3V561h1v1.6h2.2v0.8h-2.2v4.4c0,0.4,0.1,0.8,0.3,1c0.2,0.2,0.5,0.3,1,0.3
					c0.2,0,0.4,0,0.6-0.1c0.2-0.1,0.4-0.2,0.5-0.3L105,569.5z M114.6,570c-1.3,0-2.3-0.4-3-1.1c-0.7-0.7-1.1-1.8-1.1-3.2v-5.6h1v5.6
					c0,1.1,0.3,2,0.8,2.5c0.5,0.6,1.3,0.8,2.2,0.8c1,0,1.7-0.3,2.2-0.8c0.5-0.6,0.8-1.4,0.8-2.5v-5.6h1v5.6c0,1.4-0.4,2.4-1.1,3.2
					C116.9,569.7,115.9,570,114.6,570z M123.5,570c-0.6,0-1.2-0.1-1.7-0.3c-0.5-0.2-1-0.4-1.3-0.7l0.4-0.8c0.3,0.2,0.7,0.4,1.2,0.6
					c0.5,0.1,1,0.2,1.5,0.2c0.7,0,1.2-0.1,1.5-0.3c0.3-0.2,0.5-0.5,0.5-0.9c0-0.3-0.1-0.5-0.3-0.6c-0.2-0.2-0.4-0.3-0.7-0.3
					c-0.3-0.1-0.6-0.2-1.1-0.2c-0.6-0.1-1.1-0.2-1.4-0.3c-0.4-0.1-0.7-0.3-0.9-0.6c-0.3-0.3-0.4-0.7-0.4-1.2c0-0.6,0.3-1.1,0.8-1.5
					c0.5-0.4,1.2-0.6,2.1-0.6c0.5,0,1,0.1,1.4,0.2c0.5,0.1,0.9,0.3,1.2,0.5l-0.4,0.8c-0.6-0.4-1.3-0.6-2.2-0.6
					c-0.6,0-1.1,0.1-1.4,0.3c-0.3,0.2-0.5,0.5-0.5,0.9c0,0.3,0.1,0.5,0.3,0.7c0.2,0.2,0.4,0.3,0.7,0.4c0.3,0.1,0.6,0.2,1.1,0.2
					c0.6,0.1,1.1,0.2,1.4,0.3c0.4,0.1,0.7,0.3,0.9,0.6s0.4,0.6,0.4,1.1c0,0.6-0.3,1.2-0.8,1.5C125.2,569.8,124.5,570,123.5,570z"/>
			</g>
			<g class="st6">
				<path class="st1" d="M36.8,263h-10c-0.3,0-0.5,0.2-0.5,0.5v13c0,0.3,0.2,0.5,0.5,0.5h10c0.3,0,0.5-0.2,0.5-0.5v-13
					C37.3,263.2,37.1,263,36.8,263z M32.7,264.1h1.5v3.3l-0.7-0.5l-0.8,0.6V264.1z M36.2,275.8h-8.8v-11.8h4.4v4.6
					c0,0.1,0,0.1,0,0.1c0,0,0,0.1,0.1,0.1c0,0,0.1,0,0.1,0c0,0,0.1,0,0.1,0c0,0,0.1,0,0.1,0l1.3-0.9l1.3,0.9c0,0,0.1,0,0.1,0
					c0.1,0,0.2-0.1,0.2-0.2v-4.6h1L36.2,275.8L36.2,275.8z"/>
				<path class="st1" d="M61.6,265.2v9.8h-1v-7.8l-3.8,6.6h-0.5l-3.8-6.6v7.8h-1v-9.8h0.9l4.3,7.3l4.2-7.3H61.6z M70.8,267.6
					l-3.7,8.2c-0.3,0.7-0.6,1.2-1,1.5c-0.4,0.3-0.9,0.4-1.4,0.4c-0.4,0-0.7-0.1-1-0.2s-0.6-0.3-0.8-0.5l0.5-0.7
					c0.4,0.4,0.8,0.6,1.3,0.6c0.3,0,0.6-0.1,0.9-0.3c0.2-0.2,0.5-0.5,0.7-1l0.3-0.7l-3.3-7.4h1l2.8,6.3l2.8-6.3H70.8z M82.2,269.9
					c0.6,0.1,1.1,0.4,1.5,0.8c0.4,0.4,0.5,0.9,0.5,1.6c0,0.8-0.3,1.5-0.9,1.9c-0.6,0.4-1.5,0.7-2.7,0.7H76v-9.8h4.2
					c1.1,0,1.9,0.2,2.5,0.7c0.6,0.4,0.9,1.1,0.9,1.9c0,0.5-0.1,1-0.4,1.4C83,269.4,82.7,269.7,82.2,269.9z M77.1,266v3.6h3.1
					c0.8,0,1.4-0.1,1.8-0.4c0.4-0.3,0.6-0.8,0.6-1.3s-0.2-1-0.6-1.3c-0.4-0.3-1-0.5-1.8-0.5H77.1z M80.5,274.1c0.9,0,1.5-0.1,2-0.4
					c0.4-0.3,0.7-0.8,0.7-1.4c0-1.2-0.9-1.8-2.7-1.8h-3.5v3.7H80.5z M89.4,275c-0.7,0-1.3-0.2-1.9-0.5c-0.6-0.3-1-0.8-1.3-1.3
					c-0.3-0.6-0.5-1.2-0.5-1.9s0.2-1.4,0.5-1.9c0.3-0.6,0.8-1,1.3-1.3c0.6-0.3,1.2-0.5,1.9-0.5c0.7,0,1.3,0.2,1.9,0.5
					c0.6,0.3,1,0.8,1.3,1.3c0.3,0.6,0.5,1.2,0.5,1.9s-0.2,1.4-0.5,1.9c-0.3,0.6-0.8,1-1.3,1.3C90.7,274.9,90.1,275,89.4,275z
					 M89.4,274.1c0.5,0,1-0.1,1.4-0.3c0.4-0.2,0.7-0.6,1-1c0.2-0.4,0.4-0.9,0.4-1.5s-0.1-1.1-0.4-1.5c-0.2-0.4-0.6-0.8-1-1
					c-0.4-0.2-0.9-0.4-1.4-0.4c-0.5,0-1,0.1-1.4,0.4c-0.4,0.2-0.7,0.6-1,1c-0.2,0.4-0.4,0.9-0.4,1.5s0.1,1.1,0.4,1.5
					c0.2,0.4,0.6,0.8,1,1C88.4,274,88.9,274.1,89.4,274.1z M98.2,275c-0.7,0-1.3-0.2-1.9-0.5c-0.6-0.3-1-0.8-1.3-1.3
					c-0.3-0.6-0.5-1.2-0.5-1.9s0.2-1.4,0.5-1.9c0.3-0.6,0.8-1,1.3-1.3c0.6-0.3,1.2-0.5,1.9-0.5c0.7,0,1.3,0.2,1.9,0.5
					c0.6,0.3,1,0.8,1.3,1.3c0.3,0.6,0.5,1.2,0.5,1.9s-0.2,1.4-0.5,1.9c-0.3,0.6-0.8,1-1.3,1.3C99.5,274.9,98.9,275,98.2,275z
					 M98.2,274.1c0.5,0,1-0.1,1.4-0.3c0.4-0.2,0.7-0.6,1-1c0.2-0.4,0.3-0.9,0.3-1.5s-0.1-1.1-0.3-1.5c-0.2-0.4-0.6-0.8-1-1
					c-0.4-0.2-0.9-0.4-1.4-0.4c-0.5,0-1,0.1-1.4,0.4c-0.4,0.2-0.7,0.6-1,1c-0.2,0.4-0.3,0.9-0.3,1.5s0.1,1.1,0.3,1.5
					c0.2,0.4,0.6,0.8,1,1C97.2,274,97.6,274.1,98.2,274.1z M106.7,271.3l-1.7,1.6v2.1h-1v-10.4h1v7l4.4-4h1.2l-3.2,3l3.4,4.4h-1.2
					L106.7,271.3z M112.2,267.6h1v7.4h-1V267.6z M112.7,266c-0.2,0-0.4-0.1-0.5-0.2c-0.1-0.1-0.2-0.3-0.2-0.5c0-0.2,0.1-0.4,0.2-0.5
					c0.1-0.1,0.3-0.2,0.5-0.2c0.2,0,0.4,0.1,0.5,0.2c0.1,0.1,0.2,0.3,0.2,0.5c0,0.2-0.1,0.4-0.2,0.5
					C113.1,265.9,112.9,266,112.7,266z M119.7,267.5c0.9,0,1.7,0.3,2.2,0.8c0.6,0.5,0.8,1.3,0.8,2.3v4.3h-1v-4.2
					c0-0.8-0.2-1.3-0.6-1.8c-0.4-0.4-0.9-0.6-1.6-0.6c-0.8,0-1.4,0.2-1.9,0.7c-0.5,0.5-0.7,1.1-0.7,1.9v3.9h-1v-7.4h1v1.4
					c0.3-0.4,0.6-0.8,1.1-1C118.5,267.7,119.1,267.5,119.7,267.5z M132.3,267.6v6.5c0,1.3-0.3,2.2-0.9,2.8c-0.6,0.6-1.5,0.9-2.8,0.9
					c-0.7,0-1.3-0.1-1.9-0.3c-0.6-0.2-1.1-0.5-1.5-0.8l0.5-0.8c0.4,0.3,0.8,0.6,1.3,0.7c0.5,0.2,1.1,0.3,1.6,0.3
					c0.9,0,1.6-0.2,2.1-0.7c0.4-0.4,0.7-1.1,0.7-2v-0.9c-0.3,0.5-0.7,0.8-1.2,1.1c-0.5,0.2-1,0.4-1.7,0.4c-0.7,0-1.3-0.1-1.9-0.4
					c-0.6-0.3-1-0.7-1.3-1.3c-0.3-0.6-0.5-1.2-0.5-1.9c0-0.7,0.2-1.3,0.5-1.8c0.3-0.5,0.8-1,1.3-1.3c0.6-0.3,1.2-0.4,1.9-0.4
					c0.6,0,1.2,0.1,1.7,0.4c0.5,0.3,0.9,0.6,1.2,1.1v-1.4H132.3z M128.5,273.8c0.5,0,1-0.1,1.4-0.3c0.4-0.2,0.8-0.6,1-1
					c0.2-0.4,0.4-0.9,0.4-1.4c0-0.5-0.1-1-0.4-1.4c-0.2-0.4-0.6-0.7-1-1c-0.4-0.2-0.9-0.4-1.4-0.4c-0.5,0-1,0.1-1.4,0.3
					c-0.4,0.2-0.8,0.5-1,1c-0.2,0.4-0.3,0.9-0.3,1.4c0,0.5,0.1,1,0.3,1.4c0.2,0.4,0.6,0.7,1,1C127.5,273.7,128,273.8,128.5,273.8z
					 M137.1,275c-0.6,0-1.2-0.1-1.7-0.3c-0.5-0.2-1-0.4-1.3-0.7l0.4-0.8c0.3,0.2,0.7,0.4,1.2,0.6c0.5,0.1,1,0.2,1.5,0.2
					c0.7,0,1.2-0.1,1.5-0.3c0.3-0.2,0.5-0.5,0.5-0.9c0-0.3-0.1-0.5-0.3-0.6c-0.2-0.2-0.4-0.3-0.7-0.4c-0.3-0.1-0.6-0.2-1.1-0.2
					c-0.6-0.1-1.1-0.2-1.4-0.3c-0.4-0.1-0.7-0.3-0.9-0.6c-0.3-0.3-0.4-0.7-0.4-1.2c0-0.6,0.3-1.1,0.8-1.5c0.5-0.4,1.2-0.6,2.1-0.6
					c0.5,0,1,0.1,1.4,0.2c0.5,0.1,0.9,0.3,1.2,0.5l-0.4,0.8c-0.6-0.4-1.3-0.6-2.2-0.6c-0.6,0-1.1,0.1-1.4,0.3
					c-0.3,0.2-0.5,0.5-0.5,0.9c0,0.3,0.1,0.5,0.3,0.7c0.2,0.2,0.4,0.3,0.7,0.4c0.3,0.1,0.6,0.2,1.1,0.2c0.6,0.1,1.1,0.2,1.4,0.3
					c0.4,0.1,0.7,0.3,0.9,0.6s0.4,0.6,0.4,1.1c0,0.6-0.3,1.2-0.8,1.5C138.8,274.8,138,275,137.1,275z"/>
			</g>
			<g class="st6">
				<path class="st1" d="M37.2,450.9c-0.3-0.7-0.7-1.3-1.3-1.9c-0.5-0.5-1.2-1-1.9-1.3c0,0,0,0,0,0c1-0.7,1.6-1.8,1.6-3.1
					c0-2.1-1.7-3.9-3.9-3.9c-2.1,0-3.9,1.7-3.9,3.9c0,1.3,0.6,2.4,1.6,3.1c0,0,0,0,0,0c-0.7,0.3-1.3,0.7-1.9,1.3
					c-0.5,0.5-1,1.2-1.3,1.9c-0.3,0.7-0.4,1.4-0.5,2.2c0,0,0,0,0,0c0,0,0,0,0,0c0,0,0,0,0,0c0,0,0,0,0,0H27c0.1,0,0.1-0.1,0.1-0.1
					c0-1.2,0.5-2.3,1.4-3.2c0.9-0.9,2.1-1.4,3.3-1.4c1.3,0,2.4,0.5,3.3,1.4c0.9,0.9,1.3,2,1.4,3.2c0,0.1,0.1,0.1,0.1,0.1h0.9
					c0,0,0,0,0,0c0,0,0,0,0,0c0,0,0,0,0,0c0,0,0,0,0,0C37.7,452.3,37.5,451.6,37.2,450.9z M31.8,447.3c-0.7,0-1.4-0.3-1.9-0.8
					c-0.5-0.5-0.8-1.2-0.8-1.9c0-0.7,0.3-1.4,0.8-1.9c0.5-0.5,1.2-0.8,1.9-0.8c0.7,0,1.4,0.3,1.9,0.8c0.5,0.5,0.8,1.2,0.8,1.9
					c0,0.7-0.3,1.4-0.8,1.9C33.2,447,32.5,447.3,31.8,447.3z"/>
				<path class="st1" d="M55.1,442.2c1.3,0,2.2,0.3,2.9,0.9c0.7,0.6,1.1,1.4,1.1,2.5c0,1-0.4,1.9-1.1,2.5c-0.7,0.6-1.7,0.9-2.9,0.9
					h-2.6v3.1h-1v-9.8H55.1z M55,448c1,0,1.7-0.2,2.2-0.6c0.5-0.4,0.8-1,0.8-1.8c0-0.8-0.3-1.4-0.8-1.8c-0.5-0.4-1.3-0.6-2.2-0.6
					h-2.6v4.9H55z M61.9,446c0.2-0.5,0.6-0.9,1-1.1c0.5-0.3,1-0.4,1.7-0.4v1l-0.2,0c-0.8,0-1.4,0.2-1.8,0.7c-0.4,0.5-0.7,1.1-0.7,2
					v3.8h-1v-7.4h1V446z M69.4,452c-0.7,0-1.3-0.2-1.9-0.5c-0.6-0.3-1-0.8-1.3-1.3c-0.3-0.6-0.5-1.2-0.5-1.9s0.2-1.4,0.5-1.9
					c0.3-0.6,0.8-1,1.3-1.3s1.2-0.5,1.9-0.5c0.7,0,1.3,0.2,1.9,0.5c0.6,0.3,1,0.8,1.3,1.3c0.3,0.6,0.5,1.2,0.5,1.9s-0.2,1.4-0.5,1.9
					c-0.3,0.6-0.8,1-1.3,1.3C70.7,451.9,70.1,452,69.4,452z M69.4,451.1c0.5,0,1-0.1,1.4-0.3c0.4-0.2,0.7-0.6,1-1s0.3-0.9,0.3-1.5
					s-0.1-1.1-0.3-1.5s-0.6-0.8-1-1c-0.4-0.2-0.9-0.4-1.4-0.4c-0.5,0-1,0.1-1.4,0.4c-0.4,0.2-0.7,0.6-1,1c-0.2,0.4-0.3,0.9-0.3,1.5
					s0.1,1.1,0.3,1.5c0.2,0.4,0.6,0.8,1,1C68.4,451,68.8,451.1,69.4,451.1z M77.6,442.3c-0.4,0-0.8,0.1-1,0.4
					c-0.2,0.2-0.3,0.6-0.3,1v0.9h2.3v0.8h-2.2v6.5h-1v-6.5H74v-0.8h1.3v-0.9c0-0.7,0.2-1.2,0.6-1.6c0.4-0.4,0.9-0.6,1.7-0.6
					c0.3,0,0.6,0,0.8,0.1c0.3,0.1,0.5,0.2,0.7,0.3l-0.3,0.7C78.4,442.5,78,442.3,77.6,442.3z M81,444.6h1v7.4h-1V444.6z M81.5,443
					c-0.2,0-0.4-0.1-0.5-0.2c-0.1-0.1-0.2-0.3-0.2-0.5c0-0.2,0.1-0.4,0.2-0.5c0.1-0.1,0.3-0.2,0.5-0.2c0.2,0,0.4,0.1,0.5,0.2
					c0.1,0.1,0.2,0.3,0.2,0.5c0,0.2-0.1,0.4-0.2,0.5C81.9,442.9,81.7,443,81.5,443z M84.8,441.6h1V452h-1V441.6z M94.9,448.6h-6.2
					c0.1,0.8,0.3,1.4,0.9,1.9c0.5,0.5,1.2,0.7,2,0.7c0.5,0,0.9-0.1,1.3-0.2c0.4-0.2,0.7-0.4,1-0.7l0.6,0.6c-0.3,0.4-0.7,0.7-1.2,0.9
					c-0.5,0.2-1,0.3-1.6,0.3c-0.8,0-1.4-0.2-2-0.5c-0.6-0.3-1-0.8-1.4-1.3s-0.5-1.2-0.5-1.9s0.2-1.4,0.5-1.9c0.3-0.6,0.7-1,1.3-1.3
					c0.6-0.3,1.2-0.5,1.8-0.5c0.7,0,1.3,0.2,1.8,0.5c0.5,0.3,1,0.8,1.3,1.3c0.3,0.6,0.5,1.2,0.5,1.9L94.9,448.6z M91.4,445.4
					c-0.7,0-1.3,0.2-1.8,0.7c-0.5,0.4-0.7,1-0.8,1.8H94c-0.1-0.7-0.3-1.3-0.8-1.8C92.7,445.6,92.1,445.4,91.4,445.4z"/>
			</g>
			<g class="st6">
				<path class="st1" d="M35.7,620.3c-0.2-0.5-0.5-0.9-0.9-1.3c-0.8-0.7-1.9-1.2-3-1.2s-2.2,0.4-3,1.2c-0.4,0.4-0.7,0.8-0.9,1.3
					c-0.2,0.5-0.3,1-0.3,1.6v0.4c0,0.1,0.1,0.2,0.2,0.2h0.8c0.1,0,0.2-0.1,0.2-0.2v-0.4c0-1.6,1.4-2.8,3.1-2.8
					c1.7,0,3.1,1.3,3.1,2.8c0,0.6-0.2,1.2-0.7,1.7c-0.4,0.5-1,0.8-1.7,1c-0.4,0.1-0.7,0.3-1,0.6c-0.2,0.3-0.4,0.7-0.4,1.1v0.5
					c0,0.1,0.1,0.2,0.2,0.2h0.8c0.1,0,0.2-0.1,0.2-0.2v-0.5c0-0.2,0.2-0.5,0.4-0.5c0.9-0.2,1.7-0.7,2.3-1.4c0.3-0.3,0.5-0.7,0.7-1.2
					c0.2-0.4,0.3-0.9,0.3-1.4C36.1,621.4,36,620.8,35.7,620.3z M31.8,628.3c-0.5,0-0.9,0.4-0.9,0.9c0,0.5,0.4,0.9,0.9,0.9
					s0.9-0.4,0.9-0.9C32.7,628.6,32.3,628.3,31.8,628.3z"/>
				<path class="st1" d="M59.6,619.2v9.8h-1v-4.5h-6.1v4.5h-1v-9.8h1v4.4h6.1v-4.4H59.6z M69,625.6h-6.2c0.1,0.8,0.4,1.4,0.9,1.9
					c0.5,0.5,1.2,0.7,2,0.7c0.5,0,0.9-0.1,1.3-0.2c0.4-0.2,0.7-0.4,1-0.7l0.6,0.6c-0.3,0.4-0.7,0.7-1.2,0.9c-0.5,0.2-1,0.3-1.6,0.3
					c-0.8,0-1.4-0.2-2-0.5c-0.6-0.3-1-0.8-1.4-1.3c-0.3-0.6-0.5-1.2-0.5-1.9s0.2-1.4,0.5-1.9c0.3-0.6,0.7-1,1.3-1.3
					c0.6-0.3,1.2-0.5,1.8-0.5c0.7,0,1.3,0.2,1.8,0.5c0.5,0.3,1,0.8,1.3,1.3c0.3,0.6,0.5,1.2,0.5,1.9L69,625.6z M65.4,622.4
					c-0.7,0-1.3,0.2-1.8,0.7c-0.5,0.4-0.7,1-0.8,1.8h5.2c-0.1-0.7-0.3-1.3-0.8-1.8C66.8,622.6,66.2,622.4,65.4,622.4z M71,618.6h1
					V629h-1V618.6z M78.6,621.5c0.7,0,1.3,0.2,1.9,0.5c0.6,0.3,1,0.7,1.3,1.3c0.3,0.6,0.5,1.2,0.5,1.9c0,0.7-0.2,1.4-0.5,2
					c-0.3,0.6-0.8,1-1.3,1.3c-0.6,0.3-1.2,0.5-1.9,0.5c-0.6,0-1.1-0.1-1.6-0.4c-0.5-0.3-0.9-0.6-1.2-1.1v4.1h-1v-10.1h1v1.5
					c0.3-0.5,0.7-0.9,1.2-1.1C77.4,621.7,78,621.5,78.6,621.5z M78.5,628.1c0.5,0,1-0.1,1.4-0.3c0.4-0.2,0.7-0.6,1-1
					c0.2-0.4,0.4-0.9,0.4-1.5s-0.1-1.1-0.4-1.5c-0.2-0.4-0.6-0.8-1-1c-0.4-0.2-0.9-0.4-1.4-0.4c-0.5,0-1,0.1-1.4,0.4
					c-0.4,0.2-0.7,0.6-1,1c-0.2,0.4-0.3,0.9-0.3,1.5s0.1,1.1,0.3,1.5c0.2,0.4,0.6,0.8,1,1C77.5,628,78,628.1,78.5,628.1z"/>
			</g>
			<g class="st6">
				<path class="st1" d="M37.6,322.7H26.1c-0.3,0-0.5,0.2-0.5,0.5v11.5c0,0.3,0.2,0.5,0.5,0.5h11.5c0.3,0,0.5-0.2,0.5-0.5v-11.5
					C38.1,322.9,37.8,322.7,37.6,322.7z M36.9,334.1H26.7v-10.2h10.2V334.1z M31.5,327.2h2.9c0.1,0,0.1-0.1,0.1-0.1v-0.8
					c0-0.1-0.1-0.1-0.1-0.1h-2.9c-0.1,0-0.1,0.1-0.1,0.1v0.8C31.4,327.2,31.4,327.2,31.5,327.2z M31.5,329.5h2.9
					c0.1,0,0.1-0.1,0.1-0.1v-0.8c0-0.1-0.1-0.1-0.1-0.1h-2.9c-0.1,0-0.1,0.1-0.1,0.1v0.8C31.4,329.4,31.4,329.5,31.5,329.5z
					 M31.5,331.7h2.9c0.1,0,0.1-0.1,0.1-0.1v-0.8c0-0.1-0.1-0.1-0.1-0.1h-2.9c-0.1,0-0.1,0.1-0.1,0.1v0.8
					C31.4,331.7,31.4,331.7,31.5,331.7z M29.1,326.7c0,0.2,0.1,0.3,0.2,0.4c0.1,0.1,0.3,0.2,0.4,0.2s0.3-0.1,0.4-0.2
					c0.1-0.1,0.2-0.3,0.2-0.4s-0.1-0.3-0.2-0.4c-0.1-0.1-0.3-0.2-0.4-0.2s-0.3,0.1-0.4,0.2C29.2,326.4,29.1,326.5,29.1,326.7z
					 M29.1,329c0,0.2,0.1,0.3,0.2,0.4c0.1,0.1,0.3,0.2,0.4,0.2s0.3-0.1,0.4-0.2c0.1-0.1,0.2-0.3,0.2-0.4s-0.1-0.3-0.2-0.4
					c-0.1-0.1-0.3-0.2-0.4-0.2s-0.3,0.1-0.4,0.2C29.2,328.6,29.1,328.8,29.1,329z M29.1,331.2c0,0.2,0.1,0.3,0.2,0.4
					c0.1,0.1,0.3,0.2,0.4,0.2s0.3-0.1,0.4-0.2c0.1-0.1,0.2-0.3,0.2-0.4s-0.1-0.3-0.2-0.4c-0.1-0.1-0.3-0.2-0.4-0.2s-0.3,0.1-0.4,0.2
					C29.2,330.9,29.1,331,29.1,331.2z"/>
				<path class="st1" d="M61.6,324.2v9.8h-1v-7.8l-3.8,6.6h-0.5l-3.8-6.6v7.8h-1v-9.8h0.9l4.3,7.3l4.2-7.3H61.6z M70.8,326.6
					l-3.7,8.2c-0.3,0.7-0.6,1.2-1,1.5c-0.4,0.3-0.9,0.4-1.4,0.4c-0.4,0-0.7-0.1-1-0.2s-0.6-0.3-0.8-0.5l0.5-0.7
					c0.4,0.4,0.8,0.6,1.3,0.6c0.3,0,0.6-0.1,0.9-0.3c0.2-0.2,0.5-0.5,0.7-1l0.3-0.7l-3.3-7.4h1l2.8,6.3l2.8-6.3H70.8z M76,324.2h1
					v8.9h5.5v0.9H76V324.2z M84.1,326.6h1v7.4h-1V326.6z M84.6,325c-0.2,0-0.4-0.1-0.5-0.2c-0.1-0.1-0.2-0.3-0.2-0.5
					c0-0.2,0.1-0.4,0.2-0.5c0.1-0.1,0.3-0.2,0.5-0.2s0.4,0.1,0.5,0.2c0.1,0.1,0.2,0.3,0.2,0.5c0,0.2-0.1,0.4-0.2,0.5
					C84.9,324.9,84.8,325,84.6,325z M89.8,334c-0.6,0-1.2-0.1-1.7-0.3c-0.5-0.2-1-0.4-1.3-0.7l0.4-0.8c0.3,0.2,0.7,0.4,1.2,0.6
					c0.5,0.1,1,0.2,1.5,0.2c0.7,0,1.2-0.1,1.5-0.3c0.3-0.2,0.5-0.5,0.5-0.9c0-0.3-0.1-0.5-0.3-0.6c-0.2-0.2-0.4-0.3-0.7-0.4
					c-0.3-0.1-0.6-0.2-1.1-0.2c-0.6-0.1-1.1-0.2-1.4-0.3c-0.4-0.1-0.7-0.3-0.9-0.6c-0.3-0.3-0.4-0.7-0.4-1.2c0-0.6,0.3-1.1,0.8-1.5
					c0.5-0.4,1.2-0.6,2.1-0.6c0.5,0,1,0.1,1.4,0.2c0.5,0.1,0.9,0.3,1.2,0.5l-0.4,0.8c-0.6-0.4-1.3-0.6-2.2-0.6
					c-0.6,0-1.1,0.1-1.4,0.3c-0.3,0.2-0.5,0.5-0.5,0.9c0,0.3,0.1,0.5,0.3,0.7c0.2,0.2,0.4,0.3,0.7,0.4c0.3,0.1,0.6,0.2,1.1,0.2
					c0.6,0.1,1.1,0.2,1.4,0.3c0.4,0.1,0.7,0.3,0.9,0.6c0.3,0.3,0.4,0.6,0.4,1.1c0,0.6-0.3,1.2-0.8,1.5C91.5,333.8,90.8,334,89.8,334
					z M98.6,333.5c-0.2,0.2-0.4,0.3-0.7,0.4c-0.3,0.1-0.6,0.1-0.9,0.1c-0.7,0-1.2-0.2-1.6-0.6c-0.4-0.4-0.6-0.9-0.6-1.6v-4.5h-1.3
					v-0.8h1.3V325h1v1.6h2.2v0.8h-2.2v4.4c0,0.4,0.1,0.8,0.3,1c0.2,0.2,0.5,0.3,1,0.3c0.2,0,0.4,0,0.6-0.1c0.2-0.1,0.4-0.2,0.5-0.3
					L98.6,333.5z M100.4,326.6h1v7.4h-1V326.6z M100.9,325c-0.2,0-0.4-0.1-0.5-0.2c-0.1-0.1-0.2-0.3-0.2-0.5c0-0.2,0.1-0.4,0.2-0.5
					c0.1-0.1,0.3-0.2,0.5-0.2s0.4,0.1,0.5,0.2c0.1,0.1,0.2,0.3,0.2,0.5c0,0.2-0.1,0.4-0.2,0.5C101.2,324.9,101.1,325,100.9,325z
					 M107.9,326.5c0.9,0,1.7,0.3,2.2,0.8c0.5,0.5,0.8,1.3,0.8,2.3v4.3h-1v-4.2c0-0.8-0.2-1.3-0.6-1.8c-0.4-0.4-0.9-0.6-1.6-0.6
					c-0.8,0-1.4,0.2-1.9,0.7c-0.5,0.5-0.7,1.1-0.7,1.9v3.9h-1v-7.4h1v1.4c0.3-0.4,0.6-0.8,1.1-1
					C106.7,326.7,107.2,326.5,107.9,326.5z M120.4,326.6v6.5c0,1.3-0.3,2.2-0.9,2.8c-0.6,0.6-1.5,0.9-2.8,0.9
					c-0.7,0-1.3-0.1-1.9-0.3c-0.6-0.2-1.1-0.5-1.5-0.8l0.5-0.8c0.4,0.3,0.8,0.6,1.3,0.7c0.5,0.2,1.1,0.3,1.6,0.3
					c0.9,0,1.6-0.2,2.1-0.7c0.4-0.4,0.7-1.1,0.7-2v-0.9c-0.3,0.5-0.7,0.8-1.2,1.1c-0.5,0.2-1,0.4-1.7,0.4c-0.7,0-1.3-0.1-1.9-0.4
					c-0.6-0.3-1-0.7-1.3-1.3c-0.3-0.6-0.5-1.2-0.5-1.9c0-0.7,0.2-1.3,0.5-1.8c0.3-0.5,0.8-1,1.3-1.3c0.6-0.3,1.2-0.4,1.9-0.4
					c0.6,0,1.2,0.1,1.7,0.4c0.5,0.3,0.9,0.6,1.2,1.1v-1.4H120.4z M116.7,332.8c0.5,0,1-0.1,1.4-0.3c0.4-0.2,0.8-0.6,1-1
					c0.2-0.4,0.4-0.9,0.4-1.4c0-0.5-0.1-1-0.4-1.4c-0.2-0.4-0.6-0.7-1-1c-0.4-0.2-0.9-0.4-1.4-0.4c-0.5,0-1,0.1-1.4,0.3
					c-0.4,0.2-0.8,0.5-1,1c-0.2,0.4-0.3,0.9-0.3,1.4c0,0.5,0.1,1,0.3,1.4c0.2,0.4,0.6,0.7,1,1C115.7,332.7,116.1,332.8,116.7,332.8z
					 M125.2,334c-0.6,0-1.2-0.1-1.7-0.3c-0.5-0.2-1-0.4-1.3-0.7l0.4-0.8c0.3,0.2,0.7,0.4,1.2,0.6c0.5,0.1,1,0.2,1.5,0.2
					c0.7,0,1.2-0.1,1.5-0.3c0.3-0.2,0.5-0.5,0.5-0.9c0-0.3-0.1-0.5-0.3-0.6c-0.2-0.2-0.4-0.3-0.7-0.4c-0.3-0.1-0.6-0.2-1.1-0.2
					c-0.6-0.1-1.1-0.2-1.4-0.3c-0.4-0.1-0.7-0.3-0.9-0.6c-0.3-0.3-0.4-0.7-0.4-1.2c0-0.6,0.3-1.1,0.8-1.5c0.5-0.4,1.2-0.6,2.1-0.6
					c0.5,0,1,0.1,1.4,0.2c0.5,0.1,0.9,0.3,1.2,0.5l-0.4,0.8c-0.6-0.4-1.3-0.6-2.2-0.6c-0.6,0-1.1,0.1-1.4,0.3
					c-0.3,0.2-0.5,0.5-0.5,0.9c0,0.3,0.1,0.5,0.3,0.7c0.2,0.2,0.4,0.3,0.7,0.4c0.3,0.1,0.6,0.2,1.1,0.2c0.6,0.1,1.1,0.2,1.4,0.3
					c0.4,0.1,0.7,0.3,0.9,0.6s0.4,0.6,0.4,1.1c0,0.6-0.3,1.2-0.8,1.5C126.9,333.8,126.1,334,125.2,334z"/>
			</g>
			<g class="st6">
				<path class="st1" d="M38.3,507.7l-1-0.9c0-0.3,0.1-0.6,0.1-0.9c0-0.3,0-0.6-0.1-0.9l1-0.9c0.1-0.1,0.1-0.2,0.2-0.3
					c0-0.1,0-0.2,0-0.3l0,0c-0.3-0.8-0.7-1.5-1.2-2.2l0,0c-0.1-0.1-0.2-0.1-0.3-0.2c-0.1,0-0.2,0-0.3,0l-1.3,0.5
					c-0.5-0.4-1-0.7-1.6-0.9l-0.2-1.3c0-0.1-0.1-0.2-0.1-0.3c-0.1-0.1-0.2-0.1-0.3-0.1l0,0c-0.8-0.1-1.7-0.1-2.5,0l0,0
					c-0.1,0-0.2,0.1-0.3,0.1c-0.1,0.1-0.1,0.2-0.1,0.3l-0.2,1.3c-0.6,0.2-1.1,0.5-1.5,0.9l-1.3-0.5c-0.1,0-0.2,0-0.3,0
					c-0.1,0-0.2,0.1-0.3,0.2l0,0c-0.5,0.6-1,1.4-1.2,2.2l0,0c-0.1,0.2,0,0.4,0.1,0.5l1,0.9c0,0.3-0.1,0.6-0.1,0.9
					c0,0.3,0,0.6,0.1,0.9l-1,0.9c-0.1,0.1-0.1,0.2-0.2,0.3c0,0.1,0,0.2,0,0.3l0,0c0.3,0.8,0.7,1.5,1.2,2.2l0,0
					c0.1,0.1,0.2,0.1,0.3,0.2c0.1,0,0.2,0,0.3,0l1.3-0.5c0.5,0.4,1,0.7,1.5,0.9l0.2,1.3c0,0.1,0.1,0.2,0.1,0.3
					c0.1,0.1,0.2,0.1,0.3,0.1l0,0c0.8,0.1,1.7,0.1,2.5,0l0,0c0.1,0,0.2-0.1,0.3-0.1c0.1-0.1,0.1-0.2,0.1-0.3l0.2-1.3
					c0.6-0.2,1.1-0.5,1.6-0.9l1.3,0.5c0.1,0,0.2,0,0.3,0c0.1,0,0.2-0.1,0.3-0.2l0,0c0.5-0.6,1-1.4,1.2-2.2l0,0
					C38.5,508.1,38.4,507.9,38.3,507.7z M36.1,505.2c0,0.2,0.1,0.5,0.1,0.7c0,0.2,0,0.5-0.1,0.7l-0.1,0.6l1.2,1
					c-0.2,0.4-0.4,0.8-0.7,1.1l-1.5-0.5l-0.5,0.4c-0.4,0.3-0.8,0.5-1.2,0.7l-0.6,0.2l-0.3,1.5c-0.4,0-0.9,0-1.3,0l-0.3-1.5l-0.6-0.2
					c-0.4-0.2-0.9-0.4-1.2-0.7l-0.5-0.4l-1.5,0.5c-0.3-0.4-0.5-0.7-0.7-1.2l1.2-1l-0.1-0.6c0-0.2-0.1-0.5-0.1-0.7
					c0-0.2,0-0.5,0.1-0.7l0.1-0.6l-1.2-1c0.2-0.4,0.4-0.8,0.7-1.1l1.5,0.5l0.5-0.4c0.4-0.3,0.8-0.5,1.2-0.7l0.6-0.2l0.3-1.5
					c0.4,0,0.9,0,1.3,0l0.3,1.5l0.6,0.2c0.4,0.2,0.9,0.4,1.2,0.7l0.5,0.4l1.5-0.5c0.3,0.4,0.5,0.7,0.7,1.2l-1.2,1L36.1,505.2z
					 M31.8,503.1c-1.5,0-2.8,1.2-2.8,2.8c0,1.5,1.2,2.8,2.8,2.8c1.5,0,2.8-1.2,2.8-2.8C34.6,504.3,33.3,503.1,31.8,503.1z M33.1,507
					c-0.2,0.2-0.4,0.3-0.6,0.4c-0.2,0.1-0.4,0.1-0.7,0.1c-0.5,0-0.9-0.2-1.2-0.5c-0.2-0.2-0.3-0.4-0.4-0.6c-0.1-0.2-0.1-0.4-0.1-0.7
					c0-0.5,0.2-0.9,0.5-1.2c0.3-0.3,0.8-0.5,1.2-0.5c0.5,0,0.9,0.2,1.2,0.5c0.2,0.2,0.3,0.4,0.4,0.6c0.1,0.2,0.1,0.4,0.1,0.7
					C33.6,506.3,33.4,506.7,33.1,507z"/>
				<path class="st1" d="M57.6,508.3h-5.5l-1.2,2.6h-1.1l4.5-9.8h1l4.5,9.8h-1.1L57.6,508.3z M57.2,507.5l-2.4-5.3l-2.4,5.3H57.2z
					 M64.2,511c-0.7,0-1.4-0.2-2-0.5c-0.6-0.3-1-0.8-1.3-1.3c-0.3-0.6-0.5-1.2-0.5-1.9s0.2-1.4,0.5-1.9c0.3-0.6,0.8-1,1.3-1.3
					c0.6-0.3,1.2-0.5,2-0.5c0.6,0,1.2,0.1,1.7,0.4c0.5,0.2,0.9,0.6,1.2,1.1l-0.7,0.5c-0.2-0.4-0.6-0.6-0.9-0.8
					c-0.4-0.2-0.8-0.3-1.2-0.3c-0.5,0-1,0.1-1.4,0.4c-0.4,0.2-0.8,0.6-1,1c-0.2,0.4-0.3,0.9-0.3,1.5c0,0.6,0.1,1.1,0.3,1.5
					c0.2,0.4,0.6,0.8,1,1c0.4,0.2,0.9,0.3,1.4,0.3c0.4,0,0.8-0.1,1.2-0.3c0.4-0.2,0.7-0.4,0.9-0.8l0.7,0.5c-0.3,0.5-0.7,0.8-1.2,1.1
					C65.4,510.9,64.8,511,64.2,511z M72,511c-0.7,0-1.4-0.2-2-0.5c-0.6-0.3-1-0.8-1.3-1.3c-0.3-0.6-0.5-1.2-0.5-1.9s0.2-1.4,0.5-1.9
					c0.3-0.6,0.8-1,1.3-1.3c0.6-0.3,1.2-0.5,2-0.5c0.6,0,1.2,0.1,1.7,0.4c0.5,0.2,0.9,0.6,1.2,1.1l-0.7,0.5
					c-0.2-0.4-0.6-0.6-0.9-0.8c-0.4-0.2-0.8-0.3-1.2-0.3c-0.5,0-1,0.1-1.4,0.4c-0.4,0.2-0.8,0.6-1,1c-0.2,0.4-0.3,0.9-0.3,1.5
					c0,0.6,0.1,1.1,0.3,1.5c0.2,0.4,0.6,0.8,1,1c0.4,0.2,0.9,0.3,1.4,0.3c0.4,0,0.8-0.1,1.2-0.3c0.4-0.2,0.7-0.4,0.9-0.8l0.7,0.5
					c-0.3,0.5-0.7,0.8-1.2,1.1C73.2,510.9,72.6,511,72,511z M79.7,511c-0.7,0-1.3-0.2-1.9-0.5c-0.6-0.3-1-0.8-1.3-1.3
					c-0.3-0.6-0.5-1.2-0.5-1.9s0.2-1.4,0.5-1.9c0.3-0.6,0.8-1,1.3-1.3c0.6-0.3,1.2-0.5,1.9-0.5c0.7,0,1.3,0.2,1.9,0.5
					c0.6,0.3,1,0.8,1.3,1.3c0.3,0.6,0.5,1.2,0.5,1.9s-0.2,1.4-0.5,1.9c-0.3,0.6-0.8,1-1.3,1.3C81.1,510.9,80.4,511,79.7,511z
					 M79.7,510.1c0.5,0,1-0.1,1.4-0.3c0.4-0.2,0.7-0.6,1-1c0.2-0.4,0.3-0.9,0.3-1.5s-0.1-1.1-0.3-1.5c-0.2-0.4-0.6-0.8-1-1
					c-0.4-0.2-0.9-0.4-1.4-0.4c-0.5,0-1,0.1-1.4,0.4c-0.4,0.2-0.7,0.6-1,1c-0.2,0.4-0.3,0.9-0.3,1.5s0.1,1.1,0.3,1.5
					c0.2,0.4,0.6,0.8,1,1C78.7,510,79.2,510.1,79.7,510.1z M92.1,503.6v7.4h-1v-1.3c-0.3,0.4-0.6,0.8-1.1,1c-0.5,0.2-1,0.4-1.6,0.4
					c-1,0-1.7-0.3-2.3-0.8c-0.6-0.5-0.8-1.3-0.8-2.4v-4.3h1v4.2c0,0.8,0.2,1.4,0.6,1.8s0.9,0.6,1.6,0.6c0.8,0,1.4-0.2,1.8-0.7
					c0.4-0.5,0.7-1.1,0.7-2v-3.9H92.1z M98.6,503.5c0.9,0,1.7,0.3,2.2,0.8c0.6,0.5,0.8,1.3,0.8,2.3v4.3h-1v-4.2
					c0-0.8-0.2-1.3-0.6-1.8c-0.4-0.4-0.9-0.6-1.6-0.6c-0.8,0-1.4,0.2-1.9,0.7c-0.5,0.5-0.7,1.1-0.7,1.9v3.9h-1v-7.4h1v1.4
					c0.3-0.4,0.6-0.8,1.1-1C97.5,503.7,98,503.5,98.6,503.5z M108.2,510.5c-0.2,0.2-0.4,0.3-0.7,0.4c-0.3,0.1-0.6,0.1-0.9,0.1
					c-0.7,0-1.2-0.2-1.6-0.6c-0.4-0.4-0.6-0.9-0.6-1.6v-4.5h-1.3v-0.8h1.3V502h1v1.6h2.2v0.8h-2.2v4.4c0,0.4,0.1,0.8,0.3,1
					c0.2,0.2,0.5,0.3,1,0.3c0.2,0,0.4,0,0.6-0.1c0.2-0.1,0.4-0.2,0.5-0.3L108.2,510.5z"/>
			</g>
			<path class="st1" d="M49.1,152.3h5.1c1.2,0,2.3,0.2,3.2,0.7c0.9,0.5,1.7,1.1,2.2,2c0.5,0.8,0.8,1.8,0.8,2.9
				c0,1.1-0.3,2.1-0.8,2.9c-0.5,0.8-1.2,1.5-2.2,2c-0.9,0.5-2,0.7-3.2,0.7h-5.1V152.3z M54.1,161.3c1.1,0,2-0.3,2.7-0.9
				c0.7-0.6,1-1.5,1-2.5s-0.3-1.9-1-2.5c-0.7-0.6-1.6-0.9-2.7-0.9h-2.4v6.9H54.1z M65.7,154.7c1.3,0,2.4,0.3,3.1,1
				c0.7,0.6,1.1,1.6,1.1,2.9v4.9h-2.3v-1.1c-0.5,0.8-1.3,1.2-2.6,1.2c-0.7,0-1.2-0.1-1.7-0.3c-0.5-0.2-0.8-0.5-1.1-0.9
				s-0.4-0.8-0.4-1.3c0-0.8,0.3-1.4,0.9-1.9c0.6-0.5,1.5-0.7,2.8-0.7h2c0-0.5-0.2-1-0.5-1.2c-0.3-0.3-0.8-0.4-1.5-0.4
				c-0.5,0-0.9,0.1-1.4,0.2c-0.4,0.1-0.8,0.3-1.1,0.6l-0.9-1.7c0.5-0.3,1-0.6,1.7-0.8C64.3,154.8,65,154.7,65.7,154.7z M65.5,161.9
				c0.4,0,0.8-0.1,1.1-0.3c0.3-0.2,0.6-0.5,0.7-0.9v-0.9h-1.7c-1,0-1.5,0.3-1.5,1c0,0.3,0.1,0.6,0.4,0.8
				C64.7,161.8,65,161.9,65.5,161.9z M75,163.6c-0.7,0-1.4-0.1-2.1-0.3c-0.7-0.2-1.2-0.4-1.6-0.7l0.8-1.8c0.4,0.2,0.8,0.4,1.4,0.6
				c0.5,0.1,1.1,0.2,1.6,0.2c1.1,0,1.6-0.3,1.6-0.8c0-0.2-0.1-0.4-0.4-0.5c-0.3-0.1-0.7-0.2-1.3-0.3c-0.7-0.1-1.3-0.2-1.7-0.4
				c-0.5-0.1-0.9-0.4-1.2-0.7c-0.3-0.4-0.5-0.9-0.5-1.5c0-0.5,0.2-1,0.5-1.4c0.3-0.4,0.8-0.8,1.4-1c0.6-0.2,1.3-0.4,2.1-0.4
				c0.6,0,1.2,0.1,1.8,0.2c0.6,0.1,1.1,0.3,1.5,0.5l-0.8,1.8c-0.8-0.4-1.6-0.6-2.5-0.6c-0.5,0-0.9,0.1-1.2,0.2
				c-0.3,0.1-0.4,0.3-0.4,0.6c0,0.3,0.1,0.5,0.4,0.6c0.3,0.1,0.7,0.2,1.4,0.3c0.7,0.1,1.3,0.2,1.7,0.4c0.4,0.1,0.8,0.4,1.2,0.7
				c0.3,0.4,0.5,0.8,0.5,1.5c0,0.5-0.2,1-0.5,1.4s-0.8,0.7-1.4,1C76.5,163.5,75.8,163.6,75,163.6z M85.8,154.7c1.1,0,1.9,0.3,2.6,1
				c0.7,0.6,1,1.6,1,2.8v4.9h-2.5v-4.5c0-0.7-0.1-1.2-0.4-1.5c-0.3-0.3-0.7-0.5-1.3-0.5c-0.6,0-1.1,0.2-1.5,0.6
				c-0.4,0.4-0.6,1-0.6,1.7v4.3h-2.5v-11.9h2.5v4.2c0.3-0.3,0.7-0.6,1.2-0.8C84.7,154.8,85.2,154.7,85.8,154.7z M96.7,154.7
				c0.8,0,1.5,0.2,2.2,0.6c0.7,0.4,1.2,0.9,1.6,1.6c0.4,0.7,0.6,1.4,0.6,2.3s-0.2,1.7-0.6,2.3c-0.4,0.7-0.9,1.2-1.6,1.6
				c-0.7,0.4-1.4,0.5-2.2,0.5c-1.2,0-2.1-0.4-2.7-1.1v1h-2.4v-11.9h2.5v4.2C94.7,155.1,95.6,154.7,96.7,154.7z M96.3,161.5
				c0.6,0,1.2-0.2,1.6-0.6c0.4-0.4,0.6-1,0.6-1.7s-0.2-1.3-0.6-1.7c-0.4-0.4-0.9-0.7-1.6-0.7s-1.2,0.2-1.6,0.7
				c-0.4,0.4-0.6,1-0.6,1.7s0.2,1.3,0.6,1.7C95.1,161.3,95.6,161.5,96.3,161.5z M106.8,163.6c-0.9,0-1.7-0.2-2.4-0.6
				c-0.7-0.4-1.3-0.9-1.7-1.6c-0.4-0.7-0.6-1.4-0.6-2.3s0.2-1.6,0.6-2.3c0.4-0.7,1-1.2,1.7-1.6c0.7-0.4,1.5-0.6,2.4-0.6
				c0.9,0,1.7,0.2,2.4,0.6c0.7,0.4,1.3,0.9,1.7,1.6c0.4,0.7,0.6,1.4,0.6,2.3s-0.2,1.6-0.6,2.3c-0.4,0.7-1,1.2-1.7,1.6
				C108.5,163.4,107.7,163.6,106.8,163.6z M106.8,161.5c0.6,0,1.2-0.2,1.6-0.6c0.4-0.4,0.6-1,0.6-1.7s-0.2-1.3-0.6-1.7
				c-0.4-0.4-0.9-0.7-1.6-0.7c-0.6,0-1.2,0.2-1.6,0.7c-0.4,0.4-0.6,1-0.6,1.7s0.2,1.3,0.6,1.7C105.6,161.3,106.1,161.5,106.8,161.5z
				 M116.5,154.7c1.3,0,2.4,0.3,3.1,1c0.7,0.6,1.1,1.6,1.1,2.9v4.9h-2.3v-1.1c-0.5,0.8-1.3,1.2-2.6,1.2c-0.7,0-1.2-0.1-1.7-0.3
				c-0.5-0.2-0.8-0.5-1.1-0.9c-0.3-0.4-0.4-0.8-0.4-1.3c0-0.8,0.3-1.4,0.9-1.9c0.6-0.5,1.5-0.7,2.8-0.7h2c0-0.5-0.2-1-0.5-1.2
				c-0.3-0.3-0.8-0.4-1.5-0.4c-0.5,0-0.9,0.1-1.4,0.2c-0.4,0.1-0.8,0.3-1.1,0.6l-0.9-1.7c0.5-0.3,1-0.6,1.7-0.8
				C115.1,154.8,115.8,154.7,116.5,154.7z M116.3,161.9c0.4,0,0.8-0.1,1.1-0.3c0.3-0.2,0.6-0.5,0.7-0.9v-0.9h-1.7
				c-1,0-1.5,0.3-1.5,1c0,0.3,0.1,0.6,0.4,0.8C115.5,161.8,115.9,161.9,116.3,161.9z M125.3,156c0.3-0.4,0.7-0.7,1.2-0.9
				c0.5-0.2,1.1-0.3,1.8-0.3v2.3c-0.3,0-0.5,0-0.6,0c-0.7,0-1.3,0.2-1.7,0.6c-0.4,0.4-0.6,1-0.6,1.8v4.1h-2.5v-8.6h2.4V156z
				 M138.4,151.6v11.9H136v-1c-0.6,0.7-1.5,1.1-2.7,1.1c-0.8,0-1.5-0.2-2.2-0.5c-0.7-0.4-1.2-0.9-1.5-1.6s-0.6-1.5-0.6-2.3
				s0.2-1.7,0.6-2.3s0.9-1.2,1.5-1.6c0.7-0.4,1.4-0.5,2.2-0.5c1.1,0,2,0.3,2.6,1v-4.2H138.4z M133.8,161.5c0.6,0,1.2-0.2,1.6-0.6
				c0.4-0.4,0.6-1,0.6-1.7s-0.2-1.3-0.6-1.7c-0.4-0.4-0.9-0.7-1.6-0.7c-0.6,0-1.2,0.2-1.6,0.7c-0.4,0.4-0.6,1-0.6,1.7
				s0.2,1.3,0.6,1.7C132.6,161.3,133.1,161.5,133.8,161.5z"/>
			<path d="M381,278.5l-6.9,21H369l-4.6-14.2l-4.8,14.2h-5.2l-6.9-21h5l4.7,14.8l5-14.8h4.5l4.8,14.9l4.9-14.9H381z M398,291.4
				c0,0.1,0,0.5-0.1,1.3h-12.2c0.2,1,0.7,1.8,1.6,2.4c0.8,0.6,1.8,0.9,3.1,0.9c0.8,0,1.6-0.1,2.2-0.4c0.7-0.3,1.3-0.7,1.8-1.2
				l2.5,2.7c-1.5,1.7-3.7,2.6-6.7,2.6c-1.8,0-3.4-0.3-4.8-1c-1.4-0.7-2.5-1.7-3.2-3c-0.8-1.3-1.1-2.7-1.1-4.3c0-1.6,0.4-3,1.1-4.3
				c0.8-1.3,1.8-2.3,3.1-3c1.3-0.7,2.8-1.1,4.4-1.1c1.6,0,3,0.3,4.3,1c1.3,0.7,2.3,1.7,3,2.9C397.7,288.3,398,289.8,398,291.4z
				 M389.7,286.6c-1.1,0-1.9,0.3-2.7,0.9s-1.2,1.4-1.3,2.5h8c-0.2-1-0.6-1.8-1.3-2.4C391.6,286.9,390.7,286.6,389.7,286.6z
				 M401.1,277.2h4.7v22.3h-4.7V277.2z M418,299.7c-1.7,0-3.3-0.3-4.7-1c-1.4-0.7-2.4-1.7-3.2-3c-0.8-1.3-1.1-2.7-1.1-4.3
				s0.4-3,1.1-4.3c0.8-1.3,1.9-2.2,3.2-2.9c1.4-0.7,2.9-1.1,4.7-1.1c1.7,0,3.2,0.4,4.4,1.1c1.3,0.7,2.2,1.7,2.8,3l-3.6,1.9
				c-0.8-1.5-2-2.2-3.6-2.2c-1.2,0-2.2,0.4-3,1.2c-0.8,0.8-1.2,1.9-1.2,3.3s0.4,2.5,1.2,3.3c0.8,0.8,1.8,1.2,3,1.2
				c1.6,0,2.8-0.7,3.6-2.2l3.6,2c-0.6,1.3-1.5,2.3-2.8,3C421.2,299.3,419.7,299.7,418,299.7z M435.4,299.7c-1.7,0-3.2-0.3-4.6-1
				c-1.3-0.7-2.4-1.7-3.1-3c-0.8-1.3-1.1-2.7-1.1-4.3s0.4-3,1.1-4.3c0.8-1.3,1.8-2.2,3.1-2.9c1.4-0.7,2.9-1.1,4.6-1.1
				c1.7,0,3.2,0.4,4.6,1.1c1.3,0.7,2.4,1.7,3.1,2.9c0.8,1.3,1.1,2.7,1.1,4.3s-0.4,3-1.1,4.3s-1.8,2.2-3.1,3
				C438.6,299.3,437.1,299.7,435.4,299.7z M435.4,295.9c1.2,0,2.2-0.4,2.9-1.2c0.8-0.8,1.2-1.9,1.2-3.3c0-1.4-0.4-2.4-1.2-3.2
				c-0.8-0.8-1.7-1.2-2.9-1.2c-1.2,0-2.2,0.4-3,1.2c-0.8,0.8-1.2,1.9-1.2,3.2c0,1.4,0.4,2.5,1.2,3.3
				C433.2,295.5,434.2,295.9,435.4,295.9z M468,283.1c2,0,3.6,0.6,4.8,1.8c1.2,1.2,1.8,3,1.8,5.3v9.2h-4.7v-8.5
				c0-1.3-0.3-2.2-0.8-2.9c-0.5-0.6-1.3-1-2.2-1c-1.1,0-2,0.4-2.6,1.1c-0.6,0.7-1,1.8-1,3.1v8.1h-4.7v-8.5c0-2.5-1-3.8-3.1-3.8
				c-1.1,0-1.9,0.4-2.6,1.1c-0.6,0.7-1,1.8-1,3.1v8.1h-4.7v-16.1h4.5v1.9c0.6-0.7,1.3-1.2,2.2-1.6c0.9-0.4,1.8-0.5,2.9-0.5
				c1.1,0,2.2,0.2,3.1,0.7c0.9,0.4,1.7,1.1,2.2,2c0.7-0.8,1.5-1.5,2.5-2C465.7,283.3,466.8,283.1,468,283.1z M494.8,291.4
				c0,0.1,0,0.5-0.1,1.3h-12.2c0.2,1,0.7,1.8,1.6,2.4c0.8,0.6,1.8,0.9,3.1,0.9c0.8,0,1.6-0.1,2.2-0.4c0.7-0.3,1.3-0.7,1.8-1.2
				l2.5,2.7c-1.5,1.7-3.7,2.6-6.7,2.6c-1.8,0-3.4-0.3-4.8-1c-1.4-0.7-2.5-1.7-3.2-3s-1.1-2.7-1.1-4.3c0-1.6,0.4-3,1.1-4.3
				c0.8-1.3,1.8-2.3,3.1-3c1.3-0.7,2.8-1.1,4.4-1.1c1.6,0,3,0.3,4.3,1c1.3,0.7,2.3,1.7,3,2.9C494.4,288.3,494.8,289.8,494.8,291.4z
				 M486.4,286.6c-1.1,0-1.9,0.3-2.7,0.9s-1.2,1.4-1.3,2.5h7.9c-0.2-1-0.6-1.8-1.3-2.4C488.4,286.9,487.5,286.6,486.4,286.6z
				 M516.8,298.7c-0.5,0.3-1,0.6-1.7,0.8c-0.7,0.2-1.4,0.2-2.1,0.2c-1.9,0-3.4-0.5-4.5-1.5c-1-1-1.6-2.4-1.6-4.3v-6.6h-2.5v-3.6h2.5
				v-3.9h4.7v3.9h4v3.6h-4v6.6c0,0.7,0.2,1.2,0.5,1.6c0.4,0.4,0.9,0.5,1.5,0.5c0.7,0,1.4-0.2,1.9-0.6L516.8,298.7z M526.6,299.7
				c-1.7,0-3.2-0.3-4.6-1c-1.3-0.7-2.4-1.7-3.1-3s-1.1-2.7-1.1-4.3s0.4-3,1.1-4.3c0.8-1.3,1.8-2.2,3.1-2.9c1.4-0.7,2.9-1.1,4.6-1.1
				s3.2,0.4,4.6,1.1c1.3,0.7,2.4,1.7,3.2,2.9c0.8,1.3,1.1,2.7,1.1,4.3s-0.4,3-1.1,4.3c-0.8,1.3-1.8,2.2-3.2,3
				C529.9,299.3,528.3,299.7,526.6,299.7z M526.6,295.9c1.2,0,2.2-0.4,2.9-1.2c0.8-0.8,1.2-1.9,1.2-3.3c0-1.4-0.4-2.4-1.2-3.2
				c-0.8-0.8-1.7-1.2-2.9-1.2s-2.2,0.4-3,1.2c-0.8,0.8-1.2,1.9-1.2,3.2c0,1.4,0.4,2.5,1.2,3.3C524.4,295.5,525.4,295.9,526.6,295.9z
				 M552.3,282.4v5.6h9.7v3.9h-9.7v7.6h-4.9v-21h15.9v3.9H552.3z M566.3,277.2h4.7v22.3h-4.7V277.2z M583,299.7
				c-1.7,0-3.2-0.3-4.6-1c-1.3-0.7-2.4-1.7-3.1-3c-0.8-1.3-1.1-2.7-1.1-4.3s0.4-3,1.1-4.3c0.8-1.3,1.8-2.2,3.1-2.9
				c1.4-0.7,2.9-1.1,4.6-1.1c1.7,0,3.2,0.4,4.6,1.1c1.3,0.7,2.4,1.7,3.1,2.9c0.8,1.3,1.1,2.7,1.1,4.3s-0.4,3-1.1,4.3s-1.8,2.2-3.1,3
				C586.2,299.3,584.7,299.7,583,299.7z M583,295.9c1.2,0,2.2-0.4,2.9-1.2c0.8-0.8,1.2-1.9,1.2-3.3c0-1.4-0.4-2.4-1.2-3.2
				c-0.8-0.8-1.7-1.2-2.9-1.2c-1.2,0-2.2,0.4-3,1.2c-0.8,0.8-1.2,1.9-1.2,3.2c0,1.4,0.4,2.5,1.2,3.3
				C580.8,295.5,581.8,295.9,583,295.9z M601.2,283.1c2.5,0,4.4,0.6,5.8,1.8c1.3,1.2,2,3,2,5.4v9.2h-4.4v-2
				c-0.9,1.5-2.5,2.2-4.9,2.2c-1.2,0-2.3-0.2-3.2-0.6c-0.9-0.4-1.6-1-2.1-1.7c-0.5-0.7-0.7-1.6-0.7-2.5c0-1.5,0.6-2.7,1.7-3.5
				c1.1-0.9,2.9-1.3,5.2-1.3h3.7c0-1-0.3-1.8-0.9-2.3c-0.6-0.6-1.6-0.8-2.8-0.8c-0.9,0-1.7,0.1-2.5,0.4c-0.8,0.3-1.5,0.6-2.1,1.1
				l-1.7-3.3c0.9-0.6,1.9-1.1,3.2-1.4C598.6,283.2,599.9,283.1,601.2,283.1z M600.8,296.5c0.8,0,1.5-0.2,2.1-0.5
				c0.6-0.4,1.1-0.9,1.3-1.6v-1.6h-3.2c-1.9,0-2.9,0.6-2.9,1.9c0,0.6,0.2,1.1,0.7,1.4C599.4,296.4,600,296.5,600.8,296.5z
				 M623.6,298.7c-0.5,0.3-1,0.6-1.7,0.8c-0.7,0.2-1.4,0.2-2.1,0.2c-1.9,0-3.4-0.5-4.5-1.5c-1-1-1.6-2.4-1.6-4.3v-6.6h-2.5v-3.6h2.5
				v-3.9h4.7v3.9h4v3.6h-4v6.6c0,0.7,0.2,1.2,0.5,1.6c0.4,0.4,0.9,0.5,1.5,0.5c0.7,0,1.4-0.2,1.9-0.6L623.6,298.7z M625.6,278.5h5.6
				l-0.9,13.7h-3.7L625.6,278.5z M628.4,299.7c-0.8,0-1.5-0.3-2.1-0.8c-0.5-0.5-0.8-1.2-0.8-1.9c0-0.8,0.3-1.4,0.8-1.9
				c0.5-0.5,1.2-0.8,2.1-0.8c0.8,0,1.5,0.3,2.1,0.8c0.5,0.5,0.8,1.1,0.8,1.9c0,0.8-0.3,1.4-0.8,1.9
				C629.9,299.4,629.2,299.7,628.4,299.7z"/>
			<path d="M363.6,236.7v16.8h-1.8v-7.8h-10.5v7.8h-1.8v-16.8h1.8v7.5h10.5v-7.5H363.6z M379.7,247.7h-10.6c0.1,1.3,0.6,2.4,1.5,3.2
				c0.9,0.8,2.1,1.2,3.5,1.2c0.8,0,1.5-0.1,2.2-0.4c0.7-0.3,1.2-0.7,1.7-1.2l1,1.1c-0.6,0.7-1.3,1.2-2.1,1.5
				c-0.8,0.4-1.8,0.5-2.8,0.5c-1.3,0-2.4-0.3-3.5-0.8c-1-0.6-1.8-1.3-2.3-2.3s-0.8-2.1-0.8-3.3c0-1.2,0.3-2.3,0.8-3.3
				c0.5-1,1.3-1.7,2.2-2.3c0.9-0.5,2-0.8,3.2-0.8s2.2,0.3,3.1,0.8c0.9,0.5,1.7,1.3,2.2,2.3c0.5,1,0.8,2.1,0.8,3.3L379.7,247.7z
				 M373.6,242.2c-1.2,0-2.2,0.4-3.1,1.2c-0.8,0.8-1.3,1.8-1.4,3h9c-0.1-1.2-0.6-2.3-1.4-3C375.9,242.6,374.8,242.2,373.6,242.2z
				 M383.2,235.7h1.7v17.8h-1.7V235.7z M389.6,235.7h1.7v17.8h-1.7V235.7z M401.2,253.6c-1.2,0-2.3-0.3-3.3-0.8
				c-1-0.6-1.7-1.3-2.3-2.3s-0.8-2.1-0.8-3.3c0-1.2,0.3-2.3,0.8-3.3c0.6-1,1.3-1.7,2.3-2.3c1-0.5,2.1-0.8,3.3-0.8s2.3,0.3,3.3,0.8
				c1,0.5,1.7,1.3,2.3,2.3c0.6,1,0.8,2.1,0.8,3.3c0,1.2-0.3,2.3-0.8,3.3c-0.5,1-1.3,1.7-2.3,2.3
				C403.6,253.3,402.5,253.6,401.2,253.6z M401.2,252.1c0.9,0,1.7-0.2,2.4-0.6c0.7-0.4,1.3-1,1.7-1.8s0.6-1.6,0.6-2.6
				c0-1-0.2-1.8-0.6-2.6s-1-1.3-1.7-1.7c-0.7-0.4-1.5-0.6-2.4-0.6s-1.7,0.2-2.4,0.6c-0.7,0.4-1.3,1-1.7,1.7
				c-0.4,0.8-0.6,1.6-0.6,2.6c0,1,0.2,1.8,0.6,2.6c0.4,0.8,1,1.3,1.7,1.8C399.5,251.9,400.3,252.1,401.2,252.1z M411,251
				c0.4,0,0.7,0.1,0.9,0.4c0.2,0.2,0.4,0.5,0.4,0.9c0,0.2,0,0.4-0.1,0.6c0,0.2-0.1,0.5-0.2,0.8l-1,3.3h-1.2l0.8-3.5
				c-0.3-0.1-0.5-0.2-0.6-0.4c-0.2-0.2-0.2-0.5-0.2-0.8c0-0.4,0.1-0.7,0.4-0.9C410.3,251.1,410.6,251,411,251z M434.4,251.9v1.5
				h-11.9v-16.8H434v1.5h-9.7v6h8.7v1.5h-8.7v6.2H434.4z M438.2,235.7h1.7v17.8h-1.7V235.7z M444.6,235.7h1.7v17.8h-1.7V235.7z
				 M455.5,240.7c1.6,0,2.9,0.4,3.8,1.2c0.9,0.8,1.3,2,1.3,3.6v7.8H459v-2c-0.4,0.7-1,1.2-1.7,1.5c-0.7,0.4-1.6,0.6-2.6,0.6
				c-1.4,0-2.5-0.3-3.4-1s-1.2-1.6-1.2-2.7c0-1.1,0.4-1.9,1.2-2.6c0.8-0.7,2-1,3.7-1h4v-0.8c0-1.1-0.3-1.9-0.9-2.5
				c-0.6-0.6-1.5-0.9-2.7-0.9c-0.8,0-1.6,0.1-2.3,0.4c-0.7,0.3-1.4,0.6-1.9,1.1l-0.8-1.3c0.6-0.5,1.4-1,2.3-1.2
				C453.6,240.9,454.5,240.7,455.5,240.7z M454.9,252.2c1,0,1.8-0.2,2.5-0.6c0.7-0.4,1.2-1.1,1.5-1.9v-2.1h-4
				c-2.2,0-3.2,0.8-3.2,2.3c0,0.7,0.3,1.3,0.8,1.8C453.1,252,453.9,252.2,454.9,252.2z M465,236.7h2l-0.4,11.8h-1.3L465,236.7z
				 M466,253.6c-0.4,0-0.7-0.1-0.9-0.4c-0.2-0.3-0.4-0.6-0.4-0.9c0-0.4,0.1-0.6,0.4-0.9c0.2-0.2,0.5-0.4,0.9-0.4
				c0.4,0,0.6,0.1,0.9,0.4c0.2,0.2,0.4,0.5,0.4,0.9c0,0.3-0.1,0.6-0.4,0.9C466.6,253.5,466.3,253.6,466,253.6z"/>
			<path d="M352.7,335.5c-1,0-1.8-0.2-2.6-0.6c-0.8-0.4-1.4-1-1.8-1.8c-0.4-0.8-0.7-1.6-0.7-2.6s0.2-1.8,0.7-2.5
				c0.4-0.8,1.1-1.4,1.8-1.8c0.8-0.4,1.7-0.6,2.6-0.6c0.7,0,1.4,0.1,2,0.4c0.6,0.2,1.1,0.6,1.6,1.1l-0.7,0.7
				c-0.8-0.8-1.7-1.2-2.9-1.2c-0.8,0-1.5,0.2-2.1,0.5c-0.6,0.4-1.1,0.8-1.5,1.5c-0.4,0.6-0.5,1.3-0.5,2.1c0,0.8,0.2,1.5,0.5,2.1
				c0.4,0.6,0.9,1.1,1.5,1.5c0.6,0.4,1.3,0.5,2.1,0.5c1.2,0,2.1-0.4,2.9-1.2l0.7,0.7c-0.4,0.5-1,0.8-1.6,1.1
				C354.1,335.4,353.4,335.5,352.7,335.5z M358.3,325.1h1v10.4h-1V325.1z M362,328.1h1v7.4h-1V328.1z M362.5,326.5
				c-0.2,0-0.4-0.1-0.5-0.2c-0.1-0.1-0.2-0.3-0.2-0.5c0-0.2,0.1-0.4,0.2-0.5c0.1-0.1,0.3-0.2,0.5-0.2c0.2,0,0.4,0.1,0.5,0.2
				c0.1,0.1,0.2,0.3,0.2,0.5c0,0.2-0.1,0.4-0.2,0.5C362.9,326.4,362.7,326.5,362.5,326.5z M368.8,335.5c-0.7,0-1.4-0.2-2-0.5
				c-0.6-0.3-1-0.8-1.3-1.3c-0.3-0.6-0.5-1.2-0.5-1.9s0.2-1.4,0.5-1.9s0.8-1,1.3-1.3c0.6-0.3,1.2-0.5,2-0.5c0.6,0,1.2,0.1,1.7,0.4
				c0.5,0.2,0.9,0.6,1.2,1.1L371,330c-0.2-0.4-0.6-0.6-0.9-0.8c-0.4-0.2-0.8-0.3-1.2-0.3c-0.5,0-1,0.1-1.4,0.4c-0.4,0.2-0.8,0.6-1,1
				c-0.2,0.4-0.4,0.9-0.4,1.5c0,0.6,0.1,1.1,0.4,1.5c0.2,0.4,0.6,0.8,1,1c0.4,0.2,0.9,0.3,1.4,0.3c0.4,0,0.8-0.1,1.2-0.3
				c0.4-0.2,0.7-0.4,0.9-0.8l0.7,0.5c-0.3,0.5-0.7,0.8-1.2,1.1C370,335.4,369.5,335.5,368.8,335.5z M376.3,331.8l-1.7,1.6v2.1h-1
				v-10.4h1v7l4.4-4h1.2l-3.1,3l3.4,4.4h-1.2L376.3,331.8z M388.6,335.5c-0.7,0-1.3-0.2-1.9-0.5c-0.6-0.3-1-0.8-1.3-1.3
				c-0.3-0.6-0.5-1.2-0.5-1.9s0.2-1.4,0.5-1.9c0.3-0.6,0.8-1,1.3-1.3c0.6-0.3,1.2-0.5,1.9-0.5c0.7,0,1.3,0.2,1.9,0.5
				c0.6,0.3,1,0.8,1.3,1.3c0.3,0.6,0.5,1.2,0.5,1.9s-0.2,1.4-0.5,1.9c-0.3,0.6-0.8,1-1.3,1.3C390,335.4,389.4,335.5,388.6,335.5z
				 M388.6,334.6c0.5,0,1-0.1,1.4-0.3c0.4-0.2,0.7-0.6,1-1c0.2-0.4,0.4-0.9,0.4-1.5s-0.1-1.1-0.4-1.5c-0.2-0.4-0.6-0.8-1-1
				c-0.4-0.2-0.9-0.4-1.4-0.4c-0.5,0-1,0.1-1.4,0.4c-0.4,0.2-0.7,0.6-1,1c-0.2,0.4-0.4,0.9-0.4,1.5s0.1,1.1,0.4,1.5
				c0.2,0.4,0.6,0.8,1,1C387.6,334.5,388.1,334.6,388.6,334.6z M398.2,328c0.9,0,1.7,0.3,2.2,0.8c0.6,0.5,0.8,1.3,0.8,2.3v4.3h-1
				v-4.2c0-0.8-0.2-1.3-0.6-1.8s-0.9-0.6-1.6-0.6c-0.8,0-1.4,0.2-1.9,0.7c-0.5,0.5-0.7,1.1-0.7,1.9v3.9h-1v-7.4h1v1.4
				c0.3-0.4,0.6-0.8,1.1-1C397,328.2,397.5,328,398.2,328z M410.3,332.1h-6.2c0.1,0.8,0.3,1.4,0.9,1.9c0.5,0.5,1.2,0.7,2,0.7
				c0.5,0,0.9-0.1,1.3-0.2c0.4-0.2,0.7-0.4,1-0.7l0.6,0.6c-0.3,0.4-0.7,0.7-1.2,0.9c-0.5,0.2-1,0.3-1.6,0.3c-0.8,0-1.4-0.2-2-0.5
				c-0.6-0.3-1-0.8-1.4-1.3c-0.3-0.6-0.5-1.2-0.5-1.9s0.2-1.4,0.5-1.9c0.3-0.6,0.7-1,1.3-1.3c0.6-0.3,1.2-0.5,1.8-0.5
				s1.3,0.2,1.8,0.5c0.5,0.3,1,0.8,1.3,1.3c0.3,0.6,0.5,1.2,0.5,1.9L410.3,332.1z M406.8,328.9c-0.7,0-1.3,0.2-1.8,0.7
				c-0.5,0.4-0.7,1-0.8,1.8h5.2c-0.1-0.7-0.3-1.3-0.8-1.8C408.1,329.1,407.5,328.9,406.8,328.9z M419,335.5c-0.7,0-1.3-0.2-1.9-0.5
				c-0.6-0.3-1-0.8-1.3-1.3c-0.3-0.6-0.5-1.2-0.5-1.9s0.2-1.4,0.5-1.9c0.3-0.6,0.8-1,1.3-1.3c0.6-0.3,1.2-0.5,1.9-0.5
				c0.7,0,1.3,0.2,1.9,0.5c0.6,0.3,1,0.8,1.3,1.3c0.3,0.6,0.5,1.2,0.5,1.9s-0.2,1.4-0.5,1.9c-0.3,0.6-0.8,1-1.3,1.3
				C420.4,335.4,419.7,335.5,419,335.5z M419,334.6c0.5,0,1-0.1,1.4-0.3c0.4-0.2,0.7-0.6,1-1c0.2-0.4,0.4-0.9,0.4-1.5
				s-0.1-1.1-0.4-1.5c-0.2-0.4-0.6-0.8-1-1c-0.4-0.2-0.9-0.4-1.4-0.4c-0.5,0-1,0.1-1.4,0.4c-0.4,0.2-0.7,0.6-1,1
				c-0.2,0.4-0.4,0.9-0.4,1.5s0.1,1.1,0.4,1.5c0.2,0.4,0.6,0.8,1,1C418,334.5,418.5,334.6,419,334.6z M427.2,325.8
				c-0.4,0-0.8,0.1-1,0.4c-0.2,0.2-0.3,0.6-0.3,1v0.9h2.3v0.8H426v6.5h-1v-6.5h-1.3v-0.8h1.3v-0.9c0-0.7,0.2-1.2,0.6-1.6
				c0.4-0.4,0.9-0.6,1.7-0.6c0.3,0,0.5,0,0.8,0.1c0.3,0.1,0.5,0.2,0.7,0.3l-0.3,0.7C428,326,427.7,325.8,427.2,325.8z M437.1,335
				c-0.2,0.2-0.4,0.3-0.7,0.4c-0.3,0.1-0.6,0.1-0.9,0.1c-0.7,0-1.2-0.2-1.6-0.6c-0.4-0.4-0.6-0.9-0.6-1.6v-4.5h-1.3v-0.8h1.3v-1.6h1
				v1.6h2.2v0.8h-2.2v4.4c0,0.4,0.1,0.8,0.3,1c0.2,0.2,0.5,0.3,1,0.3c0.2,0,0.4,0,0.6-0.1c0.2-0.1,0.4-0.2,0.5-0.3L437.1,335z
				 M442.6,328c0.9,0,1.7,0.3,2.2,0.8c0.6,0.5,0.8,1.3,0.8,2.3v4.3h-1v-4.2c0-0.8-0.2-1.3-0.6-1.8c-0.4-0.4-0.9-0.6-1.6-0.6
				c-0.8,0-1.4,0.2-1.9,0.7c-0.5,0.5-0.7,1.1-0.7,1.9v3.9h-1v-10.4h1v4.3c0.3-0.4,0.6-0.8,1.1-1C441.5,328.2,442,328,442.6,328z
				 M454.8,332.1h-6.2c0.1,0.8,0.4,1.4,0.9,1.9c0.5,0.5,1.2,0.7,2,0.7c0.5,0,0.9-0.1,1.3-0.2c0.4-0.2,0.7-0.4,1-0.7l0.6,0.6
				c-0.3,0.4-0.7,0.7-1.2,0.9c-0.5,0.2-1,0.3-1.6,0.3c-0.8,0-1.4-0.2-2-0.5c-0.6-0.3-1-0.8-1.4-1.3c-0.3-0.6-0.5-1.2-0.5-1.9
				s0.2-1.4,0.5-1.9c0.3-0.6,0.7-1,1.3-1.3c0.6-0.3,1.2-0.5,1.8-0.5c0.7,0,1.3,0.2,1.8,0.5c0.5,0.3,1,0.8,1.3,1.3
				c0.3,0.6,0.5,1.2,0.5,1.9L454.8,332.1z M451.3,328.9c-0.7,0-1.3,0.2-1.8,0.7c-0.5,0.4-0.7,1-0.8,1.8h5.2
				c-0.1-0.7-0.3-1.3-0.8-1.8C452.6,329.1,452,328.9,451.3,328.9z M464.3,328c0.7,0,1.3,0.2,1.9,0.5c0.6,0.3,1,0.7,1.3,1.3
				c0.3,0.6,0.5,1.2,0.5,1.9s-0.2,1.4-0.5,1.9c-0.3,0.6-0.8,1-1.3,1.3c-0.6,0.3-1.2,0.5-1.9,0.5c-0.6,0-1.2-0.1-1.7-0.4
				c-0.5-0.3-0.9-0.6-1.2-1.1v1.5h-1v-10.4h1v4.4c0.3-0.5,0.7-0.8,1.2-1.1C463.2,328.2,463.7,328,464.3,328z M464.2,334.6
				c0.5,0,1-0.1,1.4-0.3c0.4-0.2,0.7-0.6,1-1c0.2-0.4,0.4-0.9,0.4-1.5s-0.1-1.1-0.4-1.5c-0.2-0.4-0.6-0.8-1-1
				c-0.4-0.2-0.9-0.4-1.4-0.4c-0.5,0-1,0.1-1.4,0.4c-0.4,0.2-0.7,0.6-1,1c-0.2,0.4-0.4,0.9-0.4,1.5s0.1,1.1,0.4,1.5
				c0.2,0.4,0.6,0.8,1,1C463.2,334.5,463.7,334.6,464.2,334.6z M476.6,328.1v7.4h-1v-1.3c-0.3,0.4-0.6,0.8-1.1,1
				c-0.5,0.2-1,0.4-1.6,0.4c-1,0-1.7-0.3-2.3-0.8c-0.6-0.5-0.8-1.3-0.8-2.4v-4.3h1v4.2c0,0.8,0.2,1.4,0.6,1.8
				c0.4,0.4,0.9,0.6,1.6,0.6c0.8,0,1.4-0.2,1.8-0.7c0.4-0.5,0.7-1.1,0.7-2v-3.9H476.6z M483.3,335c-0.2,0.2-0.4,0.3-0.7,0.4
				c-0.3,0.1-0.6,0.1-0.9,0.1c-0.7,0-1.2-0.2-1.6-0.6c-0.4-0.4-0.6-0.9-0.6-1.6v-4.5h-1.3v-0.8h1.3v-1.6h1v1.6h2.2v0.8h-2.2v4.4
				c0,0.4,0.1,0.8,0.3,1c0.2,0.2,0.5,0.3,1,0.3c0.2,0,0.4,0,0.6-0.1c0.2-0.1,0.4-0.2,0.5-0.3L483.3,335z M488.8,335
				c-0.2,0.2-0.4,0.3-0.7,0.4c-0.3,0.1-0.6,0.1-0.9,0.1c-0.7,0-1.2-0.2-1.6-0.6c-0.4-0.4-0.6-0.9-0.6-1.6v-4.5h-1.3v-0.8h1.3v-1.6h1
				v1.6h2.2v0.8h-2.2v4.4c0,0.4,0.1,0.8,0.3,1c0.2,0.2,0.5,0.3,1,0.3c0.2,0,0.4,0,0.6-0.1c0.2-0.1,0.4-0.2,0.5-0.3L488.8,335z
				 M493.4,335.5c-0.7,0-1.3-0.2-1.9-0.5c-0.6-0.3-1-0.8-1.3-1.3c-0.3-0.6-0.5-1.2-0.5-1.9s0.2-1.4,0.5-1.9c0.3-0.6,0.8-1,1.3-1.3
				c0.6-0.3,1.2-0.5,1.9-0.5c0.7,0,1.3,0.2,1.9,0.5c0.6,0.3,1,0.8,1.3,1.3c0.3,0.6,0.5,1.2,0.5,1.9s-0.2,1.4-0.5,1.9
				c-0.3,0.6-0.8,1-1.3,1.3C494.7,335.4,494.1,335.5,493.4,335.5z M493.4,334.6c0.5,0,1-0.1,1.4-0.3c0.4-0.2,0.7-0.6,1-1
				c0.2-0.4,0.4-0.9,0.4-1.5s-0.1-1.1-0.4-1.5c-0.2-0.4-0.6-0.8-1-1c-0.4-0.2-0.9-0.4-1.4-0.4c-0.5,0-1,0.1-1.4,0.4
				c-0.4,0.2-0.7,0.6-1,1c-0.2,0.4-0.4,0.9-0.4,1.5s0.1,1.1,0.4,1.5c0.2,0.4,0.6,0.8,1,1C492.4,334.5,492.8,334.6,493.4,334.6z
				 M502.9,328c0.9,0,1.7,0.3,2.2,0.8c0.5,0.5,0.8,1.3,0.8,2.3v4.3h-1v-4.2c0-0.8-0.2-1.3-0.6-1.8c-0.4-0.4-0.9-0.6-1.6-0.6
				c-0.8,0-1.4,0.2-1.9,0.7c-0.5,0.5-0.7,1.1-0.7,1.9v3.9h-1v-7.4h1v1.4c0.3-0.4,0.6-0.8,1.1-1C501.7,328.2,502.2,328,502.9,328z
				 M510.6,335.5c-0.6,0-1.2-0.1-1.7-0.3c-0.5-0.2-1-0.4-1.3-0.7l0.4-0.8c0.3,0.2,0.7,0.4,1.2,0.6c0.5,0.1,1,0.2,1.5,0.2
				c0.7,0,1.2-0.1,1.5-0.3c0.3-0.2,0.5-0.5,0.5-0.9c0-0.3-0.1-0.5-0.3-0.6c-0.2-0.2-0.4-0.3-0.7-0.4c-0.3-0.1-0.6-0.2-1.1-0.2
				c-0.6-0.1-1.1-0.2-1.4-0.3c-0.4-0.1-0.7-0.3-0.9-0.6c-0.3-0.3-0.4-0.7-0.4-1.2c0-0.6,0.3-1.1,0.8-1.5c0.5-0.4,1.2-0.6,2.1-0.6
				c0.5,0,1,0.1,1.4,0.2c0.5,0.1,0.9,0.3,1.2,0.5l-0.4,0.8c-0.6-0.4-1.3-0.6-2.2-0.6c-0.6,0-1.1,0.1-1.4,0.3
				c-0.3,0.2-0.5,0.5-0.5,0.9c0,0.3,0.1,0.5,0.3,0.7c0.2,0.2,0.4,0.3,0.7,0.4c0.3,0.1,0.6,0.2,1.1,0.2c0.6,0.1,1.1,0.2,1.4,0.3
				c0.4,0.1,0.7,0.3,0.9,0.6c0.3,0.3,0.4,0.6,0.4,1.1c0,0.6-0.3,1.2-0.8,1.5C512.3,335.3,511.5,335.5,510.6,335.5z M522.9,328
				c0.7,0,1.3,0.2,1.9,0.5c0.6,0.3,1,0.7,1.3,1.3s0.5,1.2,0.5,1.9s-0.2,1.4-0.5,1.9s-0.8,1-1.3,1.3c-0.6,0.3-1.2,0.5-1.9,0.5
				c-0.6,0-1.2-0.1-1.7-0.4c-0.5-0.3-0.9-0.6-1.2-1.1v1.5h-1v-10.4h1v4.4c0.3-0.5,0.7-0.8,1.2-1.1C521.8,328.2,522.3,328,522.9,328z
				 M522.8,334.6c0.5,0,1-0.1,1.4-0.3c0.4-0.2,0.7-0.6,1-1c0.2-0.4,0.4-0.9,0.4-1.5s-0.1-1.1-0.4-1.5c-0.2-0.4-0.6-0.8-1-1
				c-0.4-0.2-0.9-0.4-1.4-0.4c-0.5,0-1,0.1-1.4,0.4c-0.4,0.2-0.7,0.6-1,1c-0.2,0.4-0.3,0.9-0.3,1.5s0.1,1.1,0.3,1.5
				c0.2,0.4,0.6,0.8,1,1C521.8,334.5,522.3,334.6,522.8,334.6z M535,332.1h-6.2c0.1,0.8,0.3,1.4,0.9,1.9c0.5,0.5,1.2,0.7,2,0.7
				c0.5,0,0.9-0.1,1.3-0.2c0.4-0.2,0.7-0.4,1-0.7l0.6,0.6c-0.3,0.4-0.7,0.7-1.2,0.9c-0.5,0.2-1,0.3-1.6,0.3c-0.8,0-1.4-0.2-2-0.5
				c-0.6-0.3-1-0.8-1.4-1.3c-0.3-0.6-0.5-1.2-0.5-1.9s0.2-1.4,0.5-1.9c0.3-0.6,0.7-1,1.3-1.3c0.6-0.3,1.2-0.5,1.8-0.5
				c0.7,0,1.3,0.2,1.8,0.5c0.5,0.3,1,0.8,1.3,1.3c0.3,0.6,0.5,1.2,0.5,1.9L535,332.1z M531.5,328.9c-0.7,0-1.3,0.2-1.8,0.7
				c-0.5,0.4-0.7,1-0.8,1.8h5.2c-0.1-0.7-0.3-1.3-0.8-1.8C532.8,329.1,532.2,328.9,531.5,328.9z M537,325.1h1v10.4h-1V325.1z
				 M543.8,335.5c-0.7,0-1.3-0.2-1.9-0.5c-0.6-0.3-1-0.8-1.3-1.3c-0.3-0.6-0.5-1.2-0.5-1.9s0.2-1.4,0.5-1.9c0.3-0.6,0.8-1,1.3-1.3
				c0.6-0.3,1.2-0.5,1.9-0.5c0.7,0,1.3,0.2,1.9,0.5c0.6,0.3,1,0.8,1.3,1.3c0.3,0.6,0.5,1.2,0.5,1.9s-0.2,1.4-0.5,1.9
				c-0.3,0.6-0.8,1-1.3,1.3C545.2,335.4,544.5,335.5,543.8,335.5z M543.8,334.6c0.5,0,1-0.1,1.4-0.3c0.4-0.2,0.7-0.6,1-1
				c0.2-0.4,0.3-0.9,0.3-1.5s-0.1-1.1-0.3-1.5c-0.2-0.4-0.6-0.8-1-1c-0.4-0.2-0.9-0.4-1.4-0.4c-0.5,0-1,0.1-1.4,0.4
				c-0.4,0.2-0.7,0.6-1,1c-0.2,0.4-0.4,0.9-0.4,1.5s0.1,1.1,0.4,1.5c0.2,0.4,0.6,0.8,1,1C542.8,334.5,543.3,334.6,543.8,334.6z
				 M560.2,328.1l-2.8,7.4h-0.9l-2.3-6l-2.3,6h-0.9l-2.8-7.4h1l2.3,6.3l2.4-6.3h0.9l2.4,6.3l2.3-6.3H560.2z M569.2,335
				c-0.2,0.2-0.4,0.3-0.7,0.4c-0.3,0.1-0.6,0.1-0.9,0.1c-0.7,0-1.2-0.2-1.6-0.6c-0.4-0.4-0.6-0.9-0.6-1.6v-4.5h-1.3v-0.8h1.3v-1.6h1
				v1.6h2.2v0.8h-2.2v4.4c0,0.4,0.1,0.8,0.3,1c0.2,0.2,0.5,0.3,1,0.3c0.2,0,0.4,0,0.6-0.1c0.2-0.1,0.4-0.2,0.5-0.3L569.2,335z
				 M573.8,335.5c-0.7,0-1.3-0.2-1.9-0.5c-0.6-0.3-1-0.8-1.3-1.3c-0.3-0.6-0.5-1.2-0.5-1.9s0.2-1.4,0.5-1.9c0.3-0.6,0.8-1,1.3-1.3
				c0.6-0.3,1.2-0.5,1.9-0.5s1.3,0.2,1.9,0.5c0.6,0.3,1,0.8,1.3,1.3c0.3,0.6,0.5,1.2,0.5,1.9s-0.2,1.4-0.5,1.9
				c-0.3,0.6-0.8,1-1.3,1.3C575.1,335.4,574.5,335.5,573.8,335.5z M573.8,334.6c0.5,0,1-0.1,1.4-0.3c0.4-0.2,0.7-0.6,1-1
				c0.2-0.4,0.3-0.9,0.3-1.5s-0.1-1.1-0.3-1.5c-0.2-0.4-0.6-0.8-1-1c-0.4-0.2-0.9-0.4-1.4-0.4s-1,0.1-1.4,0.4c-0.4,0.2-0.7,0.6-1,1
				c-0.2,0.4-0.4,0.9-0.4,1.5s0.1,1.1,0.4,1.5c0.2,0.4,0.6,0.8,1,1C572.8,334.5,573.3,334.6,573.8,334.6z M590,328.1v6.5
				c0,1.3-0.3,2.2-0.9,2.8c-0.6,0.6-1.5,0.9-2.8,0.9c-0.7,0-1.3-0.1-1.9-0.3c-0.6-0.2-1.1-0.5-1.5-0.8l0.5-0.8
				c0.4,0.3,0.8,0.6,1.3,0.7c0.5,0.2,1,0.3,1.6,0.3c0.9,0,1.6-0.2,2.1-0.7c0.4-0.4,0.7-1.1,0.7-2v-0.9c-0.3,0.5-0.7,0.8-1.2,1.1
				c-0.5,0.2-1,0.4-1.7,0.4c-0.7,0-1.3-0.1-1.9-0.4c-0.6-0.3-1-0.7-1.3-1.3c-0.3-0.6-0.5-1.2-0.5-1.9c0-0.7,0.2-1.3,0.5-1.8
				c0.3-0.5,0.8-1,1.3-1.3c0.6-0.3,1.2-0.4,1.9-0.4c0.6,0,1.2,0.1,1.7,0.4c0.5,0.3,0.9,0.6,1.2,1.1v-1.4H590z M586.3,334.3
				c0.5,0,1-0.1,1.4-0.3c0.4-0.2,0.8-0.6,1-1c0.2-0.4,0.4-0.9,0.4-1.4c0-0.5-0.1-1-0.4-1.4c-0.2-0.4-0.6-0.7-1-1
				c-0.4-0.2-0.9-0.4-1.4-0.4c-0.5,0-1,0.1-1.4,0.3c-0.4,0.2-0.8,0.5-1,1c-0.2,0.4-0.3,0.9-0.3,1.4c0,0.5,0.1,1,0.3,1.4
				c0.2,0.4,0.6,0.7,1,1C585.3,334.2,585.7,334.3,586.3,334.3z M599.2,332.1h-6.2c0.1,0.8,0.3,1.4,0.9,1.9c0.5,0.5,1.2,0.7,2,0.7
				c0.5,0,0.9-0.1,1.3-0.2c0.4-0.2,0.7-0.4,1-0.7l0.6,0.6c-0.3,0.4-0.7,0.7-1.2,0.9c-0.5,0.2-1,0.3-1.6,0.3c-0.8,0-1.4-0.2-2-0.5
				c-0.6-0.3-1-0.8-1.4-1.3c-0.3-0.6-0.5-1.2-0.5-1.9s0.2-1.4,0.5-1.9c0.3-0.6,0.7-1,1.3-1.3c0.6-0.3,1.2-0.5,1.8-0.5
				c0.7,0,1.3,0.2,1.8,0.5c0.5,0.3,1,0.8,1.3,1.3c0.3,0.6,0.5,1.2,0.5,1.9L599.2,332.1z M595.7,328.9c-0.7,0-1.3,0.2-1.8,0.7
				c-0.5,0.4-0.7,1-0.8,1.8h5.2c-0.1-0.7-0.3-1.3-0.8-1.8C597,329.1,596.4,328.9,595.7,328.9z M605.1,335c-0.2,0.2-0.4,0.3-0.7,0.4
				c-0.3,0.1-0.6,0.1-0.9,0.1c-0.7,0-1.2-0.2-1.6-0.6c-0.4-0.4-0.6-0.9-0.6-1.6v-4.5h-1.3v-0.8h1.3v-1.6h1v1.6h2.2v0.8h-2.2v4.4
				c0,0.4,0.1,0.8,0.3,1c0.2,0.2,0.5,0.3,1,0.3c0.2,0,0.4,0,0.6-0.1c0.2-0.1,0.4-0.2,0.5-0.3L605.1,335z M612.6,335.5
				c-0.6,0-1.2-0.1-1.7-0.3c-0.5-0.2-1-0.4-1.3-0.7l0.4-0.8c0.3,0.2,0.7,0.4,1.2,0.6c0.5,0.1,1,0.2,1.5,0.2c0.7,0,1.2-0.1,1.5-0.3
				c0.3-0.2,0.5-0.5,0.5-0.9c0-0.3-0.1-0.5-0.3-0.6c-0.2-0.2-0.4-0.3-0.7-0.4c-0.3-0.1-0.6-0.2-1.1-0.2c-0.6-0.1-1.1-0.2-1.4-0.3
				c-0.4-0.1-0.7-0.3-0.9-0.6c-0.3-0.3-0.4-0.7-0.4-1.2c0-0.6,0.3-1.1,0.8-1.5s1.2-0.6,2.1-0.6c0.5,0,1,0.1,1.4,0.2
				c0.5,0.1,0.9,0.3,1.2,0.5l-0.4,0.8c-0.6-0.4-1.3-0.6-2.2-0.6c-0.6,0-1.1,0.1-1.4,0.3c-0.3,0.2-0.5,0.5-0.5,0.9
				c0,0.3,0.1,0.5,0.3,0.7c0.2,0.2,0.4,0.3,0.7,0.4c0.3,0.1,0.6,0.2,1.1,0.2c0.6,0.1,1.1,0.2,1.4,0.3c0.4,0.1,0.7,0.3,0.9,0.6
				s0.4,0.6,0.4,1.1c0,0.6-0.3,1.2-0.8,1.5C614.3,335.3,613.5,335.5,612.6,335.5z M621.3,335c-0.2,0.2-0.4,0.3-0.7,0.4
				c-0.3,0.1-0.6,0.1-0.9,0.1c-0.7,0-1.2-0.2-1.6-0.6c-0.4-0.4-0.6-0.9-0.6-1.6v-4.5h-1.3v-0.8h1.3v-1.6h1v1.6h2.2v0.8h-2.2v4.4
				c0,0.4,0.1,0.8,0.3,1c0.2,0.2,0.5,0.3,1,0.3c0.2,0,0.4,0,0.6-0.1c0.2-0.1,0.4-0.2,0.5-0.3L621.3,335z M625.7,328
				c1,0,1.7,0.2,2.2,0.7c0.5,0.5,0.8,1.2,0.8,2.1v4.6h-1v-1.1c-0.2,0.4-0.6,0.7-1,0.9c-0.4,0.2-0.9,0.3-1.5,0.3
				c-0.8,0-1.5-0.2-2-0.6s-0.7-0.9-0.7-1.6c0-0.6,0.2-1.1,0.7-1.5c0.5-0.4,1.2-0.6,2.2-0.6h2.3v-0.4c0-0.6-0.2-1.1-0.5-1.4
				c-0.4-0.3-0.9-0.5-1.6-0.5c-0.5,0-0.9,0.1-1.3,0.2c-0.4,0.1-0.8,0.4-1.1,0.6l-0.4-0.7c0.4-0.3,0.8-0.6,1.3-0.7
				C624.6,328.1,625.1,328,625.7,328z M625.4,334.7c0.6,0,1-0.1,1.4-0.4c0.4-0.3,0.7-0.6,0.9-1.1V332h-2.3c-1.3,0-1.9,0.4-1.9,1.3
				c0,0.4,0.2,0.8,0.5,1C624.3,334.6,624.8,334.7,625.4,334.7z M632.4,329.5c0.2-0.5,0.6-0.9,1-1.1c0.5-0.3,1-0.4,1.7-0.4v1l-0.2,0
				c-0.8,0-1.4,0.2-1.8,0.7c-0.4,0.5-0.7,1.1-0.7,2v3.8h-1v-7.4h1V329.5z M641.1,335c-0.2,0.2-0.4,0.3-0.7,0.4
				c-0.3,0.1-0.6,0.1-0.9,0.1c-0.7,0-1.2-0.2-1.6-0.6c-0.4-0.4-0.6-0.9-0.6-1.6v-4.5h-1.3v-0.8h1.3v-1.6h1v1.6h2.2v0.8h-2.2v4.4
				c0,0.4,0.1,0.8,0.3,1c0.2,0.2,0.5,0.3,1,0.3c0.2,0,0.4,0,0.6-0.1c0.2-0.1,0.4-0.2,0.5-0.3L641.1,335z M649.1,332.1h-6.2
				c0.1,0.8,0.3,1.4,0.9,1.9c0.5,0.5,1.2,0.7,2,0.7c0.5,0,0.9-0.1,1.3-0.2c0.4-0.2,0.7-0.4,1-0.7l0.6,0.6c-0.3,0.4-0.7,0.7-1.2,0.9
				c-0.5,0.2-1,0.3-1.6,0.3c-0.8,0-1.4-0.2-2-0.5c-0.6-0.3-1-0.8-1.4-1.3s-0.5-1.2-0.5-1.9s0.2-1.4,0.5-1.9c0.3-0.6,0.7-1,1.3-1.3
				c0.6-0.3,1.2-0.5,1.8-0.5c0.7,0,1.3,0.2,1.8,0.5c0.5,0.3,1,0.8,1.3,1.3c0.3,0.6,0.5,1.2,0.5,1.9L649.1,332.1z M645.5,328.9
				c-0.7,0-1.3,0.2-1.8,0.7c-0.5,0.4-0.7,1-0.8,1.8h5.2c-0.1-0.7-0.3-1.3-0.8-1.8C646.8,329.1,646.2,328.9,645.5,328.9z
				 M657.8,325.1v10.4h-1V334c-0.3,0.5-0.7,0.9-1.2,1.1c-0.5,0.3-1,0.4-1.7,0.4c-0.7,0-1.3-0.2-1.9-0.5c-0.6-0.3-1-0.8-1.3-1.3
				s-0.5-1.2-0.5-1.9s0.2-1.4,0.5-1.9s0.8-1,1.3-1.3c0.6-0.3,1.2-0.5,1.9-0.5c0.6,0,1.1,0.1,1.6,0.4c0.5,0.2,0.9,0.6,1.2,1.1v-4.4
				H657.8z M654.1,334.6c0.5,0,1-0.1,1.4-0.3c0.4-0.2,0.7-0.6,1-1c0.2-0.4,0.4-0.9,0.4-1.5s-0.1-1.1-0.4-1.5c-0.2-0.4-0.6-0.8-1-1
				c-0.4-0.2-0.9-0.4-1.4-0.4c-0.5,0-1,0.1-1.4,0.4c-0.4,0.2-0.7,0.6-1,1c-0.2,0.4-0.4,0.9-0.4,1.5s0.1,1.1,0.4,1.5
				c0.2,0.4,0.6,0.8,1,1C653.1,334.5,653.6,334.6,654.1,334.6z M660.7,335.5c-0.2,0-0.4-0.1-0.5-0.2c-0.1-0.1-0.2-0.3-0.2-0.5
				c0-0.2,0.1-0.4,0.2-0.5c0.2-0.1,0.3-0.2,0.5-0.2c0.2,0,0.4,0.1,0.5,0.2c0.1,0.1,0.2,0.3,0.2,0.5c0,0.2-0.1,0.4-0.2,0.5
				C661.1,335.5,660.9,335.5,660.7,335.5z"/>
			<path d="M352.7,179.5c-1,0-1.9-0.2-2.6-0.6c-0.8-0.4-1.4-1-1.8-1.8c-0.4-0.8-0.7-1.6-0.7-2.5c0-0.9,0.2-1.8,0.7-2.5
				c0.4-0.8,1.1-1.3,1.8-1.8c0.8-0.4,1.7-0.7,2.6-0.7s1.8,0.2,2.6,0.6c0.8,0.4,1.4,1,1.8,1.8c0.4,0.8,0.7,1.6,0.7,2.5
				c0,0.9-0.2,1.8-0.7,2.6c-0.4,0.8-1.1,1.3-1.8,1.8C354.5,179.3,353.7,179.5,352.7,179.5z M352.7,178.6c0.8,0,1.5-0.2,2.1-0.5
				c0.6-0.4,1.1-0.8,1.5-1.5c0.4-0.6,0.5-1.3,0.5-2.1s-0.2-1.5-0.5-2.1c-0.4-0.6-0.8-1.1-1.5-1.5c-0.6-0.4-1.3-0.5-2.1-0.5
				s-1.5,0.2-2.1,0.5c-0.6,0.3-1.1,0.8-1.5,1.5c-0.4,0.6-0.5,1.3-0.5,2.1s0.2,1.5,0.5,2.1c0.4,0.6,0.9,1.1,1.5,1.5
				C351.2,178.4,351.9,178.6,352.7,178.6z M366.1,172.1l-3.3,7.4h-1l-3.3-7.4h1l2.8,6.3l2.8-6.3H366.1z M373.7,176.1h-6.2
				c0.1,0.8,0.3,1.4,0.9,1.9c0.5,0.5,1.2,0.7,2,0.7c0.5,0,0.9-0.1,1.3-0.2c0.4-0.2,0.7-0.4,1-0.7l0.6,0.6c-0.3,0.4-0.7,0.7-1.2,0.9
				c-0.5,0.2-1,0.3-1.6,0.3c-0.8,0-1.4-0.2-2-0.5c-0.6-0.3-1-0.8-1.4-1.3c-0.3-0.6-0.5-1.2-0.5-1.9c0-0.7,0.2-1.4,0.5-1.9
				c0.3-0.6,0.7-1,1.3-1.3c0.6-0.3,1.2-0.5,1.8-0.5s1.3,0.2,1.8,0.5c0.5,0.3,1,0.8,1.3,1.3c0.3,0.6,0.5,1.2,0.5,1.9L373.7,176.1z
				 M370.2,172.9c-0.7,0-1.3,0.2-1.8,0.7c-0.5,0.4-0.7,1-0.8,1.8h5.2c-0.1-0.7-0.3-1.3-0.8-1.8C371.5,173.1,370.9,172.9,370.2,172.9
				z M376.7,173.5c0.2-0.5,0.6-0.9,1-1.1c0.5-0.3,1-0.4,1.7-0.4v1l-0.2,0c-0.8,0-1.4,0.2-1.8,0.7c-0.4,0.5-0.7,1.1-0.7,2v3.8h-1
				v-7.4h1V173.5z M387.8,172.1l-3.3,7.4h-1l-3.3-7.4h1l2.8,6.3l2.8-6.3H387.8z M389.2,172.1h1v7.4h-1V172.1z M389.7,170.5
				c-0.2,0-0.4-0.1-0.5-0.2c-0.1-0.1-0.2-0.3-0.2-0.5c0-0.2,0.1-0.3,0.2-0.5c0.1-0.1,0.3-0.2,0.5-0.2c0.2,0,0.4,0.1,0.5,0.2
				c0.1,0.1,0.2,0.3,0.2,0.5c0,0.2-0.1,0.4-0.2,0.5C390.1,170.4,389.9,170.5,389.7,170.5z M399.4,176.1h-6.2
				c0.1,0.8,0.4,1.4,0.9,1.9c0.5,0.5,1.2,0.7,2,0.7c0.5,0,0.9-0.1,1.3-0.2c0.4-0.2,0.7-0.4,1-0.7l0.6,0.6c-0.3,0.4-0.7,0.7-1.2,0.9
				c-0.5,0.2-1,0.3-1.6,0.3c-0.8,0-1.4-0.2-2-0.5c-0.6-0.3-1-0.8-1.4-1.3c-0.3-0.6-0.5-1.2-0.5-1.9c0-0.7,0.2-1.4,0.5-1.9
				c0.3-0.6,0.7-1,1.3-1.3c0.6-0.3,1.2-0.5,1.8-0.5s1.3,0.2,1.8,0.5c0.5,0.3,1,0.8,1.3,1.3c0.3,0.6,0.5,1.2,0.5,1.9L399.4,176.1z
				 M395.8,172.9c-0.7,0-1.3,0.2-1.8,0.7c-0.5,0.4-0.7,1-0.8,1.8h5.2c-0.1-0.7-0.3-1.3-0.8-1.8C397.1,173.1,396.5,172.9,395.8,172.9
				z M412.1,172.1l-2.8,7.4h-0.9l-2.3-6l-2.3,6h-0.9l-2.8-7.4h1l2.3,6.3l2.4-6.3h0.9l2.4,6.3l2.3-6.3H412.1z"/>
			<path class="st7" d="M1271.8,608.3c63.9,0,115.8-49.7,115.8-110.9s-51.8-110.9-115.8-110.9c-63.9,0-115.7,49.7-115.7,110.9
				S1207.9,608.3,1271.8,608.3z"/>
			<path class="st7" d="M1385.8,646.5c58.8,0,106.5-45.7,106.5-102.1c0-56.4-47.7-102.1-106.5-102.1c-58.8,0-106.5,45.7-106.5,102.1
				C1279.3,600.8,1327,646.5,1385.8,646.5z"/>
			<path class="st7" d="M1476.5,699c50.1,0,90.8-38.9,90.8-87c0-48-40.6-87-90.8-87c-50.1,0-90.8,38.9-90.8,87
				C1385.7,660.1,1426.3,699,1476.5,699z"/>
			<path class="st7" d="M1156.1,595.4c42.8,0,77.4-33.2,77.4-74.2c0-41-34.7-74.2-77.4-74.2c-42.8,0-77.4,33.2-77.4,74.2
				C1078.7,562.2,1113.3,595.4,1156.1,595.4z"/>
			<path class="st7" d="M1091.5,713.5c50.1,0,90.8-38.9,90.8-87c0-48-40.6-87-90.8-87c-50.1,0-90.8,38.9-90.8,87
				C1000.7,674.6,1041.4,713.5,1091.5,713.5z"/>
			<path class="st7" d="M1220.9,714.4c91,0,164.8-45.8,164.8-102.4c0-56.6-73.8-102.4-164.8-102.4s-164.8,45.8-164.8,102.4
				C1056.1,668.6,1129.9,714.4,1220.9,714.4z"/>
			<path class="st7" d="M1491.3,638.6c10.4-55.6-53.6-114.3-142.9-131c-89.3-16.7-170.2,14.8-180.6,70.5
				c-10.4,55.6,53.6,114.3,142.9,131C1400,725.8,1480.9,694.2,1491.3,638.6z"/>
			<path class="st7" d="M794.6,923.9c82.2,0,148.8-66.6,148.8-148.8s-66.6-148.8-148.8-148.8S645.8,692.8,645.8,775
				S712.4,923.9,794.6,923.9z"/>
			<path class="st7" d="M908.7,974.7c55.8,0,101.1-45.3,101.1-101.1c0-55.8-45.3-101.1-101.1-101.1c-55.8,0-101.1,45.3-101.1,101.1
				C807.6,929.5,852.8,974.7,908.7,974.7z"/>
			<path class="st7" d="M611.6,891.9c55.8,0,101.1-45.3,101.1-101.1c0-55.8-45.3-101.1-101.1-101.1c-55.8,0-101.1,45.3-101.1,101.1
				C510.5,846.6,555.7,891.9,611.6,891.9z"/>
			<path class="st7" d="M404.8,885.4c1.7,65.4,52.8,89.4,114.2,89.4c55.9,0,85.6-39.2,85.6-95.1s-39.4-113.8-94.2-102.8
				C441,790.8,403.4,829.6,404.8,885.4z"/>
			<path class="st7" d="M519.1,974.7h391.6v-143H519.1V974.7z"/>
			<path class="st8" d="M1227.9,773.6c61.5,0,111.3-49.8,111.3-111.3c0-61.5-49.8-111.3-111.3-111.3s-111.3,49.8-111.3,111.3
				C1116.6,723.8,1166.5,773.6,1227.9,773.6z"/>
			<path class="st8" d="M1337.5,812c56.6,0,102.5-45.9,102.5-102.5c0-56.6-45.9-102.5-102.5-102.5S1235,652.9,1235,709.5
				C1235,766.1,1280.9,812,1337.5,812z"/>
			<path class="st8" d="M1424.8,864.7c48.2,0,87.3-39.1,87.3-87.3s-39.1-87.3-87.3-87.3c-48.2,0-87.3,39.1-87.3,87.3
				S1376.6,864.7,1424.8,864.7z"/>
			<path class="st8" d="M1116.5,760.8c41.2,0,74.5-33.4,74.5-74.5c0-41.2-33.4-74.5-74.5-74.5c-41.2,0-74.5,33.4-74.5,74.5
				C1042,727.4,1075.4,760.8,1116.5,760.8z"/>
			<path class="st8" d="M1054.4,879.3c48.2,0,87.3-39.1,87.3-87.3c0-48.2-39.1-87.3-87.3-87.3c-48.2,0-87.3,39.1-87.3,87.3
				C967.2,840.3,1006.2,879.3,1054.4,879.3z"/>
			<path class="st8" d="M1178.9,880.2c87.6,0,158.6-46,158.6-102.8c0-56.8-71-102.8-158.6-102.8c-87.6,0-158.6,46-158.6,102.8
				C1020.3,834.2,1091.3,880.2,1178.9,880.2z"/>
			<path class="st8" d="M1438.7,805.8c11.5-55.6-48.7-115.1-134.5-132.8c-85.8-17.7-164.6,12.9-176.1,68.6
				c-11.5,55.6,48.7,115.1,134.5,132.8C1348.3,892.1,1427.2,861.4,1438.7,805.8z"/>
			<path class="st9" d="M1583.9,788c37.8-37.8,37.8-99,0-136.7c-37.8-37.8-99-37.8-136.7,0c-37.8,37.8-37.8,99,0,136.7
				C1484.9,825.8,1546.1,825.8,1583.9,788z"/>
			<path class="st9" d="M1418.8,805.1c35.7,0,64.7-29,64.7-64.7s-29-64.7-64.7-64.7s-64.7,29-64.7,64.7S1383.1,805.1,1418.8,805.1z"
				/>
			<path class="st9" d="M1365,907.9c41.8,0,75.7-33.9,75.7-75.7c0-41.8-33.9-75.7-75.7-75.7c-41.8,0-75.7,33.9-75.7,75.7
				C1289.2,874,1323.1,907.9,1365,907.9z"/>
			<path class="st9" d="M1473,908.7c76,0,137.6-39.9,137.6-89.2c0-49.2-61.6-89.2-137.6-89.2s-137.6,39.9-137.6,89.2
				C1335.4,868.8,1397,908.7,1473,908.7z"/>
			<path class="st9" d="M1698.4,844.1c10-48.2-42.3-99.8-116.7-115.2c-74.4-15.4-142.8,11.2-152.8,59.4
				c-10,48.2,42.3,99.8,116.7,115.2C1620,918.9,1688.4,892.3,1698.4,844.1z"/>
			<path class="st8" d="M975.1,771c37.8-37.8,37.8-99,0-136.7c-37.8-37.8-99-37.8-136.7,0c-37.8,37.8-37.8,99,0,136.7
				C876.1,808.7,937.3,808.7,975.1,771z"/>
			<path class="st8" d="M1064.7,806.5c34.7-34.7,34.7-91.1,0-125.8c-34.8-34.7-91.1-34.7-125.8,0c-34.7,34.7-34.7,91.1,0,125.8
				C973.6,841.3,1029.9,841.3,1064.7,806.5z"/>
			<path class="st8" d="M1077.6,878.2c41.8,0,75.7-33.9,75.7-75.7c0-41.8-33.9-75.7-75.7-75.7c-41.8,0-75.7,33.9-75.7,75.7
				C1001.9,844.3,1035.8,878.2,1077.6,878.2z"/>
			<path class="st8" d="M810,788.1c35.7,0,64.7-29,64.7-64.7c0-35.7-29-64.7-64.7-64.7c-35.7,0-64.7,29-64.7,64.7
				C745.3,759.1,774.3,788.1,810,788.1z"/>
			<path class="st8" d="M756.1,890.9c41.8,0,75.7-33.9,75.7-75.7c0-41.8-33.9-75.7-75.7-75.7c-41.8,0-75.7,33.9-75.7,75.7
				C680.4,857,714.3,890.9,756.1,890.9z"/>
			<path class="st8" d="M864.2,891.7c76,0,137.6-39.9,137.6-89.2c0-49.2-61.6-89.2-137.6-89.2c-76,0-137.6,39.9-137.6,89.2
				C726.5,851.7,788.2,891.7,864.2,891.7z"/>
			<path class="st8" d="M1089.5,827c10-48.2-42.3-99.8-116.7-115.2S830,723.1,820,771.3s42.3,99.8,116.7,115.2
				C1011.1,901.9,1079.6,875.3,1089.5,827z"/>
			<path class="st9" d="M1087.8,738.1c29.7-29.7,29.7-77.8,0-107.5c-29.7-29.7-77.8-29.7-107.5,0c-29.7,29.7-29.7,77.8,0,107.5
				C1010,767.8,1058.1,767.8,1087.8,738.1z"/>
			<path class="st9" d="M1158.2,766.1c27.3-27.3,27.3-71.6,0-98.9c-27.3-27.3-71.6-27.3-98.9,0c-27.3,27.3-27.3,71.6,0,98.9
				C1086.6,793.4,1130.9,793.4,1158.2,766.1z"/>
			<path class="st9" d="M1168.5,822.6c32.9,0,59.6-26.7,59.6-59.6c0-32.9-26.7-59.6-59.6-59.6c-32.9,0-59.6,26.7-59.6,59.6
				C1108.8,795.9,1135.5,822.6,1168.5,822.6z"/>
			<path class="st9" d="M957.9,751.5c28.1,0,50.9-22.8,50.9-50.9c0-28.1-22.8-50.8-50.9-50.8c-28.1,0-50.8,22.8-50.8,50.8
				C907,728.8,929.8,751.5,957.9,751.5z"/>
			<path class="st9" d="M915.5,832.6c32.9,0,59.6-26.7,59.6-59.6c0-32.9-26.7-59.6-59.6-59.6c-32.9,0-59.6,26.7-59.6,59.6
				C855.9,805.9,882.6,832.6,915.5,832.6z"/>
			<path class="st9" d="M1000.5,833.2c59.8,0,108.3-31.4,108.3-70.2c0-38.8-48.5-70.2-108.3-70.2c-59.8,0-108.3,31.4-108.3,70.2
				C892.3,801.8,940.7,833.2,1000.5,833.2z"/>
			<path class="st9" d="M1177.9,782.4c7.9-38-33.2-78.6-91.8-90.7c-58.6-12.1-112.4,8.8-120.3,46.8c-7.9,38,33.3,78.6,91.8,90.7
				C1116.2,841.3,1170,820.3,1177.9,782.4z"/>
			<path class="st10" d="M1315.4,65.9h-1.1c-0.1,0-0.1,0-0.2,0.1c-0.1,0.1-0.2,0.3-0.3,0.4c-0.5,0.5-1.1,0.9-1.8,1.2
				c-0.7,0.3-1.4,0.4-2.2,0.4c-0.8,0-1.5-0.1-2.2-0.4c-0.7-0.3-1.2-0.7-1.8-1.2c-0.5-0.5-0.9-1.1-1.2-1.8c-0.3-0.7-0.4-1.4-0.4-2.2
				c0-0.7,0.2-1.5,0.4-2.2c0.3-0.7,0.7-1.2,1.2-1.8s1.1-0.9,1.8-1.2c0.7-0.3,1.4-0.4,2.2-0.4c0.7,0,1.5,0.1,2.2,0.4
				c0.7,0.3,1.2,0.7,1.8,1.2c0.1,0.1,0.2,0.3,0.3,0.4c0,0.1,0.1,0.1,0.2,0.1h1.1c0.1,0,0.2-0.1,0.1-0.2c-1.2-1.9-3.3-3.1-5.7-3.1
				c-3.8,0-6.8,3-6.7,6.8c0,3.7,3,6.6,6.7,6.6c2.4,0,4.5-1.2,5.7-3.1C1315.5,66,1315.5,65.9,1315.4,65.9z M1316.8,62.4l-2.2-1.8
				c-0.1-0.1-0.2,0-0.2,0.1v1.2h-4.9c-0.1,0-0.1,0.1-0.1,0.1v0.9c0,0.1,0.1,0.1,0.1,0.1h4.9v1.2c0,0.1,0.1,0.2,0.2,0.1l2.2-1.7
				c0,0,0,0,0,0C1316.8,62.5,1316.8,62.5,1316.8,62.4C1316.8,62.4,1316.8,62.4,1316.8,62.4C1316.8,62.4,1316.8,62.4,1316.8,62.4z"/>
			<path class="st10" d="M1332.1,67.5c-0.7,0-1.4-0.1-2.1-0.3c-0.7-0.2-1.2-0.5-1.5-0.9l0.4-0.8c0.4,0.4,0.8,0.6,1.4,0.9
				c0.6,0.2,1.2,0.3,1.8,0.3c0.9,0,1.5-0.2,2-0.5c0.4-0.3,0.7-0.7,0.7-1.3c0-0.4-0.1-0.7-0.4-0.9c-0.2-0.2-0.5-0.4-0.9-0.5
				c-0.3-0.1-0.8-0.3-1.4-0.4c-0.7-0.2-1.3-0.4-1.8-0.5c-0.4-0.2-0.8-0.4-1.1-0.8c-0.3-0.4-0.5-0.8-0.5-1.4c0-0.5,0.1-0.9,0.4-1.3
				c0.3-0.4,0.7-0.7,1.2-1s1.2-0.4,2-0.4c0.6,0,1.1,0.1,1.6,0.2c0.5,0.1,1,0.4,1.4,0.6l-0.4,0.8c-0.4-0.3-0.8-0.5-1.3-0.6
				c-0.5-0.1-0.9-0.2-1.4-0.2c-0.9,0-1.5,0.2-1.9,0.5c-0.4,0.3-0.6,0.8-0.6,1.3c0,0.4,0.1,0.7,0.3,1c0.2,0.2,0.5,0.4,0.9,0.5
				c0.4,0.1,0.8,0.3,1.5,0.4c0.7,0.2,1.3,0.4,1.7,0.5c0.4,0.2,0.8,0.4,1.1,0.8c0.3,0.3,0.5,0.8,0.5,1.4c0,0.5-0.1,0.9-0.4,1.4
				c-0.3,0.4-0.7,0.7-1.2,1C1333.6,67.4,1332.9,67.5,1332.1,67.5z M1337.8,60.1h1v7.4h-1V60.1z M1338.3,58.5c-0.2,0-0.4-0.1-0.5-0.2
				c-0.1-0.1-0.2-0.3-0.2-0.5c0-0.2,0.1-0.3,0.2-0.5c0.1-0.1,0.3-0.2,0.5-0.2c0.2,0,0.4,0.1,0.5,0.2c0.1,0.1,0.2,0.3,0.2,0.5
				c0,0.2-0.1,0.4-0.2,0.5C1338.7,58.4,1338.5,58.5,1338.3,58.5z M1348.4,60.1v6.5c0,1.3-0.3,2.2-0.9,2.8c-0.6,0.6-1.5,0.9-2.8,0.9
				c-0.7,0-1.3-0.1-2-0.3c-0.6-0.2-1.1-0.5-1.5-0.8l0.5-0.8c0.3,0.3,0.8,0.6,1.3,0.7s1.1,0.3,1.6,0.3c0.9,0,1.6-0.2,2.1-0.7
				c0.4-0.4,0.6-1.1,0.6-2v-0.9c-0.3,0.5-0.7,0.8-1.2,1.1c-0.5,0.2-1.1,0.4-1.7,0.4c-0.7,0-1.3-0.1-1.9-0.4c-0.6-0.3-1-0.7-1.3-1.3
				c-0.3-0.6-0.5-1.2-0.5-1.9c0-0.7,0.2-1.3,0.5-1.8c0.3-0.5,0.8-1,1.3-1.3c0.6-0.3,1.2-0.4,1.9-0.4c0.6,0,1.2,0.1,1.7,0.4
				c0.5,0.3,0.9,0.6,1.2,1.1v-1.4H1348.4z M1344.6,66.3c0.5,0,1-0.1,1.4-0.3c0.4-0.2,0.8-0.6,1-1c0.2-0.4,0.4-0.9,0.4-1.4
				c0-0.5-0.1-1-0.4-1.4c-0.2-0.4-0.6-0.7-1-1c-0.4-0.2-0.9-0.3-1.4-0.3c-0.5,0-1,0.1-1.4,0.3c-0.4,0.2-0.8,0.5-1,1
				s-0.3,0.9-0.3,1.4c0,0.5,0.1,1,0.3,1.4c0.2,0.4,0.6,0.7,1,1C1343.6,66.2,1344.1,66.3,1344.6,66.3z M1354.9,60
				c0.9,0,1.7,0.3,2.2,0.8c0.5,0.5,0.8,1.3,0.8,2.3v4.3h-1v-4.2c0-0.8-0.2-1.3-0.6-1.8c-0.4-0.4-0.9-0.6-1.6-0.6
				c-0.8,0-1.4,0.2-1.9,0.7c-0.5,0.5-0.7,1.1-0.7,1.9v3.9h-1v-7.4h1v1.4c0.3-0.4,0.6-0.8,1.1-1C1353.7,60.2,1354.3,60,1354.9,60z
				 M1368.8,67.5c-1,0-1.8-0.2-2.7-0.6c-0.8-0.4-1.4-1-1.8-1.8c-0.4-0.8-0.7-1.6-0.7-2.5c0-0.9,0.2-1.8,0.7-2.5
				c0.4-0.8,1.1-1.3,1.8-1.8c0.8-0.4,1.7-0.7,2.7-0.7s1.8,0.2,2.6,0.6c0.8,0.4,1.4,1,1.8,1.8c0.4,0.8,0.7,1.6,0.7,2.5
				c0,0.9-0.2,1.8-0.7,2.6c-0.4,0.8-1.1,1.3-1.8,1.8C1370.6,67.3,1369.8,67.5,1368.8,67.5z M1368.8,66.6c0.8,0,1.5-0.2,2.1-0.5
				c0.6-0.4,1.1-0.8,1.5-1.5c0.3-0.6,0.5-1.3,0.5-2.1c0-0.8-0.2-1.5-0.5-2.1c-0.4-0.6-0.9-1.1-1.5-1.5c-0.6-0.4-1.3-0.5-2.1-0.5
				c-0.8,0-1.5,0.2-2.1,0.5c-0.6,0.3-1.1,0.8-1.5,1.5c-0.3,0.6-0.5,1.3-0.5,2.1c0,0.8,0.2,1.5,0.5,2.1c0.4,0.6,0.9,1.1,1.5,1.5
				C1367.3,66.4,1368,66.6,1368.8,66.6z M1382.7,60.1v7.4h-1v-1.3c-0.3,0.4-0.6,0.8-1.1,1.1c-0.5,0.2-1,0.4-1.6,0.4
				c-1,0-1.7-0.3-2.3-0.8c-0.6-0.5-0.8-1.3-0.8-2.4v-4.3h1v4.2c0,0.8,0.2,1.4,0.6,1.8c0.4,0.4,0.9,0.6,1.6,0.6
				c0.8,0,1.4-0.2,1.8-0.7c0.5-0.5,0.7-1.1,0.7-2v-3.9H1382.7z M1389.4,67c-0.2,0.2-0.4,0.3-0.7,0.4c-0.3,0.1-0.6,0.1-0.9,0.1
				c-0.7,0-1.2-0.2-1.6-0.6c-0.4-0.4-0.6-0.9-0.6-1.6v-4.5h-1.3v-0.8h1.3v-1.6h1v1.6h2.2v0.8h-2.2v4.4c0,0.4,0.1,0.8,0.3,1
				c0.2,0.2,0.5,0.3,1,0.3c0.2,0,0.4,0,0.6-0.1c0.2-0.1,0.4-0.2,0.5-0.3L1389.4,67z"/>
			<path class="st10" d="M909,67.8l-4.1-4.1c0.6-0.8,1-1.8,1-2.9c0-1.3-0.5-2.4-1.4-3.3c-0.9-0.9-2.1-1.4-3.3-1.4
				c-1.3,0-2.4,0.5-3.3,1.4c-0.9,0.9-1.4,2.1-1.4,3.3c0,1.3,0.5,2.4,1.4,3.3c0.9,0.9,2.1,1.4,3.3,1.4c1,0,2-0.3,2.9-1l4.1,4.1
				c0,0,0,0,0,0c0,0,0,0,0,0c0,0,0,0,0,0c0,0,0,0,0,0L909,68c0,0,0,0,0,0C909.1,67.9,909.1,67.9,909,67.8
				C909.1,67.9,909.1,67.9,909,67.8C909,67.8,909,67.8,909,67.8z M903.7,63.4c-0.7,0.7-1.5,1-2.5,1c-0.9,0-1.8-0.4-2.5-1
				c-0.7-0.7-1-1.5-1-2.5s0.4-1.8,1-2.5c0.7-0.7,1.5-1,2.5-1c0.9,0,1.8,0.4,2.5,1c0.7,0.7,1,1.5,1,2.5S904.4,62.7,903.7,63.4z"/>
			<path class="st10" d="M925.1,67.5c-0.7,0-1.4-0.1-2.1-0.3c-0.7-0.2-1.2-0.5-1.5-0.9l0.4-0.8c0.4,0.4,0.8,0.6,1.4,0.9
				c0.6,0.2,1.2,0.3,1.8,0.3c0.9,0,1.5-0.2,2-0.5c0.4-0.3,0.7-0.7,0.7-1.3c0-0.4-0.1-0.7-0.4-0.9c-0.2-0.2-0.5-0.4-0.9-0.5
				c-0.3-0.1-0.8-0.3-1.4-0.4c-0.7-0.2-1.3-0.4-1.8-0.5c-0.4-0.2-0.8-0.4-1.1-0.8c-0.3-0.4-0.5-0.8-0.5-1.4c0-0.5,0.1-0.9,0.4-1.3
				c0.3-0.4,0.7-0.7,1.2-1s1.2-0.4,2-0.4c0.6,0,1.1,0.1,1.6,0.2c0.5,0.1,1,0.4,1.4,0.6l-0.4,0.8c-0.4-0.3-0.8-0.5-1.3-0.6
				c-0.5-0.1-0.9-0.2-1.4-0.2c-0.9,0-1.5,0.2-1.9,0.5c-0.4,0.3-0.6,0.8-0.6,1.3c0,0.4,0.1,0.7,0.3,1c0.2,0.2,0.5,0.4,0.9,0.5
				c0.4,0.1,0.8,0.3,1.5,0.4c0.7,0.2,1.3,0.4,1.7,0.5c0.4,0.2,0.8,0.4,1.1,0.8c0.3,0.3,0.5,0.8,0.5,1.4c0,0.5-0.1,0.9-0.4,1.4
				c-0.3,0.4-0.7,0.7-1.2,1C926.6,67.4,925.9,67.5,925.1,67.5z M937.2,64.1h-6.2c0.1,0.8,0.4,1.4,0.9,1.9c0.5,0.5,1.2,0.7,2,0.7
				c0.5,0,0.9-0.1,1.3-0.2c0.4-0.2,0.7-0.4,1-0.7l0.6,0.6c-0.3,0.4-0.7,0.7-1.2,0.9c-0.5,0.2-1,0.3-1.6,0.3c-0.8,0-1.4-0.2-2-0.5
				c-0.6-0.3-1-0.8-1.4-1.3c-0.3-0.6-0.5-1.2-0.5-1.9c0-0.7,0.2-1.4,0.5-1.9c0.3-0.6,0.7-1,1.3-1.3c0.6-0.3,1.2-0.5,1.8-0.5
				c0.7,0,1.3,0.2,1.8,0.5c0.5,0.3,1,0.8,1.3,1.3c0.3,0.6,0.5,1.2,0.5,1.9L937.2,64.1z M933.7,60.9c-0.7,0-1.3,0.2-1.8,0.7
				c-0.5,0.4-0.7,1-0.8,1.8h5.2c-0.1-0.7-0.3-1.3-0.8-1.8C935,61.1,934.4,60.9,933.7,60.9z M941.6,60c1,0,1.7,0.2,2.2,0.7
				c0.5,0.5,0.8,1.2,0.8,2.1v4.6h-1v-1.1c-0.2,0.4-0.6,0.7-1,0.9c-0.4,0.2-0.9,0.3-1.5,0.3c-0.8,0-1.5-0.2-2-0.6
				c-0.5-0.4-0.7-0.9-0.7-1.6c0-0.6,0.2-1.1,0.7-1.5c0.5-0.4,1.2-0.6,2.2-0.6h2.3v-0.4c0-0.6-0.2-1.1-0.5-1.4
				c-0.4-0.3-0.9-0.5-1.6-0.5c-0.5,0-0.9,0.1-1.3,0.2c-0.4,0.1-0.8,0.4-1.1,0.6l-0.4-0.7c0.4-0.3,0.8-0.6,1.3-0.7
				C940.5,60.1,941.1,60,941.6,60z M941.3,66.7c0.6,0,1-0.1,1.4-0.4c0.4-0.3,0.7-0.6,0.9-1.1V64h-2.3c-1.3,0-1.9,0.4-1.9,1.3
				c0,0.4,0.2,0.8,0.5,1C940.2,66.6,940.7,66.7,941.3,66.7z M948.3,61.5c0.2-0.5,0.6-0.9,1-1.1c0.5-0.3,1-0.4,1.7-0.4v1l-0.2,0
				c-0.8,0-1.4,0.2-1.8,0.7c-0.4,0.5-0.7,1.1-0.7,2v3.8h-1v-7.4h1V61.5z M955.8,67.5c-0.7,0-1.4-0.2-2-0.5c-0.6-0.3-1-0.8-1.3-1.3
				c-0.3-0.6-0.5-1.2-0.5-1.9c0-0.7,0.2-1.4,0.5-1.9c0.3-0.6,0.8-1,1.3-1.3c0.6-0.3,1.2-0.5,2-0.5c0.6,0,1.2,0.1,1.7,0.4
				c0.5,0.2,0.9,0.6,1.2,1.1l-0.7,0.5c-0.2-0.4-0.6-0.6-0.9-0.8c-0.4-0.2-0.8-0.3-1.2-0.3c-0.5,0-1,0.1-1.4,0.4
				c-0.4,0.2-0.8,0.6-1,1c-0.2,0.4-0.4,0.9-0.4,1.5c0,0.6,0.1,1.1,0.4,1.5c0.2,0.4,0.6,0.8,1,1c0.4,0.2,0.9,0.4,1.4,0.4
				c0.4,0,0.8-0.1,1.2-0.3c0.4-0.2,0.7-0.4,0.9-0.8l0.7,0.5c-0.3,0.5-0.7,0.8-1.2,1.1C957,67.4,956.4,67.5,955.8,67.5z M964.3,60
				c0.9,0,1.7,0.3,2.2,0.8c0.6,0.5,0.8,1.3,0.8,2.3v4.3h-1v-4.2c0-0.8-0.2-1.3-0.6-1.8c-0.4-0.4-0.9-0.6-1.6-0.6
				c-0.8,0-1.4,0.2-1.9,0.7c-0.5,0.5-0.7,1.1-0.7,1.9v3.9h-1V57.1h1v4.3c0.3-0.4,0.6-0.8,1.1-1S963.7,60,964.3,60z M976.1,57.8
				c-0.4,0-0.8,0.1-1,0.3c-0.2,0.2-0.3,0.6-0.3,1v0.9h2.3v0.8h-2.2v6.5h-1v-6.5h-1.3v-0.8h1.3v-0.9c0-0.7,0.2-1.2,0.6-1.6
				c0.4-0.4,0.9-0.6,1.7-0.6c0.3,0,0.5,0,0.8,0.1c0.3,0.1,0.5,0.2,0.7,0.3l-0.3,0.7C976.9,58,976.5,57.8,976.1,57.8z M981.3,67.5
				c-0.7,0-1.3-0.2-1.9-0.5c-0.6-0.3-1-0.8-1.3-1.3c-0.3-0.6-0.5-1.2-0.5-1.9c0-0.7,0.2-1.4,0.5-1.9c0.3-0.6,0.8-1,1.3-1.3
				c0.6-0.3,1.2-0.5,1.9-0.5c0.7,0,1.3,0.2,1.9,0.5c0.6,0.3,1,0.8,1.3,1.3c0.3,0.6,0.5,1.2,0.5,1.9c0,0.7-0.2,1.4-0.5,1.9
				c-0.3,0.6-0.8,1-1.3,1.3C982.7,67.4,982,67.5,981.3,67.5z M981.3,66.6c0.5,0,1-0.1,1.4-0.4c0.4-0.2,0.7-0.6,1-1
				c0.2-0.4,0.3-0.9,0.3-1.5c0-0.6-0.1-1.1-0.3-1.5c-0.2-0.4-0.6-0.8-1-1c-0.4-0.2-0.9-0.4-1.4-0.4c-0.5,0-1,0.1-1.4,0.4
				c-0.4,0.2-0.7,0.6-1,1c-0.2,0.4-0.4,0.9-0.4,1.5c0,0.6,0.1,1.1,0.4,1.5c0.2,0.4,0.6,0.8,1,1C980.3,66.5,980.8,66.6,981.3,66.6z
				 M988,61.5c0.2-0.5,0.6-0.9,1-1.1c0.5-0.3,1-0.4,1.7-0.4v1l-0.2,0c-0.8,0-1.4,0.2-1.8,0.7c-0.4,0.5-0.7,1.1-0.7,2v3.8h-1v-7.4h1
				V61.5z M998.9,60c1,0,1.7,0.2,2.2,0.7c0.5,0.5,0.8,1.2,0.8,2.1v4.6h-0.9v-1.1c-0.2,0.4-0.6,0.7-1,0.9c-0.4,0.2-0.9,0.3-1.5,0.3
				c-0.8,0-1.5-0.2-2-0.6c-0.5-0.4-0.7-0.9-0.7-1.6c0-0.6,0.2-1.1,0.7-1.5c0.5-0.4,1.2-0.6,2.2-0.6h2.3v-0.4c0-0.6-0.2-1.1-0.5-1.4
				c-0.4-0.3-0.9-0.5-1.5-0.5c-0.5,0-0.9,0.1-1.3,0.2c-0.4,0.1-0.8,0.4-1.1,0.6l-0.4-0.7c0.4-0.3,0.8-0.6,1.3-0.7
				C997.8,60.1,998.4,60,998.9,60z M998.6,66.7c0.6,0,1-0.1,1.4-0.4c0.4-0.3,0.7-0.6,0.9-1.1V64h-2.3c-1.3,0-1.9,0.4-1.9,1.3
				c0,0.4,0.2,0.8,0.5,1C997.5,66.6,998,66.7,998.6,66.7z M1011.2,67.5c-0.7,0-1.4-0.1-2.1-0.3c-0.7-0.2-1.2-0.5-1.5-0.9l0.4-0.8
				c0.4,0.4,0.8,0.6,1.4,0.9c0.6,0.2,1.2,0.3,1.8,0.3c0.9,0,1.5-0.2,2-0.5c0.4-0.3,0.7-0.7,0.7-1.3c0-0.4-0.1-0.7-0.4-0.9
				c-0.2-0.2-0.5-0.4-0.9-0.5c-0.4-0.1-0.8-0.3-1.5-0.4c-0.7-0.2-1.3-0.4-1.8-0.5c-0.4-0.2-0.8-0.4-1.1-0.8
				c-0.3-0.4-0.5-0.8-0.5-1.4c0-0.5,0.1-0.9,0.4-1.3c0.3-0.4,0.7-0.7,1.2-1s1.2-0.4,2-0.4c0.6,0,1.1,0.1,1.6,0.2
				c0.6,0.1,1,0.4,1.4,0.6l-0.3,0.8c-0.4-0.3-0.9-0.5-1.3-0.6c-0.5-0.1-0.9-0.2-1.4-0.2c-0.9,0-1.5,0.2-2,0.5
				c-0.4,0.3-0.6,0.8-0.6,1.3c0,0.4,0.1,0.7,0.3,1c0.2,0.2,0.5,0.4,0.9,0.5c0.4,0.1,0.9,0.3,1.5,0.4c0.7,0.2,1.3,0.4,1.7,0.5
				c0.5,0.2,0.8,0.4,1.1,0.8c0.3,0.3,0.5,0.8,0.5,1.4c0,0.5-0.1,0.9-0.4,1.4c-0.3,0.4-0.7,0.7-1.2,1
				C1012.7,67.4,1012,67.5,1011.2,67.5z M1020.7,60c0.7,0,1.3,0.2,1.9,0.5c0.6,0.3,1,0.7,1.3,1.3c0.3,0.6,0.5,1.2,0.5,1.9
				c0,0.7-0.2,1.4-0.5,2c-0.3,0.6-0.8,1-1.3,1.3c-0.5,0.3-1.2,0.5-1.9,0.5c-0.6,0-1.1-0.1-1.6-0.4c-0.5-0.3-0.9-0.6-1.2-1.1v4.1h-1
				V60.1h1v1.5c0.3-0.5,0.7-0.9,1.2-1.1C1019.5,60.2,1020.1,60,1020.7,60z M1020.6,66.6c0.5,0,1-0.1,1.4-0.4c0.4-0.2,0.8-0.6,1-1
				c0.2-0.4,0.4-0.9,0.4-1.5c0-0.6-0.1-1.1-0.4-1.5c-0.2-0.4-0.6-0.8-1-1s-0.9-0.4-1.4-0.4c-0.5,0-1,0.1-1.4,0.4
				c-0.4,0.2-0.7,0.6-1,1c-0.2,0.4-0.3,0.9-0.3,1.5c0,0.6,0.1,1.1,0.3,1.5c0.2,0.4,0.6,0.8,1,1C1019.6,66.5,1020.1,66.6,1020.6,66.6
				z M1028.9,60c1,0,1.7,0.2,2.2,0.7c0.5,0.5,0.8,1.2,0.8,2.1v4.6h-0.9v-1.1c-0.2,0.4-0.6,0.7-1,0.9c-0.4,0.2-1,0.3-1.5,0.3
				c-0.8,0-1.5-0.2-2-0.6c-0.5-0.4-0.7-0.9-0.7-1.6c0-0.6,0.2-1.1,0.7-1.5c0.5-0.4,1.2-0.6,2.2-0.6h2.3v-0.4c0-0.6-0.2-1.1-0.5-1.4
				c-0.4-0.3-0.9-0.5-1.6-0.5c-0.5,0-0.9,0.1-1.3,0.2c-0.4,0.1-0.8,0.4-1.1,0.6l-0.5-0.7c0.4-0.3,0.8-0.6,1.3-0.7
				C1027.8,60.1,1028.3,60,1028.9,60z M1028.6,66.7c0.6,0,1-0.1,1.4-0.4c0.4-0.3,0.7-0.6,0.9-1.1V64h-2.3c-1.3,0-1.9,0.4-1.9,1.3
				c0,0.4,0.2,0.8,0.5,1C1027.5,66.6,1028,66.7,1028.6,66.7z M1037.7,67.5c-0.7,0-1.4-0.2-2-0.5c-0.6-0.3-1-0.8-1.3-1.3
				c-0.3-0.6-0.5-1.2-0.5-1.9c0-0.7,0.2-1.4,0.5-1.9c0.3-0.6,0.8-1,1.3-1.3c0.6-0.3,1.2-0.5,2-0.5c0.6,0,1.2,0.1,1.7,0.4
				c0.5,0.2,0.9,0.6,1.2,1.1l-0.8,0.5c-0.2-0.4-0.6-0.6-0.9-0.8c-0.4-0.2-0.8-0.3-1.2-0.3c-0.5,0-1,0.1-1.4,0.4
				c-0.4,0.2-0.8,0.6-1,1c-0.2,0.4-0.4,0.9-0.4,1.5c0,0.6,0.1,1.1,0.4,1.5c0.2,0.4,0.6,0.8,1,1c0.4,0.2,0.9,0.4,1.4,0.4
				c0.4,0,0.8-0.1,1.2-0.3s0.7-0.4,0.9-0.8l0.8,0.5c-0.3,0.5-0.7,0.8-1.2,1.1C1038.9,67.4,1038.3,67.5,1037.7,67.5z M1048.8,64.1
				h-6.2c0.1,0.8,0.4,1.4,0.9,1.9c0.5,0.5,1.2,0.7,2,0.7c0.5,0,0.9-0.1,1.3-0.2c0.4-0.2,0.7-0.4,1-0.7l0.6,0.6
				c-0.3,0.4-0.7,0.7-1.2,0.9c-0.5,0.2-1,0.3-1.6,0.3c-0.8,0-1.4-0.2-2-0.5c-0.6-0.3-1-0.8-1.4-1.3c-0.3-0.6-0.5-1.2-0.5-1.9
				c0-0.7,0.2-1.4,0.5-1.9c0.3-0.6,0.7-1,1.3-1.3c0.6-0.3,1.2-0.5,1.9-0.5c0.7,0,1.3,0.2,1.8,0.5c0.5,0.3,1,0.8,1.3,1.3
				c0.3,0.6,0.5,1.2,0.5,1.9L1048.8,64.1z M1045.2,60.9c-0.7,0-1.3,0.2-1.8,0.7c-0.5,0.4-0.8,1-0.8,1.8h5.2
				c-0.1-0.7-0.3-1.3-0.8-1.8C1046.6,61.1,1046,60.9,1045.2,60.9z"/>
			<path class="st10" d="M1138.3,57h-13c-0.3,0-0.5,0.2-0.5,0.5v10c0,0.3,0.2,0.5,0.5,0.5h13c0.3,0,0.5-0.2,0.5-0.5v-10
				C1138.8,57.2,1138.6,57,1138.3,57z M1137.7,60.2h-3.3v-2.1h3.3V60.2z M1137.7,63.7h-3.3v-2.5h3.3V63.7z M1130.3,61.2h3.1v2.5
				h-3.1V61.2z M1133.4,60.2h-3.1v-2.1h3.1V60.2z M1125.9,61.2h3.3v2.5h-3.3V61.2z M1125.9,58.1h3.3v2.1h-3.3V58.1z M1125.9,64.7
				h3.3v2.1h-3.3V64.7z M1130.3,64.7h3.1v2.1h-3.1V64.7z M1137.7,66.8h-3.3v-2.1h3.3V66.8z"/>
			<path class="st10" d="M1151.4,57.7h4c1,0,2,0.2,2.7,0.6c0.8,0.4,1.4,1,1.9,1.7c0.4,0.7,0.7,1.6,0.7,2.5s-0.2,1.8-0.7,2.5
				c-0.4,0.7-1.1,1.3-1.9,1.7c-0.8,0.4-1.7,0.6-2.7,0.6h-4V57.7z M1155.3,66.6c0.9,0,1.6-0.2,2.2-0.5c0.7-0.3,1.2-0.8,1.5-1.4
				c0.4-0.6,0.5-1.3,0.5-2.1c0-0.8-0.2-1.5-0.5-2.1c-0.3-0.6-0.8-1.1-1.5-1.4c-0.6-0.3-1.4-0.5-2.2-0.5h-2.9v8H1155.3z M1165.3,60
				c1,0,1.7,0.2,2.2,0.7c0.5,0.5,0.8,1.2,0.8,2.1v4.6h-0.9v-1.1c-0.2,0.4-0.6,0.7-1,0.9c-0.4,0.2-0.9,0.3-1.5,0.3
				c-0.8,0-1.5-0.2-2-0.6c-0.5-0.4-0.7-0.9-0.7-1.6c0-0.6,0.2-1.1,0.7-1.5c0.5-0.4,1.2-0.6,2.2-0.6h2.3v-0.4c0-0.6-0.2-1.1-0.5-1.4
				c-0.3-0.3-0.9-0.5-1.5-0.5c-0.5,0-0.9,0.1-1.3,0.2c-0.4,0.1-0.8,0.4-1.1,0.6l-0.4-0.7c0.4-0.3,0.8-0.6,1.3-0.7
				C1164.2,60.1,1164.8,60,1165.3,60z M1165,66.7c0.6,0,1-0.1,1.4-0.4c0.4-0.3,0.7-0.6,0.9-1.1V64h-2.3c-1.3,0-1.9,0.4-1.9,1.3
				c0,0.4,0.2,0.8,0.5,1C1163.9,66.6,1164.4,66.7,1165,66.7z M1173,67.5c-0.6,0-1.2-0.1-1.7-0.3c-0.5-0.2-1-0.4-1.3-0.7l0.5-0.8
				c0.3,0.2,0.7,0.4,1.2,0.6c0.5,0.1,0.9,0.2,1.4,0.2c0.7,0,1.2-0.1,1.5-0.3c0.3-0.2,0.5-0.5,0.5-0.9c0-0.3-0.1-0.5-0.3-0.6
				c-0.2-0.2-0.4-0.3-0.7-0.3c-0.3-0.1-0.6-0.2-1.1-0.2c-0.6-0.1-1.1-0.2-1.4-0.3c-0.4-0.1-0.7-0.3-0.9-0.6
				c-0.2-0.3-0.4-0.7-0.4-1.2c0-0.6,0.3-1.1,0.8-1.5c0.5-0.4,1.2-0.6,2.2-0.6c0.5,0,0.9,0.1,1.4,0.2c0.5,0.1,0.9,0.3,1.2,0.5
				l-0.4,0.8c-0.6-0.4-1.3-0.6-2.2-0.6c-0.6,0-1.1,0.1-1.4,0.3c-0.3,0.2-0.5,0.5-0.5,0.9c0,0.3,0.1,0.5,0.3,0.7
				c0.2,0.2,0.4,0.3,0.7,0.4c0.3,0.1,0.6,0.2,1.1,0.2c0.6,0.1,1.1,0.2,1.4,0.3c0.4,0.1,0.7,0.3,0.9,0.6c0.3,0.3,0.4,0.6,0.4,1.1
				c0,0.6-0.3,1.2-0.8,1.5C1174.7,67.3,1174,67.5,1173,67.5z M1181.6,60c0.9,0,1.7,0.3,2.2,0.8c0.6,0.5,0.8,1.3,0.8,2.3v4.3h-1v-4.2
				c0-0.8-0.2-1.3-0.6-1.8c-0.4-0.4-0.9-0.6-1.6-0.6c-0.8,0-1.4,0.2-1.9,0.7c-0.5,0.5-0.7,1.1-0.7,1.9v3.9h-1V57.1h1v4.3
				c0.3-0.4,0.6-0.8,1.1-1C1180.5,60.2,1181,60,1181.6,60z M1191.1,60c0.7,0,1.3,0.2,1.9,0.5c0.6,0.3,1,0.7,1.3,1.3
				c0.3,0.6,0.5,1.2,0.5,1.9c0,0.7-0.2,1.4-0.5,1.9c-0.3,0.6-0.8,1-1.3,1.3c-0.6,0.3-1.2,0.5-1.9,0.5c-0.6,0-1.2-0.1-1.7-0.4
				c-0.5-0.3-0.9-0.6-1.2-1.1v1.5h-1V57.1h1v4.4c0.3-0.5,0.7-0.8,1.2-1.1C1190,60.2,1190.5,60,1191.1,60z M1191.1,66.6
				c0.5,0,1-0.1,1.4-0.4c0.4-0.2,0.8-0.6,1-1c0.2-0.4,0.4-0.9,0.4-1.5c0-0.6-0.1-1.1-0.4-1.5c-0.2-0.4-0.6-0.8-1-1
				c-0.4-0.2-0.9-0.4-1.4-0.4c-0.5,0-1,0.1-1.4,0.4c-0.4,0.2-0.7,0.6-1,1c-0.2,0.4-0.3,0.9-0.3,1.5c0,0.6,0.1,1.1,0.3,1.5
				c0.2,0.4,0.6,0.8,1,1C1190.1,66.5,1190.6,66.6,1191.1,66.6z M1199.8,67.5c-0.7,0-1.3-0.2-1.9-0.5c-0.6-0.3-1-0.8-1.3-1.3
				c-0.3-0.6-0.5-1.2-0.5-1.9c0-0.7,0.2-1.4,0.5-1.9c0.3-0.6,0.8-1,1.3-1.3c0.6-0.3,1.2-0.5,1.9-0.5c0.7,0,1.3,0.2,1.9,0.5
				c0.6,0.3,1,0.8,1.3,1.3c0.3,0.6,0.5,1.2,0.5,1.9c0,0.7-0.2,1.4-0.5,1.9c-0.3,0.6-0.8,1-1.3,1.3
				C1201.2,67.4,1200.6,67.5,1199.8,67.5z M1199.8,66.6c0.5,0,1-0.1,1.4-0.4c0.4-0.2,0.8-0.6,1-1c0.2-0.4,0.3-0.9,0.3-1.5
				c0-0.6-0.1-1.1-0.3-1.5c-0.2-0.4-0.6-0.8-1-1c-0.4-0.2-0.9-0.4-1.4-0.4c-0.5,0-1,0.1-1.4,0.4c-0.4,0.2-0.7,0.6-1,1
				c-0.2,0.4-0.3,0.9-0.3,1.5c0,0.6,0.1,1.1,0.3,1.5c0.2,0.4,0.6,0.8,1,1C1198.9,66.5,1199.3,66.6,1199.8,66.6z M1208.2,60
				c1,0,1.7,0.2,2.2,0.7c0.5,0.5,0.8,1.2,0.8,2.1v4.6h-0.9v-1.1c-0.2,0.4-0.6,0.7-1,0.9c-0.4,0.2-0.9,0.3-1.5,0.3
				c-0.8,0-1.5-0.2-2-0.6c-0.5-0.4-0.7-0.9-0.7-1.6c0-0.6,0.2-1.1,0.7-1.5c0.5-0.4,1.2-0.6,2.2-0.6h2.3v-0.4c0-0.6-0.2-1.1-0.5-1.4
				c-0.4-0.3-0.9-0.5-1.6-0.5c-0.5,0-0.9,0.1-1.3,0.2c-0.4,0.1-0.8,0.4-1.1,0.6l-0.5-0.7c0.4-0.3,0.8-0.6,1.3-0.7
				C1207,60.1,1207.6,60,1208.2,60z M1207.8,66.7c0.6,0,1-0.1,1.4-0.4c0.4-0.3,0.7-0.6,0.9-1.1V64h-2.3c-1.3,0-1.9,0.4-1.9,1.3
				c0,0.4,0.2,0.8,0.5,1C1206.8,66.6,1207.2,66.7,1207.8,66.7z M1214.8,61.5c0.2-0.5,0.6-0.9,1-1.1c0.5-0.3,1.1-0.4,1.7-0.4v1
				l-0.2,0c-0.8,0-1.4,0.2-1.8,0.7c-0.4,0.5-0.7,1.1-0.7,2v3.8h-1v-7.4h0.9V61.5z M1226,57.1v10.4h-1V66c-0.3,0.5-0.7,0.9-1.2,1.1
				s-1,0.4-1.7,0.4c-0.7,0-1.3-0.2-1.9-0.5c-0.6-0.3-1-0.8-1.3-1.3c-0.3-0.6-0.5-1.2-0.5-1.9c0-0.7,0.2-1.4,0.5-1.9
				c0.3-0.6,0.8-1,1.3-1.3c0.6-0.3,1.2-0.5,1.9-0.5c0.6,0,1.1,0.1,1.6,0.4c0.5,0.2,0.9,0.6,1.2,1.1v-4.4H1226z M1222.3,66.6
				c0.5,0,1-0.1,1.4-0.4c0.4-0.2,0.8-0.6,1-1c0.2-0.4,0.4-0.9,0.4-1.5c0-0.6-0.1-1.1-0.4-1.5c-0.2-0.4-0.6-0.8-1-1
				c-0.4-0.2-0.9-0.4-1.4-0.4c-0.5,0-1,0.1-1.4,0.4c-0.4,0.2-0.7,0.6-1,1c-0.2,0.4-0.3,0.9-0.3,1.5c0,0.6,0.1,1.1,0.3,1.5
				c0.2,0.4,0.6,0.8,1,1C1221.3,66.5,1221.8,66.6,1222.3,66.6z"/>
			<g>
				<path class="st11" d="M366.8,374.5h97c11,0,20,9,20,20l0,0c0,11-9,20-20,20h-97c-11,0-20-9-20-20l0,0
					C346.8,383.4,355.8,374.5,366.8,374.5z"/>
				<path class="st1" d="M372.3,400.5l-2.6-3.6c-0.3,0-0.6,0-0.9,0h-3v3.6h-1.2v-11.2h4.2c1.4,0,2.5,0.3,3.4,1
					c0.8,0.7,1.2,1.6,1.2,2.8c0,0.9-0.2,1.6-0.7,2.2c-0.4,0.6-1.1,1-1.9,1.3l2.7,3.8H372.3z M368.8,395.9c1.1,0,2-0.2,2.5-0.7
					c0.6-0.5,0.9-1.2,0.9-2.1c0-0.9-0.3-1.6-0.9-2.1c-0.6-0.5-1.4-0.7-2.5-0.7h-3v5.6H368.8z M383.3,396.6h-7c0.1,0.9,0.4,1.6,1,2.1
					c0.6,0.5,1.4,0.8,2.3,0.8c0.5,0,1-0.1,1.4-0.3c0.4-0.2,0.8-0.5,1.1-0.8l0.6,0.7c-0.4,0.4-0.8,0.8-1.4,1
					c-0.6,0.2-1.2,0.4-1.8,0.4c-0.9,0-1.6-0.2-2.3-0.5c-0.7-0.4-1.2-0.9-1.6-1.5c-0.4-0.7-0.6-1.4-0.6-2.2c0-0.8,0.2-1.6,0.5-2.2
					c0.4-0.7,0.9-1.2,1.5-1.5c0.6-0.4,1.3-0.5,2.1-0.5c0.8,0,1.5,0.2,2.1,0.5c0.6,0.4,1.1,0.9,1.5,1.5c0.4,0.6,0.5,1.4,0.5,2.2
					L383.3,396.6z M379.2,393c-0.8,0-1.5,0.3-2,0.8c-0.5,0.5-0.9,1.2-0.9,2h6c-0.1-0.8-0.4-1.5-0.9-2C380.7,393.2,380,393,379.2,393
					z M389.9,392c1.1,0,1.9,0.3,2.5,0.9c0.6,0.6,0.9,1.5,0.9,2.7v4.9h-1.1v-4.8c0-0.9-0.2-1.5-0.7-2c-0.4-0.5-1.1-0.7-1.9-0.7
					c-0.9,0-1.6,0.3-2.2,0.8c-0.5,0.5-0.8,1.3-0.8,2.2v4.4h-1.1V392h1.1v1.6c0.3-0.5,0.7-0.9,1.3-1.2
					C388.5,392.1,389.2,392,389.9,392z M400.9,399.9c-0.2,0.2-0.5,0.3-0.8,0.4c-0.3,0.1-0.6,0.1-1,0.1c-0.8,0-1.4-0.2-1.8-0.6
					s-0.6-1-0.6-1.8V393h-1.5v-1h1.5v-1.8h1.1v1.8h2.6v1h-2.6v5c0,0.5,0.1,0.9,0.4,1.2c0.3,0.3,0.6,0.4,1.1,0.4c0.2,0,0.5,0,0.7-0.1
					c0.2-0.1,0.4-0.2,0.6-0.3L400.9,399.9z M410.1,392c1.1,0,1.9,0.3,2.5,0.8c0.6,0.5,0.9,1.4,0.9,2.4v5.2h-1.1v-1.3
					c-0.3,0.4-0.6,0.8-1.1,1c-0.5,0.2-1.1,0.4-1.8,0.4c-0.9,0-1.7-0.2-2.2-0.7c-0.6-0.4-0.8-1-0.8-1.8c0-0.7,0.3-1.3,0.8-1.7
					c0.5-0.4,1.4-0.7,2.5-0.7h2.7v-0.5c0-0.7-0.2-1.3-0.6-1.6c-0.4-0.4-1-0.6-1.8-0.6c-0.5,0-1,0.1-1.5,0.3
					c-0.5,0.2-0.9,0.4-1.3,0.7l-0.5-0.8c0.4-0.4,0.9-0.6,1.5-0.8C408.8,392.1,409.4,392,410.1,392z M409.7,399.6
					c0.6,0,1.2-0.1,1.6-0.4c0.5-0.3,0.8-0.7,1-1.3v-1.4h-2.6c-1.4,0-2.2,0.5-2.2,1.5c0,0.5,0.2,0.9,0.6,1.2
					C408.5,399.5,409,399.6,409.7,399.6z M424.1,400.6c-0.8,0-1.6-0.1-2.4-0.4c-0.8-0.3-1.3-0.6-1.8-1.1l0.5-0.9
					c0.4,0.4,0.9,0.7,1.6,1c0.7,0.2,1.4,0.4,2.1,0.4c1,0,1.8-0.2,2.3-0.5c0.5-0.4,0.8-0.9,0.8-1.4c0-0.4-0.1-0.8-0.4-1.1
					c-0.3-0.3-0.6-0.5-1-0.6c-0.4-0.1-0.9-0.3-1.6-0.5c-0.8-0.2-1.5-0.4-2-0.6c-0.5-0.2-0.9-0.5-1.3-0.9c-0.4-0.4-0.5-1-0.5-1.6
					c0-0.6,0.1-1.1,0.4-1.5c0.3-0.5,0.8-0.8,1.4-1.1c0.6-0.3,1.4-0.4,2.3-0.4c0.6,0,1.3,0.1,1.9,0.3c0.6,0.2,1.2,0.4,1.6,0.7
					l-0.4,0.9c-0.5-0.3-1-0.5-1.5-0.7c-0.5-0.2-1.1-0.2-1.6-0.2c-1,0-1.7,0.2-2.2,0.6c-0.5,0.4-0.7,0.9-0.7,1.5
					c0,0.4,0.1,0.8,0.4,1.1c0.3,0.3,0.6,0.5,1,0.6c0.4,0.1,1,0.3,1.7,0.5c0.8,0.2,1.5,0.4,2,0.6c0.5,0.2,0.9,0.5,1.3,0.9
					c0.4,0.4,0.5,0.9,0.5,1.6c0,0.6-0.2,1.1-0.5,1.6c-0.3,0.5-0.8,0.8-1.4,1.1C425.8,400.4,425,400.6,424.1,400.6z M434.9,392
					c0.8,0,1.5,0.2,2.1,0.5c0.6,0.4,1.1,0.9,1.5,1.5s0.5,1.4,0.5,2.2c0,0.8-0.2,1.6-0.5,2.2s-0.9,1.2-1.5,1.5
					c-0.6,0.4-1.3,0.5-2.1,0.5c-0.7,0-1.3-0.1-1.9-0.4c-0.5-0.3-1-0.7-1.3-1.2v4.7h-1.1V392h1.1v1.7c0.3-0.6,0.8-1,1.3-1.3
					C433.6,392.1,434.2,392,434.9,392z M434.9,399.5c0.6,0,1.1-0.1,1.6-0.4c0.5-0.3,0.9-0.7,1.1-1.2c0.3-0.5,0.4-1.1,0.4-1.7
					c0-0.6-0.1-1.2-0.4-1.7c-0.3-0.5-0.6-0.9-1.1-1.2c-0.5-0.3-1-0.4-1.6-0.4c-0.6,0-1.1,0.1-1.6,0.4c-0.5,0.3-0.8,0.7-1.1,1.2
					c-0.3,0.5-0.4,1.1-0.4,1.7c0,0.6,0.1,1.2,0.4,1.7c0.3,0.5,0.7,0.9,1.1,1.2C433.7,399.4,434.3,399.5,434.9,399.5z M444.3,392
					c1.1,0,1.9,0.3,2.5,0.8c0.6,0.5,0.9,1.4,0.9,2.4v5.2h-1.1v-1.3c-0.3,0.4-0.6,0.8-1.1,1c-0.5,0.2-1.1,0.4-1.8,0.4
					c-0.9,0-1.7-0.2-2.2-0.7s-0.8-1-0.8-1.8c0-0.7,0.3-1.3,0.8-1.7c0.5-0.4,1.3-0.7,2.5-0.7h2.7v-0.5c0-0.7-0.2-1.3-0.6-1.6
					c-0.4-0.4-1-0.6-1.8-0.6c-0.5,0-1,0.1-1.5,0.3c-0.5,0.2-0.9,0.4-1.3,0.7l-0.5-0.8c0.4-0.4,0.9-0.6,1.5-0.8
					C443,392.1,443.7,392,444.3,392z M443.9,399.6c0.6,0,1.2-0.1,1.6-0.4c0.5-0.3,0.8-0.7,1-1.3v-1.4H444c-1.4,0-2.2,0.5-2.2,1.5
					c0,0.5,0.2,0.9,0.6,1.2C442.7,399.5,443.3,399.6,443.9,399.6z M454.4,400.5c-0.8,0-1.6-0.2-2.2-0.5c-0.7-0.4-1.2-0.9-1.5-1.5
					c-0.4-0.7-0.6-1.4-0.6-2.2c0-0.8,0.2-1.6,0.6-2.2c0.4-0.7,0.9-1.2,1.5-1.5c0.7-0.4,1.4-0.5,2.2-0.5c0.7,0,1.4,0.1,1.9,0.4
					c0.6,0.3,1,0.7,1.4,1.2l-0.8,0.6c-0.3-0.4-0.6-0.7-1.1-0.9c-0.4-0.2-0.9-0.3-1.4-0.3c-0.6,0-1.2,0.1-1.6,0.4
					c-0.5,0.3-0.9,0.7-1.1,1.2c-0.3,0.5-0.4,1.1-0.4,1.7c0,0.7,0.1,1.2,0.4,1.7c0.3,0.5,0.7,0.9,1.1,1.2c0.5,0.3,1,0.4,1.6,0.4
					c0.5,0,1-0.1,1.4-0.3c0.4-0.2,0.8-0.5,1.1-0.9l0.8,0.6c-0.3,0.5-0.8,1-1.4,1.2C455.7,400.4,455.1,400.5,454.4,400.5z
					 M467.1,396.6h-7c0.1,0.9,0.4,1.6,1,2.1c0.6,0.5,1.4,0.8,2.3,0.8c0.5,0,1-0.1,1.4-0.3c0.4-0.2,0.8-0.5,1.1-0.8l0.6,0.7
					c-0.4,0.4-0.8,0.8-1.4,1c-0.6,0.2-1.2,0.4-1.8,0.4c-0.9,0-1.6-0.2-2.3-0.5c-0.7-0.4-1.2-0.9-1.6-1.5c-0.4-0.7-0.6-1.4-0.6-2.2
					c0-0.8,0.2-1.6,0.5-2.2c0.4-0.7,0.9-1.2,1.5-1.5c0.6-0.4,1.3-0.5,2.1-0.5c0.8,0,1.5,0.2,2.1,0.5c0.6,0.4,1.1,0.9,1.5,1.5
					c0.4,0.6,0.5,1.4,0.5,2.2L467.1,396.6z M463,393c-0.8,0-1.5,0.3-2,0.8c-0.5,0.5-0.9,1.2-0.9,2h6c-0.1-0.8-0.4-1.5-0.9-2
					C464.5,393.2,463.8,393,463,393z"/>
			</g>
			<g>
				<path class="st11" d="M545.8,374.5h87c11,0,20,9,20,20l0,0c0,11-9,20-20,20h-87c-11,0-20-9-20-20l0,0
					C525.8,383.4,534.8,374.5,545.8,374.5z"/>
				<path class="st1" d="M543.6,389.3h1.2v10.2h6.3v1h-7.5V389.3z M552.8,392h1.1v8.4h-1.1V392z M553.4,390.2
					c-0.2,0-0.4-0.1-0.6-0.2c-0.2-0.2-0.2-0.4-0.2-0.6c0-0.2,0.1-0.4,0.2-0.6c0.2-0.2,0.4-0.2,0.6-0.2c0.2,0,0.4,0.1,0.6,0.2
					c0.2,0.1,0.2,0.3,0.2,0.5c0,0.2-0.1,0.4-0.2,0.6C553.8,390.1,553.6,390.2,553.4,390.2z M559.4,400.5c-0.7,0-1.3-0.1-2-0.3
					c-0.6-0.2-1.1-0.5-1.5-0.8l0.5-0.9c0.4,0.3,0.8,0.5,1.3,0.7c0.5,0.2,1.1,0.3,1.7,0.3c0.8,0,1.3-0.1,1.7-0.4
					c0.4-0.2,0.6-0.6,0.6-1c0-0.3-0.1-0.5-0.3-0.7c-0.2-0.2-0.5-0.3-0.8-0.4c-0.3-0.1-0.7-0.2-1.2-0.3c-0.7-0.1-1.2-0.3-1.6-0.4
					c-0.4-0.1-0.8-0.4-1.1-0.7c-0.3-0.3-0.4-0.8-0.4-1.3c0-0.7,0.3-1.3,0.9-1.7c0.6-0.4,1.4-0.7,2.4-0.7c0.5,0,1.1,0.1,1.6,0.2
					c0.5,0.1,1,0.3,1.3,0.6l-0.5,0.9c-0.7-0.5-1.5-0.7-2.5-0.7c-0.7,0-1.3,0.1-1.6,0.4c-0.4,0.3-0.5,0.6-0.5,1
					c0,0.3,0.1,0.6,0.3,0.8c0.2,0.2,0.5,0.3,0.8,0.4c0.3,0.1,0.7,0.2,1.3,0.3c0.7,0.1,1.2,0.3,1.6,0.4c0.4,0.1,0.8,0.3,1,0.7
					c0.3,0.3,0.4,0.7,0.4,1.3c0,0.7-0.3,1.3-0.9,1.8C561.3,400.3,560.5,400.5,559.4,400.5z M569.4,399.9c-0.2,0.2-0.5,0.3-0.8,0.4
					c-0.3,0.1-0.6,0.1-1,0.1c-0.8,0-1.4-0.2-1.8-0.6s-0.6-1-0.6-1.8V393h-1.5v-1h1.5v-1.8h1.1v1.8h2.6v1h-2.6v5
					c0,0.5,0.1,0.9,0.4,1.2c0.3,0.3,0.6,0.4,1.1,0.4c0.2,0,0.5,0,0.7-0.1c0.2-0.1,0.4-0.2,0.6-0.3L569.4,399.9z M578.6,392
					c1.1,0,1.9,0.3,2.5,0.8c0.6,0.5,0.9,1.4,0.9,2.4v5.2h-1.1v-1.3c-0.3,0.4-0.6,0.8-1.1,1c-0.5,0.2-1.1,0.4-1.8,0.4
					c-0.9,0-1.7-0.2-2.2-0.7c-0.6-0.4-0.8-1-0.8-1.8c0-0.7,0.3-1.3,0.8-1.7c0.5-0.4,1.3-0.7,2.5-0.7h2.7v-0.5c0-0.7-0.2-1.3-0.6-1.6
					c-0.4-0.4-1-0.6-1.8-0.6c-0.5,0-1,0.1-1.5,0.3c-0.5,0.2-0.9,0.4-1.3,0.7l-0.5-0.8c0.4-0.4,0.9-0.6,1.5-0.8
					C577.3,392.1,577.9,392,578.6,392z M578.2,399.6c0.6,0,1.2-0.1,1.6-0.4c0.5-0.3,0.8-0.7,1-1.3v-1.4h-2.6c-1.4,0-2.2,0.5-2.2,1.5
					c0,0.5,0.2,0.9,0.6,1.2C577,399.5,577.5,399.6,578.2,399.6z M592.6,400.6c-0.8,0-1.6-0.1-2.4-0.4c-0.8-0.3-1.3-0.6-1.8-1.1
					l0.5-0.9c0.4,0.4,0.9,0.7,1.6,1c0.7,0.2,1.4,0.4,2.1,0.4c1,0,1.8-0.2,2.3-0.5c0.5-0.4,0.8-0.9,0.8-1.4c0-0.4-0.1-0.8-0.4-1.1
					c-0.3-0.3-0.6-0.5-1-0.6c-0.4-0.1-0.9-0.3-1.6-0.5c-0.8-0.2-1.5-0.4-2-0.6c-0.5-0.2-0.9-0.5-1.3-0.9c-0.4-0.4-0.5-1-0.5-1.6
					c0-0.6,0.2-1.1,0.4-1.5c0.3-0.5,0.8-0.8,1.4-1.1c0.6-0.3,1.4-0.4,2.3-0.4c0.6,0,1.3,0.1,1.9,0.3c0.6,0.2,1.2,0.4,1.6,0.7
					l-0.4,0.9c-0.5-0.3-1-0.5-1.5-0.7c-0.5-0.2-1.1-0.2-1.6-0.2c-1,0-1.7,0.2-2.2,0.6c-0.5,0.4-0.7,0.9-0.7,1.5
					c0,0.4,0.1,0.8,0.4,1.1c0.3,0.3,0.6,0.5,1,0.6c0.4,0.1,1,0.3,1.7,0.5c0.8,0.2,1.5,0.4,2,0.6c0.5,0.2,0.9,0.5,1.3,0.9
					c0.4,0.4,0.5,0.9,0.5,1.6c0,0.6-0.2,1.1-0.5,1.6c-0.3,0.5-0.8,0.8-1.4,1.1C594.3,400.4,593.5,400.6,592.6,400.6z M603.4,392
					c0.8,0,1.5,0.2,2.1,0.5c0.6,0.4,1.1,0.9,1.5,1.5s0.5,1.4,0.5,2.2c0,0.8-0.2,1.6-0.5,2.2s-0.9,1.2-1.5,1.5
					c-0.6,0.4-1.3,0.5-2.1,0.5c-0.7,0-1.3-0.1-1.9-0.4c-0.5-0.3-1-0.7-1.3-1.2v4.7h-1.1V392h1.1v1.7c0.3-0.6,0.8-1,1.3-1.3
					C602.1,392.1,602.7,392,603.4,392z M603.4,399.5c0.6,0,1.1-0.1,1.6-0.4c0.5-0.3,0.9-0.7,1.1-1.2c0.3-0.5,0.4-1.1,0.4-1.7
					c0-0.6-0.1-1.2-0.4-1.7c-0.3-0.5-0.6-0.9-1.1-1.2c-0.5-0.3-1-0.4-1.6-0.4c-0.6,0-1.1,0.1-1.6,0.4c-0.5,0.3-0.8,0.7-1.1,1.2
					c-0.3,0.5-0.4,1.1-0.4,1.7c0,0.6,0.1,1.2,0.4,1.7c0.3,0.5,0.7,0.9,1.1,1.2C602.2,399.4,602.8,399.5,603.4,399.5z M612.8,392
					c1.1,0,1.9,0.3,2.5,0.8c0.6,0.5,0.9,1.4,0.9,2.4v5.2h-1.1v-1.3c-0.3,0.4-0.6,0.8-1.1,1c-0.5,0.2-1.1,0.4-1.8,0.4
					c-0.9,0-1.7-0.2-2.2-0.7c-0.6-0.4-0.8-1-0.8-1.8c0-0.7,0.3-1.3,0.8-1.7c0.5-0.4,1.3-0.7,2.5-0.7h2.7v-0.5c0-0.7-0.2-1.3-0.6-1.6
					c-0.4-0.4-1-0.6-1.8-0.6c-0.5,0-1,0.1-1.5,0.3c-0.5,0.2-0.9,0.4-1.3,0.7l-0.5-0.8c0.4-0.4,0.9-0.6,1.5-0.8
					C611.5,392.1,612.2,392,612.8,392z M612.4,399.6c0.6,0,1.2-0.1,1.6-0.4c0.5-0.3,0.8-0.7,1-1.3v-1.4h-2.6c-1.4,0-2.2,0.5-2.2,1.5
					c0,0.5,0.2,0.9,0.6,1.2C611.2,399.5,611.8,399.6,612.4,399.6z M622.9,400.5c-0.8,0-1.6-0.2-2.2-0.5c-0.7-0.4-1.2-0.9-1.5-1.5
					c-0.4-0.7-0.6-1.4-0.6-2.2c0-0.8,0.2-1.6,0.6-2.2c0.4-0.7,0.9-1.2,1.5-1.5c0.7-0.4,1.4-0.5,2.2-0.5c0.7,0,1.4,0.1,1.9,0.4
					c0.6,0.3,1,0.7,1.4,1.2l-0.8,0.6c-0.3-0.4-0.6-0.7-1.1-0.9c-0.4-0.2-0.9-0.3-1.4-0.3c-0.6,0-1.2,0.1-1.6,0.4
					c-0.5,0.3-0.9,0.7-1.1,1.2c-0.3,0.5-0.4,1.1-0.4,1.7c0,0.7,0.1,1.2,0.4,1.7c0.3,0.5,0.7,0.9,1.1,1.2c0.5,0.3,1,0.4,1.6,0.4
					c0.5,0,1-0.1,1.4-0.3c0.4-0.2,0.8-0.5,1.1-0.9l0.8,0.6c-0.3,0.5-0.8,1-1.4,1.2C624.2,400.4,623.6,400.5,622.9,400.5z
					 M635.6,396.6h-7c0.1,0.9,0.4,1.6,1,2.1c0.6,0.5,1.4,0.8,2.3,0.8c0.5,0,1-0.1,1.4-0.3c0.4-0.2,0.8-0.5,1.1-0.8l0.6,0.7
					c-0.4,0.4-0.8,0.8-1.4,1c-0.6,0.2-1.2,0.4-1.8,0.4c-0.9,0-1.6-0.2-2.3-0.5c-0.7-0.4-1.2-0.9-1.6-1.5c-0.4-0.7-0.6-1.4-0.6-2.2
					c0-0.8,0.2-1.6,0.5-2.2c0.4-0.7,0.9-1.2,1.5-1.5c0.6-0.4,1.3-0.5,2.1-0.5c0.8,0,1.5,0.2,2.1,0.5c0.6,0.4,1.1,0.9,1.5,1.5
					c0.4,0.6,0.5,1.4,0.5,2.2L635.6,396.6z M631.5,393c-0.8,0-1.5,0.3-2,0.8c-0.5,0.5-0.9,1.2-0.9,2h6c-0.1-0.8-0.4-1.5-0.9-2
					C633,393.2,632.3,393,631.5,393z"/>
			</g>
			<g>
				<path class="st11" d="M173,71.9c8.4,0,15.3-6.8,15.3-15.3s-6.8-15.3-15.3-15.3c-8.4,0-15.3,6.8-15.3,15.3S164.5,71.9,173,71.9z"
					/>
				<path class="st11" d="M161.3,77.2c5.7,0,10.4-4.7,10.4-10.4c0-5.7-4.7-10.4-10.4-10.4c-5.7,0-10.4,4.7-10.4,10.4
					C150.9,72.5,155.5,77.2,161.3,77.2z"/>
				<path class="st11" d="M191.8,68.7c5.7,0,10.4-4.7,10.4-10.4s-4.7-10.4-10.4-10.4s-10.4,4.7-10.4,10.4S186,68.7,191.8,68.7z"/>
				<path class="st11" d="M213,68c-0.2,6.7-5.4,9.2-11.7,9.2c-5.7,0-8.8-4-8.8-9.8s4-11.7,9.7-10.6C209.3,58.3,213.1,62.3,213,68z"
					/>
				<path class="st11" d="M201.3,62.5h-40.2v14.7h40.2V62.5z"/>
				<path class="st1" d="M186.3,67.5h-40.4c-0.2,0-0.4-0.1-0.4-0.3v-1c0-0.2,0.1-0.3,0.4-0.3h40.4c0.2,0,0.4,0.1,0.4,0.3v1
					C186.6,67.3,186.5,67.5,186.3,67.5z"/>
				<path class="st1" d="M193.3,73.8h-43.4c-0.2,0-0.4-0.1-0.4-0.3v-1c0-0.2,0.1-0.3,0.4-0.3h43.4c0.2,0,0.4,0.1,0.4,0.3v1
					C193.6,73.7,193.5,73.8,193.3,73.8z"/>
			</g>
		</g>
	</g>
</g>
<g id="Layer_2">
	
		<image style="overflow:visible;" width="367" height="123" xlink:href="../../../Float/8617EAD091E1F6B9.png"  transform="matrix(0.2425 0 0 0.2425 43 46.0381)">
	</image>
</g>
</svg>
