<?xml version="1.0" encoding="utf-8"?>
<!-- Generator: Adobe Illustrator 24.2.1, SVG Export Plug-In . SVG Version: 6.00 Build 0)  -->
<svg version="1.1" id="Layer_1" xmlns="http://www.w3.org/2000/svg" xmlns:xlink="http://www.w3.org/1999/xlink" x="0px" y="0px"
	 viewBox="0 0 817 768" style="enable-background:new 0 0 817 768;" xml:space="preserve">
<style type="text/css">
	.st0{fill:#40A9FF;}
	.st1{fill:#1890FF;}
	.st2{fill:#597EF7;}
	.st3{fill:#FFD666;}
	.st4{fill:#FFFFFF;stroke:#000000;stroke-width:0.5;}
	.st5{fill:#FF4D4F;}
	.st6{fill:#BFBFBF;}
	.st7{fill:#FF7875;}
	.st8{fill:#FFFFFF;}
</style>
<rect x="90.7" y="181.1" class="st0" width="84.7" height="84.7"/>
<rect x="203.5" y="181.1" class="st1" width="84.7" height="84.7"/>
<rect x="316.2" y="181.1" class="st2" width="84.7" height="84.7"/>
<rect x="428.9" y="181.1" class="st3" width="85.3" height="85.3"/>
<rect x="90.9" y="308.9" class="st4" width="53.9" height="53.9"/>
<rect x="655" y="180.4" class="st5" width="84.7" height="85.3"/>
<rect x="163" y="308.7" class="st6" width="54.2" height="54.2"/>
<rect x="235.2" y="308.7" width="53.6" height="54.2"/>
<rect x="542.3" y="181.1" class="st7" width="85.3" height="85.3"/>
<path d="M91.7,437h-4.6v-1.2h10.6v1.2H93v11.9h-1.4V437z M104.2,444.3v4.5h-1.4v-4.5l-5.2-8.6h1.5l4.5,7.3l4.5-7.3h1.4L104.2,444.3z
	 M116.2,435.8c1.7,0,3,0.4,3.9,1.2c0.9,0.8,1.4,1.9,1.4,3.3s-0.5,2.5-1.4,3.3c-0.9,0.8-2.3,1.2-3.9,1.2h-3.5v4.1h-1.4v-13.1H116.2z
	 M116.2,443.5c1.3,0,2.3-0.3,3-0.8c0.7-0.6,1-1.4,1-2.4c0-1.1-0.3-1.9-1-2.4c-0.7-0.6-1.7-0.9-3-0.9h-3.5v6.5H116.2z M133.8,447.7
	v1.2h-9.2v-13.1h9v1.2H126v4.7h6.8v1.2H126v4.9H133.8z M138.5,437v5.1h6.8v1.2h-6.8v5.5h-1.4v-13.1h9v1.2H138.5z M156.5,445.4h-7.3
	l-1.6,3.5h-1.4l6-13.1h1.4l6,13.1H158L156.5,445.4z M156,444.3l-3.1-7l-3.1,7H156z M167.2,449c-1.3,0-2.5-0.3-3.5-0.9
	c-1-0.6-1.8-1.4-2.4-2.4c-0.6-1-0.9-2.2-0.9-3.4c0-1.3,0.3-2.4,0.9-3.4c0.6-1,1.4-1.8,2.5-2.4c1-0.6,2.2-0.9,3.5-0.9
	c1,0,1.9,0.2,2.7,0.5c0.8,0.3,1.5,0.8,2.1,1.4l-0.9,0.9c-1-1-2.3-1.6-3.9-1.6c-1,0-2,0.2-2.8,0.7c-0.8,0.5-1.5,1.1-2,1.9
	c-0.5,0.8-0.7,1.7-0.7,2.8c0,1,0.2,1.9,0.7,2.8c0.5,0.8,1.2,1.5,2,1.9c0.8,0.5,1.8,0.7,2.8,0.7c1.6,0,2.9-0.5,3.9-1.6l0.9,0.9
	c-0.6,0.6-1.3,1.1-2.1,1.4C169,448.8,168.1,449,167.2,449z M184.2,447.7v1.2h-9.2v-13.1h9v1.2h-7.6v4.7h6.8v1.2h-6.8v4.9H184.2z"/>
<path d="M89.1,585.3h1.4v11.9h7.3v1.2h-8.7V585.3z M105.6,598.5c-1.3,0-2.5-0.3-3.5-0.9c-1-0.6-1.9-1.4-2.5-2.4
	c-0.6-1-0.9-2.1-0.9-3.4c0-1.3,0.3-2.4,0.9-3.4c0.6-1,1.4-1.8,2.5-2.4c1.1-0.6,2.2-0.9,3.5-0.9c1.3,0,2.5,0.3,3.5,0.9
	c1,0.6,1.9,1.4,2.5,2.4c0.6,1,0.9,2.1,0.9,3.4c0,1.3-0.3,2.4-0.9,3.4c-0.6,1-1.4,1.8-2.5,2.4C108,598.2,106.9,598.5,105.6,598.5z
	 M105.6,597.2c1,0,2-0.2,2.8-0.7c0.8-0.5,1.5-1.1,2-1.9c0.5-0.8,0.7-1.8,0.7-2.8c0-1-0.2-1.9-0.7-2.8c-0.5-0.8-1.1-1.5-2-1.9
	c-0.8-0.5-1.8-0.7-2.8-0.7c-1,0-2,0.2-2.8,0.7c-0.8,0.5-1.5,1.1-2,1.9c-0.5,0.8-0.7,1.7-0.7,2.8c0,1,0.2,1.9,0.7,2.8
	c0.5,0.8,1.1,1.5,2,1.9C103.6,597,104.5,597.2,105.6,597.2z M124.7,591.8h1.3v5c-0.6,0.5-1.3,0.9-2.2,1.2c-0.8,0.3-1.7,0.4-2.6,0.4
	c-1.3,0-2.5-0.3-3.5-0.9c-1-0.6-1.9-1.4-2.5-2.4c-0.6-1-0.9-2.2-0.9-3.4c0-1.3,0.3-2.4,0.9-3.4c0.6-1,1.4-1.8,2.5-2.4
	c1-0.6,2.2-0.9,3.6-0.9c1,0,1.9,0.2,2.7,0.5c0.8,0.3,1.5,0.8,2.1,1.4l-0.9,0.9c-1-1-2.3-1.5-3.9-1.5c-1.1,0-2,0.2-2.9,0.7
	c-0.8,0.5-1.5,1.1-2,1.9c-0.5,0.8-0.7,1.7-0.7,2.8c0,1,0.2,1.9,0.7,2.8s1.2,1.5,2,1.9c0.8,0.5,1.8,0.7,2.9,0.7c1.3,0,2.5-0.3,3.4-1
	V591.8z M135.7,598.5c-1.3,0-2.5-0.3-3.5-0.9c-1-0.6-1.9-1.4-2.5-2.4c-0.6-1-0.9-2.1-0.9-3.4c0-1.3,0.3-2.4,0.9-3.4
	c0.6-1,1.4-1.8,2.5-2.4c1.1-0.6,2.2-0.9,3.5-0.9c1.3,0,2.5,0.3,3.5,0.9c1,0.6,1.9,1.4,2.5,2.4c0.6,1,0.9,2.1,0.9,3.4
	c0,1.3-0.3,2.4-0.9,3.4c-0.6,1-1.4,1.8-2.5,2.4C138.2,598.2,137,598.5,135.7,598.5z M135.7,597.2c1,0,2-0.2,2.8-0.7
	c0.8-0.5,1.5-1.1,2-1.9c0.5-0.8,0.7-1.8,0.7-2.8c0-1-0.2-1.9-0.7-2.8c-0.5-0.8-1.1-1.5-2-1.9c-0.8-0.5-1.8-0.7-2.8-0.7
	c-1,0-2,0.2-2.8,0.7c-0.8,0.5-1.5,1.1-2,1.9c-0.5,0.8-0.7,1.7-0.7,2.8c0,1,0.2,1.9,0.7,2.8c0.5,0.8,1.1,1.5,2,1.9
	C133.7,597,134.7,597.2,135.7,597.2z"/>
<path d="M100.5,494.3v13.1h-3v-5.4h-5.9v5.4h-3v-13.1h3v5.2h5.9v-5.2H100.5z M107.9,494.3v13.1h-3v-10.7h-2.6v-2.4H107.9z
	 M111.8,500.9c-0.5,0-0.9-0.2-1.3-0.5c-0.3-0.3-0.5-0.8-0.5-1.3c0-0.5,0.2-1,0.5-1.3c0.3-0.3,0.8-0.5,1.3-0.5c0.5,0,0.9,0.2,1.3,0.5
	c0.3,0.3,0.5,0.8,0.5,1.3c0,0.5-0.2,1-0.5,1.3S112.4,500.9,111.8,500.9z M111.8,507.6c-0.5,0-0.9-0.2-1.3-0.5
	c-0.3-0.3-0.5-0.8-0.5-1.3c0-0.5,0.2-1,0.5-1.3c0.3-0.3,0.8-0.5,1.3-0.5c0.5,0,0.9,0.2,1.3,0.5c0.3,0.3,0.5,0.8,0.5,1.3
	c0,0.5-0.2,1-0.5,1.3S112.4,507.6,111.8,507.6z M133,507.4l0-7.8l-3.8,6.5h-1.4l-3.8-6.3v7.7h-2.8v-13.1h2.5l4.9,8.1l4.8-8.1h2.5
	l0,13.1H133z M143.5,507.6c-1.1,0-2-0.2-2.9-0.7c-0.8-0.4-1.5-1.1-2-1.8c-0.5-0.8-0.7-1.7-0.7-2.7c0-1,0.2-1.9,0.7-2.7
	c0.5-0.8,1.1-1.4,2-1.8c0.8-0.4,1.8-0.7,2.9-0.7c1.1,0,2,0.2,2.8,0.7c0.8,0.4,1.5,1,2,1.8c0.5,0.8,0.7,1.7,0.7,2.7
	c0,1-0.2,1.9-0.7,2.7c-0.5,0.8-1.1,1.4-2,1.8C145.6,507.3,144.6,507.6,143.5,507.6z M143.5,505.2c0.7,0,1.4-0.2,1.8-0.7
	c0.5-0.5,0.7-1.2,0.7-2s-0.2-1.5-0.7-2c-0.5-0.5-1.1-0.8-1.8-0.8c-0.7,0-1.4,0.3-1.8,0.8c-0.5,0.5-0.7,1.2-0.7,2s0.2,1.5,0.7,2
	C142.2,504.9,142.8,505.2,143.5,505.2z M157.1,497.2c1.2,0,2.2,0.4,3,1.1c0.8,0.7,1.2,1.9,1.2,3.3v5.8h-2.9v-5.3
	c0-0.8-0.2-1.4-0.5-1.8c-0.3-0.4-0.9-0.6-1.5-0.6c-0.7,0-1.3,0.2-1.8,0.7c-0.4,0.4-0.7,1.1-0.7,2v5H151v-10.1h2.8v1.2
	c0.4-0.4,0.9-0.7,1.4-1C155.8,497.3,156.4,497.2,157.1,497.2z M170.4,506.9c-0.3,0.2-0.6,0.4-1.1,0.5c-0.4,0.1-0.8,0.1-1.3,0.1
	c-1.2,0-2.1-0.3-2.8-0.9c-0.6-0.6-1-1.5-1-2.7v-4.1h-1.6v-2.2h1.6v-2.4h2.9v2.4h2.5v2.2h-2.5v4.1c0,0.4,0.1,0.8,0.3,1
	c0.2,0.2,0.5,0.3,0.9,0.3c0.5,0,0.9-0.1,1.2-0.4L170.4,506.9z M175.4,507.6c-0.8,0-1.7-0.1-2.4-0.3c-0.8-0.2-1.4-0.5-1.9-0.8l1-2.1
	c0.4,0.3,1,0.5,1.6,0.7c0.6,0.2,1.3,0.3,1.9,0.3c1.2,0,1.8-0.3,1.8-0.9c0-0.3-0.2-0.5-0.5-0.6c-0.3-0.1-0.9-0.2-1.6-0.3
	c-0.8-0.1-1.5-0.3-2-0.4c-0.5-0.2-1-0.4-1.4-0.9c-0.4-0.4-0.6-1-0.6-1.8c0-0.6,0.2-1.2,0.5-1.7c0.4-0.5,0.9-0.9,1.6-1.2
	c0.7-0.3,1.5-0.4,2.5-0.4c0.7,0,1.4,0.1,2.1,0.2c0.7,0.1,1.3,0.4,1.8,0.6l-1,2.1c-0.9-0.5-1.8-0.7-2.9-0.7c-0.6,0-1.1,0.1-1.4,0.3
	c-0.3,0.2-0.5,0.4-0.5,0.7c0,0.3,0.2,0.5,0.5,0.7c0.3,0.1,0.9,0.2,1.6,0.4c0.8,0.1,1.5,0.3,2,0.4c0.5,0.1,1,0.4,1.4,0.8
	c0.4,0.4,0.6,1,0.6,1.7c0,0.6-0.2,1.2-0.6,1.7s-0.9,0.9-1.6,1.1C177.3,507.4,176.4,507.6,175.4,507.6z M191.8,502.4
	c0,0,0,0.3-0.1,0.8h-7.6c0.1,0.6,0.5,1.1,1,1.5c0.5,0.4,1.1,0.5,1.9,0.5c0.5,0,1-0.1,1.4-0.2c0.4-0.2,0.8-0.4,1.1-0.7l1.6,1.7
	c-0.9,1.1-2.3,1.6-4.1,1.6c-1.1,0-2.1-0.2-3-0.7c-0.9-0.4-1.5-1.1-2-1.8c-0.5-0.8-0.7-1.7-0.7-2.7c0-1,0.2-1.9,0.7-2.7
	c0.5-0.8,1.1-1.4,1.9-1.8c0.8-0.4,1.7-0.7,2.7-0.7c1,0,1.9,0.2,2.7,0.6s1.4,1,1.9,1.8C191.6,500.5,191.8,501.4,191.8,502.4z
	 M186.6,499.4c-0.7,0-1.2,0.2-1.7,0.6s-0.7,0.9-0.8,1.5h5c-0.1-0.6-0.4-1.1-0.8-1.5C187.8,499.6,187.3,499.4,186.6,499.4z
	 M196.5,498.7c0.3-0.5,0.8-0.9,1.4-1.1c0.6-0.2,1.3-0.4,2.1-0.4v2.7c-0.3,0-0.5,0-0.7,0c-0.8,0-1.5,0.2-2,0.7
	c-0.5,0.5-0.7,1.2-0.7,2.1v4.7h-2.9v-10.1h2.8V498.7z M204.5,498.7c0.3-0.5,0.8-0.9,1.4-1.1c0.6-0.2,1.3-0.4,2.1-0.4v2.7
	c-0.3,0-0.5,0-0.7,0c-0.8,0-1.5,0.2-2,0.7c-0.5,0.5-0.7,1.2-0.7,2.1v4.7h-2.9v-10.1h2.8V498.7z M213.7,497.2c1.6,0,2.8,0.4,3.6,1.1
	c0.8,0.7,1.3,1.8,1.3,3.3v5.7h-2.7v-1.3c-0.5,0.9-1.6,1.4-3.1,1.4c-0.8,0-1.4-0.1-2-0.4c-0.6-0.3-1-0.6-1.3-1.1
	c-0.3-0.5-0.4-1-0.4-1.6c0-0.9,0.3-1.7,1-2.2c0.7-0.5,1.8-0.8,3.3-0.8h2.3c0-0.6-0.2-1.1-0.6-1.5c-0.4-0.3-1-0.5-1.7-0.5
	c-0.5,0-1.1,0.1-1.6,0.3c-0.5,0.2-0.9,0.4-1.3,0.7l-1-2c0.5-0.4,1.2-0.7,2-0.9C212.1,497.3,212.9,497.2,213.7,497.2z M213.5,505.6
	c0.5,0,0.9-0.1,1.3-0.3c0.4-0.2,0.7-0.6,0.8-1v-1h-2c-1.2,0-1.8,0.4-1.8,1.2c0,0.4,0.1,0.7,0.4,0.9
	C212.6,505.5,213,505.6,213.5,505.6z M227.7,506.9c-0.3,0.2-0.6,0.4-1.1,0.5c-0.4,0.1-0.8,0.1-1.3,0.1c-1.2,0-2.1-0.3-2.8-0.9
	c-0.6-0.6-1-1.5-1-2.7v-4.1H220v-2.2h1.6v-2.4h2.9v2.4h2.5v2.2h-2.5v4.1c0,0.4,0.1,0.8,0.3,1c0.2,0.2,0.5,0.3,0.9,0.3
	c0.5,0,0.9-0.1,1.2-0.4L227.7,506.9z M244.4,500.6c0.7,0.2,1.3,0.6,1.8,1.2c0.4,0.5,0.6,1.2,0.6,2c0,1.1-0.4,2-1.3,2.7
	c-0.9,0.6-2.2,0.9-3.9,0.9h-6.8v-13.1h6.4c1.6,0,2.8,0.3,3.7,0.9c0.9,0.6,1.3,1.4,1.3,2.5c0,0.6-0.2,1.2-0.5,1.7
	C245.4,499.9,245,500.3,244.4,500.6z M237.8,496.6v3.1h3c0.7,0,1.3-0.1,1.7-0.4s0.6-0.6,0.6-1.2c0-0.5-0.2-0.9-0.6-1.1
	c-0.4-0.3-1-0.4-1.7-0.4H237.8z M241.3,505.1c0.8,0,1.4-0.1,1.8-0.4c0.4-0.3,0.6-0.7,0.6-1.2c0-1.1-0.8-1.6-2.4-1.6h-3.5v3.2H241.3z
	 M253.7,507.6c-1.1,0-2-0.2-2.9-0.7c-0.8-0.4-1.5-1.1-2-1.8c-0.5-0.8-0.7-1.7-0.7-2.7c0-1,0.2-1.9,0.7-2.7c0.5-0.8,1.1-1.4,2-1.8
	c0.8-0.4,1.8-0.7,2.9-0.7c1.1,0,2,0.2,2.8,0.7c0.8,0.4,1.5,1,2,1.8c0.5,0.8,0.7,1.7,0.7,2.7c0,1-0.2,1.9-0.7,2.7
	c-0.5,0.8-1.1,1.4-2,1.8C255.7,507.3,254.7,507.6,253.7,507.6z M253.7,505.2c0.7,0,1.4-0.2,1.8-0.7c0.5-0.5,0.7-1.2,0.7-2
	s-0.2-1.5-0.7-2c-0.5-0.5-1.1-0.8-1.8-0.8c-0.7,0-1.4,0.3-1.8,0.8c-0.5,0.5-0.7,1.2-0.7,2s0.2,1.5,0.7,2
	C252.3,504.9,252.9,505.2,253.7,505.2z M261.1,493.6h2.9v13.9h-2.9V493.6z M277,493.6v13.9h-2.8v-1.2c-0.7,0.9-1.8,1.3-3.1,1.3
	c-0.9,0-1.8-0.2-2.6-0.6c-0.8-0.4-1.4-1-1.8-1.8c-0.4-0.8-0.7-1.7-0.7-2.7s0.2-1.9,0.7-2.7c0.4-0.8,1-1.4,1.8-1.8
	c0.8-0.4,1.6-0.6,2.6-0.6c1.3,0,2.3,0.4,3,1.2v-4.9H277z M271.6,505.2c0.7,0,1.3-0.2,1.8-0.7c0.5-0.5,0.7-1.2,0.7-2s-0.2-1.5-0.7-2
	c-0.5-0.5-1.1-0.8-1.8-0.8c-0.7,0-1.4,0.3-1.8,0.8c-0.5,0.5-0.7,1.2-0.7,2s0.2,1.5,0.7,2C270.2,504.9,270.8,505.2,271.6,505.2z"/>
<path d="M347.2,495.7v10.5h-1.1v-4.8h-6.5v4.8h-1.1v-10.5h1.1v4.7h6.5v-4.7H347.2z M356.8,505.2v1h-7.3v-0.8l4.3-4.3
	c0.5-0.5,0.9-1,1.1-1.4c0.2-0.4,0.3-0.8,0.3-1.2c0-0.6-0.2-1.1-0.6-1.4c-0.4-0.3-1-0.5-1.8-0.5c-1.2,0-2.2,0.4-2.9,1.2l-0.8-0.7
	c0.4-0.5,0.9-0.8,1.6-1.1c0.6-0.3,1.4-0.4,2.2-0.4c1.1,0,1.9,0.3,2.5,0.8c0.6,0.5,0.9,1.2,0.9,2.1c0,0.5-0.1,1.1-0.4,1.6
	s-0.7,1.1-1.4,1.7l-3.6,3.5H356.8z M359,499.9c-0.2,0-0.4-0.1-0.6-0.2c-0.1-0.2-0.2-0.4-0.2-0.6c0-0.2,0.1-0.4,0.2-0.6
	c0.2-0.2,0.3-0.2,0.6-0.2s0.4,0.1,0.6,0.2c0.2,0.1,0.2,0.3,0.2,0.6c0,0.2-0.1,0.4-0.2,0.6C359.4,499.8,359.2,499.9,359,499.9z
	 M359,506.2c-0.2,0-0.4-0.1-0.6-0.2c-0.1-0.2-0.2-0.4-0.2-0.6s0.1-0.4,0.2-0.6c0.2-0.2,0.3-0.2,0.6-0.2s0.4,0.1,0.6,0.2
	c0.2,0.1,0.2,0.3,0.2,0.6s-0.1,0.4-0.2,0.6S359.2,506.2,359,506.2z M377,495.7v10.5H376v-8.4l-4.1,7h-0.5l-4.1-7v8.3h-1.1v-10.5h0.9
	l4.5,7.8l4.5-7.8H377z M383.4,506.2c-0.8,0-1.4-0.2-2-0.5c-0.6-0.3-1.1-0.8-1.4-1.4c-0.3-0.6-0.5-1.3-0.5-2.1c0-0.8,0.2-1.5,0.5-2.1
	s0.8-1.1,1.4-1.4c0.6-0.3,1.3-0.5,2-0.5c0.8,0,1.4,0.2,2,0.5c0.6,0.3,1.1,0.8,1.4,1.4c0.3,0.6,0.5,1.3,0.5,2.1
	c0,0.8-0.2,1.5-0.5,2.1c-0.3,0.6-0.8,1.1-1.4,1.4C384.9,506.1,384.2,506.2,383.4,506.2z M383.4,505.3c0.6,0,1.1-0.1,1.5-0.4
	c0.4-0.3,0.8-0.6,1-1.1c0.2-0.5,0.4-1,0.4-1.6c0-0.6-0.1-1.1-0.4-1.6c-0.2-0.5-0.6-0.8-1-1.1c-0.4-0.3-0.9-0.4-1.5-0.4
	c-0.6,0-1.1,0.1-1.5,0.4c-0.4,0.2-0.8,0.6-1,1.1c-0.2,0.5-0.4,1-0.4,1.6c0,0.6,0.1,1.1,0.4,1.6c0.3,0.5,0.6,0.8,1,1.1
	C382.4,505.2,382.9,505.3,383.4,505.3z M393.6,498.2c1,0,1.8,0.3,2.3,0.9c0.6,0.6,0.9,1.4,0.9,2.5v4.6h-1.1v-4.5
	c0-0.8-0.2-1.4-0.6-1.9c-0.4-0.4-1-0.6-1.7-0.6c-0.8,0-1.5,0.3-2,0.8c-0.5,0.5-0.7,1.2-0.7,2.1v4.1h-1.1v-7.9h1v1.4
	c0.3-0.5,0.7-0.8,1.2-1.1C392.3,498.4,392.9,498.2,393.6,498.2z M403.9,505.7c-0.2,0.2-0.4,0.3-0.7,0.4c-0.3,0.1-0.6,0.1-0.9,0.1
	c-0.7,0-1.3-0.2-1.7-0.6c-0.4-0.4-0.6-1-0.6-1.7v-4.8h-1.4v-0.9h1.4v-1.7h1.1v1.7h2.4v0.9H401v4.7c0,0.5,0.1,0.8,0.3,1.1
	c0.2,0.2,0.6,0.4,1,0.4c0.2,0,0.4,0,0.6-0.1c0.2-0.1,0.4-0.2,0.5-0.3L403.9,505.7z M407.9,506.2c-0.6,0-1.3-0.1-1.8-0.3
	c-0.6-0.2-1-0.4-1.4-0.7l0.5-0.8c0.3,0.3,0.7,0.5,1.2,0.6c0.5,0.2,1,0.2,1.6,0.2c0.7,0,1.2-0.1,1.6-0.3c0.3-0.2,0.5-0.5,0.5-1
	c0-0.3-0.1-0.5-0.3-0.7c-0.2-0.2-0.4-0.3-0.7-0.4c-0.3-0.1-0.7-0.2-1.2-0.3c-0.6-0.1-1.2-0.2-1.5-0.4c-0.4-0.1-0.7-0.3-1-0.6
	c-0.3-0.3-0.4-0.7-0.4-1.2c0-0.7,0.3-1.2,0.8-1.6c0.5-0.4,1.3-0.6,2.3-0.6c0.5,0,1,0.1,1.5,0.2c0.5,0.1,0.9,0.3,1.3,0.5l-0.5,0.9
	c-0.6-0.4-1.4-0.7-2.3-0.7c-0.7,0-1.2,0.1-1.5,0.4c-0.3,0.2-0.5,0.6-0.5,0.9c0,0.3,0.1,0.5,0.3,0.7c0.2,0.2,0.4,0.3,0.7,0.4
	c0.3,0.1,0.7,0.2,1.2,0.3c0.6,0.1,1.1,0.2,1.5,0.4c0.4,0.1,0.7,0.3,1,0.6c0.3,0.3,0.4,0.7,0.4,1.2c0,0.7-0.3,1.2-0.9,1.6
	C409.7,506,408.9,506.2,407.9,506.2z M420,502.6h-6.6c0.1,0.8,0.4,1.5,0.9,2c0.6,0.5,1.3,0.7,2.2,0.7c0.5,0,0.9-0.1,1.3-0.3
	c0.4-0.2,0.8-0.4,1.1-0.8l0.6,0.7c-0.3,0.4-0.8,0.7-1.3,1c-0.5,0.2-1.1,0.3-1.7,0.3c-0.8,0-1.5-0.2-2.2-0.5
	c-0.6-0.3-1.1-0.8-1.4-1.4c-0.3-0.6-0.5-1.3-0.5-2.1c0-0.8,0.2-1.5,0.5-2.1c0.3-0.6,0.8-1.1,1.4-1.4c0.6-0.3,1.2-0.5,2-0.5
	c0.7,0,1.4,0.2,2,0.5c0.6,0.3,1,0.8,1.4,1.4c0.3,0.6,0.5,1.3,0.5,2.1L420,502.6z M416.2,499.2c-0.8,0-1.4,0.2-1.9,0.7
	c-0.5,0.5-0.8,1.1-0.9,1.9h5.6c-0.1-0.8-0.4-1.4-0.9-1.9C417.6,499.4,416.9,499.2,416.2,499.2z M423.1,499.8
	c0.2-0.5,0.6-0.9,1.1-1.2c0.5-0.3,1.1-0.4,1.8-0.4v1l-0.3,0c-0.8,0-1.5,0.3-1.9,0.8c-0.5,0.5-0.7,1.2-0.7,2.1v4h-1.1v-7.9h1V499.8z
	 M429,499.8c0.2-0.5,0.6-0.9,1.1-1.2c0.5-0.3,1.1-0.4,1.8-0.4v1l-0.3,0c-0.8,0-1.5,0.3-1.9,0.8s-0.7,1.2-0.7,2.1v4H428v-7.9h1V499.8
	z M436.6,498.2c1,0,1.8,0.3,2.4,0.8c0.5,0.5,0.8,1.3,0.8,2.3v4.9h-1v-1.2c-0.2,0.4-0.6,0.7-1.1,1c-0.5,0.2-1,0.3-1.6,0.3
	c-0.9,0-1.6-0.2-2.1-0.6c-0.5-0.4-0.8-1-0.8-1.7c0-0.7,0.2-1.2,0.7-1.6c0.5-0.4,1.3-0.6,2.3-0.6h2.5v-0.5c0-0.7-0.2-1.2-0.6-1.5
	c-0.4-0.4-0.9-0.5-1.7-0.5c-0.5,0-1,0.1-1.4,0.3c-0.5,0.2-0.9,0.4-1.2,0.7l-0.5-0.8c0.4-0.3,0.9-0.6,1.4-0.8
	C435.4,498.3,436,498.2,436.6,498.2z M436.3,505.4c0.6,0,1.1-0.1,1.5-0.4c0.4-0.3,0.7-0.7,1-1.2v-1.3h-2.5c-1.3,0-2,0.5-2,1.4
	c0,0.5,0.2,0.8,0.5,1.1C435.1,505.3,435.6,505.4,436.3,505.4z M446.8,505.7c-0.2,0.2-0.4,0.3-0.7,0.4c-0.3,0.1-0.6,0.1-0.9,0.1
	c-0.7,0-1.3-0.2-1.7-0.6c-0.4-0.4-0.6-1-0.6-1.7v-4.8h-1.4v-0.9h1.4v-1.7h1.1v1.7h2.4v0.9h-2.4v4.7c0,0.5,0.1,0.8,0.3,1.1
	c0.2,0.2,0.6,0.4,1,0.4c0.2,0,0.4,0,0.6-0.1c0.2-0.1,0.4-0.2,0.5-0.3L446.8,505.7z M460.1,506.2l-2.4-3.4c-0.3,0-0.5,0-0.8,0H454
	v3.3h-1.1v-10.5h3.9c1.3,0,2.4,0.3,3.1,1c0.8,0.6,1.1,1.5,1.1,2.6c0,0.8-0.2,1.5-0.6,2.1c-0.4,0.6-1,1-1.8,1.2l2.6,3.6H460.1z
	 M456.8,501.9c1,0,1.8-0.2,2.4-0.7c0.5-0.5,0.8-1.1,0.8-1.9c0-0.8-0.3-1.5-0.8-1.9c-0.5-0.5-1.3-0.7-2.4-0.7H454v5.2H456.8z
	 M470.3,502.6h-6.6c0.1,0.8,0.4,1.5,0.9,2c0.6,0.5,1.3,0.7,2.2,0.7c0.5,0,0.9-0.1,1.3-0.3c0.4-0.2,0.8-0.4,1.1-0.8l0.6,0.7
	c-0.3,0.4-0.8,0.7-1.3,1c-0.5,0.2-1.1,0.3-1.7,0.3c-0.8,0-1.5-0.2-2.2-0.5c-0.6-0.3-1.1-0.8-1.4-1.4c-0.3-0.6-0.5-1.3-0.5-2.1
	c0-0.8,0.2-1.5,0.5-2.1c0.3-0.6,0.8-1.1,1.4-1.4c0.6-0.3,1.2-0.5,2-0.5c0.7,0,1.4,0.2,2,0.5c0.6,0.3,1,0.8,1.4,1.4
	c0.3,0.6,0.5,1.3,0.5,2.1L470.3,502.6z M466.5,499.2c-0.8,0-1.4,0.2-1.9,0.7c-0.5,0.5-0.8,1.1-0.9,1.9h5.6c-0.1-0.8-0.4-1.4-0.9-1.9
	C467.9,499.4,467.3,499.2,466.5,499.2z M479.8,498.3v6.9c0,1.3-0.3,2.3-1,3c-0.6,0.6-1.6,1-2.9,1c-0.7,0-1.4-0.1-2.1-0.3
	c-0.6-0.2-1.2-0.5-1.6-0.9l0.5-0.8c0.4,0.3,0.8,0.6,1.4,0.8c0.5,0.2,1.1,0.3,1.7,0.3c1,0,1.7-0.2,2.2-0.7c0.5-0.5,0.7-1.2,0.7-2.2
	v-1c-0.3,0.5-0.8,0.9-1.3,1.1c-0.5,0.3-1.1,0.4-1.8,0.4c-0.7,0-1.4-0.2-2-0.5c-0.6-0.3-1.1-0.8-1.4-1.4c-0.3-0.6-0.5-1.3-0.5-2
	s0.2-1.4,0.5-2c0.3-0.6,0.8-1,1.4-1.3c0.6-0.3,1.3-0.5,2-0.5c0.7,0,1.3,0.1,1.8,0.4c0.5,0.3,1,0.7,1.3,1.2v-1.5H479.8z M475.8,504.9
	c0.6,0,1.1-0.1,1.5-0.4c0.5-0.2,0.8-0.6,1.1-1c0.3-0.4,0.4-0.9,0.4-1.5c0-0.6-0.1-1.1-0.4-1.5c-0.2-0.4-0.6-0.8-1.1-1
	c-0.4-0.2-1-0.4-1.5-0.4c-0.6,0-1.1,0.1-1.5,0.4c-0.4,0.2-0.8,0.6-1.1,1c-0.2,0.4-0.4,0.9-0.4,1.5c0,0.6,0.1,1.1,0.4,1.5
	c0.3,0.4,0.6,0.8,1.1,1C474.7,504.8,475.2,504.9,475.8,504.9z M489.8,498.3v7.9h-1v-1.4c-0.3,0.5-0.7,0.9-1.2,1.1
	c-0.5,0.3-1,0.4-1.7,0.4c-1,0-1.8-0.3-2.4-0.9c-0.6-0.6-0.9-1.4-0.9-2.5v-4.6h1.1v4.5c0,0.8,0.2,1.5,0.6,1.9c0.4,0.4,1,0.6,1.7,0.6
	c0.8,0,1.5-0.2,2-0.7c0.5-0.5,0.7-1.2,0.7-2.1v-4.1H489.8z M492.8,495.1h1.1v11.1h-1.1V495.1z M499.6,498.2c1,0,1.8,0.3,2.4,0.8
	c0.5,0.5,0.8,1.3,0.8,2.3v4.9h-1v-1.2c-0.2,0.4-0.6,0.7-1.1,1c-0.5,0.2-1,0.3-1.6,0.3c-0.9,0-1.6-0.2-2.1-0.6
	c-0.5-0.4-0.8-1-0.8-1.7c0-0.7,0.2-1.2,0.7-1.6c0.5-0.4,1.3-0.6,2.3-0.6h2.5v-0.5c0-0.7-0.2-1.2-0.6-1.5c-0.4-0.4-0.9-0.5-1.7-0.5
	c-0.5,0-1,0.1-1.4,0.3c-0.5,0.2-0.9,0.4-1.2,0.7l-0.5-0.8c0.4-0.3,0.9-0.6,1.4-0.8C498.4,498.3,499,498.2,499.6,498.2z M499.2,505.4
	c0.6,0,1.1-0.1,1.5-0.4c0.4-0.3,0.7-0.7,1-1.2v-1.3h-2.5c-1.3,0-2,0.5-2,1.4c0,0.5,0.2,0.8,0.5,1.1
	C498.1,505.3,498.6,505.4,499.2,505.4z M506.7,499.8c0.2-0.5,0.6-0.9,1.1-1.2c0.5-0.3,1.1-0.4,1.8-0.4v1l-0.3,0
	c-0.8,0-1.5,0.3-1.9,0.8s-0.7,1.2-0.7,2.1v4h-1.1v-7.9h1V499.8z"/>
<path d="M573.1,496.2c1.1,0,2,0.3,2.6,0.8c0.6,0.5,0.9,1.3,0.9,2.2c0,0.9-0.3,1.7-0.9,2.2c-0.6,0.5-1.5,0.8-2.6,0.8h-2.3v2.8h-0.9
	v-8.7H573.1z M573.1,501.4c0.9,0,1.5-0.2,2-0.6c0.5-0.4,0.7-0.9,0.7-1.6c0-0.7-0.2-1.2-0.7-1.6c-0.5-0.4-1.1-0.6-2-0.6h-2.3v4.4
	H573.1z M578.7,499.7c-0.2,0-0.3-0.1-0.5-0.2c-0.1-0.1-0.2-0.3-0.2-0.5s0.1-0.3,0.2-0.5c0.1-0.1,0.3-0.2,0.5-0.2
	c0.2,0,0.3,0.1,0.5,0.2c0.1,0.1,0.2,0.3,0.2,0.5s-0.1,0.4-0.2,0.5C579,499.6,578.9,499.7,578.7,499.7z M578.7,505
	c-0.2,0-0.3-0.1-0.5-0.2c-0.1-0.1-0.2-0.3-0.2-0.5c0-0.2,0.1-0.3,0.2-0.5c0.1-0.1,0.3-0.2,0.5-0.2c0.2,0,0.3,0.1,0.5,0.2
	c0.1,0.1,0.2,0.3,0.2,0.5c0,0.2-0.1,0.4-0.2,0.5C579,504.9,578.9,505,578.7,505z M593.8,496.2v8.7h-0.9v-7l-3.4,5.9H589l-3.4-5.8
	v6.9h-0.9v-8.7h0.8l3.8,6.5l3.7-6.5H593.8z M599.1,505c-0.6,0-1.2-0.1-1.7-0.4c-0.5-0.3-0.9-0.7-1.2-1.2c-0.3-0.5-0.4-1.1-0.4-1.7
	c0-0.6,0.1-1.2,0.4-1.7c0.3-0.5,0.7-0.9,1.2-1.2c0.5-0.3,1.1-0.4,1.7-0.4c0.6,0,1.2,0.1,1.7,0.4c0.5,0.3,0.9,0.7,1.2,1.2
	c0.3,0.5,0.4,1.1,0.4,1.7c0,0.6-0.1,1.2-0.4,1.7c-0.3,0.5-0.7,0.9-1.2,1.2C600.3,504.8,599.7,505,599.1,505z M599.1,504.2
	c0.5,0,0.9-0.1,1.2-0.3c0.4-0.2,0.7-0.5,0.9-0.9c0.2-0.4,0.3-0.8,0.3-1.3s-0.1-0.9-0.3-1.3c-0.2-0.4-0.5-0.7-0.9-0.9
	c-0.4-0.2-0.8-0.3-1.2-0.3c-0.5,0-0.9,0.1-1.3,0.3c-0.4,0.2-0.7,0.5-0.9,0.9c-0.2,0.4-0.3,0.8-0.3,1.3s0.1,0.9,0.3,1.3
	c0.2,0.4,0.5,0.7,0.9,0.9C598.2,504.1,598.6,504.2,599.1,504.2z M607.6,498.3c0.8,0,1.5,0.2,2,0.7c0.5,0.5,0.7,1.2,0.7,2.1v3.8h-0.9
	v-3.7c0-0.7-0.2-1.2-0.5-1.6c-0.3-0.4-0.8-0.5-1.5-0.5c-0.7,0-1.3,0.2-1.7,0.6c-0.4,0.4-0.6,1-0.6,1.7v3.4h-0.9v-6.6h0.8v1.2
	c0.2-0.4,0.6-0.7,1-0.9C606.5,498.4,607,498.3,607.6,498.3z M616.1,504.5c-0.2,0.1-0.4,0.3-0.6,0.3c-0.2,0.1-0.5,0.1-0.8,0.1
	c-0.6,0-1.1-0.2-1.4-0.5c-0.3-0.3-0.5-0.8-0.5-1.4v-4h-1.2v-0.7h1.2v-1.4h0.9v1.4h2v0.7h-2v3.9c0,0.4,0.1,0.7,0.3,0.9
	c0.2,0.2,0.5,0.3,0.8,0.3c0.2,0,0.4,0,0.5-0.1c0.2-0.1,0.3-0.1,0.4-0.2L616.1,504.5z M619.5,505c-0.5,0-1-0.1-1.5-0.2
	c-0.5-0.2-0.9-0.4-1.1-0.6l0.4-0.7c0.3,0.2,0.6,0.4,1,0.5c0.4,0.1,0.8,0.2,1.3,0.2c0.6,0,1-0.1,1.3-0.3c0.3-0.2,0.4-0.5,0.4-0.8
	c0-0.2-0.1-0.4-0.2-0.6c-0.2-0.1-0.4-0.2-0.6-0.3c-0.2-0.1-0.6-0.1-1-0.2c-0.5-0.1-1-0.2-1.3-0.3c-0.3-0.1-0.6-0.3-0.8-0.5
	c-0.2-0.2-0.3-0.6-0.3-1c0-0.5,0.2-1,0.7-1.3s1.1-0.5,1.9-0.5c0.4,0,0.8,0.1,1.3,0.2c0.4,0.1,0.8,0.3,1,0.4l-0.4,0.7
	c-0.5-0.4-1.2-0.6-1.9-0.6c-0.6,0-1,0.1-1.3,0.3c-0.3,0.2-0.4,0.5-0.4,0.8c0,0.2,0.1,0.4,0.2,0.6c0.2,0.1,0.4,0.3,0.6,0.3
	c0.2,0.1,0.6,0.1,1,0.2c0.5,0.1,0.9,0.2,1.3,0.3c0.3,0.1,0.6,0.3,0.8,0.5c0.2,0.2,0.3,0.6,0.3,1c0,0.6-0.2,1-0.7,1.4
	C621,504.8,620.3,505,619.5,505z M629.5,501.9H624c0,0.7,0.3,1.2,0.8,1.7c0.5,0.4,1.1,0.6,1.8,0.6c0.4,0,0.8-0.1,1.1-0.2
	c0.3-0.1,0.6-0.4,0.9-0.6l0.5,0.6c-0.3,0.3-0.7,0.6-1.1,0.8c-0.4,0.2-0.9,0.3-1.4,0.3c-0.7,0-1.3-0.1-1.8-0.4
	c-0.5-0.3-0.9-0.7-1.2-1.2s-0.4-1.1-0.4-1.7c0-0.6,0.1-1.2,0.4-1.7c0.3-0.5,0.7-0.9,1.1-1.2c0.5-0.3,1-0.4,1.6-0.4s1.2,0.1,1.6,0.4
	c0.5,0.3,0.9,0.7,1.1,1.2c0.3,0.5,0.4,1.1,0.4,1.7L629.5,501.9z M626.3,499.1c-0.6,0-1.2,0.2-1.6,0.6c-0.4,0.4-0.7,0.9-0.7,1.6h4.6
	c-0.1-0.6-0.3-1.2-0.7-1.6C627.5,499.3,627,499.1,626.3,499.1z M632.2,499.7c0.2-0.4,0.5-0.8,0.9-1c0.4-0.2,0.9-0.3,1.5-0.3v0.9
	l-0.2,0c-0.7,0-1.2,0.2-1.6,0.6c-0.4,0.4-0.6,1-0.6,1.8v3.3h-0.9v-6.6h0.8V499.7z M637.1,499.7c0.2-0.4,0.5-0.8,0.9-1
	s0.9-0.3,1.5-0.3v0.9l-0.2,0c-0.7,0-1.2,0.2-1.6,0.6c-0.4,0.4-0.6,1-0.6,1.8v3.3h-0.9v-6.6h0.8V499.7z M643.4,498.3
	c0.9,0,1.5,0.2,2,0.6c0.5,0.4,0.7,1.1,0.7,1.9v4.1h-0.8v-1c-0.2,0.3-0.5,0.6-0.9,0.8c-0.4,0.2-0.8,0.3-1.4,0.3
	c-0.7,0-1.3-0.2-1.7-0.5c-0.4-0.3-0.6-0.8-0.6-1.4c0-0.6,0.2-1,0.6-1.3c0.4-0.3,1-0.5,1.9-0.5h2.1v-0.4c0-0.6-0.2-1-0.5-1.3
	c-0.3-0.3-0.8-0.4-1.4-0.4c-0.4,0-0.8,0.1-1.2,0.2c-0.4,0.1-0.7,0.3-1,0.6l-0.4-0.7c0.3-0.3,0.7-0.5,1.2-0.6
	C642.4,498.4,642.9,498.3,643.4,498.3z M643.1,504.3c0.5,0,0.9-0.1,1.3-0.3c0.4-0.2,0.6-0.6,0.8-1v-1.1h-2.1c-1.1,0-1.7,0.4-1.7,1.2
	c0,0.4,0.1,0.7,0.4,0.9C642.2,504.2,642.6,504.3,643.1,504.3z M651.9,504.5c-0.2,0.1-0.4,0.3-0.6,0.3c-0.2,0.1-0.5,0.1-0.8,0.1
	c-0.6,0-1.1-0.2-1.4-0.5c-0.3-0.3-0.5-0.8-0.5-1.4v-4h-1.2v-0.7h1.2v-1.4h0.9v1.4h2v0.7h-2v3.9c0,0.4,0.1,0.7,0.3,0.9
	c0.2,0.2,0.5,0.3,0.8,0.3c0.2,0,0.4,0,0.5-0.1c0.2-0.1,0.3-0.1,0.4-0.2L651.9,504.5z M662.9,504.9l-2-2.8c-0.2,0-0.5,0-0.7,0h-2.3
	v2.8H657v-8.7h3.3c1.1,0,2,0.3,2.6,0.8c0.6,0.5,0.9,1.3,0.9,2.2c0,0.7-0.2,1.3-0.5,1.7c-0.3,0.5-0.8,0.8-1.5,1l2.1,3H662.9z
	 M660.2,501.4c0.9,0,1.5-0.2,2-0.6c0.5-0.4,0.7-0.9,0.7-1.6c0-0.7-0.2-1.2-0.7-1.6c-0.5-0.4-1.1-0.6-2-0.6h-2.3v4.4H660.2z
	 M671.5,501.9H666c0,0.7,0.3,1.2,0.8,1.7c0.5,0.4,1.1,0.6,1.8,0.6c0.4,0,0.8-0.1,1.1-0.2c0.3-0.1,0.6-0.4,0.9-0.6l0.5,0.6
	c-0.3,0.3-0.7,0.6-1.1,0.8c-0.4,0.2-0.9,0.3-1.4,0.3c-0.7,0-1.3-0.1-1.8-0.4c-0.5-0.3-0.9-0.7-1.2-1.2c-0.3-0.5-0.4-1.1-0.4-1.7
	c0-0.6,0.1-1.2,0.4-1.7c0.3-0.5,0.7-0.9,1.1-1.2c0.5-0.3,1-0.4,1.6-0.4c0.6,0,1.1,0.1,1.6,0.4c0.5,0.3,0.9,0.7,1.1,1.2
	c0.3,0.5,0.4,1.1,0.4,1.7L671.5,501.9z M668.3,499.1c-0.6,0-1.2,0.2-1.6,0.6c-0.4,0.4-0.7,0.9-0.7,1.6h4.6c-0.1-0.6-0.3-1.2-0.7-1.6
	C669.5,499.3,669,499.1,668.3,499.1z M679.4,498.4v5.8c0,1.1-0.3,1.9-0.8,2.5c-0.5,0.5-1.4,0.8-2.5,0.8c-0.6,0-1.2-0.1-1.7-0.3
	c-0.5-0.2-1-0.4-1.3-0.7l0.4-0.7c0.3,0.3,0.7,0.5,1.1,0.7c0.5,0.2,0.9,0.2,1.4,0.2c0.8,0,1.4-0.2,1.8-0.6c0.4-0.4,0.6-1,0.6-1.8
	v-0.8c-0.3,0.4-0.6,0.7-1.1,0.9c-0.4,0.2-0.9,0.3-1.5,0.3c-0.6,0-1.2-0.1-1.7-0.4c-0.5-0.3-0.9-0.7-1.2-1.1c-0.3-0.5-0.4-1-0.4-1.7
	c0-0.6,0.1-1.2,0.4-1.6c0.3-0.5,0.7-0.9,1.2-1.1c0.5-0.3,1.1-0.4,1.7-0.4c0.6,0,1.1,0.1,1.5,0.3s0.8,0.5,1.1,1v-1.3H679.4z
	 M676,503.9c0.5,0,0.9-0.1,1.3-0.3c0.4-0.2,0.7-0.5,0.9-0.9c0.2-0.4,0.3-0.8,0.3-1.2c0-0.5-0.1-0.9-0.3-1.2
	c-0.2-0.4-0.5-0.6-0.9-0.8c-0.4-0.2-0.8-0.3-1.3-0.3c-0.5,0-0.9,0.1-1.3,0.3c-0.4,0.2-0.7,0.5-0.9,0.8c-0.2,0.4-0.3,0.8-0.3,1.2
	c0,0.5,0.1,0.9,0.3,1.2c0.2,0.4,0.5,0.7,0.9,0.9C675.1,503.8,675.5,503.9,676,503.9z M687.7,498.4v6.6h-0.8v-1.2
	c-0.2,0.4-0.6,0.7-1,0.9c-0.4,0.2-0.9,0.3-1.4,0.3c-0.9,0-1.5-0.2-2-0.7c-0.5-0.5-0.7-1.2-0.7-2.1v-3.8h0.9v3.7
	c0,0.7,0.2,1.2,0.5,1.6c0.3,0.4,0.8,0.5,1.5,0.5c0.7,0,1.2-0.2,1.6-0.6c0.4-0.4,0.6-1,0.6-1.8v-3.4H687.7z M690.2,495.7h0.9v9.2
	h-0.9V495.7z M695.9,498.3c0.9,0,1.5,0.2,2,0.6c0.5,0.4,0.7,1.1,0.7,1.9v4.1h-0.8v-1c-0.2,0.3-0.5,0.6-0.9,0.8
	c-0.4,0.2-0.8,0.3-1.4,0.3c-0.7,0-1.3-0.2-1.7-0.5c-0.4-0.3-0.6-0.8-0.6-1.4c0-0.6,0.2-1,0.6-1.3c0.4-0.3,1-0.5,1.9-0.5h2.1v-0.4
	c0-0.6-0.2-1-0.5-1.3c-0.3-0.3-0.8-0.4-1.4-0.4c-0.4,0-0.8,0.1-1.2,0.2c-0.4,0.1-0.7,0.3-1,0.6l-0.4-0.7c0.3-0.3,0.7-0.5,1.2-0.6
	C694.9,498.4,695.3,498.3,695.9,498.3z M695.6,504.3c0.5,0,0.9-0.1,1.3-0.3c0.4-0.2,0.6-0.6,0.8-1v-1.1h-2.1c-1.1,0-1.7,0.4-1.7,1.2
	c0,0.4,0.1,0.7,0.4,0.9C694.6,504.2,695,504.3,695.6,504.3z M701.8,499.7c0.2-0.4,0.5-0.8,0.9-1c0.4-0.2,0.9-0.3,1.5-0.3v0.9l-0.2,0
	c-0.7,0-1.2,0.2-1.6,0.6c-0.4,0.4-0.6,1-0.6,1.8v3.3h-0.9v-6.6h0.8V499.7z"/>
<path d="M94.8,141.3c-1.3,0-2.5-0.3-3.5-0.9c-1-0.6-1.8-1.4-2.4-2.4c-0.6-1-0.9-2.2-0.9-3.4s0.3-2.4,0.9-3.4c0.6-1,1.4-1.8,2.5-2.4
	c1-0.6,2.2-0.9,3.5-0.9c1,0,1.9,0.2,2.7,0.5c0.8,0.3,1.5,0.8,2.1,1.4l-0.9,0.9c-1-1-2.3-1.6-3.9-1.6c-1,0-2,0.2-2.8,0.7
	s-1.5,1.1-2,1.9c-0.5,0.8-0.7,1.7-0.7,2.8s0.2,1.9,0.7,2.8c0.5,0.8,1.2,1.5,2,1.9s1.8,0.7,2.8,0.7c1.6,0,2.9-0.5,3.9-1.6l0.9,0.9
	c-0.6,0.6-1.3,1.1-2.1,1.4C96.7,141.1,95.8,141.3,94.8,141.3z M108,141.3c-1.3,0-2.5-0.3-3.5-0.9c-1-0.6-1.9-1.4-2.5-2.4
	c-0.6-1-0.9-2.1-0.9-3.4s0.3-2.4,0.9-3.4c0.6-1,1.4-1.8,2.5-2.4c1.1-0.6,2.2-0.9,3.5-0.9c1.3,0,2.5,0.3,3.5,0.9
	c1,0.6,1.9,1.4,2.5,2.4c0.6,1,0.9,2.1,0.9,3.4s-0.3,2.4-0.9,3.4c-0.6,1-1.4,1.8-2.5,2.4C110.4,141,109.3,141.3,108,141.3z
	 M108,140.1c1,0,2-0.2,2.8-0.7c0.8-0.5,1.5-1.1,2-1.9c0.5-0.8,0.7-1.8,0.7-2.8s-0.2-1.9-0.7-2.8c-0.5-0.8-1.1-1.5-2-1.9
	c-0.8-0.5-1.8-0.7-2.8-0.7c-1,0-2,0.2-2.8,0.7c-0.8,0.5-1.5,1.1-2,1.9c-0.5,0.8-0.7,1.7-0.7,2.8s0.2,1.9,0.7,2.8
	c0.5,0.8,1.1,1.5,2,1.9C106,139.8,107,140.1,108,140.1z M117.9,128.1h1.4V140h7.3v1.2h-8.7V128.1z M134.4,141.3
	c-1.3,0-2.5-0.3-3.5-0.9c-1-0.6-1.9-1.4-2.5-2.4c-0.6-1-0.9-2.1-0.9-3.4s0.3-2.4,0.9-3.4c0.6-1,1.4-1.8,2.5-2.4
	c1.1-0.6,2.2-0.9,3.5-0.9s2.5,0.3,3.5,0.9c1,0.6,1.9,1.4,2.5,2.4c0.6,1,0.9,2.1,0.9,3.4s-0.3,2.4-0.9,3.4c-0.6,1-1.4,1.8-2.5,2.4
	C136.9,141,135.7,141.3,134.4,141.3z M134.4,140.1c1,0,2-0.2,2.8-0.7c0.8-0.5,1.5-1.1,2-1.9c0.5-0.8,0.7-1.8,0.7-2.8
	s-0.2-1.9-0.7-2.8c-0.5-0.8-1.1-1.5-2-1.9c-0.8-0.5-1.8-0.7-2.8-0.7c-1,0-2,0.2-2.8,0.7c-0.8,0.5-1.5,1.1-2,1.9
	c-0.5,0.8-0.7,1.7-0.7,2.8s0.2,1.9,0.7,2.8c0.5,0.8,1.1,1.5,2,1.9C132.4,139.8,133.4,140.1,134.4,140.1z M153.3,141.2l-3-4.2
	c-0.3,0-0.7,0.1-1,0.1h-3.5v4.1h-1.4v-13.1h4.9c1.7,0,3,0.4,3.9,1.2s1.4,1.9,1.4,3.3c0,1-0.3,1.9-0.8,2.6c-0.5,0.7-1.2,1.2-2.2,1.5
	l3.2,4.5H153.3z M149.2,135.9c1.3,0,2.3-0.3,3-0.9c0.7-0.6,1-1.4,1-2.4c0-1.1-0.3-1.9-1-2.4c-0.7-0.6-1.7-0.9-3-0.9h-3.5v6.6H149.2z
	 M167.7,128.1c1.7,0,3,0.4,3.9,1.2c0.9,0.8,1.4,1.9,1.4,3.3c0,1.4-0.5,2.5-1.4,3.3c-0.9,0.8-2.3,1.2-3.9,1.2h-3.5v4.1h-1.4v-13.1
	H167.7z M167.6,135.8c1.3,0,2.3-0.3,3-0.8c0.7-0.6,1-1.4,1-2.4c0-1.1-0.3-1.9-1-2.4c-0.7-0.6-1.7-0.9-3-0.9h-3.5v6.5H167.6z
	 M183.5,137.7h-7.3l-1.6,3.5h-1.4l6-13.1h1.4l6,13.1h-1.5L183.5,137.7z M183,136.6l-3.1-7l-3.1,7H183z M188.7,128.1h1.4V140h7.3v1.2
	h-8.7V128.1z M209,140v1.2h-9.2v-13.1h9v1.2h-7.6v4.7h6.8v1.2h-6.8v4.9H209z M214.8,129.3h-4.6v-1.2h10.6v1.2h-4.6v11.9h-1.4V129.3z
	 M225.7,129.3h-4.6v-1.2h10.6v1.2h-4.6v11.9h-1.4V129.3z M243.1,140v1.2h-9.2v-13.1h9v1.2h-7.6v4.7h6.8v1.2h-6.8v4.9H243.1z"/>
<path d="M89.5,56.7H99c2.3,0,4.3,0.4,6,1.3c1.8,0.9,3.1,2.1,4.1,3.6c1,1.6,1.5,3.4,1.5,5.5s-0.5,3.9-1.5,5.5c-1,1.6-2.3,2.8-4.1,3.7
	c-1.7,0.9-3.7,1.3-6,1.3h-9.5V56.7z M98.7,73.7c2.1,0,3.8-0.6,5-1.7c1.3-1.2,1.9-2.8,1.9-4.8c0-2-0.6-3.6-1.9-4.7
	c-1.2-1.2-2.9-1.8-5-1.8h-4.4v13H98.7z M130.4,73.8v3.9h-16.2V56.7H130v3.9h-11v4.5h9.7v3.8H119v4.8H130.4z M141.1,78
	c-1.7,0-3.3-0.2-4.8-0.7c-1.5-0.5-2.8-1-3.7-1.8l1.6-3.6c0.9,0.7,2,1.2,3.2,1.6c1.2,0.4,2.5,0.6,3.7,0.6c1.4,0,2.4-0.2,3-0.6
	c0.7-0.4,1-1,1-1.6c0-0.5-0.2-0.9-0.6-1.2c-0.4-0.3-0.9-0.6-1.5-0.8c-0.6-0.2-1.4-0.4-2.5-0.7c-1.6-0.4-2.9-0.8-3.9-1.1
	c-1-0.4-1.9-1-2.6-1.8c-0.7-0.8-1.1-2-1.1-3.3c0-1.2,0.3-2.3,1-3.3c0.7-1,1.6-1.8,3-2.4c1.3-0.6,3-0.9,4.9-0.9
	c1.3,0,2.6,0.2,3.9,0.5c1.3,0.3,2.4,0.8,3.3,1.4l-1.5,3.7c-1.9-1.1-3.9-1.6-5.8-1.6c-1.4,0-2.4,0.2-3,0.7c-0.6,0.4-1,1-1,1.7
	c0,0.7,0.4,1.3,1.1,1.6c0.8,0.3,1.9,0.7,3.4,1c1.6,0.4,2.9,0.8,3.9,1.1c1,0.4,1.9,1,2.6,1.8c0.7,0.8,1.1,1.9,1.1,3.3
	c0,1.2-0.3,2.3-1,3.3c-0.7,1-1.7,1.8-3,2.3C144.6,77.7,143,78,141.1,78z M153.3,56.7h4.8v20.9h-4.8V56.7z M177.2,66.9h4.4v8.5
	c-1.1,0.9-2.5,1.5-3.9,2c-1.5,0.5-3,0.7-4.5,0.7c-2.2,0-4.1-0.5-5.9-1.4c-1.7-0.9-3.1-2.2-4.1-3.9c-1-1.7-1.5-3.5-1.5-5.6
	c0-2.1,0.5-3.9,1.5-5.6c1-1.7,2.4-2.9,4.1-3.9c1.8-0.9,3.7-1.4,5.9-1.4c1.8,0,3.5,0.3,5,0.9c1.5,0.6,2.8,1.5,3.8,2.7l-3.1,2.9
	c-1.5-1.6-3.3-2.4-5.4-2.4c-1.3,0-2.5,0.3-3.6,0.8c-1,0.6-1.8,1.3-2.4,2.4c-0.6,1-0.9,2.2-0.9,3.5c0,1.3,0.3,2.5,0.9,3.5
	c0.6,1,1.4,1.8,2.4,2.4c1,0.6,2.2,0.8,3.5,0.8c1.4,0,2.7-0.3,3.8-0.9V66.9z M205.4,56.7v20.9h-4L190.9,65v12.7h-4.8V56.7h4
	l10.4,12.7V56.7H205.4z M227.8,56.7c1.9,0,3.5,0.3,4.8,0.9c1.4,0.6,2.4,1.5,3.2,2.6c0.7,1.1,1.1,2.5,1.1,4c0,1.5-0.4,2.9-1.1,4
	c-0.7,1.1-1.8,2-3.2,2.6c-1.4,0.6-3,0.9-4.8,0.9h-4.2v5.8h-4.8V56.7H227.8z M227.6,67.9c1.5,0,2.6-0.3,3.3-0.9
	c0.8-0.6,1.1-1.5,1.1-2.7c0-1.2-0.4-2.1-1.1-2.7c-0.8-0.6-1.9-1-3.3-1h-3.9v7.3H227.6z M253.1,73.2h-9.7l-1.9,4.5h-5l9.3-20.9h4.8
	l9.4,20.9H255L253.1,73.2z M251.6,69.5l-3.3-8l-3.3,8H251.6z M262.2,56.7h4.8v17h10.5v3.9h-15.3V56.7z M296.5,73.8v3.9h-16.2V56.7
	h15.8v3.9h-11v4.5h9.7v3.8h-9.7v4.8H296.5z M304.7,60.7H298v-3.9h18.2v3.9h-6.7v17h-4.8V60.7z M323.4,60.7h-6.7v-3.9H335v3.9h-6.7
	v17h-4.8V60.7z M353.8,73.8v3.9h-16.2V56.7h15.8v3.9h-11v4.5h9.7v3.8h-9.7v4.8H353.8z"/>
<path class="st8" d="M115.2,222.6l-0.3,2.1h1.4v0.5h-1.5l-0.2,1.9h-0.5l0.2-1.9h-2l-0.2,1.9h-0.5l0.2-1.9h-1.4v-0.5h1.5l0.3-2.1
	h-1.4v-0.5h1.5l0.2-1.9h0.5l-0.2,1.9h2.1l0.2-1.9h0.5l-0.2,1.9h1.4v0.5H115.2z M114.7,222.6h-2l-0.3,2.1h2.1L114.7,222.6z
	 M123.4,225.3H122v1.8h-0.7v-1.8h-3.9v-0.5l3.7-4.6h0.8l-3.6,4.5h3v-1.6h0.7v1.6h1.4V225.3z M126.9,227.2c-0.5,0-1-0.1-1.4-0.4
	c-0.4-0.3-0.7-0.7-1-1.2c-0.2-0.5-0.3-1.2-0.3-1.9s0.1-1.4,0.3-1.9c0.2-0.5,0.6-0.9,1-1.2c0.4-0.3,0.9-0.4,1.4-0.4
	c0.5,0,1,0.1,1.4,0.4c0.4,0.3,0.8,0.7,1,1.2c0.2,0.5,0.4,1.2,0.4,1.9s-0.1,1.4-0.4,1.9c-0.2,0.5-0.6,0.9-1,1.2
	C127.9,227.1,127.4,227.2,126.9,227.2z M126.9,226.5c0.4,0,0.8-0.1,1.1-0.3c0.3-0.2,0.6-0.6,0.7-1c0.2-0.4,0.3-1,0.3-1.6
	c0-0.6-0.1-1.1-0.3-1.6c-0.2-0.4-0.4-0.8-0.7-1c-0.3-0.2-0.7-0.3-1.1-0.3c-0.4,0-0.8,0.1-1.1,0.3c-0.3,0.2-0.5,0.6-0.7,1
	c-0.2,0.4-0.3,1-0.3,1.6c0,0.6,0.1,1.1,0.3,1.6c0.2,0.4,0.4,0.8,0.7,1C126.1,226.4,126.5,226.5,126.9,226.5z M135.6,225.3h-3.9
	l-0.8,1.9h-0.8l3.2-7h0.7l3.2,7h-0.8L135.6,225.3z M135.3,224.7l-1.7-3.7l-1.7,3.7H135.3z M139.8,220.1c0.9,0,1.6,0.3,2.1,0.9
	c0.5,0.6,0.7,1.5,0.7,2.6c0,0.8-0.1,1.4-0.4,2c-0.3,0.5-0.6,0.9-1.1,1.2c-0.5,0.3-1,0.4-1.7,0.4c-0.7,0-1.2-0.1-1.7-0.4l0.3-0.6
	c0.3,0.2,0.8,0.3,1.4,0.3c0.8,0,1.4-0.2,1.8-0.7c0.4-0.5,0.7-1.2,0.7-2.1c0-0.2,0-0.4,0-0.6c-0.2,0.4-0.4,0.7-0.8,0.9
	c-0.4,0.2-0.8,0.3-1.3,0.3c-0.5,0-0.9-0.1-1.2-0.3c-0.4-0.2-0.6-0.4-0.8-0.7c-0.2-0.3-0.3-0.7-0.3-1.1c0-0.4,0.1-0.8,0.3-1.1
	c0.2-0.3,0.5-0.6,0.8-0.7C138.9,220.2,139.3,220.1,139.8,220.1z M139.9,223.7c0.4,0,0.7-0.1,0.9-0.2c0.3-0.1,0.5-0.3,0.6-0.5
	s0.2-0.5,0.2-0.8c0-0.3-0.1-0.5-0.2-0.7c-0.1-0.2-0.3-0.4-0.6-0.5c-0.3-0.1-0.6-0.2-1-0.2c-0.5,0-0.9,0.1-1.2,0.4
	c-0.3,0.3-0.5,0.6-0.5,1.1c0,0.5,0.2,0.8,0.5,1.1C138.9,223.6,139.3,223.7,139.9,223.7z M145,220.8v2.7h3.6v0.6H145v3h-0.7v-7h4.8
	v0.6H145z M151.3,220.8v2.7h3.6v0.6h-3.6v3h-0.7v-7h4.8v0.6H151.3z"/>
<path d="M102.7,334.7l-0.2,1.8h1.2v0.5h-1.3l-0.2,1.7h-0.5l0.2-1.7h-1.8l-0.2,1.7h-0.5l0.2-1.7h-1.2v-0.5h1.3l0.2-1.8h-1.2v-0.5h1.3
	l0.2-1.7h0.5l-0.2,1.7h1.8l0.2-1.7h0.5l-0.2,1.7h1.2v0.5H102.7z M102.2,334.7h-1.8l-0.2,1.8h1.8L102.2,334.7z M105.9,333.1v2.4h3.2
	v0.6h-3.2v2.6h-0.6v-6.1h4.2v0.6H105.9z M111.4,333.1v2.4h3.2v0.6h-3.2v2.6h-0.6v-6.1h4.2v0.6H111.4z M116.9,333.1v2.4h3.2v0.6h-3.2
	v2.6h-0.6v-6.1h4.2v0.6H116.9z M122.5,333.1v2.4h3.2v0.6h-3.2v2.6h-0.6v-6.1h4.2v0.6H122.5z M128,333.1v2.4h3.2v0.6H128v2.6h-0.6
	v-6.1h4.2v0.6H128z M133.5,333.1v2.4h3.2v0.6h-3.2v2.6h-0.6v-6.1h4.2v0.6H133.5z"/>
<path class="st8" d="M173.1,334.7l-0.2,1.8h1.2v0.5h-1.3l-0.2,1.7h-0.5l0.2-1.7h-1.8l-0.2,1.7h-0.5l0.2-1.7h-1.2v-0.5h1.3l0.2-1.8
	h-1.2v-0.5h1.3l0.2-1.7h0.5l-0.2,1.7h1.8l0.2-1.7h0.5l-0.2,1.7h1.2v0.5H173.1z M172.6,334.7h-1.8l-0.2,1.8h1.8L172.6,334.7z
	 M179.5,335.5c0.4,0.1,0.7,0.3,0.9,0.5c0.2,0.3,0.3,0.6,0.3,1c0,0.5-0.2,0.9-0.6,1.2c-0.4,0.3-1,0.4-1.7,0.4h-2.8v-6.1h2.6
	c0.7,0,1.2,0.1,1.6,0.4c0.4,0.3,0.6,0.7,0.6,1.2c0,0.3-0.1,0.6-0.3,0.9C180,335.2,179.8,335.4,179.5,335.5z M176.3,333.1v2.2h1.9
	c0.5,0,0.9-0.1,1.1-0.3c0.3-0.2,0.4-0.5,0.4-0.8s-0.1-0.6-0.4-0.8c-0.3-0.2-0.6-0.3-1.1-0.3H176.3z M178.4,338.1
	c0.5,0,1-0.1,1.2-0.3c0.3-0.2,0.4-0.5,0.4-0.9c0-0.8-0.6-1.1-1.7-1.1h-2.2v2.3H178.4z M182.9,333.1v2.4h3.2v0.6h-3.2v2.6h-0.6v-6.1
	h4.2v0.6H182.9z M191.6,335.5c0.4,0.1,0.7,0.3,0.9,0.5c0.2,0.3,0.3,0.6,0.3,1c0,0.5-0.2,0.9-0.6,1.2c-0.4,0.3-1,0.4-1.7,0.4h-2.8
	v-6.1h2.6c0.7,0,1.2,0.1,1.6,0.4c0.4,0.3,0.6,0.7,0.6,1.2c0,0.3-0.1,0.6-0.3,0.9C192.1,335.2,191.9,335.4,191.6,335.5z M188.4,333.1
	v2.2h1.9c0.5,0,0.9-0.1,1.1-0.3c0.3-0.2,0.4-0.5,0.4-0.8s-0.1-0.6-0.4-0.8c-0.3-0.2-0.6-0.3-1.1-0.3H188.4z M190.5,338.1
	c0.5,0,1-0.1,1.2-0.3c0.3-0.2,0.4-0.5,0.4-0.9c0-0.8-0.6-1.1-1.7-1.1h-2.2v2.3H190.5z M195,333.1v2.4h3.2v0.6H195v2.6h-0.6v-6.1h4.2
	v0.6H195z M203.7,335.5c0.4,0.1,0.7,0.3,0.9,0.5c0.2,0.3,0.3,0.6,0.3,1c0,0.5-0.2,0.9-0.6,1.2c-0.4,0.3-1,0.4-1.7,0.4h-2.8v-6.1h2.6
	c0.7,0,1.2,0.1,1.6,0.4c0.4,0.3,0.6,0.7,0.6,1.2c0,0.3-0.1,0.6-0.3,0.9C204.2,335.2,204,335.4,203.7,335.5z M200.5,333.1v2.2h1.9
	c0.5,0,0.9-0.1,1.1-0.3c0.3-0.2,0.4-0.5,0.4-0.8s-0.1-0.6-0.4-0.8c-0.3-0.2-0.6-0.3-1.1-0.3H200.5z M202.6,338.1
	c0.5,0,1-0.1,1.2-0.3c0.3-0.2,0.4-0.5,0.4-0.9c0-0.8-0.6-1.1-1.7-1.1h-2.2v2.3H202.6z M207,333.1v2.4h3.2v0.6H207v2.6h-0.6v-6.1h4.2
	v0.6H207z"/>
<path class="st8" d="M246,334.7l-0.2,1.8h1.2v0.5h-1.3l-0.2,1.7H245l0.2-1.7h-1.8l-0.2,1.7h-0.5l0.2-1.7h-1.2v-0.5h1.3l0.2-1.8H242
	v-0.5h1.3l0.2-1.7h0.5l-0.2,1.7h1.8l0.2-1.7h0.5l-0.2,1.7h1.2v0.5H246z M245.5,334.7h-1.8l-0.2,1.8h1.8L245.5,334.7z M250.4,338.7
	c-0.5,0-0.9-0.1-1.3-0.4c-0.4-0.2-0.7-0.6-0.9-1.1c-0.2-0.5-0.3-1-0.3-1.7s0.1-1.2,0.3-1.6c0.2-0.5,0.5-0.8,0.9-1.1
	c0.4-0.2,0.8-0.4,1.3-0.4c0.5,0,0.9,0.1,1.3,0.4c0.4,0.2,0.7,0.6,0.9,1.1c0.2,0.5,0.3,1,0.3,1.6s-0.1,1.2-0.3,1.7
	c-0.2,0.5-0.5,0.8-0.9,1.1C251.3,338.6,250.9,338.7,250.4,338.7z M250.4,338.1c0.4,0,0.7-0.1,0.9-0.3c0.3-0.2,0.5-0.5,0.6-0.9
	c0.2-0.4,0.2-0.8,0.2-1.4s-0.1-1-0.2-1.4c-0.2-0.4-0.4-0.7-0.6-0.9c-0.3-0.2-0.6-0.3-0.9-0.3c-0.4,0-0.7,0.1-0.9,0.3
	c-0.3,0.2-0.5,0.5-0.6,0.9c-0.2,0.4-0.2,0.8-0.2,1.4s0.1,1,0.2,1.4s0.4,0.7,0.6,0.9C249.7,338,250.1,338.1,250.4,338.1z
	 M256.2,338.7c-0.5,0-0.9-0.1-1.3-0.4c-0.4-0.2-0.7-0.6-0.9-1.1c-0.2-0.5-0.3-1-0.3-1.7s0.1-1.2,0.3-1.6c0.2-0.5,0.5-0.8,0.9-1.1
	c0.4-0.2,0.8-0.4,1.3-0.4c0.5,0,0.9,0.1,1.3,0.4c0.4,0.2,0.7,0.6,0.9,1.1c0.2,0.5,0.3,1,0.3,1.6s-0.1,1.2-0.3,1.7
	c-0.2,0.5-0.5,0.8-0.9,1.1C257.1,338.6,256.7,338.7,256.2,338.7z M256.2,338.1c0.4,0,0.7-0.1,0.9-0.3c0.3-0.2,0.5-0.5,0.6-0.9
	c0.2-0.4,0.2-0.8,0.2-1.4s-0.1-1-0.2-1.4c-0.2-0.4-0.4-0.7-0.6-0.9c-0.3-0.2-0.6-0.3-0.9-0.3c-0.4,0-0.7,0.1-0.9,0.3
	c-0.3,0.2-0.5,0.5-0.6,0.9c-0.2,0.4-0.2,0.8-0.2,1.4s0.1,1,0.2,1.4c0.2,0.4,0.4,0.7,0.6,0.9C255.5,338,255.8,338.1,256.2,338.1z
	 M262,338.7c-0.5,0-0.9-0.1-1.3-0.4c-0.4-0.2-0.7-0.6-0.9-1.1c-0.2-0.5-0.3-1-0.3-1.7s0.1-1.2,0.3-1.6c0.2-0.5,0.5-0.8,0.9-1.1
	c0.4-0.2,0.8-0.4,1.3-0.4s0.9,0.1,1.3,0.4c0.4,0.2,0.7,0.6,0.9,1.1c0.2,0.5,0.3,1,0.3,1.6s-0.1,1.2-0.3,1.7
	c-0.2,0.5-0.5,0.8-0.9,1.1C262.8,338.6,262.4,338.7,262,338.7z M262,338.1c0.4,0,0.7-0.1,0.9-0.3c0.3-0.2,0.5-0.5,0.6-0.9
	c0.2-0.4,0.2-0.8,0.2-1.4s-0.1-1-0.2-1.4c-0.2-0.4-0.4-0.7-0.6-0.9c-0.3-0.2-0.6-0.3-0.9-0.3s-0.7,0.1-0.9,0.3
	c-0.3,0.2-0.5,0.5-0.6,0.9c-0.2,0.4-0.2,0.8-0.2,1.4s0.1,1,0.2,1.4c0.2,0.4,0.4,0.7,0.6,0.9C261.3,338,261.6,338.1,262,338.1z
	 M267.7,338.7c-0.5,0-0.9-0.1-1.3-0.4c-0.4-0.2-0.7-0.6-0.9-1.1c-0.2-0.5-0.3-1-0.3-1.7s0.1-1.2,0.3-1.6c0.2-0.5,0.5-0.8,0.9-1.1
	c0.4-0.2,0.8-0.4,1.3-0.4s0.9,0.1,1.3,0.4c0.4,0.2,0.7,0.6,0.9,1.1c0.2,0.5,0.3,1,0.3,1.6s-0.1,1.2-0.3,1.7
	c-0.2,0.5-0.5,0.8-0.9,1.1C268.6,338.6,268.2,338.7,267.7,338.7z M267.7,338.1c0.4,0,0.7-0.1,0.9-0.3c0.3-0.2,0.5-0.5,0.6-0.9
	c0.2-0.4,0.2-0.8,0.2-1.4s-0.1-1-0.2-1.4c-0.2-0.4-0.4-0.7-0.6-0.9c-0.3-0.2-0.6-0.3-0.9-0.3c-0.4,0-0.7,0.1-0.9,0.3
	c-0.3,0.2-0.5,0.5-0.6,0.9c-0.2,0.4-0.2,0.8-0.2,1.4s0.1,1,0.2,1.4c0.2,0.4,0.4,0.7,0.6,0.9C267.1,338,267.4,338.1,267.7,338.1z
	 M273.5,338.7c-0.5,0-0.9-0.1-1.3-0.4c-0.4-0.2-0.7-0.6-0.9-1.1c-0.2-0.5-0.3-1-0.3-1.7s0.1-1.2,0.3-1.6c0.2-0.5,0.5-0.8,0.9-1.1
	c0.4-0.2,0.8-0.4,1.3-0.4c0.5,0,0.9,0.1,1.3,0.4c0.4,0.2,0.7,0.6,0.9,1.1c0.2,0.5,0.3,1,0.3,1.6s-0.1,1.2-0.3,1.7
	c-0.2,0.5-0.5,0.8-0.9,1.1C274.4,338.6,274,338.7,273.5,338.7z M273.5,338.1c0.4,0,0.7-0.1,0.9-0.3c0.3-0.2,0.5-0.5,0.6-0.9
	c0.2-0.4,0.2-0.8,0.2-1.4s-0.1-1-0.2-1.4c-0.2-0.4-0.4-0.7-0.6-0.9c-0.3-0.2-0.6-0.3-0.9-0.3c-0.4,0-0.7,0.1-0.9,0.3
	c-0.3,0.2-0.5,0.5-0.6,0.9c-0.2,0.4-0.2,0.8-0.2,1.4s0.1,1,0.2,1.4c0.2,0.4,0.4,0.7,0.6,0.9C272.8,338,273.1,338.1,273.5,338.1z
	 M279.3,338.7c-0.5,0-0.9-0.1-1.3-0.4c-0.4-0.2-0.7-0.6-0.9-1.1c-0.2-0.5-0.3-1-0.3-1.7s0.1-1.2,0.3-1.6c0.2-0.5,0.5-0.8,0.9-1.1
	c0.4-0.2,0.8-0.4,1.3-0.4s0.9,0.1,1.3,0.4c0.4,0.2,0.7,0.6,0.9,1.1c0.2,0.5,0.3,1,0.3,1.6s-0.1,1.2-0.3,1.7
	c-0.2,0.5-0.5,0.8-0.9,1.1C280.2,338.6,279.7,338.7,279.3,338.7z M279.3,338.1c0.4,0,0.7-0.1,0.9-0.3c0.3-0.2,0.5-0.5,0.6-0.9
	c0.2-0.4,0.2-0.8,0.2-1.4s-0.1-1-0.2-1.4c-0.2-0.4-0.4-0.7-0.6-0.9c-0.3-0.2-0.6-0.3-0.9-0.3c-0.4,0-0.7,0.1-0.9,0.3
	c-0.3,0.2-0.5,0.5-0.6,0.9c-0.2,0.4-0.2,0.8-0.2,1.4s0.1,1,0.2,1.4c0.2,0.4,0.4,0.7,0.6,0.9C278.6,338,278.9,338.1,279.3,338.1z"/>
<path class="st8" d="M229.8,222.6l-0.3,2.1h1.4v0.5h-1.5l-0.2,1.9h-0.5l0.2-1.9h-2l-0.2,1.9h-0.5l0.2-1.9h-1.4v-0.5h1.5l0.3-2.1
	h-1.4v-0.5h1.5l0.2-1.9h0.5l-0.2,1.9h2.1l0.2-1.9h0.5l-0.2,1.9h1.4v0.5H229.8z M229.3,222.6h-2l-0.3,2.1h2.1L229.3,222.6z
	 M234,220.2v7h-0.7v-6.3h-1.6v-0.6H234z M239.7,223.5c0.4,0.1,0.8,0.4,1,0.7c0.2,0.3,0.4,0.6,0.4,1.1c0,0.4-0.1,0.8-0.3,1.1
	c-0.2,0.3-0.5,0.5-0.9,0.7c-0.4,0.2-0.9,0.2-1.4,0.2c-0.8,0-1.5-0.2-2-0.5c-0.5-0.4-0.7-0.8-0.7-1.5c0-0.4,0.1-0.8,0.3-1.1
	c0.2-0.3,0.6-0.5,1-0.7c-0.4-0.1-0.6-0.3-0.8-0.6c-0.2-0.3-0.3-0.6-0.3-0.9c0-0.6,0.2-1,0.7-1.3c0.4-0.3,1-0.5,1.8-0.5
	c0.5,0,0.9,0.1,1.3,0.2c0.4,0.1,0.7,0.4,0.9,0.6c0.2,0.3,0.3,0.6,0.3,1c0,0.4-0.1,0.7-0.3,0.9C240.3,223.1,240,223.3,239.7,223.5z
	 M236.6,222c0,0.4,0.2,0.7,0.5,0.9c0.3,0.2,0.7,0.3,1.3,0.3c0.5,0,1-0.1,1.3-0.3c0.3-0.2,0.5-0.5,0.5-0.9c0-0.4-0.2-0.7-0.5-0.9
	c-0.3-0.2-0.7-0.3-1.3-0.3c-0.5,0-1,0.1-1.3,0.3C236.8,221.3,236.6,221.6,236.6,222z M238.3,226.6c0.6,0,1.1-0.1,1.4-0.4
	c0.4-0.3,0.5-0.6,0.5-1c0-0.4-0.2-0.8-0.5-1c-0.3-0.3-0.8-0.4-1.4-0.4c-0.6,0-1.1,0.1-1.4,0.4c-0.3,0.2-0.5,0.6-0.5,1
	c0,0.4,0.2,0.8,0.5,1C237.2,226.5,237.7,226.6,238.3,226.6z M244.2,220.1c0.9,0,1.6,0.3,2.1,0.9c0.5,0.6,0.7,1.5,0.7,2.6
	c0,0.8-0.1,1.4-0.4,2c-0.3,0.5-0.6,0.9-1.1,1.2c-0.5,0.3-1,0.4-1.7,0.4c-0.7,0-1.2-0.1-1.7-0.4l0.3-0.6c0.3,0.2,0.8,0.3,1.4,0.3
	c0.8,0,1.4-0.2,1.8-0.7c0.4-0.5,0.7-1.2,0.7-2.1c0-0.2,0-0.4,0-0.6c-0.2,0.4-0.4,0.7-0.8,0.9c-0.4,0.2-0.8,0.3-1.3,0.3
	c-0.5,0-0.9-0.1-1.2-0.3c-0.4-0.2-0.6-0.4-0.8-0.7c-0.2-0.3-0.3-0.7-0.3-1.1c0-0.4,0.1-0.8,0.3-1.1c0.2-0.3,0.5-0.6,0.8-0.7
	C243.4,220.2,243.8,220.1,244.2,220.1z M244.3,223.7c0.4,0,0.7-0.1,0.9-0.2c0.3-0.1,0.5-0.3,0.6-0.5c0.2-0.2,0.2-0.5,0.2-0.8
	c0-0.3-0.1-0.5-0.2-0.7c-0.1-0.2-0.3-0.4-0.6-0.5c-0.3-0.1-0.6-0.2-1-0.2c-0.5,0-0.9,0.1-1.2,0.4c-0.3,0.3-0.5,0.6-0.5,1.1
	c0,0.5,0.2,0.8,0.5,1.1C243.3,223.6,243.8,223.7,244.3,223.7z M250.9,227.2c-0.5,0-1-0.1-1.4-0.4c-0.4-0.3-0.7-0.7-1-1.2
	c-0.2-0.5-0.3-1.2-0.3-1.9s0.1-1.4,0.3-1.9c0.2-0.5,0.6-0.9,1-1.2c0.4-0.3,0.9-0.4,1.4-0.4c0.5,0,1,0.1,1.4,0.4
	c0.4,0.3,0.8,0.7,1,1.2c0.2,0.5,0.4,1.2,0.4,1.9s-0.1,1.4-0.4,1.9c-0.2,0.5-0.6,0.9-1,1.2C251.9,227.1,251.4,227.2,250.9,227.2z
	 M250.9,226.5c0.4,0,0.8-0.1,1.1-0.3c0.3-0.2,0.6-0.6,0.7-1c0.2-0.4,0.3-1,0.3-1.6c0-0.6-0.1-1.1-0.3-1.6c-0.2-0.4-0.4-0.8-0.7-1
	c-0.3-0.2-0.7-0.3-1.1-0.3c-0.4,0-0.8,0.1-1.1,0.3c-0.3,0.2-0.5,0.6-0.7,1c-0.2,0.4-0.3,1-0.3,1.6c0,0.6,0.1,1.1,0.3,1.6
	c0.2,0.4,0.4,0.8,0.7,1C250.1,226.4,250.5,226.5,250.9,226.5z M256.1,220.8v2.7h3.6v0.6h-3.6v3h-0.7v-7h4.8v0.6H256.1z M262.4,220.8
	v2.7h3.6v0.6h-3.6v3h-0.7v-7h4.8v0.6H262.4z"/>
<path class="st8" d="M341.9,222.6l-0.3,2.1h1.4v0.5h-1.5l-0.2,1.9h-0.5l0.2-1.9h-2l-0.2,1.9h-0.5l0.2-1.9H337v-0.5h1.5l0.3-2.1h-1.4
	v-0.5h1.5l0.2-1.9h0.5l-0.2,1.9h2.1l0.2-1.9h0.5l-0.2,1.9h1.4v0.5H341.9z M341.4,222.6h-2l-0.3,2.1h2.1L341.4,222.6z M346,223
	c1,0,1.7,0.2,2.2,0.5c0.5,0.4,0.7,0.9,0.7,1.5c0,0.4-0.1,0.8-0.3,1.1c-0.2,0.3-0.5,0.6-0.8,0.8c-0.4,0.2-0.8,0.3-1.4,0.3
	c-0.5,0-1-0.1-1.4-0.2c-0.4-0.2-0.8-0.4-1.1-0.7l0.3-0.6c0.2,0.2,0.5,0.4,0.9,0.6c0.4,0.1,0.8,0.2,1.2,0.2c0.6,0,1-0.1,1.3-0.4
	c0.3-0.3,0.5-0.6,0.5-1c0-0.5-0.2-0.8-0.5-1.1c-0.4-0.2-1-0.4-1.8-0.4h-1.5l0.4-3.5h3.8v0.6h-3.2l-0.2,2.2H346z M352,220.1
	c0.9,0,1.6,0.3,2.1,0.9c0.5,0.6,0.7,1.5,0.7,2.6c0,0.8-0.1,1.4-0.4,2c-0.3,0.5-0.6,0.9-1.1,1.2c-0.5,0.3-1,0.4-1.7,0.4
	c-0.7,0-1.2-0.1-1.7-0.4l0.3-0.6c0.3,0.2,0.8,0.3,1.4,0.3c0.8,0,1.4-0.2,1.8-0.7c0.4-0.5,0.7-1.2,0.7-2.1c0-0.2,0-0.4,0-0.6
	c-0.2,0.4-0.4,0.7-0.8,0.9c-0.4,0.2-0.8,0.3-1.3,0.3c-0.5,0-0.9-0.1-1.2-0.3c-0.4-0.2-0.6-0.4-0.8-0.7c-0.2-0.3-0.3-0.7-0.3-1.1
	c0-0.4,0.1-0.8,0.3-1.1c0.2-0.3,0.5-0.6,0.8-0.7C351.2,220.2,351.6,220.1,352,220.1z M352.1,223.7c0.4,0,0.7-0.1,0.9-0.2
	c0.3-0.1,0.5-0.3,0.6-0.5s0.2-0.5,0.2-0.8c0-0.3-0.1-0.5-0.2-0.7c-0.1-0.2-0.3-0.4-0.6-0.5c-0.3-0.1-0.6-0.2-1-0.2
	c-0.5,0-0.9,0.1-1.2,0.4c-0.3,0.3-0.5,0.6-0.5,1.1c0,0.5,0.2,0.8,0.5,1.1C351.1,223.6,351.6,223.7,352.1,223.7z M360.8,220.2v0.5
	l-2.9,6.5h-0.8l2.9-6.3h-3.6v1.3h-0.7v-1.9H360.8z M367.3,226.5v0.6h-4.9v-7h4.8v0.6h-4v2.5h3.6v0.6h-3.6v2.6H367.3z M369.7,220.8
	v2.7h3.6v0.6h-3.6v3H369v-7h4.8v0.6H369.7z M379.7,220.2v0.5l-2.9,6.5H376l2.9-6.3h-3.6v1.3h-0.7v-1.9H379.7z"/>
<path class="st8" d="M454.6,222.6l-0.3,2.1h1.4v0.5h-1.5l-0.2,1.9h-0.5l0.2-1.9h-2l-0.2,1.9H451l0.2-1.9h-1.4v-0.5h1.5l0.3-2.1h-1.4
	v-0.5h1.5l0.2-1.9h0.5l-0.2,1.9h2.1l0.2-1.9h0.5l-0.2,1.9h1.4v0.5H454.6z M454.1,222.6h-2l-0.3,2.1h2.1L454.1,222.6z M458.8,223
	c1,0,1.7,0.2,2.2,0.5c0.5,0.4,0.7,0.9,0.7,1.5c0,0.4-0.1,0.8-0.3,1.1c-0.2,0.3-0.5,0.6-0.8,0.8c-0.4,0.2-0.8,0.3-1.4,0.3
	c-0.5,0-1-0.1-1.4-0.2c-0.4-0.2-0.8-0.4-1.1-0.7l0.3-0.6c0.2,0.2,0.5,0.4,0.9,0.6c0.4,0.1,0.8,0.2,1.2,0.2c0.6,0,1-0.1,1.3-0.4
	c0.3-0.3,0.5-0.6,0.5-1c0-0.5-0.2-0.8-0.5-1.1c-0.4-0.2-1-0.4-1.8-0.4h-1.5l0.4-3.5h3.8v0.6h-3.2l-0.2,2.2H458.8z M464.7,220.1
	c0.9,0,1.6,0.3,2.1,0.9c0.5,0.6,0.7,1.5,0.7,2.6c0,0.8-0.1,1.4-0.4,2c-0.3,0.5-0.6,0.9-1.1,1.2c-0.5,0.3-1,0.4-1.7,0.4
	c-0.7,0-1.2-0.1-1.7-0.4l0.3-0.6c0.3,0.2,0.8,0.3,1.4,0.3c0.8,0,1.4-0.2,1.8-0.7c0.4-0.5,0.7-1.2,0.7-2.1c0-0.2,0-0.4,0-0.6
	c-0.2,0.4-0.4,0.7-0.8,0.9c-0.4,0.2-0.8,0.3-1.3,0.3c-0.5,0-0.9-0.1-1.2-0.3c-0.4-0.2-0.6-0.4-0.8-0.7c-0.2-0.3-0.3-0.7-0.3-1.1
	c0-0.4,0.1-0.8,0.3-1.1c0.2-0.3,0.5-0.6,0.8-0.7C463.9,220.2,464.3,220.1,464.7,220.1z M464.8,223.7c0.4,0,0.7-0.1,0.9-0.2
	c0.3-0.1,0.5-0.3,0.6-0.5c0.2-0.2,0.2-0.5,0.2-0.8c0-0.3-0.1-0.5-0.2-0.7c-0.1-0.2-0.3-0.4-0.6-0.5c-0.3-0.1-0.6-0.2-1-0.2
	c-0.5,0-0.9,0.1-1.2,0.4c-0.3,0.3-0.5,0.6-0.5,1.1c0,0.5,0.2,0.8,0.5,1.1C463.9,223.6,464.3,223.7,464.8,223.7z M473.5,220.2v0.5
	l-2.9,6.5h-0.8l2.9-6.3h-3.6v1.3h-0.7v-1.9H473.5z M480,226.5v0.6h-4.9v-7h4.8v0.6h-4v2.5h3.6v0.6h-3.6v2.6H480z M482.5,220.8v2.7
	h3.6v0.6h-3.6v3h-0.7v-7h4.8v0.6H482.5z M492.4,220.2v0.5l-2.9,6.5h-0.8l2.9-6.3H488v1.3h-0.7v-1.9H492.4z"/>
<path class="st8" d="M568,222.6l-0.3,2.1h1.4v0.5h-1.5l-0.2,1.9h-0.5l0.2-1.9h-2l-0.2,1.9h-0.5l0.2-1.9h-1.4v-0.5h1.5l0.3-2.1h-1.4
	v-0.5h1.5l0.2-1.9h0.5l-0.2,1.9h2.1l0.2-1.9h0.5l-0.2,1.9h1.4v0.5H568z M567.5,222.6h-2l-0.3,2.1h2.1L567.5,222.6z M571.6,220.8v2.7
	h3.6v0.6h-3.6v3h-0.7v-7h4.8v0.6H571.6z M578,220.8v2.7h3.6v0.6H578v3h-0.7v-7h4.8v0.6H578z M587.9,220.2v0.5l-2.9,6.5h-0.8l2.9-6.3
	h-3.6v1.3h-0.7v-1.9H587.9z M592.7,223.5c0.4,0.1,0.8,0.4,1,0.7c0.2,0.3,0.4,0.6,0.4,1.1c0,0.4-0.1,0.8-0.3,1.1
	c-0.2,0.3-0.5,0.5-0.9,0.7c-0.4,0.2-0.9,0.2-1.4,0.2c-0.8,0-1.5-0.2-2-0.5c-0.5-0.4-0.7-0.8-0.7-1.5c0-0.4,0.1-0.8,0.3-1.1
	c0.2-0.3,0.6-0.5,1-0.7c-0.4-0.1-0.6-0.3-0.8-0.6c-0.2-0.3-0.3-0.6-0.3-0.9c0-0.6,0.2-1,0.7-1.3c0.4-0.3,1-0.5,1.8-0.5
	c0.5,0,0.9,0.1,1.3,0.2c0.4,0.1,0.7,0.4,0.9,0.6c0.2,0.3,0.3,0.6,0.3,1c0,0.4-0.1,0.7-0.3,0.9C593.3,223.1,593,223.3,592.7,223.5z
	 M589.6,222c0,0.4,0.2,0.7,0.5,0.9c0.3,0.2,0.7,0.3,1.3,0.3s1-0.1,1.3-0.3c0.3-0.2,0.5-0.5,0.5-0.9c0-0.4-0.2-0.7-0.5-0.9
	c-0.3-0.2-0.7-0.3-1.3-0.3c-0.5,0-1,0.1-1.3,0.3C589.8,221.3,589.6,221.6,589.6,222z M591.3,226.6c0.6,0,1.1-0.1,1.4-0.4
	c0.4-0.3,0.5-0.6,0.5-1c0-0.4-0.2-0.8-0.5-1c-0.3-0.3-0.8-0.4-1.4-0.4c-0.6,0-1.1,0.1-1.4,0.4c-0.3,0.2-0.5,0.6-0.5,1
	c0,0.4,0.2,0.8,0.5,1C590.2,226.5,590.7,226.6,591.3,226.6z M600,220.2v0.5l-2.9,6.5h-0.8l2.9-6.3h-3.6v1.3h-0.7v-1.9H600z
	 M602.6,223c1,0,1.7,0.2,2.2,0.5c0.5,0.4,0.7,0.9,0.7,1.5c0,0.4-0.1,0.8-0.3,1.1c-0.2,0.3-0.5,0.6-0.8,0.8c-0.4,0.2-0.8,0.3-1.4,0.3
	c-0.5,0-1-0.1-1.4-0.2c-0.4-0.2-0.8-0.4-1.1-0.7l0.3-0.6c0.2,0.2,0.5,0.4,0.9,0.6c0.4,0.1,0.8,0.2,1.2,0.2c0.6,0,1-0.1,1.3-0.4
	c0.3-0.3,0.5-0.6,0.5-1c0-0.5-0.2-0.8-0.5-1.1c-0.4-0.2-0.9-0.4-1.8-0.4h-1.5l0.4-3.5h3.8v0.6h-3.2l-0.2,2.2H602.6z"/>
<path class="st8" d="M678.9,222l-0.3,2.1h1.4v0.5h-1.5l-0.2,1.9h-0.5l0.2-1.9h-2l-0.2,1.9h-0.5l0.2-1.9H674v-0.5h1.5l0.3-2.1h-1.4
	v-0.5h1.5l0.2-1.9h0.5l-0.2,1.9h2.1l0.2-1.9h0.5l-0.2,1.9h1.4v0.5H678.9z M678.3,222h-2l-0.3,2.1h2.1L678.3,222z M682.5,220.2v2.7
	h3.6v0.6h-3.6v3h-0.7v-7h4.8v0.6H682.5z M688.8,220.2v2.7h3.6v0.6h-3.6v3h-0.7v-7h4.8v0.6H688.8z M699.2,224.7h-1.4v1.8h-0.7v-1.8
	h-3.9v-0.5l3.7-4.6h0.8l-3.6,4.5h3v-1.6h0.7v1.6h1.4V224.7z M700.5,219.5h2.8c0.7,0,1.4,0.1,1.9,0.4c0.6,0.3,1,0.7,1.3,1.2
	c0.3,0.5,0.5,1.1,0.5,1.8c0,0.7-0.2,1.3-0.5,1.8c-0.3,0.5-0.7,0.9-1.3,1.2c-0.6,0.3-1.2,0.4-1.9,0.4h-2.8V219.5z M703.3,225.9
	c0.6,0,1.1-0.1,1.6-0.4c0.5-0.2,0.8-0.6,1.1-1c0.3-0.4,0.4-0.9,0.4-1.5s-0.1-1-0.4-1.5c-0.3-0.4-0.6-0.8-1.1-1
	c-0.5-0.2-1-0.4-1.6-0.4h-2.1v5.7H703.3z M714,224.7h-1.4v1.8h-0.7v-1.8H708v-0.5l3.7-4.6h0.8l-3.6,4.5h3v-1.6h0.7v1.6h1.4V224.7z
	 M716,220.2v2.7h3.6v0.6H716v3h-0.7v-7h4.8v0.6H716z"/>
<path class="st0" d="M124.4,703.3c15.7,0,28.5-12.7,28.5-28.5c0-15.7-12.7-28.5-28.5-28.5c-15.7,0-28.5,12.7-28.5,28.5
	C95.9,690.5,108.7,703.3,124.4,703.3z"/>
<path class="st0" d="M102.6,713c10.7,0,19.4-8.7,19.4-19.4c0-10.7-8.7-19.4-19.4-19.4c-10.7,0-19.4,8.7-19.4,19.4
	C83.2,704.4,91.9,713,102.6,713z"/>
<path class="st0" d="M159.5,697.2c10.7,0,19.4-8.7,19.4-19.4s-8.7-19.4-19.4-19.4s-19.4,8.7-19.4,19.4S148.8,697.2,159.5,697.2z"/>
<path class="st0" d="M199,695.9c-0.3,12.5-10.1,17.1-21.9,17.1c-10.7,0-16.4-7.5-16.4-18.2s7.5-21.8,18.1-19.7
	C192.1,677.8,199.3,685.3,199,695.9z"/>
<path class="st0" d="M177.1,685.6h-74.9V713h74.9V685.6z"/>
<path class="st8" d="M149.2,694.9H73.9c-0.4,0-0.7-0.2-0.7-0.6v-1.9c0-0.3,0.3-0.6,0.7-0.6h75.3c0.4,0,0.7,0.2,0.7,0.6v1.9
	C149.9,694.6,149.6,694.9,149.2,694.9z"/>
<path class="st8" d="M162.3,706.7H81.4c-0.4,0-0.7-0.2-0.7-0.6v-1.9c0-0.3,0.3-0.6,0.7-0.6h80.9c0.4,0,0.7,0.2,0.7,0.6v1.9
	C162.9,706.4,162.6,706.7,162.3,706.7z"/>
</svg>
