<svg xmlns="http://www.w3.org/2000/svg" xmlns:xlink="http://www.w3.org/1999/xlink" width="1920" height="1080" viewBox="0 0 1920 1080">
  <defs>
    <filter id="Rectangle_1" x="1064" y="642" width="228" height="110" filterUnits="userSpaceOnUse">
      <feOffset dy="3" input="SourceAlpha"/>
      <feGaussianBlur stdDeviation="3" result="blur"/>
      <feFlood flood-opacity="0.161"/>
      <feComposite operator="in" in2="blur"/>
      <feComposite in="SourceGraphic"/>
    </filter>
    <clipPath id="clip-Web_1920_1">
      <rect width="1920" height="1080"/>
    </clipPath>
  </defs>
  <g id="Web_1920_1" data-name="Web 1920 – 1" clip-path="url(#clip-Web_1920_1)">
    <rect width="1920" height="1080" fill="#fff"/>
    <g id="scene" transform="translate(5 85)">
      <g id="sky_moon_ground" data-name="sky, moon, ground" transform="translate(191.43 183.645)">
        <path id="Path_1" data-name="Path 1" d="M891.952,604.684c0,45.747-11.262,89.352-31.653,129.049a313.849,313.849,0,0,1-25.319,41.1C769.155,792.425,635.49,804.45,481.3,804.45c-150.626,0-281.661-11.474-349-28.4a312.752,312.752,0,0,1-26.873-43.614c-19.968-39.348-30.991-82.5-30.991-127.753,0-184.431,183.006-333.944,408.761-333.944S891.952,420.254,891.952,604.684Z" transform="translate(-74.43 -270.74)" fill="#88a7e2"/>
        <path id="Path_246" data-name="Path 246" d="M60.545,0A60.545,60.545,0,1,1,0,60.545,60.545,60.545,0,0,1,60.545,0Z" transform="translate(491.748 105.512)" fill="#fff"/>
        <path id="Path_2" data-name="Path 2" d="M881.844,788.386c0,7.741-11.8,15.1-33.078,21.761q-4.9,1.531-10.462,3.015-2.979.8-6.15,1.572c-67.765,16.732-197.991,28.04-347.532,28.04-146.489,0-274.453-10.848-343.313-27.02q-2.924-.676-5.691-1.379-6.109-1.531-11.5-3.126c-23.563-6.95-36.71-14.7-36.71-22.864,0-6.169,7.511-12.1,21.338-17.624,4.964-1.986,10.747-3.926,17.284-5.8q4.7-1.338,9.929-2.648C203.4,745.434,334.252,734,484.621,734c153.522,0,286.7,11.924,352.828,29.382q4.923,1.3,9.35,2.639a157.134,157.134,0,0,1,16.824,6.04C875.464,777.216,881.844,782.695,881.844,788.386Z" transform="translate(-75.477 -308.102)" fill="#fff"/>
      </g>
      <g id="iceberg" transform="translate(-396.223 -391.171)">
        <g id="Group_11" data-name="Group 11" transform="translate(690 692.334)">
          <path id="Path_233" data-name="Path 233" d="M105.482,382.035V260.152l84.265-96.3,33.1,19.562L364.3,121.716l72.227-90.284,97.808,79.751,40.628,102.322,37.618,18.057v58.685L650.2,311.313v70.722H105.482Z" transform="translate(-105.482 -31.432)" fill="#bfd2ef"/>
          <path id="Path_234" data-name="Path 234" d="M189.186,162.776,174.138,235l43.637,102.322,4.514-154.988Z" transform="translate(-104.921 -30.359)" fill="#fff"/>
          <path id="Path_235" data-name="Path 235" d="M646.085,309.215H609.971l-1.5-21.066Z" transform="translate(-101.371 -29.335)" fill="#fff"/>
          <path id="Path_236" data-name="Path 236" d="M608.82,230.086H565.183l6.019-18.057Z" transform="translate(-101.725 -29.957)" fill="#fff"/>
          <path id="Path_237" data-name="Path 237" d="M531.647,111.183h-82.76L433.84,31.432Z" transform="translate(-102.798 -31.432)" fill="#fff"/>
          <path id="Path_238" data-name="Path 238" d="M363.344,120.985,277.2,194.169l-55.3-11.49Z" transform="translate(-104.53 -30.701)" fill="#fff"/>
          <path id="Path_239" data-name="Path 239" d="M292.174,380.962,276.752,193.827l120.6-31.052L346.548,221.46l51.989-9.028L362.9,289.173l-41.161,10.533L339.459,328.4l36.98,1.182,15.01,51.383" transform="translate(-104.082 -30.359)" fill="#88a7e2"/>
          <path id="Path_240" data-name="Path 240" d="M280.014,229.94l34.949,150.473H247.291l13.764-115.3Z" transform="translate(-104.323 -29.81)" fill="#fff"/>
          <path id="Path_241" data-name="Path 241" d="M551.8,380.8S512.512,275.62,512.083,271.7s0-88.793,0-88.793l-52.045,74.553,22.491,91.759L471.349,380.8Z" transform="translate(-102.584 -30.195)" fill="#fff"/>
          <path id="Path_242" data-name="Path 242" d="M151.737,379.547,160,353.224l23.156-17.314-77.67,13.1v30.533Z" transform="translate(-105.482 -28.944)" fill="#88a7e2"/>
          <path id="Path_243" data-name="Path 243" d="M105.482,258.676l38.835-9.028,16.022-37.618H144.317Z" transform="translate(-105.482 -29.957)" fill="#88a7e2"/>
          <path id="Path_244" data-name="Path 244" d="M434.623,380.486l-.784-75.237,9.677-60.409L485.5,220.985h0L465.7,279.4l17.039,69.514-11.181,31.574Z" transform="translate(-102.798 -29.883)" fill="#88a7e2"/>
          <path id="Path_245" data-name="Path 245" d="M434.009,31.432l-20.921,79.751,10.46,111.35,25.508-111.35Z" transform="translate(-102.968 -31.432)" fill="#88a7e2"/>
        </g>
      </g>
      <g id="polar_bear" data-name="polar bear" transform="translate(474.97 538.903)">
        <path id="Path_9" data-name="Path 9" d="M819.928,800.95c-8.936,1.489-32.9,4.652-38.714,0-4.477-3.585-7.456-6.352-10.94-8.3a25.24,25.24,0,0,0-8.633-2.924,68.9,68.9,0,0,0-11.685-.69c-18.038.175-65.908-.938-84.075-11.437a20.767,20.767,0,0,1-3.769-2.7c-3.521-3.254-16.934,1.921-35.285,6.657-24.354,6.27-57.413,11.748-87.54-4.422-19.352-10.39-25.475-10.223-33.336-6.372-3.337,1.636-6.978,3.935-12.071,6.372-14.461,6.9-64.989,22.836-92.468,8.825v-.009A31.406,31.406,0,0,1,388.919,774.9s-17.127-122.834,56.568-149.632a151.5,151.5,0,0,1,41.224-9.093c34.062-2.436,59.978,8.753,82.374,16.429,9.9,3.392,19.1,6.1,28.031,6.629,11.7.7,18.433-1.463,25.337-4.046v-.009c8.164-3.052,16.567-6.711,33.7-6.9,24.657-.276,83.872,36.912,105.266,61.137,6.371,7.217,9.23,10.343,11.345,12.7,1.021,1.141,1.866,2.105,2.859,3.265,1.37,1.617,3.034,3.63,5.829,7.06,4.459,5.452,5.535-14.232,21.357-10.49,10.269,2.436,3.438,27.231,3.438,27.231a41.1,41.1,0,0,1,1.186,10.692c-.221,4.69-2.179,14.867,1.066,20.649a8.417,8.417,0,0,0,1.26,1.728c4.955,5.213,16.87,12.659,19.1,20.1S828.864,799.461,819.928,800.95Z" transform="translate(-387.194 -615.83)" fill="#edbe96"/>
        <path id="Path_10" data-name="Path 10" d="M737.445,790.507c-5.465-4.979-6.906-13.155-6.17-20.711.654-6.693,5.76-14.878,9.109-20.712,0,0-3.942,11.014-4.644,20.712C734.729,783.771,737.445,790.507,737.445,790.507Z" transform="translate(-414.93 -626.577)" fill="#bc7f4c"/>
        <path id="Path_11" data-name="Path 11" d="M804.911,807.645a37.021,37.021,0,0,0-10.455-4.05c-2.142-3.622,5.392-15.79,5.392-15.79S797.378,798.721,804.911,807.645Z" transform="translate(-420.009 -629.7)" fill="#bc7f4c"/>
        <path id="Path_12" data-name="Path 12" d="M841.17,768.017l-.156.074c-.11-.369-13.68-9.921-13.68-9.921s.34-13.257-7.382-19.443-27.679-20.771-27.679-20.771,14.961-2.833,21.85,1.978c4.651,5.37,5.535-14.232,21.357-10.49,10.269,2.436,3.438,27.231,3.438,27.231a41.1,41.1,0,0,1,1.186,10.692C839.883,752.058,837.925,762.235,841.17,768.017Z" transform="translate(-419.864 -623.339)" fill="#bc7f4c" opacity="0.2"/>
        <path id="Path_13" data-name="Path 13" d="M799.353,765.627c0,1.512-2.876,1.791-5.075,1.791s-5-.792-5-2.3,2.8-3.171,5-3.171S799.353,764.115,799.353,765.627Z" transform="translate(-419.623 -627.614)" fill="#bc7f4c"/>
        <path id="Path_268" data-name="Path 268" d="M6.354,0c3.509,0,6.354,1.642,6.354,3.667S9.863,7.334,6.354,7.334,0,5.692,0,3.667,2.845,0,6.354,0Z" transform="translate(425.439 168.975) rotate(-8.259)" fill="#bc7f4c"/>
        <path id="Path_14" data-name="Path 14" d="M810.679,719.827c-13.781-9.2-53.241,7.591-53.241,7.591s-2.444-6.355-7.465-7.7,41.391-17.784,51.982-10.246c.009.009.028.019.037.028C804.437,712.242,805.889,713.952,810.679,719.827Z" transform="translate(-416.42 -623.231)" fill="#bc7f4c" opacity="0.196"/>
        <path id="Path_15" data-name="Path 15" d="M764.285,732.114c-2.611.664-5.248-1.093-6.957-3.175s-2.93-4.586-4.966-6.348c-2.97-2.57-7.8-3.009-10.823-.495a13.18,13.18,0,0,0-4.417,8.065c-.309,4.374.484,9,3.069,12.542s6.787,7.1,11.047,8.14" transform="translate(-415.411 -624.265)" fill="#bc7f4c" opacity="0.59"/>
        <path id="Path_16" data-name="Path 16" d="M820.938,717.988c3.46-5.484,5.954-8.433,11.8-8.943,2.416-.245,5.505.095,7.328,1.7-3.651-.258-7.68,2.141-9.882,5.066a16.138,16.138,0,0,0-2.935,10.357,22.678,22.678,0,0,1-8.4-5.645" transform="translate(-421.995 -623.376)" fill="#bc7f4c" opacity="0.581"/>
        <path id="Path_17" data-name="Path 17" d="M678.971,783.123c-25.834-17.3-82.744-65.287-82.744-65.287s47.885,54.738,68.887,66.065C670.82,786.979,684.2,786.624,678.971,783.123Z" transform="translate(-404.053 -624.057)" fill="#bc7f4c"/>
        <path id="Path_18" data-name="Path 18" d="M541.371,781.872c-19.352-10.39-25.475-10.223-33.336-6.372-14.379-97.708-95.006-97.708-95.006-97.708,63.389-1.287,95.033,50.454,95.033,50.454a69.16,69.16,0,0,1,1-8.848c2.256-13.359,10.106-39.144,36.654-44.778C545.72,674.62,501.278,728.246,541.371,781.872Z" transform="translate(-389.278 -620.572)" fill="#bc7f4c"/>
        <path id="Path_19" data-name="Path 19" d="M686.873,790.639a20.767,20.767,0,0,1-3.769-2.7c-3.521-3.254-16.935,1.921-35.285,6.657a10.433,10.433,0,0,1-.349-2.676c0-7.952,8.844-14.4,19.748-14.4C677.533,777.52,685.991,783.284,686.873,790.639Z" transform="translate(-408.186 -628.87)" fill="none"/>
        <path id="Path_20" data-name="Path 20" d="M486.71,616.2c-4.45,1.591-9.35,3.218-14.691,4.836-33.538,10.15-36.186,15.886-54.278,31.773s-36.627,88.248-16.328,133.168a31.406,31.406,0,0,1-12.494-11.051s-17.127-122.834,56.568-149.632A151.5,151.5,0,0,1,486.71,616.2Z" transform="translate(-387.194 -615.86)" fill="#bc7f4c"/>
        <path id="Path_21" data-name="Path 21" d="M642.012,652.034c-3.052-.754-36.158-9.019-56.972-17.964,9.9,3.392,19.1,6.1,28.031,6.629,11.7.7,18.433-1.463,25.337-4.046C634.666,649.029,640.734,651.621,642.012,652.034Z" transform="translate(-403.151 -617.301)" fill="#bc7f4c"/>
        <path id="Path_22" data-name="Path 22" d="M690.2,640.363c15.447.7,28.465,8.968,40.323,16.855,13.415,8.924,27.028,18.021,36.666,29.619-19.372-2.764-40.345,3.189-53.115,15.078.3-23.96-12.112-47.86-33.595-64.694a62.446,62.446,0,0,1,19.678,5.993" transform="translate(-410.848 -617.555)" fill="#fff" stroke="#fff" stroke-miterlimit="10" stroke-width="0.25"/>
        <path id="Path_23" data-name="Path 23" d="M442.635,656.239A80.991,80.991,0,0,1,496.907,634.8c5.345-.018,10.791.524,15.7,2.64-8.1-.41-16.124,3.5-21.434,9.632s-8.019,14.265-8.3,22.368c-3.911-1.217-6.97-4.2-10.409-6.426-9.629-6.224-21.848-6.286-33.313-6.142a43.97,43.97,0,0,1,21.475-11.991" transform="translate(-391.384 -617.36)" fill="#fff" stroke="#fff" stroke-miterlimit="10" stroke-width="1"/>
        <path id="Path_24" data-name="Path 24" d="M653.3,740.912a197.977,197.977,0,0,0,54.391,40.265,45.221,45.221,0,0,1-5.061-23.774c-5.631,1.007-11.375-.63-16.788-2.479a201.708,201.708,0,0,1-35.152-15.915l9.2,6.39" transform="translate(-408.445 -625.764)" fill="#fff" stroke="#fff" stroke-miterlimit="10" stroke-width="0.25"/>
        <path id="Path_25" data-name="Path 25" d="M838.975,793.026a14.391,14.391,0,0,1,15.453-5.173,122.734,122.734,0,0,0-22.064-15.887,10.073,10.073,0,0,0-2.536-1.125c-3.294-.8-6.427,1.57-8.914,3.793a14.094,14.094,0,0,1,7.155,4.848c4.361,5.03,6.8,11.325,8.715,17.607a24.517,24.517,0,0,0,3.111-4.907" transform="translate(-422.174 -628.319)" fill="#fff" stroke="#fff" stroke-miterlimit="10" stroke-width="1"/>
        <path id="Path_26" data-name="Path 26" d="M448.43,706.355c13.662,6.685,17.905,11.291,25.447,24.052s11.408,27.3,15.19,41.634c-4.217-4.743-10.588-7.03-16.865-7.966s-12.671-.706-18.983-1.364a4.7,4.7,0,0,1-2.008-.531c-1.408-.87-1.545-2.821-1.6-4.474-.723-21.787-15.2-42.514-35.4-50.7,8.983-4.419,25.061-4.693,34.22-.652" transform="translate(-389.373 -622.901)" fill="#fff" stroke="#fff" stroke-miterlimit="10" stroke-width="0.75"/>
      </g>
    </g>
    <g id="menu_btn" data-name="menu btn" transform="translate(14.297 -4)">
      <path id="Path_269" data-name="Path 269" d="M0,0H46.955" transform="translate(1778.109 67.5)" fill="none" stroke="#0c2553" stroke-width="4"/>
      <path id="Path_270" data-name="Path 270" d="M0,0H46.955" transform="translate(1778.109 83.114)" fill="none" stroke="#0c2553" stroke-width="4"/>
      <path id="Path_271" data-name="Path 271" d="M0,0H46.955" transform="translate(1778.109 98.728)" fill="none" stroke="#0c2553" stroke-width="4"/>
    </g>
    <g id="logo_big" data-name="logo big" transform="translate(-12.242 -641.9)">
      <g id="logo" transform="translate(75.068 671.9)">
        <g id="logo-2" transform="translate(33.163 35.913)">
          <path id="Path_247" data-name="Path 247" d="M151.317,778.219V769.37l5.657-6.992L159.2,763.8l5.9-5.763,4.961-6,4.1,6.979L179,762.807l6.353,4.489v4.256l2.525,1.529v5.135l-36.563.184Z" transform="translate(-151.317 -752.036)" fill="none" stroke="#0c2553" stroke-miterlimit="10" stroke-width="1"/>
          <path id="Path_248" data-name="Path 248" d="M151.317,782.443l5.345-2.8.311-3.915" transform="translate(-151.317 -765.109)" fill="none" stroke="#0c2553" stroke-miterlimit="10" stroke-width="1"/>
          <path id="Path_249" data-name="Path 249" d="M184.285,756.829l3.932-.847.031-3.946" transform="translate(-169.51 -752.036)" fill="none" stroke="#0c2553" stroke-miterlimit="10" stroke-width="1"/>
          <path id="Path_250" data-name="Path 250" d="M168.9,771.186l5.9-1.768v-4" transform="translate(-161.019 -759.424)" fill="none" stroke="#0c2553" stroke-miterlimit="10" stroke-width="1"/>
          <path id="Path_251" data-name="Path 251" d="M171.516,785.637" transform="translate(-162.464 -770.579)" fill="none" stroke="#0c2553" stroke-miterlimit="10" stroke-width="1"/>
          <path id="Path_252" data-name="Path 252" d="M163.9,793.23" transform="translate(-158.26 -774.769)" fill="none" stroke="#0c2553" stroke-miterlimit="10" stroke-width="1"/>
          <path id="Path_253" data-name="Path 253" d="M184.312,796.414l-2.616-5.891-.609-2.83-1.662-2.7-1.076,3.791-.615,7.622" transform="translate(-165.895 -770.223)" fill="none" stroke="#0c2553" stroke-miterlimit="10" stroke-width="1"/>
          <path id="Path_254" data-name="Path 254" d="M219.445,780.513h-2.861l-3.493-4.442" transform="translate(-185.408 -765.3)" fill="none" stroke="#0c2553" stroke-miterlimit="10" stroke-width="1"/>
          <path id="Path_255" data-name="Path 255" d="M229.188,797.206h-3.016l.491-1.414" transform="translate(-192.626 -776.183)" fill="none" stroke="#0c2553" stroke-miterlimit="10" stroke-width="1"/>
          <path id="Path_256" data-name="Path 256" d="M165.8,799.547l-1.013-2.361-1.305-.363.817-2.022h-2.656l-1.289-4.117-1.915,3.27v5.594" transform="translate(-155.249 -773.364)" fill="none" stroke="#0c2553" stroke-miterlimit="10" stroke-width="1"/>
          <path id="Path_257" data-name="Path 257" d="M198.968,773.795l4.717,4.08v5.992l2.783,3.921v2.447h-9.818l.372-2.825,2-1.422.068-1.208h-1.383l.135-3.4,1.6-2.724Z" transform="translate(-176.335 -764.044)" fill="none" stroke="#0c2553" stroke-miterlimit="10" stroke-width="1"/>
        </g>
        <g id="e" style="isolation: isolate">
          <text id="e-2" data-name="e" transform="translate(0 65)" fill="#0c2553" font-size="57" font-family="ObjektivMk2-Thin, Objektiv Mk2" font-weight="200" style="isolation: isolate"><tspan x="0" y="0">e</tspan></text>
        </g>
        <g id="J" transform="translate(65.555 4.092)" style="isolation: isolate">
          <text id="j-2" data-name="j" transform="translate(6 64)" fill="#0c2553" font-size="56" font-family="ObjektivMk2-Thin, Objektiv Mk2" font-weight="200" style="isolation: isolate"><tspan x="0" y="0">j</tspan></text>
        </g>
      </g>
      <g id="Group_15" data-name="Group 15" transform="translate(73.243 678.826)">
        <g id="Rectangle_450" data-name="Rectangle 450" transform="translate(0 0)">
          <rect id="Rectangle_451" data-name="Rectangle 451" width="90.446" height="90.446" fill="none"/>
          <rect id="Rectangle_452" data-name="Rectangle 452" width="89.382" height="89.382" transform="translate(0.532 0.532)" fill="none" stroke="#0c2553" stroke-width="1"/>
        </g>
      </g>
    </g>
    <g id="title_bunny_and_button" data-name="title bunny and button" transform="translate(55 88)">
      <g id="title" transform="translate(1007 313)">
        <text id="_illustrator_artist_and_designer" data-name=" illustrator, artist, and designer" transform="translate(0 133)" fill="#0c2553" font-size="40" font-family="GoudyBookletter1911, 'Goudy Bookletter 1911'"><tspan x="0" y="38" xml:space="preserve"> illustrator, artist, and designer</tspan></text>
        <text id="ella_juengst" data-name="ella juengst" transform="translate(312 59)" fill="#0c2553" font-size="106" font-family="ObjektivMk2-Thin, Objektiv Mk2" font-weight="200" letter-spacing="0.04em"><tspan x="-312.011" y="0">ella juengst</tspan></text>
      </g>
      <g id="button" transform="translate(1013 590.129)">
        <g id="Button-2" data-name="Button" transform="translate(5 -30.129)">
          <g transform="matrix(1, 0, 0, 1, -1073, -648)" filter="url(#Rectangle_1)">
            <rect id="Rectangle_1-2" data-name="Rectangle 1" width="210" height="92" rx="4" transform="translate(1073 648)" fill="#edbe96"/>
          </g>
          <text id="About" transform="translate(105 56)" fill="#fff" font-size="25" font-family="ObjektivMk1-Regular, Objektiv Mk1"><tspan x="-37.05" y="0">about</tspan></text>
        </g>
      </g>
    </g>
    <g id="bunny" transform="translate(1420.979 605.302)">
      <g id="Layer_11" data-name="Layer 11" transform="translate(61.306 400.921)">
        <path id="Path_1-2" data-name="Path 1" d="M268.756,371.034c-1.9,35.916,17.778,67.848,29.488,77.934,1.385.855,2.427,1.453,2.992,1.777a.971.971,0,0,0,.137.069L275.354,351.34l-11.009-37.676-.6.068C264.516,327.579,269.884,349.734,268.756,371.034Z" transform="translate(-263.747 -313.664)" fill="#fff"/>
      </g>
      <g id="Layer_3" data-name="Layer 3" transform="translate(0 0)">
        <path id="Path_2-2" data-name="Path 2" d="M219.032,887.794a2.184,2.184,0,0,0,.188-.222,75.751,75.751,0,0,1,1.368-19.4,1.579,1.579,0,0,0-.12-.24c-.581-1.265-1.2-2.564-1.863-3.9-.718-1.043-1.539-2.154-2.479-3.333-4.393-5.59-10.1-14.872-16.342-26.172-.034-.068-.068-.12-.1-.188-.513-.923-1.043-1.863-1.555-2.821-.034-.051-.051-.1-.086-.154-8.821-16.24-18.462-36.1-26.65-55.062a1.72,1.72,0,0,1-.154-.308c-3.573-7.88-6.872-15.9-9.693-23.984-.6-1.727-1.2-3.47-1.761-5.214,0-.035,0-.052-.017-.069a162.383,162.383,0,0,1-7.419-34.48.017.017,0,0,1-.017-.017,3.893,3.893,0,0,1-.034-.445l-.051-.462h-.017c-.154-.1-.974-.632-2.12-1.47a5.087,5.087,0,0,0-1.094-.12,2.854,2.854,0,0,0-1.966.855c-.017,0-.017,0-.017.017a2.5,2.5,0,0,0-.444.581,4.3,4.3,0,0,0-.41.735h.017c0,1.128.034,2.239.068,3.368,9.06,25.266,26.6,76,38.035,119.679-4.6-9.8-9.47-20.24-14.154-31.1-.769-1.795-1.539-3.59-2.291-5.419-.308-.7-.6-1.4-.889-2.1-.7-1.709-1.4-3.419-2.086-5.145-.154-.376-.308-.752-.444-1.111q-.718-1.769-1.385-3.539c-1.077-2.752-2.1-5.521-3.111-8.308,8.239,24.411,18.6,50.395,27.42,68.84,4.325,17.881,7.3,33.933,7.8,45.643a13.206,13.206,0,0,0,.325,2.53c-3.453,3.573-7.932,7.316-11.932,7.761-.256.017-.5.034-.752.034-1.179,0-3.162.068-5.778.171-25.437.923-111.423,4.872-110.687-16.906,1.128-33.249,14.36-47.3,22.736-55.643,3.077-3.077,5.5-5.385,6.428-7.59a4.754,4.754,0,0,0,.427-1.829C98,699.582,137.115,704.061,135.371,699v-.017a.128.128,0,0,1-.017-.068.059.059,0,0,1-.017-.034c-6.462-18.975-.667-71.353-3.983-78.515-6.958-15.077-29.368-23.454-35.3-68.207-5.727-43.249,20.479-80.926,27.061-89.576.068-.1.137-.188.205-.273a.017.017,0,0,0,.017-.017,2.238,2.238,0,0,1,.068.359.248.248,0,0,1,.034.12c.239,1.043.461,2.1.667,3.2l.017.068c6.308,34.617-6.205,97.063,3.641,116.294,8,15.573,26.6,28.223,34.36,33.027,1.385.855,2.427,1.453,2.992,1.778a1.036,1.036,0,0,0,.137.068c.239.154.359.222.359.222L139.457,517.44l-10.94-37.42-.068-.257-.6.068-.239.034-.65.086s-.872-6.513-2.188-12.719l-1.436-4.94a1.191,1.191,0,0,0,.188-.359c1.812-4.786-14.787-27.693-19.8-32.138-5.146-4.547-2.086-13.624-2.462-20.462a5.015,5.015,0,0,0-.171-1.146c0-.034-1.984,5.021-1.984,4.987-.8-3.641-6.054-10.892-6.96-12.978-6.667-15.488.38-43.96,4.978-50.849,9.59-14.394,18.069-25.078,33.2-35.266,13.846-9.334,81.917-39.625,81.917-39.625,2.222-2.12,1.231-17.761-.068-21.3-1.385-3.744-68.532-206.349-31.745-169.561,36.788,36.77,67.592,91.456,77.541,119.286,9.932,27.847-7.915,70-1.59,74.515,3.846,2.718,18.941,6.325,18.941,6.325,3.932-24.291,235.444-140.432,227.2-96.738-10.547,55.865-83.148,114.158-114.841,124.38-23.18,7.47-66.942,13.043-84.943,26.873-3.88,2.975-6.564,6.359-7.573,10.223a15.241,15.241,0,0,0,.479,8.923,30.166,30.166,0,0,0,2.137,3.538c4.564,7.094,15.351,23.642,22.137,42.07,7.778,21.129,10.582,44.6,12,51.66a10.334,10.334,0,0,0,.53,1.932c5.316,10.735,28.822,1.675,24.548,84.875a41,41,0,0,0,.12,6c2.735,30.616,38.993,46.343,59.2,130,21.471,88.977,10.428,152.5,10.428,152.5,5.778,28.924-9.4,44.1-9.4,44.1s-18.941,16.65-47.728,13.727a15.744,15.744,0,0,0-6.154.94c-12.222,3.846-30.821,17.932-35.881,18.582-16.377,2.137-95.337,2.171-104-2.889-6.872-4-5.59-12.086-4.752-15.282m42-67.883c.855-.325,1.214-2.12,1.248-5.094-.154,2.615-3.18,5.094-7.265,7.607C256.708,822.885,258.726,822.048,260.828,821.261ZM186.774,709.5a13.026,13.026,0,0,0,1.88,1.282,3,3,0,0,0,.393.24,19.482,19.482,0,0,0,4.906,1.88,3.409,3.409,0,0,0,.444.12h.017c11.351,2.5,27.163-2.94,35.54-13.556a.513.513,0,0,1,.086-.12,25.883,25.883,0,0,0,5.333-12.1c2.786-18.411,4.1-42.685,11.368-53.044a9.2,9.2,0,0,1,.615-.8,11.271,11.271,0,0,1,4.086-3.4c11.539-5.351,19.351.838,32.531-1.641,11.471-2.154,12.958.376,29.4-12.206.12-.1.257-.188.376-.29h-96.14c-.017.1-.034.188-.051.29-3.06,18.514-5.641,32.8-9.265,37.352a3.158,3.158,0,0,1-.222.273,4.91,4.91,0,0,1-.769.718c-1.761,1.282-8.342-5.06-16-12.906.205-.325.427-.65.65-.957q.231-.333.513-.667a12.032,12.032,0,0,1,5.214-4.034,10.944,10.944,0,0,0,4.411-3.265c.205-.239.393-.5.6-.752a.721.721,0,0,0,.085-.12c2.769-3.607,5.026-9.163,7.026-15.932h-12.24c-.051.1-.1.188-.154.29a26.919,26.919,0,0,1-1.8,3.129c-.154.239-.308.461-.462.684-.239.359-.5.684-.752,1.008a11.223,11.223,0,0,1-4.735,3.675,11.945,11.945,0,0,0-5.265,4.086c-.222.273-.444.547-.65.855a27.155,27.155,0,0,0-1.573,2.615c-.051.12-.12.222-.171.342-9.5,18.736-6.6,62.976,3.094,75.216.034.051.068.085.1.137A10.822,10.822,0,0,0,186.774,709.5Z" transform="translate(-66.321 -79.133)" fill="#edbe96"/>
        <path id="Path_3" data-name="Path 3" d="M207.107,517.892c1.9-.889,3.915-1.727,6.017-2.513.855-.325,1.214-2.12,1.248-5.094C214.218,512.9,211.193,515.378,207.107,517.892Z" transform="translate(-18.618 226.75)" fill="#fff"/>
        <path id="Path_4" data-name="Path 4" d="M237.817,409.668c3.043,3.111,6.137,6.325,9.077,9.334.274-.428.564-.855.872-1.248q.231-.334.513-.667a12.028,12.028,0,0,1,5.214-4.034,11.574,11.574,0,0,0,5.009-4.017.739.739,0,0,0,.085-.12c2.667-3.607,4.855-9.043,6.8-15.642H253.219a26.884,26.884,0,0,1-1.8,3.128,5.962,5.962,0,0,1-.461.684c-.239.359-.5.684-.752,1.008a11.369,11.369,0,0,1-4.957,3.966,11.936,11.936,0,0,0-5.043,3.8c-.222.273-.444.547-.649.855a27.182,27.182,0,0,0-1.573,2.615C237.937,409.446,237.868,409.548,237.817,409.668Z" transform="translate(-122.133 143.736)" fill="#fff"/>
        <path id="Path_5" data-name="Path 5" d="M119.364,500.77c2.761-2.848,6.937-.629,9.327,2.754a25.45,25.45,0,0,1,4.2,15.631c3.872,4.063,7.448,9.429,7.922,15.927s-3.547,13.719-8.457,12.9c4.069,4.217,5.434,12.373,3.091,18.461s-8.142,9.439-13.122,7.591c2.516,3.128,1.412,9.159-1.381,11.848s-6.539,2.833-9.978,2.362c-4.022-.551-8.32-2.058-10.788-6.282-3.987-6.823-1.311-16.618,1.485-24.4q10.385-28.885,20.766-57.769" transform="translate(241.16 219.074)" fill="#edbe96"/>
        <path id="Path_6" data-name="Path 6" d="M211.021,240.917A80.555,80.555,0,0,1,248.4,254.1c5.551-16.372,1.873-32.41-8.318-36S216.968,224.686,211.021,240.917Z" transform="translate(-61.921 18.944)" fill="#bc7f4c"/>
        <path id="Path_7" data-name="Path 7" d="M210.346,231.212a58.824,58.824,0,0,1,25.138-1.99,3.144,3.144,0,0,1,2.248,1c2.181,3.1,2.467.339,3.7,3.928,11.653-.679,13.313,3.355,24.907,4.72,1.49.176,3.114.436,4.116,1.554s.726,3.356-.751,3.622c2.99-1.795,6.954.01,9.264,2.624s3.7,5.954,6.1,8.477c2.147,2.251,4.988,3.725,7.257,5.853,6.47,6.07,7.4,16.466,13.954,22.44L291.587,279.1l4.392,16.8a70.784,70.784,0,0,0-13.955-10.452,65.376,65.376,0,0,0,1.873,23.945,105.3,105.3,0,0,1-28.4-22.158c.188,3.44.345,7.046-1.14,10.153s-5.2,5.439-8.4,4.176a10.305,10.305,0,0,1-4.063-3.7q-7.8-10.28-14.966-21.016c.785,4.7-4.564,9.229-9.07,7.679-2.759-.95-4.612-3.5-6.161-5.971a93.257,93.257,0,0,1-11.506-27.221,7.706,7.706,0,0,1-1.354,6.958c-2.718-4.01-5.5-8.183-6.323-12.959s.9-10.349,5.231-12.513c5.665-2.827,13.272,1.028,18.517-2.518" transform="translate(-85.229 26.957)" fill="#fff" stroke="#fff" stroke-miterlimit="10" stroke-width="0.5"/>
      </g>
      <g id="Layer_4" data-name="Layer 4" transform="translate(79.785 544.583)">
        <path id="Path_8" data-name="Path 8" d="M254.794,590.688c-.718-1.042-4.878-16.516-5.819-17.7-4.411-5.624-30.552-68.031-36.825-79.416,18.941-6.154,76.51,34.56,93.673,33.654l-24.78,30.816L271.4,594.215Z" transform="translate(-198.474 -330.137)" fill="#fff"/>
        <path id="Path_9-2" data-name="Path 9" d="M266.947,449.224c4.445,2.888,4.479,21.436,7.47,34.941.017.017.017.034.017.068" transform="translate(-260.759 -361.153)" fill="#fff"/>
        <path id="Path_10-2" data-name="Path 10" d="M181.419,565.074c8.19,18.958,26.1,24.328,34.921,40.568a2.462,2.462,0,0,1,.308-.137c1.658-.82,3.333-1.59,5.043-2.342,2.6-1.146,5.675-.1,8.889,1.744,8.154,4.7,17.18,14.718,21.454,7.9,2.256-3.573,6.855-6.667,11.727-9.522,3.094-1.812,6.308-3.521,9.077-5.2.171-.119.342-.222.5-.325,4.086-2.513,7.111-4.992,7.265-7.607.325-20.326-14.65-95.285,6.12-120.637,15.8-19.266,35.232-32.206,64.019-34.394,2.786-.2,2.974-3.077,1.778-7.146C349.3,417.106,336.19,397.7,336.19,397.7c-13.18,10.393-38.087,16.308-58.925,16.633-23.471.376-9.214,59.745-27.727,72.789-17.18,12.086-29.8,12.684-36.822.171H212.7c-.068-.137-.154-.274-.222-.41a39.9,39.9,0,0,1-3.145-8.086,40.99,40.99,0,0,1-5.607,3.077c-.1.051-.222.1-.325.154-7.248,3.282-20.958,5.238-35.334,1.556a2.279,2.279,0,0,0-1.328.01c-.53.222-.306.417-.939.691a4.623,4.623,0,0,0-.468.331c-.462.188-.615.318-.7.318,0,0,2.983,26.1,4.429,37.028C170.817,535.243,181.419,565.074,181.419,565.074Z" transform="translate(-164.629 -397.704)" fill="#fff"/>
      </g>
      <g id="Layer_5" data-name="Layer 5" transform="translate(33.115 291.19)">
        <g id="Group_2" data-name="Group 2">
          <g id="Group_1" data-name="Group 1" transform="translate(28.113 81.661)">
            <path id="Path_11-2" data-name="Path 11" d="M183.005,323.023c0,.667.034,1.368.051,2.1a1.3,1.3,0,0,1,.017.256l.6-.068,11.009,37.677L220.7,462.463l.137.513c3.949,2.205,10.137,8.223,16.565,14.77a20.906,20.906,0,0,1,1.795-2.906c.205-.308.427-.581.65-.855a11.936,11.936,0,0,1,5.043-3.8,11.367,11.367,0,0,0,4.957-3.966c.256-.325.513-.65.752-1.009.154-.222.308-.444.462-.684a35.2,35.2,0,0,0,1.727-3.129h12.24c-1.949,6.6-4.137,12.035-6.8,15.642a.722.722,0,0,1-.085.12c-.205.256-.393.513-.6.752a11.186,11.186,0,0,1-4.632,3.556,11.944,11.944,0,0,0-4.992,3.744q-.282.334-.513.667c-.308.393-.6.82-.872,1.248,7.658,7.846,14.24,14.189,16,12.906a5.045,5.045,0,0,0,.991-1.008,3.141,3.141,0,0,0,.222-.274c3.539-4.906,6.086-19.095,9.094-37.352,8.12-49.164,19.608-127.8,62.669-133.628,12.667-1.692,22.428-13.573,23.18-22.24a10.637,10.637,0,0,0,.017-1.949,7.237,7.237,0,0,0-4.376-6.342l-170.3,17.881A20.485,20.485,0,0,0,183.005,323.023Z" transform="translate(-182.996 -297.244)" fill="#fff"/>
            <path id="Path_12-2" data-name="Path 12" d="M235.771,297.69" transform="translate(-150.244 -296.928)" fill="#fff"/>
          </g>
          <path id="Path_13-2" data-name="Path 13" d="M185.634,309.237s16.017,21.044,19.266,28.258a28.038,28.038,0,0,1,1.333,3.88c0,.034.017.051.017.086a1.972,1.972,0,0,1,.086.342.247.247,0,0,1,.034.12c.393,1.47.769,3.094,1.111,4.752,1.316,6.205,2.188,12.718,2.188,12.718l.889-.119.6-.069.291-.034,174.741-21.693,1.111-.137c0-15.453-13.043-28.479-13.043-28.479s-25.505,20.513-64.635,13.624c-39.146-6.906-104.773-73.011-104.773-73.011L184.01,287.253l-.205.376-.633,1.145S180.215,303.014,185.634,309.237Z" transform="translate(-182.367 -249.474)" fill="#fff"/>
        </g>
      </g>
      <g id="Layer_8" data-name="Layer 8" transform="translate(22.519 259.395)">
        <path id="Path_14-2" data-name="Path 14" d="M113.228,260.773c9.453,19.334,22.7,51.164,36.36,90.5v.034c6.564,18.907,13.214,39.54,19.573,61.353,34.394,117.833,60.412,269.991,18.291,368.713a15.747,15.747,0,0,1,6.154-.94A66.914,66.914,0,0,0,241.335,766.7s15.18-15.18,9.4-44.1c0,0,11.043-63.524-10.428-152.5a281.559,281.559,0,0,0-16.667-49.711c-20.633-45.9-44.036-59.284-42.651-86.293,1.915-37.112-1.71-55.865-6.787-66.207-6.291-12.855-14.821-12.719-17.761-18.668-1.282-2.581-3.693-29.607-12.53-53.591a174.446,174.446,0,0,0-11.2-24.035c-6.6-11.9-12.667-20.36-13.077-21.573a15.043,15.043,0,0,1-.462-8.992,14.108,14.108,0,0,1,1.179-3.009,22.566,22.566,0,0,1,6.376-7.145,21.294,21.294,0,0,0-10.941,2.838l-.41.256C108.8,238.361,106.664,247.336,113.228,260.773Z" transform="translate(86.95 -230.874)" fill="#bc7f4c"/>
        <path id="Path_15-2" data-name="Path 15" d="M109.246,659.8A65.4,65.4,0,0,0,139.88,646.55s15.18-15.18,9.4-44.1c0,0,11.043-63.523-10.428-152.5a281.55,281.55,0,0,0-16.667-49.711c8.47,27.194,16.127,109.378,16.127,109.378S130.853,604.812,109.246,659.8Z" transform="translate(188.405 -110.72)" fill="#bc7f4c"/>
        <path id="Path_16-2" data-name="Path 16" d="M155.677,514.942c.889.086,1.778.188,2.667.291q6-5.718,11.522-11.761,5.385-5.8,10.291-11.881c23.522-28.993,39.591-61.985,47.181-95.832a202.464,202.464,0,0,0,5.043-44.771c-6.291-12.855-14.821-12.718-17.761-18.667a9.423,9.423,0,0,1-.513-1.932h-.017c-1.419-7.06-4.222-30.531-12-51.66a174.454,174.454,0,0,0-11.2-24.035,275.305,275.305,0,0,1,16.274,71.9c.239,2.6.444,5.18.6,7.778v.035a281.685,281.685,0,0,1-37.1,157.184q-3.769,6.59-7.932,12.975Q159.327,509.822,155.677,514.942Z" transform="translate(28.773 -213.975)" fill="#bc7f4c"/>
        <path id="Path_17-2" data-name="Path 17" d="M284.471,638.782c-.154,4.017,1.111,6.034,2.974,6.991,2.615-.1,4.6-.171,5.778-.171.257,0,.5-.017.752-.034,4.359-.376,8.957-3.966,12.137-7.043a6.949,6.949,0,0,1-.205-.718,13.177,13.177,0,0,1-.325-2.53c-.5-11.71-3.47-27.762-7.795-45.643-8.821-18.445-19.18-44.429-27.42-68.84a1.818,1.818,0,0,1-.12-.325c-2.923-8.137-5.556-16.411-7.693-24.7a173.227,173.227,0,0,1-5.863-37.933c-.034-1.128-.068-2.239-.068-3.367h-.017c-.12-.1-.718-.564-1.59-1.317-2.564-2.137-7.419-6.6-8.94-10.718C249.667,454.9,286.471,588.593,284.471,638.782Z" transform="translate(-199.494 -80.781)" fill="#bc7f4c"/>
        <path id="Path_18-2" data-name="Path 18" d="M281.217,441.974a4.928,4.928,0,0,0,.205.667Q281.294,442.2,281.217,441.974Z" transform="translate(-234.874 -81.107)" fill="#a87119"/>
        <path id="Path_19-2" data-name="Path 19" d="M275.077,522.094c22.684-.342,42.548,3.966,57.044,12.7-10.975-12.36-29.18-19.334-50.617-20.291C280.581,516.709,278.154,519.016,275.077,522.094Z" transform="translate(-275.077 -29.651)" fill="#bc7f4c"/>
        <path id="Path_20-2" data-name="Path 20" d="M174.587,518.216h.188c25.3-1.333,47.523,2.941,63.352,12.478-11.829-13.3-32-20.359-55.592-20.411-.034,2.975-.393,4.769-1.248,5.094-2.1.786-4.12,1.624-6.017,2.513C175.031,517.994,174.809,518.113,174.587,518.216Z" transform="translate(-9.3 -32.645)" fill="#bc7f4c"/>
        <path id="Path_21-2" data-name="Path 21" d="M251.607,523.2c.171.393.359.769.53,1.146" transform="translate(-154.972 -23.478)" fill="#a87119"/>
        <path id="Path_22-2" data-name="Path 22" d="M229.587,545.434" transform="translate(-94.779 -7.707)" fill="#a87119"/>
        <path id="Path_23-2" data-name="Path 23" d="M241.187,528.544c4.325,17.882,7.3,33.933,7.795,45.643a13.219,13.219,0,0,0,.325,2.53,69.5,69.5,0,0,0,5.675-6.735l.992-.034c.171-1.794,1.778-3.333,1.9-6.564v-.034a124.118,124.118,0,0,0-4.257-12.325q-.948-1.642-2.205-3.539A169.57,169.57,0,0,1,241.187,528.544Z" transform="translate(-142.893 -19.69)" fill="#bc7f4c"/>
        <path id="Path_24-2" data-name="Path 24" d="M241.182,541.694a124.293,124.293,0,0,1,4.257,12.325C245.542,551.387,244.653,547.626,241.182,541.694Z" transform="translate(-130.461 -10.36)" fill="#a87119"/>
        <path id="Path_25-2" data-name="Path 25" d="M241.187,562.258a7.239,7.239,0,0,0,.205.718,46.456,46.456,0,0,0,4.1-4.462,24.551,24.551,0,0,0,3.231-3.556c.975-1.316.906-2.8,1.025-6.034-.12,3.231-1.726,4.769-1.9,6.564l-.992.034A69.477,69.477,0,0,1,241.187,562.258Z" transform="translate(-134.773 -5.231)" fill="#a87119"/>
      </g>
      <g id="Layer_9" data-name="Layer 9" transform="translate(56.793 383.45)">
        <path id="Path_26-2" data-name="Path 26" d="M268.385,423.482c9.419,18.343,33.574,32.651,37.351,34.8a22.3,22.3,0,0,1-2.769-2.068c-11.71-10.085-31.385-42.018-29.488-77.934,1.128-21.3-4.24-43.455-5.009-57.3l-.889.12s-.871-6.513-2.188-12.718l-.428-1.487-.016-.068-.992-3.385C272.026,337.1,258.162,403.55,268.385,423.482Z" transform="translate(-263.957 -303.444)" fill="#bc7f4c"/>
        <path id="Path_27" data-name="Path 27" d="M285.407,306.334c1.1,6.28,1.836,12.871,1.836,12.871l.746-.121.486-.148-.543-2.239Z" transform="translate(-283.971 -301.394)" fill="#bc7f4c"/>
        <path id="Path_28" data-name="Path 28" d="M133.61,347.758a111.452,111.452,0,0,1,18.25,10.014c1.237.838,2.61,2.327,1.827,3.6a3.035,3.035,0,0,1-2.4,1.037l-7.525.8,12.917,9.277c2.453,1.763,5.021,3.665,6.19,6.452s.238,6.679-2.634,7.616c4.086,4.843,8.26,9.838,10.293,15.838,2.605,7.686,1.4,16.077.166,24.1a3.553,3.553,0,0,1-1.19,2.585c-1.539,1-3.364-.769-4.286-2.354a132.132,132.132,0,0,1-8.27-18.249l-23.77-60.407" transform="translate(93.265 -272.005)" fill="#bc7f4c"/>
      </g>
      <g id="Layer_6" data-name="Layer 6" transform="translate(33.117 259.395)">
        <path id="Path_29" data-name="Path 29" d="M150.262,557.374c1.59,4.5,3.521,7.932,5.761,9.744,13.18,10.718,45.3-.411,48.6-22.24,3.282-21.83,4.53-51.9,16.052-57.25,5.163-2.393,9.573-2.479,14.052-2.068.889.085,1.778.188,2.667.291,4.718.564,9.693,1.282,15.83.136,13.18-2.479,13.18,1.231,37.882-18.941,18.377-15.009,24.428-45.677,27.232-73.233.957-9.522,1.539-18.65,2.086-26.65,2.632-37.967-14.872-57.831-27.266-66.156h-.017a39.827,39.827,0,0,0-6.923-3.795,10.753,10.753,0,0,0-4.171-1.094c-2.684.223-8.616,4.189-17.368,10.223-7.385,5.077-16.787,11.624-27.933,18.6-24.308,15.248-20.6,14.838-39.95,42.224-14,19.813-17.659,67.523-25.779,95.046-3.111,10.547-6.872,18.138-12.12,20.069a13.283,13.283,0,0,0-6.376,5.658c7.658,7.846,14.24,14.188,16,12.906,4.188-3.06,6.957-18.342,10.308-38.634h96.14c-14.821,11.385-17.676,10.718-26.052,11.881-1.128.171-2.359.359-3.727.615-1.18.222-2.308.376-3.4.479-11.2.991-18.616-3.71-29.129,1.162-11.539,5.367-12.77,35.42-16.069,57.25C193.477,554.263,164.518,565.34,150.262,557.374Z" transform="translate(-60.874 -184.593)" fill="#edbe96"/>
        <path id="Path_30" data-name="Path 30" d="M181.851,488.44c14.257,7.966,43.215-3.111,46.326-23.779,3.3-21.829,4.53-51.882,16.069-57.25,11.539-5.35,19.351.838,32.531-1.641,11.556-2.171,12.975.411,29.778-12.5h-96.14c-3.351,20.292-6.12,35.574-10.308,38.634-1.761,1.282-8.342-5.06-16-12.906C174.757,433.566,175.321,469.943,181.851,488.44Z" transform="translate(-92.464 -115.658)" fill="#edbe96"/>
        <path id="Path_31" data-name="Path 31" d="M233.247,419c7.658,7.847,14.24,14.188,16,12.906,4.188-3.06,6.957-18.342,10.308-38.634h-7.812c-3.111,10.547-6.872,18.137-12.12,20.069A13.283,13.283,0,0,0,233.247,419Z" transform="translate(-141.603 -115.658)" fill="#edbe96"/>
        <path id="Path_32" data-name="Path 32" d="M259.234,480.136a15.934,15.934,0,0,0,2.273,1.522c-.068-.171-.12-.359-.171-.53-6.376-18.65-6.838-54.48,2.427-68.908-2.94-3.009-6.034-6.223-9.077-9.334l-.051-.051C244.378,422.39,248.174,471.144,259.234,480.136Z" transform="translate(-172.12 -108.876)" fill="#bc7f4c"/>
        <path id="Path_33" data-name="Path 33" d="M277.557,251.629c3.675,4.359,10.394,7.265,18.069,7.265,11.658,0,21.112-6.7,21.112-14.975,0-4.017-2.222-7.658-5.846-10.325a11.773,11.773,0,0,1,3.009,7.693c0,8.257-9.453,14.958-21.112,14.958A25.7,25.7,0,0,1,277.557,251.629Z" transform="translate(-274.531 -228.944)" fill="#bc7f4c"/>
        <path id="Path_34" data-name="Path 34" d="M279.217,245.849a11.748,11.748,0,0,0,3.026,7.71,25.7,25.7,0,0,0,15.231,4.615c11.658,0,21.112-6.7,21.112-14.958a11.772,11.772,0,0,0-3.009-7.693,25.668,25.668,0,0,0-15.266-4.65C288.67,230.874,279.217,237.575,279.217,245.849Z" transform="translate(-279.217 -230.874)" fill="#a87119"/>
        <path id="Path_35" data-name="Path 35" d="M279.217,245.849a11.748,11.748,0,0,0,3.026,7.71,25.7,25.7,0,0,0,15.231,4.615c11.658,0,21.112-6.7,21.112-14.958a11.772,11.772,0,0,0-3.009-7.693,25.668,25.668,0,0,0-15.266-4.65C288.67,230.874,279.217,237.575,279.217,245.849Z" transform="translate(-279.217 -230.874)" fill="#bc7f4c"/>
      </g>
      <g id="Layer_10" data-name="Layer 10" transform="translate(59.909 301.982)">
        <path id="Path_36" data-name="Path 36" d="M275.839,260.274" transform="translate(-270.931 -260.274)" fill="#edbe96" stroke="#d39aa7" stroke-miterlimit="10" stroke-width="1"/>
        <path id="Path_38" data-name="Path 38" d="M148.763,308.33c4.578,2.811,9.183,5.688,12.949,9.515s6.667,8.754,7.063,14.11c.087,1.156-.024,2.489-.943,3.194a3.357,3.357,0,0,1-1.747.559,11.9,11.9,0,0,1-7.241-1.622,29.848,29.848,0,0,1,10.245,29.254,3.234,3.234,0,0,1-.935,1.892,2.8,2.8,0,0,1-1.841.469,9.968,9.968,0,0,1-7.262-4.082,26.042,26.042,0,0,1-3.771-7.689,146.914,146.914,0,0,1-8.169-46.335" transform="translate(68.641 -219.033)" fill="#edbe96"/>
        <path id="Path_39" data-name="Path 39" d="M257.845,277.294a28.7,28.7,0,0,0,18.021,14.918,7.706,7.706,0,0,1,3.4,1.458c.972.911,1.311,2.289,1.884,3.494,2.8,5.911,10.5,7.019,16.43,9.793,6.616,3.1,11.553,8.833,16.276,14.4-3.6.629-7.219-4.226-10.3-2.246-2.629,1.692-.911,5.715.8,8.332s2.474,7.228-.578,7.91c-1.492.333-2.915-.687-4.1-1.65L291.5,327.1c-.855-.692-2.016-1.417-2.97-.87-1.017.585-.887,2.067-.62,3.209l5.922,25.36c-6.474-.525-8.9-8.469-10.975-14.623a51.458,51.458,0,0,0-11.219-18.73c-1.321-1.405-3.092-2.846-4.963-2.378-1.084.27-1.957,1.152-3.061,1.318-2.159.321-3.633-2.106-4.289-4.188-2.92-9.257-3.087-20.76-11.2-26.09,3.561-.571,4.822-5.2,4.142-8.746s-2.491-6.988-1.974-10.557a2.983,2.983,0,0,1,1.475-2.446c1.342-.574,2.752.62,3.655,1.77a30.551,30.551,0,0,1,6.284,15.359" transform="translate(-248.127 -246.976)" fill="#edbe96" stroke="#edbe96" stroke-miterlimit="10" stroke-width="0.75"/>
        <path id="Path_40" data-name="Path 40" d="M248.166,488.939a7.318,7.318,0,0,0,12.568,5.915c2.188-2.3,3.544-6.342,6.711-6.154,2.508.149,3.812,2.988,4.575,5.382l3.656,11.46c-2.769-1.223-6.1.668-7.583,3.307s-1.61,5.8-1.815,8.814-.585,6.209-2.429,8.607c-3.884-3.687-4.125-10.593-8.851-13.111-1.479-.788-3.193-1-4.745-1.631-4.429-1.8-6.778-6.626-8.161-11.2s-2.3-9.512-5.363-13.185c-1.407-1.687-3.2-3.014-4.639-4.676-4.139-4.776-4.788-11.984-2.47-17.867a4.732,4.732,0,0,1,1.947-2.622c1.617-.844,3.684.243,4.615,1.811s1.065,3.461,1.332,5.267a31.983,31.983,0,0,0,11.014,19.659" transform="translate(-176.042 -109.715)" fill="#edbe96" stroke="#edbe96" stroke-miterlimit="10" stroke-width="0.75"/>
        <path id="Path_41" data-name="Path 41" d="M142.289,358.721c3.142,10.717,6.144,21.473,9.147,32.228l6.479,23.209c2.14,7.671,4.3,15.732,2.515,23.493a15.258,15.258,0,0,0-.726,4.641,12.651,12.651,0,0,0,1.448,4.2c3.438,7.325,5.576,15.385,5.2,23.468-.243,5.27-1.54,10.541-.841,15.77.826,6.175,4.344,11.632,6.193,17.581s1.438,13.555-3.761,16.989c6.966,3.713,9.116,12.8,8.513,20.674s-3.183,15.619-2.583,23.491c.349,4.583,1.771,9.2.851,13.7-.68,3.326-2.62,6.446-2.4,9.834.154,2.4,1.386,4.609,1.7,6.994.45,3.431-1.027,6.778-2.017,10.095-1.829,6.126-2.038,12.617-3.47,18.847s-4.463,12.579-10.081,15.631a3.145,3.145,0,0,1-2.233.5c-1.253-.328-1.716-1.836-1.95-3.11-4.268-23.159-2.66-46.933-2.5-70.482.338-49.344-5.758-98.568-15.125-147.014-4.253-22-8.816-46.336,2.7-65.556" transform="translate(87.57 -186.177)" fill="#edbe96" stroke="#edbe96" stroke-miterlimit="10" stroke-width="0.75"/>
        <path id="Path_42" data-name="Path 42" d="M169.139,573.343c0-24.591,31.952-58.839,65.006-58.839s59.85,19.934,59.85,44.524-26.124,40.144-59.178,40.144S169.139,597.934,169.139,573.343Z" transform="translate(-93.244 -72.238)" fill="#edbe96"/>
      </g>
      <circle id="Ellipse_12" data-name="Ellipse 12" cx="5.5" cy="5.5" r="5.5" transform="translate(169.02 245.698)" fill="#fff"/>
    </g>
  </g>
</svg>
