<?xml version="1.0" encoding="utf-8"?>
<!-- Generator: Adobe Illustrator 24.1.2, SVG Export Plug-In . SVG Version: 6.00 Build 0)  -->
<svg version="1.1" id="Layer_1" xmlns="http://www.w3.org/2000/svg" xmlns:xlink="http://www.w3.org/1999/xlink" x="0px" y="0px"
	 viewBox="0 0 677.3 416.26" style="enable-background:new 0 0 677.3 416.26;" xml:space="preserve">
<style type="text/css">
	.st0{fill:#BAD1F1;}
	.st1{fill:#82A7E7;}
	.st2{fill:#FFFFFF;stroke:#C3DCFC;stroke-miterlimit:10;}
	.st3{fill:#FFFFFF;}
</style>
<polygon class="st0" points="0,416.26 0,224.1 107.88,100.81 208.58,129.22 306.13,26.76 423.07,0 496.6,52.29 572.8,100.81 
	614.16,232.03 655.52,307.01 677.3,416.26 225.4,416.26 "/>
<polyline class="st1" points="655.52,307.01 584.39,281.66 614.16,232.03 "/>
<polyline class="st1" points="423.07,0 462.65,86.06 572.8,100.81 "/>
<polyline class="st1" points="94.61,416.26 40.1,416.26 49.69,333.48 96.42,294.28 "/>
<polygon class="st2" points="339.74,111.68 308.74,196.94 339.74,232.03 252.93,355.27 252.93,416.26 389.35,416.26 373.91,186.09 
	"/>
<polygon class="st1" points="456.58,416.26 424.03,208.13 373.91,186.09 389.35,416.26 "/>
<polygon class="st2" points="623.29,416.26 592.43,355.27 552.06,336.52 534.41,269.52 539.45,416.26 "/>
<path class="st3" d="M306.13,26.76"/>
<polygon class="st2" points="208.58,129.22 329.63,92.79 423.07,0 306.13,26.76 "/>
<polygon class="st2" points="107.88,100.81 103.5,143.1 97.84,197.7 0,224.1 "/>
<polygon class="st1" points="97.84,197.7 96.42,294.28 94.61,416.26 173.28,416.26 134.88,185.2 107.88,100.81 "/>
</svg>
