<?xml version="1.0" encoding="utf-8"?>
<!-- Generator: Adobe Illustrator 24.1.2, SVG Export Plug-In . SVG Version: 6.00 Build 0)  -->
<svg version="1.1" id="Layer_1" xmlns="http://www.w3.org/2000/svg" xmlns:xlink="http://www.w3.org/1999/xlink" x="0px" y="0px"
	 viewBox="0 0 300 289.4" style="enable-background:new 0 0 300 289.4;" xml:space="preserve">
<style type="text/css">
	.st0{fill:#EDBE96;}
	.st1{fill:#BC7F4C;}
	.st2{fill:#FFFFFF;}
	.st3{fill:#AC6C3C;}
	.st4{fill:#FFFFFF;stroke:#FFFFFF;stroke-width:0.5;stroke-miterlimit:10;}
	.st5{opacity:0.5;fill:#EDBE96;enable-background:new    ;}
	.st6{opacity:0.5;fill:#BC7F4C;enable-background:new    ;}
</style>
<g id="Layer_6">
	<path class="st0" d="M38.26,178.69c0,0-8.2,5.04-12.03-0.74c-2.59-3.91,2.05-9.75,2.05-9.75s-5.63-5.97-2.05-11.08
		c3.2-4.58,10.77-2.46,10.77-2.46s-3.42-6.57,3.8-9.13c6.58-2.34,7.29,4.82,7.29,4.82s2.03-6.31,7.9-3.18
		c5.62,3,2.05,8.73,2.05,8.73s-9.56,4.4-13.73,9.05C39.27,170.56,38.26,178.69,38.26,178.69z"/>
</g>
<g id="Layer_3">
	<path class="st1" d="M21.48,266.46c1.24-4.21,2.52-16.91,2.52-16.91s42.97-4.86,51.36-9.22c0.36-0.19-0.31,4.03-1.86,6.56
		c-0.5,0.81-1.7,2.45-5.55,3.88c-8.46,3.14-37.88,2.5-37.88,2.5s-5.99,26.06-8.81,28.56c-1.13,1.01-2.23,2.05-4.42,2.05
		c-1.71,0-3.38-1.8-3.38-1.8C18.4,278.34,20.27,270.57,21.48,266.46z"/>
</g>
<g id="Layer_2_1_">
	<path class="st0" d="M227.61,91.7c-2.63-12.44,0.87-15.38-0.67-17.86c-2.51-4.06-23.62-8.75-39.43-23
		c-17.53-15.8-31.14-36.64-28.3-41.62c2.19-3.84,13.11,3.63,13.11,3.63S167.8,2.01,170.9,0c4.24-2.74,31.39,18.65,40.39,27.72
		c8.4,8.47,22.41,35.35,22.41,35.35c13.55-4.49,28.56,3.16,37.04,8.79c9.68,6.43,33.04,35.31,27.38,46.63s-27.36,8.87-31.61,11.35
		c-4.24,2.48,7.46,4.79,12.41,12.57c4.95,7.78,8.78,24.15,2.13,38.86c-0.52,1.14-7.67,2.81-7.87-1.97
		c-0.17-4.07-2.44-4.88-2.44-4.88s-4.07,8.19-6.24,9.17c-3.57,1.61-7.27,5.16-11.1,0.69c-2.81-3.28-4.05-8.33-2.25-24.26
		c0.39-3.44-9.23,2.37-11.84,3.39c-17.84,6.99-30.86,35.95-54.92,43.12c-19.36,5.77-69.65-12.13-93.24,4.91
		c-8.05,5.82-11.14,27.99-20.77,35.02c-8.72,6.36-46.39,3.1-46.39,3.1s-2.04,32.21-11.94,37.87s-11.83-2.34-11.94-5.52
		c-0.81-24.14,2.88-46.57,11.16-48.1c8.16-1.52,15.36,0.75,30.1-4.66c11.27-4.13,13.64-17.39,7.72-21.4
		c-8.69-5.87-9.85-11.02-11.57-15.66c-2.78-7.5-0.38-24.24,4.3-30.29c7.09-9.18,29.8-18.19,40.93-17.48
		c23.03,1.47,54.04,6.85,70.19,0c15.57-6.6,36.42-35.71,50.65-44.85C208.88,96.06,227.61,91.7,227.61,91.7z"/>
</g>
<g id="Layer_4">
	<path class="st1" d="M266.09,131.89c0,0,15.09,23.07,4.65,42.52c-1.71,3.18,1.3,9.54,5.38,9.87c7.32,0.6,14.87-5.5,8.21-28.9
		C280.78,142.9,278.5,137.7,266.09,131.89z"/>
</g>
<g id="Layer_5">
	<path class="st1" d="M88.37,214.29c0,0,20.72-24.79,43.91-22.69c9.22,0.83,15.55,5.22,24.25,9.33c8.67,4.1,16.03,6.77,16.03,6.77
		s2.81,0.81-34.74-3.09C99.15,200.6,88.37,214.29,88.37,214.29z"/>
	<path class="st2" d="M172.57,207.71c0,0-27.18-8.19-24.67-7.88c15.43,1.95,39.93-4.78,42.76-7.42
		c5.82-5.39,17.89-16.48,25.73-20.04c4.06-1.85,16.92-5.74,16.92-5.74c-8.03,5.22-22.74,24.84-36.64,33.98
		C181.71,210.44,172.57,207.71,172.57,207.71z"/>
	<path id="Path_6" class="st3" d="M265.26,92.32c-4.87-1.33-9.99-1.41-14.9-0.25c0.19-6.5,3.59-11.67,7.65-11.6
		C262.07,80.53,265.29,85.81,265.26,92.32z"/>
	<path id="Path_7" class="st4" d="M281.02,96.76c-3.37-2.56-7.25-4.37-11.38-5.29c-0.4-0.14-0.84-0.12-1.22,0.08
		c-1.56,1.07-1.21-0.27-2.41,1.19c-5.32-2.34-6.79-0.75-12.43-2.12c-0.71-0.26-1.49-0.25-2.19,0.01c-0.66,0.34-1.3-0.04-0.66,0.34
		c-1.08-1.35-2.98-1.37-4.51-0.54c-1.53,0.83-1.5-0.72-5.66-0.56c-4.37,0.83-6.72,2.46-7.87,6.23c-1.73,3.89-1.37,6.74-5.47,8.38
		l7.6,0.53l-4.96,7.07c2.66-1.16,5.46-1.98,8.32-2.45c-0.99,3.89-2.7,7.57-5.03,10.84c5.96-0.81,11.75-2.63,17.09-5.41
		c-0.82,1.51-1.24,3.21-1.23,4.93c0.07,1.77,1.43,3.23,3.19,3.4c0.92-0.1,1.8-0.45,2.54-1.02c3.61-2.29,7.15-4.7,10.62-7.21
		c-0.86,1.81-0.08,3.97,1.73,4.83c0.37,0.17,0.76,0.29,1.17,0.33c1.46-0.11,2.84-0.72,3.91-1.72c3.91-3.01,7.31-6.62,10.09-10.7
		c-0.75,1-0.96,2.3-0.58,3.48c2.06-1.26,3.84-2.95,5.2-4.95c1.36-2.08,1.25-4.78-0.27-6.74C284.47,97.39,282.85,99.32,281.02,96.76"
		/>
	<ellipse id="Ellipse_12" class="st2" cx="257.52" cy="86.46" rx="2.6" ry="2.6"/>
	<path class="st3" d="M296.7,108.23c1.4,0.03,2.16,0.24,2.77,1.17c1.06,1.63,0.5,8.48-1.35,9.08c-0.65,0.21-1.48-0.53-1.95-2.2
		c-0.33-1.16-0.16-1.64-0.78-2.27c-0.52-0.53-2.79-0.28-3.42-0.64c-0.43-0.24-1.93-2.78-1.66-3.67
		C290.59,108.76,294.94,108.2,296.7,108.23z"/>
	<path class="st2" d="M57.52,148.23c-4.33,1.5-12.7,6.2-15.42,9.88c-4.29,5.81-7.32,14.14-7.33,19.3c0,6.84,2.73,14.68,2.73,14.68
		c6.94-29.2,17.6-29.2,33.83-32.6c20.57-4.3,33.98-0.22,43.88,0.41c10.94,0.69,28.92-5.5,37.33-10.27
		c7.98-4.53,21.39-15.53,27.43-21.89c5.96-6.28,21.72-26.97,21.72-26.97c-14.39,9.46-25.65,24.91-35.73,31.13
		c-8.16,5.03-25.98,13.21-35.47,14.53c-12.54,1.74-44.13-3.65-50.58-2.79C73.87,144.44,63.55,146.15,57.52,148.23z"/>
	<path class="st5" d="M57.52,148.23c-4.33,1.5-12.7,6.2-15.42,9.88c-4.29,5.81-7.32,14.14-7.33,19.3c0,6.84,2.73,14.68,2.73,14.68
		c6.94-29.2,17.6-29.2,33.83-32.6c20.57-4.3,33.98-0.22,43.88,0.41c10.94,0.69,28.92-5.5,37.33-10.27
		c7.98-4.53,21.39-15.53,27.43-21.89c5.96-6.28,21.72-26.97,21.72-26.97c-14.39,9.46-25.65,24.91-35.73,31.13
		c-8.16,5.03-25.98,13.21-35.47,14.53c-12.54,1.74-44.13-3.65-50.58-2.79C73.87,144.44,63.55,146.15,57.52,148.23z"/>
	<path class="st6" d="M30.64,244.63c1.19-0.23,30.33,1.44,34.77-1.36c5.47-3.45,11.58-23.14,11.58-23.14s-13.44,0.94-16.27,4.03
		c-2.56,2.8-3.15,8.58-5.67,11.42C52.88,238.02,30.64,244.63,30.64,244.63z"/>
	<path class="st1" d="M23.99,249.56c0.15-2.29-1.46-7.97-1.46-7.97s3.24,4.67,3.24,6.47c0,1.63,0,1.63,0,1.63
		S23.96,250,23.99,249.56z"/>
	<path class="st1" d="M251.13,159.55c-1.25-4.23,4.21-16.62,4.21-16.4s-4.15,7.24-4.97,10.67c0,0-0.99,2.27-0.49,5.12
		C249.88,158.96,251.23,159.88,251.13,159.55z"/>
	<path class="st1" d="M228.9,65.16c0,0-18.22-23.32-28.84-31.53c-6.45-4.99-30.21-19.51-33.12-16.43
		c-2.68,2.85,17.88,21.91,23.89,27.33C202.94,55.42,228.9,65.16,228.9,65.16z"/>
	<path id="Path_7_1_" class="st4" d="M97.27,154.32c-4.23-2.11-6.36-0.79-13.16-2.74c-4.94-2.52-14.17-0.09-18.33,0.08
		c-4.64-0.45-10.03,1.2-15.2,5.33c-4.23,3.45-7.36,14.42-7.36,14.42s12.17-9.45,14.56-7.05l-9.89,10.61
		c2.66-1.16,17.84-7.26,20.7-7.73c-0.99,3.89-14.99,14.08-17.32,17.36c5.96-0.81,20.34-8.6,21.69-7.75
		c1.46,0.92-6.03,11.38-6.03,11.38s16.13-7.09,19.6-9.6c-0.86,1.81-6.76,9.12-6.76,9.12s9.02-1.52,13.56-5.69
		c3.91-3.01,6.97-9.82,6.97-9.82l0.15,6.91c0,0,7.41-5.8,8.78-7.8c1.35-2.08,2.13-4.11,0.88-8.25c-2.15-2.3-2.33-2.55-4.74-4.58
		C103.46,156.89,100.41,155.89,97.27,154.32z"/>
</g>
<g id="Layer_7">
	<path class="st2" d="M130.49,191.49c0,0,15.83,15.81,40.6,10.04c19.04-4.43,53.7-32.21,53.7-32.21s-22.82,5.51-30.21,8.07
		c-6.1,2.12-20.71,8.92-23.85,9.94C161.11,190.47,130.49,191.49,130.49,191.49z"/>
	<path class="st5" d="M130.54,191.37c0,0,16.88,16.56,41.04,10.04c18.88-5.1,53.26-32.21,53.26-32.21s-22.82,5.51-30.21,8.07
		c-6.1,2.12-20.71,8.92-23.85,9.94C161.17,190.34,130.54,191.37,130.54,191.37z"/>
	<path class="st1" d="M162.74,207.08c-6.08-0.14-18.04,2.48-19.03,0.98c-0.72-1.09,5.19-2.02,2.9-2.58
		c-2.39-0.59-11.88,4.16-13.55,2.58c-1.1-1.05,1.24-1.85,0.32-2.38c-3.16-1.83-8.53,2.63-10.39,1.1c-1.43-1.18,1.12-2.85-1.01-2.79
		c-1.98,0.06-6.03,3.18-8.29,2.55c-1.41-0.39-1.08-2-2.5-1.66c-3.93,0.93-4.37,4.49-7.51,3.6c-4.3-1.23-6.52,0.07-6.52,0.07
		l20.2-10.37C117.35,198.17,166.46,207.17,162.74,207.08z"/>
	<path class="st0" d="M233.32,166.63c-1.35,2.42-13,19.86-15.77,19.84c-1.1,0-0.13-2.12-0.87-1.39c-1.07,1.06-1.19,6.68-3.69,6.4
		c-1.05-0.12-0.54-2.3-1.29-1.56c-0.86,0.86-2.22,7.75-5.07,7.46c-1-0.1-0.83-2.54-1.58-1.86c-0.81,0.74-3.52,8.85-6.2,7.88
		c-1.11-0.4,0.1-3.24-0.62-2.32c-1.67,2.12-4.22,8.33-7,6.99c-1.06-0.52,1.82-5.27,0.8-4.67c-2.59,1.52-9.57,9.26-12.24,7.3
		c0,0,2.57-2.11,2.01-2.63c-1.72-1.61-7.16,3.53-9.18,2.3c0,0,1.35-1.03,0.87-1.75c-1.51-2.29-7.47,0.48-9.04-0.83
		c0,0,1.98-1.06,1.52-1.67c-1.46-1.92-8.05,1.61-9.01-0.6c0,0,1.73-1.11,1.03-1.41c-2.58-1.09-6.02-0.46-6.11-2.03
		c0,0,4.68,0.71,6.26,0.81c7.3,0.47,29.28,0,29.28,0S235.24,163.18,233.32,166.63z"/>
	<path class="st2" d="M229.29,168.74c-3.39,2.38-9.94,12.87-12.18,12.87c-0.89,0-0.1-1.72-0.7-1.13c-0.87,0.86-0.96,5.4-2.98,5.17
		c-0.85-0.1-0.44-1.86-1.05-1.26c-0.7,0.7-1.8,6.26-4.09,6.02c-0.81-0.08-0.68-2.05-1.27-1.51c-0.66,0.6-2.85,7.15-5.01,6.37
		c-0.89-0.32,0.08-2.62-0.51-1.88c-1.35,1.72-3.41,6.73-5.66,5.64c-0.86-0.42-0.64-2.16-1.46-1.67c-2.1,1.23-6.34,8.07-8.49,6.48
		c0,0,0.82-2.49,0.37-2.91c-0.59-0.55-1.56,1.85-3.94,1.98c-3.02,0.16-5.49,3.09-7.8,0.92c-3.47-3.26,19.05-10.99,19.05-10.99
		S231.91,166.91,229.29,168.74z"/>
</g>
<g id="Layer_9">
	<path class="st0" d="M200.6,183.53c-1.15,0.59-1.61-2.67-3.34-1.3c-6.11,4.86-14.44,12.89-14.83,12.07
		c-0.45-0.93,5.79-9.52,4.41-9.98c-3.31-1.11-15.07,13.43-16.43,13.04c-2.01-0.58,3.16-8.67,1.28-8.25
		c-3.28,0.74-11.16,8.26-12.49,7.7c-1.33-0.55,3.28-5.04,1.82-5.44c-3.64-1.02-10.11,3.52-11.15,3.25
		c-0.87-0.23,0.85-1.85,0.27-3.16c-0.9-2.03-8.71,1.31-7.61,0c5.13-6.11,25.7-9.9,32.08-11.62c7.01-1.89,20.42-2.64,48.06-10.12
		c1.6-0.43-9.35,5.99-11.72,6.04C204.88,175.91,203.05,182.26,200.6,183.53z"/>
	<path class="st2" d="M267.24,140.51c0,0,4.06,14.69,4.36,19.6c0.22,3.57-2.38,10.53-5.99,13c-3.25,2.22-8.88,1.37-8.88,1.37
		l6.65-8.89c0,0-6.94,3.6-8.05,2.27l6.68-11.24c0,0-4.43,1.15-5.28,0c0,0,4.7-4.45,6.74-7.34
		C265.86,145.92,267.24,140.51,267.24,140.51z"/>
	<path class="st2" d="M15.46,245.69C15.25,253.73,9,259.42,9,259.42c0.37,1.36,6.03,3.02,6.03,3.02L9,266.54
		c0.95,0.92,5.54,1.4,5.54,1.4c1,1.07-2.71,5.2-2.71,5.2c4.84-1.02,6.45-5.62,7.23-8.17c0.87-2.83,0.79-7.52,0.08-10.39
		C18.71,252.89,15.46,245.69,15.46,245.69z"/>
	<path class="st2" d="M207.78,103.21c-8.87,6.92-25.13,37.31-25.13,37.31s16.95-7.94,23.48-25.16
		c4.57-12.04,16.72-17.89,16.72-17.89S212.55,99.49,207.78,103.21z"/>
	<path class="st2" d="M245.61,63.12c8.21-0.16,25.92,12.12,25.92,12.12s-21.33-11.36-37.27-8.96
		C234.26,66.29,241.84,63.2,245.61,63.12z"/>
</g>
</svg>
