<?xml version="1.0" encoding="utf-8"?>
<!-- Generator: Adobe Illustrator 24.2.1, SVG Export Plug-In . SVG Version: 6.00 Build 0)  -->
<svg version="1.1" id="Layer_1" xmlns="http://www.w3.org/2000/svg" xmlns:xlink="http://www.w3.org/1999/xlink" x="0px" y="0px"
	 viewBox="0 0 595.3 841.9" style="enable-background:new 0 0 595.3 841.9;" xml:space="preserve">
<style type="text/css">
	.st0{fill:#FFFFFF;}
	.st1{fill:#10162C;}
	.st2{font-family:'AcierBATText-Solid';}
	.st3{font-size:47.0959px;}
	.st4{font-size:12.1539px;}
	.st5{font-size:11.3343px;}
	.st6{font-family:'ArianaPro-Thin';}
	.st7{font-size:10.2538px;}
	.st8{font-family:'ArianaPro-Light';}
	.st9{font-size:18.2377px;}
	.st10{font-size:7.345px;}
	.st11{font-family:'Unibody8Pro-Regular';}
	.st12{font-size:9.1724px;}
	.st13{font-size:5.5617px;}
	.st14{fill:#BEDEF5;}
	.st15{fill:#5FA5D4;}
	.st16{fill:#4164A3;}
	.st17{fill:#FFFFFF;stroke:#010101;stroke-width:0.5;stroke-miterlimit:10;}
	.st18{fill:url(#SVGID_1_);}
	.st19{fill:url(#SVGID_2_);}
	.st20{font-size:47.4987px;}
	.st21{fill:url(#SVGID_3_);}
	.st22{fill:url(#SVGID_4_);}
	.st23{font-size:36.7041px;}
	.st24{fill:#4D4D4D;}
	.st25{fill:#7F8080;}
	.st26{font-size:44.5477px;}
	.st27{font-size:17.2509px;}
	.st28{font-size:9.4244px;}
	.st29{fill:none;}
	.st30{font-size:10.1709px;}
	.st31{font-size:8.9328px;}
</style>
<g>
	
		<image style="overflow:visible;opacity:0.75;enable-background:new    ;" width="663" height="1133" xlink:href="F2306BB48732E171.png"  transform="matrix(0.2387 0 0 0.2387 349.3813 156.72)">
	</image>
	<g>
		<path class="st0" d="M390,170.9h75c13.1,0,23.6,10,23.6,22.4v189.3c0,12.4-10.6,22.4-23.6,22.4h-75c-13.1,0-23.6-10-23.6-22.4
			V193.3C366.4,181,377,170.9,390,170.9z"/>
	</g>
</g>
<g>
	
		<image style="overflow:visible;opacity:0.75;enable-background:new    ;" width="2500" height="2092" xlink:href="F2306BB48732E173.png"  transform="matrix(0.2392 0 0 0.2392 0.1638 421.92)">
	</image>
	<g>
		<path class="st1" d="M564.4,498.3V852c0,23.8-19.3,43.2-43.2,43.2H68.9c-23.8,0-43.2-19.3-43.2-43.2V498.3
			c0-23.9,19.3-43.2,43.2-43.2h452.2C545,455.1,564.4,474.4,564.4,498.3z"/>
	</g>
</g>
<text transform="matrix(1 0 0 1 45.5076 81.3289)" class="st1 st2 st3">Kappa Theta Pi</text>
<text transform="matrix(1 0 0 1 61.6016 179.6475)" class="st1 st2 st4">Acier bat Text solid</text>
<text transform="matrix(1 0 0 1 45.5078 158.0374)" class="st1 st2 st5">fonts</text>
<g>
	<text transform="matrix(1 0 0 1 45.5076 290.1783)" class="st1 st2 st5">LOGOs</text>
</g>
<text transform="matrix(1 0 0 1 436.6018 512.7202)" class="st0 st2 st5">Brand mark</text>
<text transform="matrix(1 0 0 1 366.392 158.0372)" class="st1 st2 st5">Color PAlette</text>
<text transform="matrix(1 0 0 1 45.5098 179.6475)" class="st1 st6 st7">h1:</text>
<text transform="matrix(1 0 0 1 45.5098 202.4424)" class="st1 st6 st7">h2:</text>
<text transform="matrix(1 0 0 1 45.5076 107.9554)" class="st1 st8 st9">Brand Design Palette</text>
<text transform="matrix(1 0 0 1 61.6016 202.4424)" class="st1 st8 st7">Ariana Pro Light</text>
<text transform="matrix(1 0 0 1 61.6016 250.3047)" class="st1 st6 st7">Ariana Pro Thin</text>
<text transform="matrix(1 0 0 1 45.5107 123.7557)" class="st1 st6 st10">Designed by Ella Juengst</text>
<text transform="matrix(1 0 0 1 61.6016 226.8516)" class="st1 st11 st7">Unibody 8 Pro Regular</text>
<text transform="matrix(1 0 0 1 509.9634 318.5018)" class="st1 st11 st12">Primary</text>
<text transform="matrix(1 0 0 1 509.9626 377.4348)" class="st1 st11 st12">Primary</text>
<text transform="matrix(1 0 0 1 509.963 256.5332)" class="st1 st11 st12">Primary</text>
<text transform="matrix(1 0 0 1 509.9626 188.1922)" class="st1 st11 st13">Secondary</text>
<text transform="matrix(1 0 0 1 509.9624 215.0495)" class="st1 st11 st13">Secondary</text>
<text transform="matrix(1 0 0 1 45.5078 226.8516)" class="st1 st6 st7">h3:</text>
<text transform="matrix(1 0 0 1 45.5098 250.3047)" class="st1 st6 st7">p:</text>
<rect x="702.1" y="13.7" class="st14" width="51.9" height="115.9"/>
<rect x="760.7" y="13.7" class="st15" width="51.9" height="115.9"/>
<rect x="819.2" y="13.7" class="st16" width="51.9" height="115.9"/>
<rect x="877.8" y="13.7" class="st1" width="51.9" height="115.9"/>
<rect x="643.5" y="13.7" class="st17" width="51.9" height="115.9"/>
<g>
	
		<linearGradient id="SVGID_1_" gradientUnits="userSpaceOnUse" x1="337.7437" y1="42.295" x2="516.0487" y2="42.295" gradientTransform="matrix(1 0 0 -1 0 844)">
		<stop  offset="0" style="stop-color:#FFFFFF"/>
		<stop  offset="0.9985" style="stop-color:#5FA5D4"/>
	</linearGradient>
	<path class="st18" d="M513.8,811.7H340c-2.8,0-3-4.9-0.9-6.1l21.8-13.5c0.5-0.3,1.1-0.5,1.8-0.5h127.7c0.9,0,1.7,0.2,2.4,0.6
		l21.6,13.5C516.7,807,516.6,811.7,513.8,811.7z"/>
	
		<linearGradient id="SVGID_2_" gradientUnits="userSpaceOnUse" x1="361.75" y1="101.065" x2="491.82" y2="101.065" gradientTransform="matrix(1 0 0 -1 0 844)">
		<stop  offset="0" style="stop-color:#FFFFFF"/>
		<stop  offset="0.9985" style="stop-color:#BEDEF5"/>
	</linearGradient>
	<path class="st19" d="M488.6,699.7H365c-1.8,0-3.2,1.4-3.2,3.2v80c0,1.8,1.4,3.2,3.2,3.2h123.7c1.8,0,3.2-1.4,3.2-3.2v-80
		C491.8,701.2,490.4,699.7,488.6,699.7z"/>
	<path class="st15" d="M489,704.3v77.3c0,0.9-0.7,1.5-1.5,1.5H366.1c-0.9,0-1.5-0.7-1.5-1.5v-77.3c0-0.8,0.7-1.5,1.5-1.5h121.3
		C488.3,702.7,489,703.4,489,704.3z"/>
	<path class="st14" d="M513.8,808.5H340c-2.8,0-2.5-2-0.3-3.3l21.2-16.3c0.5-0.3,1.1-0.5,1.8-0.5h127.7c0.9,0,1.7,0.2,2.4,0.6
		l21,16.2C516.1,806.5,516.6,808.5,513.8,808.5z"/>
	<rect x="393.8" y="729.5" class="st0" width="6.4" height="30"/>
	<polygon class="st14" points="414.9,729.5 402.5,749 400.2,744.8 400.2,743.1 407.9,729.5 	"/>
	<polygon class="st14" points="415.2,759.5 403.6,739.9 400.2,743.1 400.2,744.8 408.2,759.5 	"/>
	<rect x="441.6" y="731.3" class="st0" width="6.4" height="28"/>
	<rect x="456.3" y="731.1" class="st0" width="6.4" height="28"/>
	<rect x="441.6" y="729.4" class="st14" width="21.1" height="7.4"/>
	<path class="st14" d="M437.4,744.5c0,1.3-0.1,2.5-0.3,3.7h-20.4c-0.2-1.2-0.3-2.4-0.3-3.7s0.1-2.5,0.3-3.7H437
		C437.2,742,437.4,743.2,437.4,744.5z"/>
	<path class="st0" d="M437,740.8c-1.2-6.5-5.3-11.3-10.2-11.3s-9,4.8-10.2,11.3c-0.2,1.2-0.3,2.4-0.3,3.7s0.1,2.5,0.3,3.7
		c1.2,6.5,5.3,11.3,10.2,11.3s9-4.8,10.2-11.3c0.2-1.2,0.3-2.4,0.3-3.7S437.2,742,437,740.8z M426.8,753.1c-2.4,0-4.4-2-5.4-5
		c-0.4-1.1-0.6-2.4-0.6-3.7c0-1.3,0.2-2.6,0.6-3.7c1-2.9,3-5,5.4-5s4.4,2,5.4,5c0.4,1.1,0.6,2.4,0.6,3.7c0,1.3-0.2,2.6-0.6,3.7
		C431.2,751.1,429.2,753.1,426.8,753.1z"/>
	<text transform="matrix(0.8608 0 0 1 367.8423 757.6738)" class="st0 st2 st20">&lt;</text>
	<text transform="matrix(0.8608 0 0 1 466.0845 757.9414)" class="st0 st2 st20">&gt;</text>
</g>
<g>
	
		<linearGradient id="SVGID_3_" gradientUnits="userSpaceOnUse" x1="159.8493" y1="437.945" x2="297.6375" y2="437.945" gradientTransform="matrix(1 0 0 -1 0 844)">
		<stop  offset="0" style="stop-color:#FFFFFF"/>
		<stop  offset="0.9985" style="stop-color:#BEDEF5"/>
	</linearGradient>
	<path class="st21" d="M295.9,413.8H161.6c-2.1,0-2.3-3.8-0.7-4.7l16.8-10.4c0.4-0.2,0.9-0.4,1.4-0.4h98.7c0.7,0,1.3,0.2,1.9,0.5
		l16.7,10.4C298.1,410.1,298.1,413.8,295.9,413.8z"/>
	
		<linearGradient id="SVGID_4_" gradientUnits="userSpaceOnUse" x1="178.41" y1="483.365" x2="278.92" y2="483.365" gradientTransform="matrix(1 0 0 -1 0 844)">
		<stop  offset="0" style="stop-color:#FFFFFF"/>
		<stop  offset="0.9985" style="stop-color:#BEDEF5"/>
	</linearGradient>
	<path class="st22" d="M276.5,327.3h-95.6c-1.4,0-2.5,1.1-2.5,2.5v61.8c0,1.4,1.1,2.5,2.5,2.5h95.6c1.4,0,2.5-1.1,2.5-2.5v-61.8
		C278.9,328.4,277.8,327.3,276.5,327.3z"/>
	<path class="st16" d="M276.7,330.8v59.8c0,0.7-0.5,1.2-1.2,1.2h-93.7c-0.7,0-1.2-0.5-1.2-1.2v-59.8c0-0.7,0.5-1.2,1.2-1.2h93.7
		C276.2,329.6,276.7,330.1,276.7,330.8z"/>
	<path class="st15" d="M295.9,411.3H161.6c-2.1,0-1.9-1.6-0.2-2.5l16.4-12.6c0.4-0.2,0.9-0.4,1.4-0.4h98.7c0.7,0,1.3,0.2,1.9,0.5
		l16.2,12.5C297.7,409.7,298.1,411.3,295.9,411.3z"/>
	<rect x="203.2" y="350.2" class="st0" width="4.9" height="23.1"/>
	<polygon class="st14" points="219.5,350.2 209.9,365.3 208.1,362.1 208.1,360.8 214,350.2 	"/>
	<polygon class="st14" points="219.7,373.4 210.8,358.3 208.1,360.8 208.1,362.1 214.3,373.4 	"/>
	<rect x="240.1" y="351.7" class="st0" width="4.9" height="21.6"/>
	<rect x="251.5" y="351.5" class="st0" width="4.9" height="21.6"/>
	<rect x="240.1" y="350.2" class="st14" width="16.3" height="5.7"/>
	<path class="st14" d="M236.8,361.8c0,1-0.1,2-0.2,2.9h-15.8c-0.2-0.9-0.2-1.9-0.2-2.9s0.1-2,0.2-2.9h15.8
		C236.7,359.9,236.8,360.8,236.8,361.8z"/>
	<path class="st0" d="M236.6,359c-0.9-5-4.1-8.7-7.9-8.7s-7,3.7-7.9,8.7c-0.2,0.9-0.2,1.9-0.2,2.9s0.1,2,0.2,2.9
		c0.9,5,4.1,8.7,7.9,8.7s7-3.7,7.9-8.7c0.2-0.9,0.2-1.9,0.2-2.9C236.8,360.8,236.7,359.9,236.6,359z M228.7,368.5
		c-1.8,0-3.4-1.6-4.2-3.8c-0.3-0.9-0.4-1.8-0.4-2.9s0.2-2,0.4-2.9c0.7-2.3,2.3-3.8,4.2-3.8s3.4,1.6,4.2,3.8c0.3,0.9,0.4,1.8,0.4,2.9
		s-0.2,2-0.4,2.9C232.1,367,230.5,368.5,228.7,368.5z"/>
	<text transform="matrix(0.8608 0 0 1 183.1187 372.0234)" class="st0 st2 st23">&lt;</text>
	<text transform="matrix(0.8608 0 0 1 259.0337 372.2305)" class="st0 st2 st23">&gt;</text>
</g>
<g>
	<g>
		<path class="st16" d="M70.8,377.4h19.8c-0.8,15.3-4.9,27-9.9,27C75.8,404.4,71.7,392.8,70.8,377.4z"/>
		<path class="st16" d="M90.6,366H70.8c0.8-15.3,4.9-29.4,9.9-29.4C85.7,336.6,89.8,350.7,90.6,366z"/>
		<polygon class="st16" points="114.1,404.4 94,404.4 94,336.6 114.1,339 		"/>
		<polygon class="st16" points="51.4,395.5 71.4,337.4 51.4,339 		"/>
		<polygon class="st16" points="51.4,347.9 71.5,404.4 51.4,404.4 		"/>
	</g>
	<rect x="50.2" y="407.7" class="st15" width="65.1" height="4.9"/>
	<rect x="46.7" y="411.6" class="st16" width="72.1" height="8.4"/>
	<path class="st24" d="M83.8,333.3c-12.2,0-23.8,0.7-34.7,2c1-2.6,2.2-5.1,3.6-7.4c6.8-11.2,17.6-18.5,29.8-18.5
		c12.1,0,22.9,7.2,29.6,18.2c1.4,2.3,2.6,4.8,3.7,7.4C105.8,333.9,95,333.3,83.8,333.3z"/>
	<path class="st25" d="M52.7,327.9c6.8-11.3,17.6-18.6,29.9-18.6s23.1,7.3,29.9,18.6H52.7z"/>
	<path class="st14" d="M112.6,327.9H52.9c0.5-0.8,1-1.6,1.5-2.3c0.8-1.3,1.8-2.5,2.7-3.6c1-1.2,2.1-2.3,3.2-3.4
		c1.2-1.1,2.4-2.1,3.7-3.1c1.9-1.4,3.9-2.6,6-3.5c4-1.8,8.2-2.8,12.7-2.8c4.5,0,8.8,1,12.8,2.8c2.1,1,4.1,2.1,6,3.5
		c1.3,0.9,2.5,2,3.7,3.1c1.2,1.1,2.3,2.3,3.3,3.6c0.9,1.1,1.8,2.2,2.6,3.4C111.7,326.5,112.1,327.2,112.6,327.9z"/>
	<path class="st14" d="M112.6,327.9H52.9c0.5-0.8,1-1.6,1.5-2.3c0.8-1.3,1.8-2.5,2.7-3.6c1-1.2,2.1-2.3,3.2-3.4
		c1.2-1.1,2.4-2.1,3.7-3.1c1.9-1.4,3.9-2.6,6-3.5c4.1-0.4,8.2-0.5,12.5-0.5c4.4,0,8.8,0.2,13.1,0.6c2.1,1,4.1,2.1,6,3.5
		c1.3,0.9,2.5,2,3.7,3.1c1.2,1.1,2.3,2.3,3.3,3.6c0.9,1.1,1.8,2.2,2.6,3.4C111.7,326.5,112.1,327.2,112.6,327.9z"/>
	<path class="st15" d="M111.2,325.8c0.5,0.7,0.9,1.4,1.4,2.2H52.9c0.5-0.8,1-1.6,1.5-2.3c0.8-1.3,1.8-2.5,2.7-3.6
		c1-1.2,2.1-2.3,3.2-3.4c1.2-1.1,2.4-2.1,3.7-3.1c6-0.8,12.2-1.2,18.5-1.2c6.5,0,12.9,0.4,19.1,1.3c1.3,0.9,2.5,2,3.7,3.1
		c1.2,1.1,2.3,2.3,3.3,3.6C109.6,323.4,110.4,324.6,111.2,325.8z"/>
	<path class="st15" d="M111.2,325.8c0.5,0.7,0.9,1.4,1.4,2.2H52.9c0.5-0.8,1-1.6,1.5-2.3c0.8-1.3,1.8-2.5,2.7-3.6
		c1-1.2,2.1-2.3,3.2-3.4c7.2-1.1,14.6-1.7,22.2-1.7c7.8,0,15.5,0.6,22.8,1.8c1.2,1.1,2.3,2.3,3.3,3.6
		C109.6,323.4,110.4,324.6,111.2,325.8z"/>
	<path class="st14" d="M111.2,325.8c0.5,0.7,0.9,1.4,1.4,2.2H52.9c0.5-0.8,1-1.6,1.5-2.3c0.8-1.3,1.8-2.5,2.7-3.6
		c8-1.4,16.3-2.1,24.9-2.1c9.2,0,18.2,0.9,26.7,2.5C109.6,323.4,110.4,324.6,111.2,325.8z"/>
	<path class="st14" d="M111.2,325.8c0.5,0.7,0.9,1.4,1.4,2.2H52.9c0.5-0.8,1-1.6,1.5-2.3c9-1.8,18.4-2.8,28.1-2.8
		C92.4,322.9,102.1,323.9,111.2,325.8z"/>
	<path class="st25" d="M102.2,327.9H62.8c6.4-0.9,13-1.3,19.7-1.3S95.8,327.1,102.2,327.9z"/>
	<path class="st16" d="M119.9,328.4v7c-1.3-0.2-2.7-0.3-4.1-0.5c-10.1-1.1-20.9-1.7-32-1.7c-12.2,0-23.8,0.7-34.7,2
		c-1.2,0.1-2.4,0.3-3.6,0.5v-7c2.4-0.3,4.8-0.6,7.3-0.9c9.8-1,20.3-1.6,31.1-1.6c9.8,0,19.3,0.5,28.3,1.3
		C114.8,327.8,117.4,328.1,119.9,328.4z"/>
	<rect x="79.3" y="374.1" class="st15" width="1.5" height="3.3"/>
	<circle class="st15" cx="80.9" cy="373.9" r="1.5"/>
</g>
<path class="st0" d="M366.4,344.4h122.3v38.2c0,12.4-10.6,22.4-23.6,22.4h-75c-13.1,0-23.6-10-23.6-22.4V344.4z"/>
<rect x="366.4" y="223.2" class="st16" width="122.3" height="60.6"/>
<rect x="366.4" y="283.8" class="st1" width="122.3" height="60.6"/>
<rect x="366.4" y="197.1" class="st15" width="122.3" height="26.1"/>
<path class="st14" d="M390,170.9h75c13.1,0,23.6,10,23.6,22.4v3.7H366.4v-3.7C366.4,181,377,170.9,390,170.9z"/>
<g>
	<text transform="matrix(1 0 0 1 207.5221 596.7111)" class="st0 st2 st26">Kappa Theta Pi</text>
	<text transform="matrix(1 0 0 1 207.5221 621.756)" class="st0 st8 st27">Professional Technology Fraternity</text>
</g>
<g>
	<text transform="matrix(1 0 0 1 208.4122 639.8185)" class="st14 st11 st28">EST 2020</text>
</g>
<path class="st0" d="M232.4,652"/>
<path class="st0" d="M232.5,649.2"/>
<rect x="86" y="702" class="st29" width="235.5" height="130.7"/>
<text transform="matrix(1 0 0 1 85.9596 709.6262)" class="st0 st6 st30">Lorem ipsum dolor sit amet, consectetur adipi</text>
<text transform="matrix(1 0 0 1 311.4396 709.6262)" class="st0 st6 st30">-</text>
<text transform="matrix(1 0 0 1 85.9596 721.8362)" class="st0 st6 st30">scing elit, sed do eiusmod tempor incididunt ut </text>
<text transform="matrix(1 0 0 1 85.9596 734.0363)" class="st0 st6 st30">labore et dolore magna aliqua. Ut enim ad </text>
<text transform="matrix(1 0 0 1 85.9596 746.2462)" class="st0 st6 st30">minim veniam, quis nostrud exercitation ullam</text>
<text transform="matrix(1 0 0 1 310.6596 746.2462)" class="st0 st6 st30">-</text>
<text transform="matrix(1 0 0 1 85.9596 758.4462)" class="st0 st6 st30">co laboris nisi ut aliquip ex ea commodo conse</text>
<text transform="matrix(1 0 0 1 314.6896 758.4462)" class="st0 st6 st30">-</text>
<text transform="matrix(1 0 0 1 85.9596 770.6562)" class="st0 st6 st30">quat. Duis aute irure dolor in reprehenderit in </text>
<text transform="matrix(1 0 0 1 85.9596 782.8562)" class="st0 st6 st30">voluptate velit esse cillum dolore eu fugiat nulla </text>
<text transform="matrix(1 0 0 1 85.9596 795.0662)" class="st0 st6 st30">pariatur. Excepteur sint occaecat cupidatat non </text>
<text transform="matrix(1 0 0 1 85.9596 807.2662)" class="st0 st6 st30">proident, sunt in culpa qui officia deserunt </text>
<text transform="matrix(1 0 0 1 85.9596 819.4762)" class="st0 st6 st30">mollit anim id est laborum.</text>
<g>
	<text transform="matrix(1 0 0 1 408.1897 188.1923)" class="st1 st8 st31">#bedef5</text>
</g>
<g>
	<text transform="matrix(1 0 0 1 408.1892 215.0496)" class="st1 st8 st31">#5fa5d4</text>
</g>
<g>
	<text transform="matrix(1 0 0 1 411.4316 377.4347)" class="st1 st8 st31">#ffffff</text>
</g>
<g>
	<text transform="matrix(1 0 0 1 408.1892 318.5017)" class="st0 st8 st31">#10162c</text>
</g>
<g>
	<text transform="matrix(1 0 0 1 408.189 256.5331)" class="st0 st8 st31">#4164a3</text>
</g>
<g>
	<g>
		<path class="st0" d="M115.7,613.2h28.5c-1.2,22-7.1,38.8-14.2,38.8C122.8,652,116.9,635.2,115.7,613.2z"/>
		<path class="st0" d="M144.1,596.7h-28.5c1.2-22,7.1-42.2,14.2-42.2C137,554.5,142.9,574.7,144.1,596.7z"/>
		<polygon class="st0" points="177.9,652 149,652 149,554.5 177.9,557.9 		"/>
		<polygon class="st0" points="87.7,639.1 116.5,555.5 87.7,557.9 		"/>
		<polygon class="st0" points="87.7,570.7 116.6,652 87.7,652 		"/>
	</g>
	<rect x="86" y="656.8" class="st14" width="93.6" height="7.1"/>
	<rect x="80.9" y="662.4" class="st0" width="103.8" height="12.1"/>
	<path class="st24" d="M134.4,549.6c-17.5,0-34.3,1-49.9,2.8c1.5-3.8,3.2-7.3,5.2-10.7c9.7-16.2,25.3-26.6,42.9-26.6
		c17.4,0,32.9,10.3,42.6,26.2c2,3.3,3.8,6.9,5.3,10.6C165.9,550.5,150.4,549.6,134.4,549.6z"/>
	<path class="st25" d="M89.6,542c9.7-16.2,25.3-26.8,43-26.8s33.2,10.5,43,26.8H89.6z"/>
	<path class="st14" d="M175.7,542H89.8c0.7-1.1,1.4-2.2,2.1-3.3c1.2-1.8,2.6-3.5,3.9-5.2c1.4-1.7,3-3.3,4.6-4.8
		c1.7-1.6,3.5-3.1,5.4-4.5c2.7-2,5.6-3.7,8.7-5c5.7-2.6,11.9-4,18.3-4c6.5,0,12.7,1.4,18.5,4.1c3,1.4,5.9,3.1,8.6,5.1
		c1.9,1.4,3.6,2.8,5.4,4.5c1.7,1.6,3.3,3.3,4.8,5.1c1.3,1.5,2.5,3.2,3.7,4.9C174.4,539.8,175.1,540.9,175.7,542z"/>
	<path class="st14" d="M175.7,542H89.8c0.7-1.1,1.4-2.2,2.1-3.3c1.2-1.8,2.6-3.5,3.9-5.2c1.4-1.7,3-3.3,4.6-4.8
		c1.7-1.6,3.5-3.1,5.4-4.5c2.7-2,5.6-3.7,8.7-5c5.9-0.5,11.9-0.8,17.9-0.8c6.4,0,12.7,0.3,18.9,0.8c3,1.4,5.9,3.1,8.6,5.1
		c1.9,1.4,3.6,2.8,5.4,4.5c1.7,1.6,3.3,3.3,4.8,5.1c1.3,1.5,2.5,3.2,3.7,4.9C174.4,539.8,175.1,540.9,175.7,542z"/>
	<path class="st0" d="M173.7,538.8c0.7,1,1.4,2.1,2,3.1H89.8c0.7-1.1,1.4-2.2,2.1-3.3c1.2-1.8,2.6-3.5,3.9-5.2
		c1.4-1.7,3-3.3,4.6-4.8c1.7-1.6,3.5-3.1,5.4-4.5c8.6-1.1,17.5-1.7,26.6-1.7c9.4,0,18.6,0.6,27.5,1.8c1.9,1.4,3.6,2.8,5.4,4.5
		c1.7,1.6,3.3,3.3,4.8,5.1C171.4,535.5,172.6,537.1,173.7,538.8z"/>
	<path class="st0" d="M173.7,538.8c0.7,1,1.4,2.1,2,3.1H89.8c0.7-1.1,1.4-2.2,2.1-3.3c1.2-1.8,2.6-3.5,3.9-5.2
		c1.4-1.7,3-3.3,4.6-4.8c10.3-1.6,21-2.5,32-2.5c11.3,0,22.3,0.9,32.9,2.6c1.7,1.6,3.3,3.3,4.8,5.1
		C171.4,535.5,172.6,537.1,173.7,538.8z"/>
	<path class="st14" d="M173.7,538.8c0.7,1,1.4,2.1,2,3.1H89.8c0.7-1.1,1.4-2.2,2.1-3.3c1.2-1.8,2.6-3.5,3.9-5.2
		c11.5-2,23.5-3.1,35.8-3.1c13.2,0,26.1,1.2,38.4,3.5C171.4,535.5,172.6,537.1,173.7,538.8z"/>
	<path class="st14" d="M173.7,538.8c0.7,1,1.4,2.1,2,3.1H89.8c0.7-1.1,1.4-2.2,2.1-3.3c12.9-2.6,26.4-4,40.5-4
		C146.7,534.7,160.6,536.1,173.7,538.8z"/>
	<path class="st25" d="M160.8,542H104c9.2-1.3,18.7-1.9,28.4-1.9S151.6,540.7,160.8,542z"/>
	<path class="st0" d="M186.3,542.6v10.1c-1.9-0.2-3.9-0.5-5.9-0.7c-14.5-1.6-30-2.4-46.1-2.4c-17.5,0-34.3,1-49.9,2.8
		c-1.8,0.2-3.5,0.4-5.2,0.7V543c3.4-0.5,6.9-0.9,10.5-1.2c14.1-1.5,29.2-2.3,44.7-2.3c14.1,0,27.8,0.7,40.8,1.9
		C178.9,541.8,182.7,542.2,186.3,542.6z"/>
	<rect x="127.9" y="608.4" class="st14" width="2.2" height="4.8"/>
	
		<ellipse transform="matrix(3.327816e-02 -0.9994 0.9994 3.327816e-02 -482.042 717.9005)" class="st14" cx="130.1" cy="608.1" rx="2.2" ry="2.1"/>
</g>
</svg>
