<?xml version="1.0" encoding="utf-8"?>
<!-- Generator: Adobe Illustrator 24.1.2, SVG Export Plug-In . SVG Version: 6.00 Build 0)  -->
<svg version="1.1" id="Layer_1" xmlns="http://www.w3.org/2000/svg" xmlns:xlink="http://www.w3.org/1999/xlink" x="0px" y="0px"
	 viewBox="0 0 392.01 392.01" style="enable-background:new 0 0 392.01 392.01;" xml:space="preserve">
<style type="text/css">
	.st0{fill:none;stroke:#0C2553;stroke-miterlimit:10;}
	.st1{fill:#0C2553;}
	.st2{font-family:'ObjektivMk2-Thin';}
	.st3{font-size:249.0413px;}
	.st4{fill:none;}
	.st5{fill:none;stroke:#0C2553;}
</style>
<g id="logo_big" transform="translate(-57 7.44)">
	<g id="logo" transform="translate(58.716 -7.44)">
		<g id="logo-2" transform="translate(31.166 34.366)">
			<path id="Path_247" class="st0" d="M118.77,204.75V166.4l24.52-30.3l9.63,6.16l25.57-24.98l21.5-26l19.55,26l17.13,8.03
				l29.62,32.11v18.45l10.94,6.63v22.26l-158.47,0.8V204.75z"/>
			<path id="Path_248" class="st0" d="M118.77,166.4l23.17-12.14l1.35-16.97"/>
			<path id="Path_249" class="st0" d="M182.8,112.04l11.99-4.27l5.19-16.51"/>
			<path id="Path_250" class="st0" d="M152.91,142.25l34.16-10.99l-8.6-13.99"/>
			<path id="Path_251" class="st0" d="M158,156.53"/>
			<path id="Path_252" class="st0" d="M143.2,171.28"/>
			<path id="Path_253" class="st0" d="M198.59,204.79l-11.34-25.54l-2.64-12.26l-7.2-11.71l-4.66,16.43l-2.67,33.03"/>
			<path id="Path_254" class="st0" d="M266.29,157.21h-12.4l-17.23-31.91"/>
			<path id="Path_255" class="st0" d="M277.23,182.39h-13.07l2.13-6.13"/>
			<path id="Path_256" class="st0" d="M164.51,204.75l-4.39-10.23l-5.66-1.57l3.54-8.76h-11.51l-5.58-17.84l-8.3,14.17v24.24"/>
			<path id="Path_257" class="st0" d="M206.33,121.21l30.98,30.01v25.97l12.06,16.99v10.61h-42.55l1.61-12.24l8.66-6.16l0.3-5.23h-6
				l-5.06-14.81l5-17.93L206.33,121.21z"/>
		</g>
		<text transform="matrix(1 0 0 1 6.1976 251.6234)" class="st1 st2 st3">e</text>
		<text transform="matrix(1 0 0 1 315.575 269.3617)" class="st1 st2 st3">j</text>
	</g>
	<g id="Group_15" transform="translate(57 -0.605)">
		<g id="Rectangle_450" transform="translate(0 -0.395)">
			<rect y="-6.44" class="st4" width="392.01" height="392.01"/>
			<rect x="2.31" y="-4.13" class="st5" width="387.4" height="387.4"/>
		</g>
	</g>
</g>
</svg>
