<?xml version="1.0" encoding="utf-8"?>
<!-- Generator: Adobe Illustrator 24.2.1, SVG Export Plug-In . SVG Version: 6.00 Build 0)  -->
<svg version="1.1" id="Layer_1" xmlns="http://www.w3.org/2000/svg" xmlns:xlink="http://www.w3.org/1999/xlink" x="0px" y="0px"
	 viewBox="0 0 686 464" style="enable-background:new 0 0 686 464;" xml:space="preserve">
<style type="text/css">
	.st0{fill:#F6F6F6;}
	.st1{fill:#FFFFFF;}
	.st2{fill:#EFF0F0;}
	.st3{fill:#E4E5E6;}
	.st4{fill:#C1EBEF;}
	.st5{fill:url(#SVGID_1_);}
	.st6{enable-background:new    ;}
	.st7{fill:#DFDFDF;}
	.st8{fill:#828282;}
	.st9{fill:#B4B4B4;}
	.st10{fill:#00BDE2;}
	.st11{opacity:0.5;fill:url(#SVGID_2_);}
	.st12{fill:url(#SVGID_3_);}
	.st13{fill:url(#SVGID_4_);}
	.st14{fill:url(#SVGID_5_);}
	.st15{fill:url(#SVGID_6_);}
	.st16{fill:url(#SVGID_7_);}
	.st17{fill:url(#SVGID_8_);}
	.st18{fill:#7E7E7E;}
	.st19{fill:#D4D4D4;}
	.st20{fill:#AAAAAA;}
	.st21{fill:url(#SVGID_9_);}
	.st22{fill:url(#SVGID_10_);}
	.st23{fill:url(#SVGID_11_);}
	.st24{fill:#C8C8C8;}
	.st25{fill:#757575;}
	.st26{fill:#A2A2A2;}
	.st27{fill:#9B9B9B;}
	.st28{fill:#5B5B5B;}
</style>
<g id="Layer_2_1_">
	<g>
		<ellipse class="st0" cx="202.7" cy="53.4" rx="57.6" ry="53.1"/>
		<ellipse class="st0" cx="259.4" cy="75.9" rx="53" ry="48.8"/>
		<ellipse class="st0" cx="304.6" cy="108.2" rx="45.2" ry="41.6"/>
		<ellipse class="st0" cx="145.1" cy="64.8" rx="38.6" ry="35.5"/>
		<ellipse class="st0" cx="113" cy="115.2" rx="45.2" ry="41.6"/>
		<ellipse class="st0" cx="177.4" cy="108.2" rx="82" ry="49"/>
		
			<ellipse transform="matrix(0.1688 -0.9857 0.9857 0.1688 87.4235 316.5164)" class="st0" cx="231.4" cy="106.4" rx="49.1" ry="81.8"/>
	</g>
	<g>
		<ellipse class="st0" cx="380.2" cy="72.5" rx="67.6" ry="48.7"/>
		<ellipse class="st0" cx="446.7" cy="93.2" rx="62.2" ry="44.8"/>
		<ellipse class="st0" cx="499.8" cy="122.9" rx="53" ry="38.2"/>
		<ellipse class="st0" cx="312.6" cy="83" rx="45.2" ry="32.6"/>
		<ellipse class="st0" cx="274.9" cy="129.3" rx="53" ry="38.2"/>
		<ellipse class="st0" cx="350.5" cy="122.9" rx="96.2" ry="44.9"/>
		
			<ellipse transform="matrix(0.1089 -0.9941 0.9941 0.1089 248.2951 519.4398)" class="st0" cx="413.9" cy="121.2" rx="45.2" ry="95.5"/>
	</g>
	<g>
		<circle class="st0" cx="554.3" cy="90.2" r="37.5"/>
		<circle class="st0" cx="495.1" cy="64" r="52.9"/>
		<circle class="st0" cx="612.6" cy="120.1" r="38.2"/>
		<circle class="st0" cx="452.9" cy="64" r="39.4"/>
		<circle class="st0" cx="413.5" cy="118.1" r="40.2"/>
		<rect x="407" y="97.4" class="st0" width="213.3" height="60.7"/>
	</g>
</g>
<g id="Layer_1_2_">
	<g>
		<circle class="st1" cx="550.8" cy="117.2" r="53.1"/>
		<circle class="st1" cx="603" cy="139.8" r="48.8"/>
		<circle class="st1" cx="644.6" cy="172.1" r="41.6"/>
		<circle class="st1" cx="497.8" cy="128.6" r="35.5"/>
		<circle class="st1" cx="468.2" cy="179" r="41.6"/>
		<ellipse class="st1" cx="527.5" cy="172.1" rx="75.5" ry="49"/>
		
			<ellipse transform="matrix(0.2026 -0.9793 0.9793 0.2026 293.5252 701.0313)" class="st1" cx="577.2" cy="170.3" rx="49" ry="75.5"/>
	</g>
	<g>
		<ellipse class="st2" cx="493.6" cy="188.6" rx="44.5" ry="39.9"/>
		<ellipse class="st2" cx="423.4" cy="160.7" rx="62.8" ry="56.2"/>
		<ellipse class="st2" cx="562.8" cy="220.4" rx="45.3" ry="40.5"/>
		<ellipse class="st2" cx="373.3" cy="160.7" rx="46.7" ry="41.8"/>
		<ellipse class="st2" cx="326.6" cy="218.2" rx="47.7" ry="42.7"/>
		<rect x="318.9" y="196.2" class="st2" width="253.1" height="64.5"/>
	</g>
</g>
<g id="Layer_1_3_">
	<g>
		<circle class="st1" cx="124.7" cy="101.4" r="53.1"/>
		<circle class="st1" cx="176.9" cy="123.9" r="48.8"/>
		<circle class="st1" cx="218.5" cy="156.3" r="41.6"/>
		<circle class="st1" cx="71.7" cy="112.8" r="35.5"/>
		<circle class="st1" cx="42.1" cy="163.2" r="41.6"/>
		<ellipse class="st1" cx="101.4" cy="156.3" rx="75.5" ry="49"/>
		
			<ellipse transform="matrix(0.2026 -0.9793 0.9793 0.2026 -30.7726 271.1582)" class="st1" cx="151.1" cy="154.5" rx="49" ry="75.5"/>
	</g>
</g>
<g id="Layer_3_1_">
	<g>
		<circle class="st2" cx="175.5" cy="182.2" r="53.1"/>
		<circle class="st2" cx="227.7" cy="204.7" r="48.8"/>
		<circle class="st2" cx="269.3" cy="237" r="41.6"/>
		<circle class="st2" cx="122.5" cy="193.6" r="35.5"/>
		<circle class="st2" cx="92.9" cy="244" r="41.6"/>
		<ellipse class="st2" cx="152.2" cy="237" rx="75.5" ry="49"/>
		
			<ellipse transform="matrix(0.2026 -0.9793 0.9793 0.2026 -69.3415 385.2824)" class="st2" cx="201.9" cy="235.2" rx="49" ry="75.5"/>
	</g>
	<g>
		<ellipse class="st3" cx="304.3" cy="128.1" rx="45.4" ry="43.5"/>
		<ellipse class="st3" cx="348.9" cy="146.6" rx="41.8" ry="40"/>
		<ellipse class="st3" cx="384.5" cy="173.1" rx="35.6" ry="34.1"/>
		<ellipse class="st3" cx="258.9" cy="137.5" rx="30.4" ry="29.1"/>
		<ellipse class="st3" cx="233.6" cy="178.8" rx="35.6" ry="34.1"/>
		<ellipse class="st3" cx="284.3" cy="173.1" rx="64.6" ry="40.1"/>
		
			<ellipse transform="matrix(0.1839 -0.9829 0.9829 0.1839 98.0888 461.3687)" class="st3" cx="326.9" cy="171.6" rx="40.2" ry="64.5"/>
	</g>
	<g>
		
			<ellipse transform="matrix(0.1602 -0.9871 0.9871 0.1602 26.9218 512.8547)" class="st1" cx="314.9" cy="240.6" rx="40.8" ry="40.8"/>
		
			<ellipse transform="matrix(0.1602 -0.9871 0.9871 0.1602 43.5303 567.0239)" class="st1" cx="355" cy="257.9" rx="37.6" ry="37.6"/>
		<circle class="st1" cx="387" cy="282.8" r="32"/>
		<circle class="st1" cx="274" cy="249.4" r="27.3"/>
		<circle class="st1" cx="251.3" cy="288.2" r="32"/>
		<ellipse class="st1" cx="296.9" cy="282.8" rx="58.1" ry="37.7"/>
		
			<ellipse transform="matrix(0.2026 -0.9793 0.9793 0.2026 -8.3262 552.6187)" class="st1" cx="335.2" cy="281.4" rx="37.7" ry="58.1"/>
	</g>
</g>
<g>
	
		<image style="overflow:visible;opacity:0.4;" width="782" height="361" xlink:href="3ED0717A81B54FB8.png"  transform="matrix(1 0 0 1 -62 155)">
	</image>
	<g>
		<polyline class="st4" points="43.4,278.4 221.9,375.2 614.7,322.5 440.6,225.4 43.4,278.4 		"/>
	</g>
</g>
<linearGradient id="SVGID_1_" gradientUnits="userSpaceOnUse" x1="133.1612" y1="336.3671" x2="121.074" y2="282.76">
	<stop  offset="0" style="stop-color:#CBCBCB"/>
	<stop  offset="0.9252" style="stop-color:#868686"/>
	<stop  offset="1" style="stop-color:#808080"/>
</linearGradient>
<polygon class="st5" points="43.4,278.4 221.6,375.4 221.6,391.9 43.4,291.3 "/>
<polygon class="st1" points="221.6,375.4 614.6,322.2 614.6,338 221.6,391.9 "/>
<g>
	<g>
		<g class="st6">
			<g>
				<polygon class="st7" points="315.6,171.1 315.6,187.8 300.1,189.9 300.2,173.3 				"/>
			</g>
			<g>
				<polygon class="st8" points="300.1,189.9 299.7,189.7 299.7,173 300.2,173.3 				"/>
			</g>
			<g>
				<polygon class="st9" points="300.2,173.3 299.7,173 315.1,170.9 315.6,171.1 				"/>
			</g>
		</g>
	</g>
</g>
<g>
	<g>
		<g class="st6">
			<g>
				<polygon class="st7" points="344.7,167.4 344.6,184.1 329.2,186.2 329.3,169.6 				"/>
			</g>
			<g>
				<polygon class="st8" points="329.2,186.2 328.8,186 328.8,169.3 329.3,169.6 				"/>
			</g>
			<g>
				<polygon class="st9" points="329.3,169.6 328.8,169.3 344.2,167.2 344.7,167.4 				"/>
			</g>
		</g>
	</g>
</g>
<g>
	<g>
		<g class="st6">
			<g>
				<polygon class="st7" points="316.8,196.5 316.8,213.1 301.4,215.3 301.4,198.7 				"/>
			</g>
			<g>
				<polygon class="st8" points="301.4,215.3 300.9,215.1 301,198.4 301.4,198.7 				"/>
			</g>
			<g>
				<polygon class="st9" points="301.4,198.7 301,198.4 316.4,196.3 316.8,196.5 				"/>
			</g>
		</g>
	</g>
</g>
<g>
	<g>
		<g class="st6">
			<g>
				<polygon class="st7" points="345.9,192.8 345.9,209.4 330.5,211.6 330.5,195 				"/>
			</g>
			<g>
				<polygon class="st8" points="330.5,211.6 330,211.4 330,194.7 330.5,195 				"/>
			</g>
			<g>
				<polygon class="st9" points="330.5,195 330,194.7 345.5,192.5 345.9,192.8 				"/>
			</g>
		</g>
	</g>
</g>
<g>
	<g>
		<g class="st6">
			<g>
				<polygon class="st7" points="316.8,221.9 316.8,238.5 301.4,240.7 301.4,224 				"/>
			</g>
			<g>
				<polygon class="st8" points="301.4,240.7 300.9,240.4 301,223.8 301.4,224 				"/>
			</g>
			<g>
				<polygon class="st9" points="301.4,224 301,223.8 316.4,221.6 316.8,221.9 				"/>
			</g>
		</g>
	</g>
</g>
<g>
	<g>
		<g class="st6">
			<g>
				<polygon class="st7" points="345.9,218.2 345.9,234.8 330.5,237 330.5,220.3 				"/>
			</g>
			<g>
				<polygon class="st8" points="330.5,237 330,236.7 330,220.1 330.5,220.3 				"/>
			</g>
			<g>
				<polygon class="st9" points="330.5,220.3 330,220.1 345.5,217.9 345.9,218.2 				"/>
			</g>
		</g>
	</g>
</g>
<g>
	<g>
		<g class="st6">
			<g>
				<polygon class="st7" points="316.8,247.2 316.8,263.9 301.4,266.1 301.4,249.4 				"/>
			</g>
			<g>
				<polygon class="st8" points="301.4,266.1 300.9,265.8 301,249.2 301.4,249.4 				"/>
			</g>
			<g>
				<polygon class="st9" points="301.4,249.4 301,249.2 316.4,247 316.8,247.2 				"/>
			</g>
		</g>
	</g>
</g>
<g>
	<g>
		<g class="st6">
			<g>
				<polygon class="st7" points="345.9,243.5 345.9,260.2 330.5,262.3 330.5,245.7 				"/>
			</g>
			<g>
				<polygon class="st8" points="330.5,262.3 330,262.1 330,245.5 330.5,245.7 				"/>
			</g>
			<g>
				<polygon class="st9" points="330.5,245.7 330,245.5 345.5,243.3 345.9,243.5 				"/>
			</g>
		</g>
	</g>
</g>
<polygon class="st10" points="139.5,330.2 261.8,311.4 184.2,263.3 213,259.7 326.5,322.2 170.6,347.4 "/>
<polygon class="st10" points="505.4,336.6 420.1,283.6 380.4,289.2 463.7,342.3 "/>
<linearGradient id="SVGID_2_" gradientUnits="userSpaceOnUse" x1="43.3796" y1="291.6716" x2="155.4742" y2="291.6716">
	<stop  offset="0" style="stop-color:#F6F6F6;stop-opacity:0"/>
	<stop  offset="1" style="stop-color:#000000"/>
</linearGradient>
<polyline class="st11" points="155.5,315 84.3,300.7 43.4,278.4 118.8,268.3 123.7,270.3 124.2,296.9 155.5,315 "/>
<linearGradient id="SVGID_3_" gradientUnits="userSpaceOnUse" x1="174.1567" y1="319.2917" x2="332.239" y2="319.2917">
	<stop  offset="0" style="stop-color:#F6F6F6;stop-opacity:0"/>
	<stop  offset="1" style="stop-color:#4D4D4D"/>
</linearGradient>
<polyline class="st12" points="332.2,347.4 174.2,329.4 225.2,305 225.3,291.2 300.2,304.8 301.2,328.9 332.2,347.4 "/>
<linearGradient id="SVGID_4_" gradientUnits="userSpaceOnUse" x1="381.8193" y1="300.6884" x2="498.9439" y2="300.6884">
	<stop  offset="0" style="stop-color:#F6F6F6;stop-opacity:0"/>
	<stop  offset="1" style="stop-color:#4D4D4D"/>
</linearGradient>
<polygon class="st13" points="496.1,319.3 416.3,307.1 381.8,308.6 408.3,281.3 437.9,283.4 437.9,286.3 498.9,320.1 "/>
<linearGradient id="SVGID_5_" gradientUnits="userSpaceOnUse" x1="217.27" y1="275.8633" x2="286.2514" y2="275.8633">
	<stop  offset="0" style="stop-color:#F6F6F6;stop-opacity:0"/>
	<stop  offset="1" style="stop-color:#4D4D4D"/>
</linearGradient>
<polyline class="st14" points="286.3,294.2 217.3,276.2 217.3,257.5 225.3,261.2 286.3,294.2 "/>
<g>
	<polygon class="st1" points="454.6,81.1 454.3,277.2 400.8,284.7 401.2,88.6 	"/>
</g>
<g>
	<linearGradient id="SVGID_6_" gradientUnits="userSpaceOnUse" x1="384.6483" y1="204.3092" x2="386.8495" y2="85.2465">
		<stop  offset="0" style="stop-color:#CBCBCB"/>
		<stop  offset="0.9252" style="stop-color:#868686"/>
		<stop  offset="1" style="stop-color:#808080"/>
	</linearGradient>
	<polygon class="st15" points="400.8,284.7 369.1,267.5 369.4,71.3 401.2,88.6 	"/>
</g>
<g>
	<polygon class="st4" points="401.2,88.6 369.4,71.3 422.9,63.8 454.6,81.1 	"/>
</g>
<g>
	<polygon class="st1" points="354,153 353.7,285 286.5,294.5 286.8,162.5 	"/>
</g>
<g>
	<linearGradient id="SVGID_7_" gradientUnits="userSpaceOnUse" x1="256.9662" y1="268.185" x2="254.8098" y2="138.306">
		<stop  offset="0" style="stop-color:#CBCBCB"/>
		<stop  offset="0.9252" style="stop-color:#868686"/>
		<stop  offset="1" style="stop-color:#808080"/>
	</linearGradient>
	<polygon class="st16" points="286.5,294.5 225.3,261.2 225.5,129.2 286.8,162.5 	"/>
</g>
<g>
	<polygon class="st4" points="286.8,162.5 225.5,129.2 292.7,119.7 354,153 	"/>
</g>
<g>
	<polygon class="st1" points="429.1,255.1 429,333.5 376.6,340.9 376.8,262.4 	"/>
</g>
<g>
	<linearGradient id="SVGID_8_" gradientUnits="userSpaceOnUse" x1="346.3656" y1="294.4588" x2="344.5346" y2="233.0858">
		<stop  offset="0" style="stop-color:#CBCBCB"/>
		<stop  offset="0.9252" style="stop-color:#868686"/>
		<stop  offset="1" style="stop-color:#808080"/>
	</linearGradient>
	<polygon class="st17" points="376.6,340.9 315.4,307.6 315.5,229.1 376.8,262.4 	"/>
</g>
<g>
	<polygon class="st4" points="376.8,262.4 315.5,229.1 367.9,221.7 429.1,255.1 	"/>
</g>
<g>
	<g>
		<g class="st6">
			<g>
				<polygon class="st18" points="389.7,94.6 390.5,114.8 378.8,109.9 378,89.7 				"/>
			</g>
			<g>
				<polygon class="st19" points="389.7,94.6 390.6,94.4 391.4,114.6 390.5,114.8 				"/>
			</g>
			<g>
				<polygon class="st20" points="378,89.7 378.9,89.5 390.6,94.4 389.7,94.6 				"/>
			</g>
		</g>
	</g>
</g>
<g>
	<g>
		<g class="st6">
			<g>
				<polygon class="st18" points="389.7,125.5 390.5,145.7 378.8,140.8 378,120.6 				"/>
			</g>
			<g>
				<polygon class="st19" points="389.7,125.5 390.6,125.3 391.4,145.5 390.5,145.7 				"/>
			</g>
			<g>
				<polygon class="st20" points="378,120.6 378.9,120.4 390.6,125.3 389.7,125.5 				"/>
			</g>
		</g>
	</g>
</g>
<g>
	<g>
		<g class="st6">
			<g>
				<polygon class="st18" points="389.7,155.7 390.5,175.9 378.8,171 378,150.8 				"/>
			</g>
			<g>
				<polygon class="st19" points="389.7,155.7 390.6,155.5 391.4,175.7 390.5,175.9 				"/>
			</g>
			<g>
				<polygon class="st20" points="378,150.8 378.9,150.6 390.6,155.5 389.7,155.7 				"/>
			</g>
		</g>
	</g>
</g>
<g>
	<g>
		<g class="st6">
			<g>
				<polygon class="st18" points="389.7,185.1 390.5,205.4 378.8,200.5 378,180.2 				"/>
			</g>
			<g>
				<polygon class="st19" points="389.7,185.1 390.6,184.9 391.4,205.2 390.5,205.4 				"/>
			</g>
			<g>
				<polygon class="st20" points="378,180.2 378.9,180 390.6,184.9 389.7,185.1 				"/>
			</g>
		</g>
	</g>
</g>
<g>
	<g>
		<g class="st6">
			<g>
				<polygon class="st18" points="389.7,213.1 390.5,233.4 378.8,228.5 378,208.2 				"/>
			</g>
			<g>
				<polygon class="st19" points="389.7,213.1 390.6,212.9 391.4,233.2 390.5,233.4 				"/>
			</g>
			<g>
				<polygon class="st20" points="378,208.2 378.9,208 390.6,212.9 389.7,213.1 				"/>
			</g>
		</g>
	</g>
</g>
<g>
	<g>
		<g class="st6">
			<g>
				<polygon class="st18" points="244.6,154.2 245.4,174.5 233.7,169.6 232.9,149.3 				"/>
			</g>
			<g>
				<polygon class="st19" points="244.6,154.2 245.4,154 246.2,174.3 245.4,174.5 				"/>
			</g>
			<g>
				<polygon class="st20" points="232.9,149.3 233.7,149.1 245.4,154 244.6,154.2 				"/>
			</g>
		</g>
	</g>
</g>
<g>
	<g>
		<g class="st6">
			<g>
				<polygon class="st18" points="269,166.4 269.8,186.7 258.1,181.8 257.3,161.5 				"/>
			</g>
			<g>
				<polygon class="st19" points="269,166.4 269.8,166.2 270.6,186.5 269.8,186.7 				"/>
			</g>
			<g>
				<polygon class="st20" points="257.3,161.5 258.2,161.3 269.8,166.2 269,166.4 				"/>
			</g>
		</g>
	</g>
</g>
<g>
	<g>
		<g class="st6">
			<g>
				<polygon class="st18" points="244.6,185.1 245.4,205.4 233.7,200.5 232.9,180.2 				"/>
			</g>
			<g>
				<polygon class="st19" points="244.6,185.1 245.4,184.9 246.2,205.2 245.4,205.4 				"/>
			</g>
			<g>
				<polygon class="st20" points="232.9,180.2 233.7,180 245.4,184.9 244.6,185.1 				"/>
			</g>
		</g>
	</g>
</g>
<g>
	<g>
		<g class="st6">
			<g>
				<polygon class="st18" points="269,197.3 269.8,217.6 258.1,212.7 257.3,192.4 				"/>
			</g>
			<g>
				<polygon class="st19" points="269,197.3 269.8,197.1 270.6,217.4 269.8,217.6 				"/>
			</g>
			<g>
				<polygon class="st20" points="257.3,192.4 258.2,192.2 269.8,197.1 269,197.3 				"/>
			</g>
		</g>
	</g>
</g>
<g>
	<g>
		<g class="st6">
			<g>
				<polygon class="st18" points="244.6,215.3 245.4,235.6 233.7,230.6 232.9,210.4 				"/>
			</g>
			<g>
				<polygon class="st19" points="244.6,215.3 245.4,215.1 246.2,235.4 245.4,235.6 				"/>
			</g>
			<g>
				<polygon class="st20" points="232.9,210.4 233.7,210.2 245.4,215.1 244.6,215.3 				"/>
			</g>
		</g>
	</g>
</g>
<g>
	<g>
		<g class="st6">
			<g>
				<polygon class="st18" points="269,227.5 269.8,247.8 258.1,242.9 257.3,222.6 				"/>
			</g>
			<g>
				<polygon class="st19" points="269,227.5 269.8,227.3 270.6,247.6 269.8,247.8 				"/>
			</g>
			<g>
				<polygon class="st20" points="257.3,222.6 258.2,222.4 269.8,227.3 269,227.5 				"/>
			</g>
		</g>
	</g>
</g>
<g>
	<polygon class="st1" points="582,146.4 581.7,308.7 499.1,320.3 499.4,158 	"/>
</g>
<g>
	<linearGradient id="SVGID_9_" gradientUnits="userSpaceOnUse" x1="467.1283" y1="283.1837" x2="470.6918" y2="138.6266">
		<stop  offset="0" style="stop-color:#CBCBCB"/>
		<stop  offset="0.9252" style="stop-color:#868686"/>
		<stop  offset="1" style="stop-color:#808080"/>
	</linearGradient>
	<polygon class="st21" points="499.1,320.3 437.8,286.9 438.1,124.6 499.4,158 	"/>
</g>
<g>
	<polygon class="st4" points="499.4,158 438.1,124.6 520.8,113 582,146.4 	"/>
</g>
<g>
	<polygon class="st1" points="385.9,186.2 385.6,339.6 332.2,347.1 332.5,193.7 	"/>
</g>
<g>
	<linearGradient id="SVGID_10_" gradientUnits="userSpaceOnUse" x1="316.6523" y1="279.965" x2="315.556" y2="184.9633">
		<stop  offset="0" style="stop-color:#CBCBCB"/>
		<stop  offset="0.9252" style="stop-color:#868686"/>
		<stop  offset="1" style="stop-color:#808080"/>
	</linearGradient>
	<polygon class="st22" points="332.2,347.1 300.4,329.8 300.7,176.4 332.5,193.7 	"/>
</g>
<g>
	<polygon class="st4" points="332.5,193.7 300.7,176.4 354.1,168.9 385.9,186.2 	"/>
</g>
<g>
	<polygon class="st1" points="224.8,192 224.6,305 155.2,314.7 155.4,201.8 	"/>
</g>
<g>
	<linearGradient id="SVGID_11_" gradientUnits="userSpaceOnUse" x1="138.817" y1="298.9543" x2="140.1221" y2="197.7194">
		<stop  offset="0" style="stop-color:#CBCBCB"/>
		<stop  offset="0.9252" style="stop-color:#868686"/>
		<stop  offset="1" style="stop-color:#808080"/>
	</linearGradient>
	<polygon class="st23" points="155.2,314.7 123.5,297.5 123.7,184.5 155.4,201.8 	"/>
</g>
<g>
	<polygon class="st4" points="155.4,201.8 123.7,184.5 193.1,174.7 224.8,192 	"/>
</g>
<g>
	<g>
		<g class="st6">
			<g>
				<polygon class="st7" points="182.1,211.9 182.1,228.6 166.7,230.8 166.7,214.1 				"/>
			</g>
			<g>
				<polygon class="st8" points="166.7,230.8 166.2,230.5 166.2,213.9 166.7,214.1 				"/>
			</g>
			<g>
				<polygon class="st9" points="166.7,214.1 166.2,213.9 181.7,211.7 182.1,211.9 				"/>
			</g>
		</g>
	</g>
</g>
<g>
	<g>
		<g class="st6">
			<g>
				<polygon class="st7" points="211.2,208.2 211.2,224.9 195.7,227 195.8,210.4 				"/>
			</g>
			<g>
				<polygon class="st8" points="195.7,227 195.3,226.8 195.3,210.1 195.8,210.4 				"/>
			</g>
			<g>
				<polygon class="st9" points="195.8,210.4 195.3,210.1 210.7,208 211.2,208.2 				"/>
			</g>
		</g>
	</g>
</g>
<g>
	<g>
		<g class="st6">
			<g>
				<polygon class="st7" points="183.3,237.3 183.3,254 167.9,256.1 167.9,239.5 				"/>
			</g>
			<g>
				<polygon class="st8" points="167.9,256.1 167.4,255.9 167.5,239.2 167.9,239.5 				"/>
			</g>
			<g>
				<polygon class="st9" points="167.9,239.5 167.5,239.2 182.9,237.1 183.3,237.3 				"/>
			</g>
		</g>
	</g>
</g>
<g>
	<g>
		<g class="st6">
			<g>
				<polygon class="st7" points="212.4,233.6 212.4,250.2 197,252.4 197,235.8 				"/>
			</g>
			<g>
				<polygon class="st8" points="197,252.4 196.5,252.2 196.6,235.5 197,235.8 				"/>
			</g>
			<g>
				<polygon class="st9" points="197,235.8 196.6,235.5 212,233.4 212.4,233.6 				"/>
			</g>
		</g>
	</g>
</g>
<g>
	<g>
		<g class="st6">
			<g>
				<polygon class="st7" points="183.3,262.7 183.3,279.3 167.9,281.5 167.9,264.9 				"/>
			</g>
			<g>
				<polygon class="st8" points="167.9,281.5 167.4,281.2 167.5,264.6 167.9,264.9 				"/>
			</g>
			<g>
				<polygon class="st9" points="167.9,264.9 167.5,264.6 182.9,262.4 183.3,262.7 				"/>
			</g>
		</g>
	</g>
</g>
<g>
	<g>
		<g class="st6">
			<g>
				<polygon class="st7" points="212.4,259 212.4,275.6 197,277.8 197,261.1 				"/>
			</g>
			<g>
				<polygon class="st8" points="197,277.8 196.5,277.5 196.6,260.9 197,261.1 				"/>
			</g>
			<g>
				<polygon class="st9" points="197,261.1 196.6,260.9 212,258.7 212.4,259 				"/>
			</g>
		</g>
	</g>
</g>
<g>
	<g>
		<g class="st6">
			<g>
				<polygon class="st7" points="531.5,163.7 531.5,180.4 516.1,182.6 516.1,165.9 				"/>
			</g>
			<g>
				<polygon class="st8" points="516.1,182.6 515.6,182.3 515.6,165.7 516.1,165.9 				"/>
			</g>
			<g>
				<polygon class="st9" points="516.1,165.9 515.6,165.7 531.1,163.5 531.5,163.7 				"/>
			</g>
		</g>
	</g>
</g>
<g>
	<g>
		<g class="st6">
			<g>
				<polygon class="st24" points="560.6,160 560.6,176.7 545.1,178.8 545.2,162.2 				"/>
			</g>
			<g>
				<polygon class="st25" points="545.1,178.8 544.7,178.6 544.7,162 545.2,162.2 				"/>
			</g>
			<g>
				<polygon class="st26" points="545.2,162.2 544.7,162 560.1,159.8 560.6,160 				"/>
			</g>
		</g>
	</g>
</g>
<g>
	<g>
		<g class="st6">
			<g>
				<polygon class="st27" points="532.7,189.1 532.7,205.8 517.3,207.9 517.3,191.3 				"/>
			</g>
			<g>
				<polygon class="st28" points="517.3,207.9 516.8,207.7 516.9,191 517.3,191.3 				"/>
			</g>
			<g>
				<polygon class="st18" points="517.3,191.3 516.9,191 532.3,188.9 532.7,189.1 				"/>
			</g>
		</g>
	</g>
</g>
<g>
	<g>
		<g class="st6">
			<g>
				<polygon class="st7" points="561.8,185.4 561.8,202 546.4,204.2 546.4,187.6 				"/>
			</g>
			<g>
				<polygon class="st8" points="546.4,204.2 545.9,204 546,187.3 546.4,187.6 				"/>
			</g>
			<g>
				<polygon class="st9" points="546.4,187.6 546,187.3 561.4,185.2 561.8,185.4 				"/>
			</g>
		</g>
	</g>
</g>
<g>
	<g>
		<g class="st6">
			<g>
				<polygon class="st24" points="532.7,214.5 532.7,231.1 517.3,233.3 517.3,216.6 				"/>
			</g>
			<g>
				<polygon class="st25" points="517.3,233.3 516.8,233.1 516.9,216.4 517.3,216.6 				"/>
			</g>
			<g>
				<polygon class="st26" points="517.3,216.6 516.9,216.4 532.3,214.2 532.7,214.5 				"/>
			</g>
		</g>
	</g>
</g>
<g>
	<g>
		<g class="st6">
			<g>
				<polygon class="st27" points="561.8,210.8 561.8,227.4 546.4,229.6 546.4,212.9 				"/>
			</g>
			<g>
				<polygon class="st28" points="546.4,229.6 545.9,229.3 546,212.7 546.4,212.9 				"/>
			</g>
			<g>
				<polygon class="st18" points="546.4,212.9 546,212.7 561.4,210.5 561.8,210.8 				"/>
			</g>
		</g>
	</g>
</g>
<g>
	<g>
		<g class="st6">
			<g>
				<polygon class="st24" points="532.7,239.9 532.7,256.5 517.3,258.7 517.3,242 				"/>
			</g>
			<g>
				<polygon class="st25" points="517.3,258.7 516.8,258.4 516.9,241.8 517.3,242 				"/>
			</g>
			<g>
				<polygon class="st26" points="517.3,242 516.9,241.8 532.3,239.6 532.7,239.9 				"/>
			</g>
		</g>
	</g>
</g>
<g>
	<g>
		<g class="st6">
			<g>
				<polygon class="st7" points="561.8,236.1 561.8,252.8 546.4,255 546.4,238.3 				"/>
			</g>
			<g>
				<polygon class="st8" points="546.4,255 545.9,254.7 546,238.1 546.4,238.3 				"/>
			</g>
			<g>
				<polygon class="st9" points="546.4,238.3 546,238.1 561.4,235.9 561.8,236.1 				"/>
			</g>
		</g>
	</g>
</g>
<g>
	<g>
		<g class="st6">
			<g>
				<polygon class="st7" points="534,265.2 534,281.9 518.5,284 518.6,267.4 				"/>
			</g>
			<g>
				<polygon class="st8" points="518.5,284 518.1,283.8 518.1,267.2 518.6,267.4 				"/>
			</g>
			<g>
				<polygon class="st9" points="518.6,267.4 518.1,267.2 533.5,265 534,265.2 				"/>
			</g>
		</g>
	</g>
</g>
<g>
	<g>
		<g class="st6">
			<g>
				<polygon class="st7" points="434.4,93.2 434.3,109.8 418.9,112 418.9,95.4 				"/>
			</g>
			<g>
				<polygon class="st8" points="418.9,112 418.4,111.8 418.5,95.1 418.9,95.4 				"/>
			</g>
			<g>
				<polygon class="st9" points="418.9,95.4 418.5,95.1 433.9,92.9 434.4,93.2 				"/>
			</g>
		</g>
	</g>
</g>
<g>
	<g>
		<g class="st6">
			<g>
				<polygon class="st7" points="435.6,118.6 435.6,135.2 420.1,137.4 420.2,120.7 				"/>
			</g>
			<g>
				<polygon class="st8" points="420.1,137.4 419.7,137.1 419.7,120.5 420.2,120.7 				"/>
			</g>
			<g>
				<polygon class="st9" points="420.2,120.7 419.7,120.5 435.1,118.3 435.6,118.6 				"/>
			</g>
		</g>
	</g>
</g>
<g>
	<g>
		<g class="st6">
			<g>
				<polygon class="st7" points="435.6,143.9 435.6,160.6 420.1,162.8 420.2,146.1 				"/>
			</g>
			<g>
				<polygon class="st8" points="420.1,162.8 419.7,162.5 419.7,145.9 420.2,146.1 				"/>
			</g>
			<g>
				<polygon class="st9" points="420.2,146.1 419.7,145.9 435.1,143.7 435.6,143.9 				"/>
			</g>
		</g>
	</g>
</g>
<g>
	<g>
		<g class="st6">
			<g>
				<polygon class="st7" points="435.6,169.3 435.6,186 420.1,188.1 420.2,171.5 				"/>
			</g>
			<g>
				<polygon class="st8" points="420.1,188.1 419.7,187.9 419.7,171.2 420.2,171.5 				"/>
			</g>
			<g>
				<polygon class="st9" points="420.2,171.5 419.7,171.2 435.1,169.1 435.6,169.3 				"/>
			</g>
		</g>
	</g>
</g>
<g>
	<g>
		<g class="st6">
			<g>
				<polygon class="st7" points="436.8,194.7 436.8,211.3 421.4,213.5 421.4,196.8 				"/>
			</g>
			<g>
				<polygon class="st8" points="421.4,213.5 420.9,213.3 420.9,196.6 421.4,196.8 				"/>
			</g>
			<g>
				<polygon class="st9" points="421.4,196.8 420.9,196.6 436.4,194.4 436.8,194.7 				"/>
			</g>
		</g>
	</g>
</g>
<g>
	<g>
		<g class="st6">
			<g>
				<polygon class="st24" points="563.1,261.5 563,278.2 547.6,280.3 547.6,263.7 				"/>
			</g>
			<g>
				<polygon class="st25" points="547.6,280.3 547.2,280.1 547.2,263.4 547.6,263.7 				"/>
			</g>
			<g>
				<polygon class="st26" points="547.6,263.7 547.2,263.4 562.6,261.3 563.1,261.5 				"/>
			</g>
		</g>
	</g>
</g>
<g>
	<g>
		<g class="st6">
			<g>
				<polygon class="st24" points="355.1,199.6 355.1,216.3 339.7,218.5 339.7,201.8 				"/>
			</g>
			<g>
				<polygon class="st25" points="339.7,218.5 339.2,218.2 339.3,201.6 339.7,201.8 				"/>
			</g>
			<g>
				<polygon class="st26" points="339.7,201.8 339.3,201.6 354.7,199.4 355.1,199.6 				"/>
			</g>
		</g>
	</g>
</g>
<g>
	<g>
		<g class="st6">
			<g>
				<polygon class="st27" points="376.8,195.9 376.8,212.6 361.3,214.7 361.4,198.1 				"/>
			</g>
			<g>
				<polygon class="st28" points="361.3,214.7 360.9,214.5 360.9,197.8 361.4,198.1 				"/>
			</g>
			<g>
				<polygon class="st18" points="361.4,198.1 360.9,197.8 376.3,195.7 376.8,195.9 				"/>
			</g>
		</g>
	</g>
</g>
<g>
	<g>
		<g class="st6">
			<g>
				<polygon class="st7" points="355.1,223.8 355.1,240.4 339.7,242.6 339.7,225.9 				"/>
			</g>
			<g>
				<polygon class="st8" points="339.7,242.6 339.2,242.3 339.3,225.7 339.7,225.9 				"/>
			</g>
			<g>
				<polygon class="st9" points="339.7,225.9 339.3,225.7 354.7,223.5 355.1,223.8 				"/>
			</g>
		</g>
	</g>
</g>
<g>
	<g>
		<g class="st6">
			<g>
				<polygon class="st7" points="376.8,220.1 376.8,236.7 361.3,238.9 361.4,222.2 				"/>
			</g>
			<g>
				<polygon class="st8" points="361.3,238.9 360.9,238.6 360.9,222 361.4,222.2 				"/>
			</g>
			<g>
				<polygon class="st9" points="361.4,222.2 360.9,222 376.3,219.8 376.8,220.1 				"/>
			</g>
		</g>
	</g>
</g>
<g>
	<g>
		<g class="st6">
			<g>
				<polygon class="st7" points="355.1,247.9 355.1,264.6 339.7,266.7 339.7,250.1 				"/>
			</g>
			<g>
				<polygon class="st8" points="339.7,266.7 339.2,266.5 339.3,249.8 339.7,250.1 				"/>
			</g>
			<g>
				<polygon class="st9" points="339.7,250.1 339.3,249.8 354.7,247.7 355.1,247.9 				"/>
			</g>
		</g>
	</g>
</g>
<g>
	<g>
		<g class="st6">
			<g>
				<polygon class="st27" points="376.8,244.2 376.8,260.8 361.3,263 361.4,246.4 				"/>
			</g>
			<g>
				<polygon class="st28" points="361.3,263 360.9,262.8 360.9,246.1 361.4,246.4 				"/>
			</g>
			<g>
				<polygon class="st18" points="361.4,246.4 360.9,246.1 376.3,243.9 376.8,244.2 				"/>
			</g>
		</g>
	</g>
</g>
<g>
	<g>
		<g class="st6">
			<g>
				<polygon class="st24" points="355.8,272 355.7,288.7 340.3,290.9 340.3,274.2 				"/>
			</g>
			<g>
				<polygon class="st25" points="340.3,290.9 339.8,290.6 339.9,274 340.3,274.2 				"/>
			</g>
			<g>
				<polygon class="st26" points="340.3,274.2 339.9,274 355.3,271.8 355.8,272 				"/>
			</g>
		</g>
	</g>
</g>
<g>
	<g>
		<g class="st6">
			<g>
				<polygon class="st7" points="377.4,268.3 377.4,285 362,287.1 362,270.5 				"/>
			</g>
			<g>
				<polygon class="st8" points="362,287.1 361.5,286.9 361.5,270.2 362,270.5 				"/>
			</g>
			<g>
				<polygon class="st9" points="362,270.5 361.5,270.2 377,268.1 377.4,268.3 				"/>
			</g>
		</g>
	</g>
</g>
<g>
	<g>
		<g class="st6">
			<g>
				<polygon class="st27" points="398.5,265.2 398.4,281.9 383,284 383,267.4 				"/>
			</g>
			<g>
				<polygon class="st28" points="383,284 382.5,283.8 382.6,267.2 383,267.4 				"/>
			</g>
			<g>
				<polygon class="st18" points="383,267.4 382.6,267.2 398,265 398.5,265.2 				"/>
			</g>
		</g>
	</g>
</g>
<g>
	<g>
		<g class="st6">
			<g>
				<polygon class="st24" points="420.1,261.5 420.1,278.2 404.7,280.3 404.7,263.7 				"/>
			</g>
			<g>
				<polygon class="st25" points="404.7,280.3 404.2,280.1 404.2,263.4 404.7,263.7 				"/>
			</g>
			<g>
				<polygon class="st26" points="404.7,263.7 404.2,263.4 419.7,261.3 420.1,261.5 				"/>
			</g>
		</g>
	</g>
</g>
<g>
	<g>
		<g class="st6">
			<g>
				<polygon class="st7" points="355.8,297.4 355.7,314.1 340.3,316.2 340.3,299.6 				"/>
			</g>
			<g>
				<polygon class="st8" points="340.3,316.2 339.8,316 339.9,299.3 340.3,299.6 				"/>
			</g>
			<g>
				<polygon class="st9" points="340.3,299.6 339.9,299.3 355.3,297.2 355.8,297.4 				"/>
			</g>
		</g>
	</g>
</g>
<g>
	<g>
		<g class="st6">
			<g>
				<polygon class="st7" points="377.4,293.7 377.4,310.3 362,312.5 362,295.9 				"/>
			</g>
			<g>
				<polygon class="st8" points="362,312.5 361.5,312.3 361.5,295.6 362,295.9 				"/>
			</g>
			<g>
				<polygon class="st9" points="362,295.9 361.5,295.6 377,293.5 377.4,293.7 				"/>
			</g>
		</g>
	</g>
</g>
<g>
	<g>
		<g class="st6">
			<g>
				<polygon class="st24" points="398.5,290.6 398.4,307.2 383,309.4 383,292.8 				"/>
			</g>
			<g>
				<polygon class="st25" points="383,309.4 382.5,309.2 382.6,292.5 383,292.8 				"/>
			</g>
			<g>
				<polygon class="st26" points="383,292.8 382.6,292.5 398,290.4 398.5,290.6 				"/>
			</g>
		</g>
	</g>
</g>
<g>
	<g>
		<g class="st6">
			<g>
				<polygon class="st7" points="420.1,286.9 420.1,303.5 404.7,305.7 404.7,289.1 				"/>
			</g>
			<g>
				<polygon class="st8" points="404.7,305.7 404.2,305.5 404.2,288.8 404.7,289.1 				"/>
			</g>
			<g>
				<polygon class="st9" points="404.7,289.1 404.2,288.8 419.7,286.6 420.1,286.9 				"/>
			</g>
		</g>
	</g>
</g>
<g>
	<g>
		<g class="st6">
			<g>
				<polygon class="st18" points="459.3,149.1 460.1,169.4 448.4,164.5 447.6,144.2 				"/>
			</g>
			<g>
				<polygon class="st19" points="459.3,149.1 460.1,149 460.9,169.2 460.1,169.4 				"/>
			</g>
			<g>
				<polygon class="st20" points="447.6,144.2 448.4,144.1 460.1,149 459.3,149.1 				"/>
			</g>
		</g>
	</g>
</g>
<g>
	<g>
		<g class="st6">
			<g>
				<polygon class="st18" points="483.7,161.4 484.5,181.6 472.8,176.7 472,156.5 				"/>
			</g>
			<g>
				<polygon class="st19" points="483.7,161.4 484.5,161.2 485.3,181.4 484.5,181.6 				"/>
			</g>
			<g>
				<polygon class="st20" points="472,156.5 472.9,156.3 484.5,161.2 483.7,161.4 				"/>
			</g>
		</g>
	</g>
</g>
<g>
	<g>
		<g class="st6">
			<g>
				<polygon class="st18" points="459.3,180.1 460.1,200.3 448.4,195.4 447.6,175.1 				"/>
			</g>
			<g>
				<polygon class="st19" points="459.3,180.1 460.1,179.9 460.9,200.1 460.1,200.3 				"/>
			</g>
			<g>
				<polygon class="st20" points="447.6,175.1 448.4,175 460.1,179.9 459.3,180.1 				"/>
			</g>
		</g>
	</g>
</g>
<g>
	<g>
		<g class="st6">
			<g>
				<polygon class="st18" points="483.7,192.3 484.5,212.5 472.8,207.6 472,187.4 				"/>
			</g>
			<g>
				<polygon class="st19" points="483.7,192.3 484.5,192.1 485.3,212.3 484.5,212.5 				"/>
			</g>
			<g>
				<polygon class="st20" points="472,187.4 472.9,187.2 484.5,192.1 483.7,192.3 				"/>
			</g>
		</g>
	</g>
</g>
<g>
	<g>
		<g class="st6">
			<g>
				<polygon class="st18" points="459.3,210.2 460.1,230.5 448.4,225.6 447.6,205.3 				"/>
			</g>
			<g>
				<polygon class="st19" points="459.3,210.2 460.1,210 460.9,230.3 460.1,230.5 				"/>
			</g>
			<g>
				<polygon class="st20" points="447.6,205.3 448.4,205.1 460.1,210 459.3,210.2 				"/>
			</g>
		</g>
	</g>
</g>
<g>
	<g>
		<g class="st6">
			<g>
				<polygon class="st18" points="483.7,222.4 484.5,242.7 472.8,237.8 472,217.5 				"/>
			</g>
			<g>
				<polygon class="st19" points="483.7,222.4 484.5,222.3 485.3,242.5 484.5,242.7 				"/>
			</g>
			<g>
				<polygon class="st20" points="472,217.5 472.9,217.3 484.5,222.3 483.7,222.4 				"/>
			</g>
		</g>
	</g>
</g>
<g>
	<g>
		<g class="st6">
			<g>
				<polygon class="st18" points="459.3,239.7 460.1,259.9 448.4,255 447.6,234.8 				"/>
			</g>
			<g>
				<polygon class="st19" points="459.3,239.7 460.1,239.5 460.9,259.8 460.1,259.9 				"/>
			</g>
			<g>
				<polygon class="st20" points="447.6,234.8 448.4,234.6 460.1,239.5 459.3,239.7 				"/>
			</g>
		</g>
	</g>
</g>
<g>
	<g>
		<g class="st6">
			<g>
				<polygon class="st18" points="143.1,205.9 143.9,226.2 132.2,221.3 131.4,201 				"/>
			</g>
			<g>
				<polygon class="st19" points="143.1,205.9 144,205.7 144.8,226 143.9,226.2 				"/>
			</g>
			<g>
				<polygon class="st20" points="131.4,201 132.3,200.8 144,205.7 143.1,205.9 				"/>
			</g>
		</g>
	</g>
</g>
<g>
	<g>
		<g class="st6">
			<g>
				<polygon class="st18" points="143.1,236.8 143.9,257.1 132.2,252.2 131.4,231.9 				"/>
			</g>
			<g>
				<polygon class="st19" points="143.1,236.8 144,236.6 144.8,256.9 143.9,257.1 				"/>
			</g>
			<g>
				<polygon class="st20" points="131.4,231.9 132.3,231.7 144,236.6 143.1,236.8 				"/>
			</g>
		</g>
	</g>
</g>
<g>
	<g>
		<g class="st6">
			<g>
				<polygon class="st18" points="143.1,267 143.9,287.2 132.2,282.3 131.4,262.1 				"/>
			</g>
			<g>
				<polygon class="st19" points="143.1,267 144,266.8 144.8,287.1 143.9,287.2 				"/>
			</g>
			<g>
				<polygon class="st20" points="131.4,262.1 132.3,261.9 144,266.8 143.1,267 				"/>
			</g>
		</g>
	</g>
</g>
<g>
	<g>
		<g class="st6">
			<g>
				<polygon class="st18" points="321.3,198.7 322.1,219 310.4,214.1 309.6,193.8 				"/>
			</g>
			<g>
				<polygon class="st19" points="321.3,198.7 322.2,198.5 323,218.8 322.1,219 				"/>
			</g>
			<g>
				<polygon class="st20" points="309.6,193.8 310.5,193.6 322.2,198.5 321.3,198.7 				"/>
			</g>
		</g>
	</g>
</g>
<g>
	<g>
		<g class="st6">
			<g>
				<polygon class="st18" points="321.3,229.6 322.1,249.9 310.4,245 309.6,224.7 				"/>
			</g>
			<g>
				<polygon class="st19" points="321.3,229.6 322.2,229.4 323,249.7 322.1,249.9 				"/>
			</g>
			<g>
				<polygon class="st20" points="309.6,224.7 310.5,224.5 322.2,229.4 321.3,229.6 				"/>
			</g>
		</g>
	</g>
</g>
<g>
	<g>
		<g class="st6">
			<g>
				<polygon class="st18" points="321.3,259.8 322.1,280.1 310.4,275.2 309.6,254.9 				"/>
			</g>
			<g>
				<polygon class="st19" points="321.3,259.8 322.2,259.6 323,279.9 322.1,280.1 				"/>
			</g>
			<g>
				<polygon class="st20" points="309.6,254.9 310.5,254.7 322.2,259.6 321.3,259.8 				"/>
			</g>
		</g>
	</g>
</g>
<g>
	<g>
		<g class="st6">
			<g>
				<polygon class="st18" points="321.3,289.3 322.1,309.5 310.4,304.6 309.6,284.4 				"/>
			</g>
			<g>
				<polygon class="st19" points="321.3,289.3 322.2,289.1 323,309.3 322.1,309.5 				"/>
			</g>
			<g>
				<polygon class="st20" points="309.6,284.4 310.5,284.2 322.2,289.1 321.3,289.3 				"/>
			</g>
		</g>
	</g>
</g>
<g>
	<g>
		<g class="st6">
			<g>
				<polygon class="st18" points="320.6,198.7 321.4,219 309.7,214.1 308.9,193.8 				"/>
			</g>
			<g>
				<polygon class="st19" points="320.6,198.7 321.4,198.5 322.2,218.8 321.4,219 				"/>
			</g>
			<g>
				<polygon class="st20" points="308.9,193.8 309.8,193.6 321.4,198.5 320.6,198.7 				"/>
			</g>
		</g>
	</g>
</g>
<g>
	<g>
		<g class="st6">
			<g>
				<polygon class="st18" points="320.6,229.6 321.4,249.9 309.7,245 308.9,224.7 				"/>
			</g>
			<g>
				<polygon class="st19" points="320.6,229.6 321.4,229.4 322.2,249.7 321.4,249.9 				"/>
			</g>
			<g>
				<polygon class="st20" points="308.9,224.7 309.8,224.5 321.4,229.4 320.6,229.6 				"/>
			</g>
		</g>
	</g>
</g>
<g>
	<g>
		<g class="st6">
			<g>
				<polygon class="st18" points="320.6,259.8 321.4,280.1 309.7,275.2 308.9,254.9 				"/>
			</g>
			<g>
				<polygon class="st19" points="320.6,259.8 321.4,259.6 322.2,279.9 321.4,280.1 				"/>
			</g>
			<g>
				<polygon class="st20" points="308.9,254.9 309.8,254.7 321.4,259.6 320.6,259.8 				"/>
			</g>
		</g>
	</g>
</g>
<g>
	<g>
		<g class="st6">
			<g>
				<polygon class="st18" points="320.6,289.3 321.4,309.5 309.7,304.6 308.9,284.4 				"/>
			</g>
			<g>
				<polygon class="st19" points="320.6,289.3 321.4,289.1 322.2,309.3 321.4,309.5 				"/>
			</g>
			<g>
				<polygon class="st20" points="308.9,284.4 309.8,284.2 321.4,289.1 320.6,289.3 				"/>
			</g>
		</g>
	</g>
</g>
<g>
	<g>
		<g class="st6">
			<g>
				<polygon class="st18" points="483.7,251.9 484.5,272.2 472.8,267.2 472,247 				"/>
			</g>
			<g>
				<polygon class="st19" points="483.7,251.9 484.5,251.7 485.3,272 484.5,272.2 				"/>
			</g>
			<g>
				<polygon class="st20" points="472,247 472.9,246.8 484.5,251.7 483.7,251.9 				"/>
			</g>
		</g>
	</g>
</g>
<g>
	
		<image style="overflow:visible;opacity:0.39;" width="117" height="134" xlink:href="3ED0717A81B54FB9.png"  transform="matrix(1 0 0 1 142 70)">
	</image>
	<g>
		<path class="st1" d="M207.2,124.6c0.1,11.6-12.5,29.4-12.5,29.4s-13-18.7-13.1-29.4c0-7.1,5.7-12.9,12.8-12.9
			C201.5,111.7,207.1,117.5,207.2,124.6z"/>
	</g>
</g>
<circle class="st10" cx="194.6" cy="124.9" r="6.9"/>
<g>
	
		<image style="overflow:visible;opacity:0.39;" width="145" height="179" xlink:href="3ED0717A81B54FBF.png"  transform="matrix(1 0 0 1 203 91)">
	</image>
	<g>
		<path class="st10" d="M296.3,159.3c0.2,24.3-26.2,61.6-26.2,61.6s-27.3-39.2-27.5-61.6c-0.1-14.9,12-27,26.8-27
			C284.3,132.3,296.2,144.3,296.3,159.3z"/>
	</g>
</g>
<circle class="st1" cx="270" cy="159.8" r="14.4"/>
<g>
	
		<image style="overflow:visible;opacity:0.39;" width="116" height="133" xlink:href="3ED0717A81B54FBA.png"  transform="matrix(1 0 0 1 447 19)">
	</image>
	<g>
		<path class="st10" d="M511.9,72.9c0.1,11.6-12.5,29.4-12.5,29.4s-13-18.7-13.1-29.4c0-7.1,5.7-12.9,12.8-12.9
			C506.1,60,511.8,65.8,511.9,72.9z"/>
	</g>
</g>
<circle class="st1" cx="499.3" cy="73.2" r="6.9"/>
<g>
	
		<image style="overflow:visible;opacity:0.39;" width="136" height="166" xlink:href="3ED0717A81B54FBB.png"  transform="matrix(1 0 0 1 270 6)">
	</image>
	<g>
		<path class="st1" d="M354.5,70.5c0.2,20.4-22,51.7-22,51.7s-22.9-32.9-23-51.7c-0.1-12.5,10.1-22.7,22.5-22.7
			S354.4,57.9,354.5,70.5z"/>
	</g>
</g>
<circle class="st10" cx="332.4" cy="70.9" r="12.1"/>
</svg>
