<?xml version="1.0" encoding="utf-8"?>
<!-- Generator: Adobe Illustrator 24.1.2, SVG Export Plug-In . SVG Version: 6.00 Build 0)  -->
<svg version="1.1" id="Layer_1" xmlns="http://www.w3.org/2000/svg" xmlns:xlink="http://www.w3.org/1999/xlink" x="0px" y="0px"
	 viewBox="0 0 1025.49 680.89" style="enable-background:new 0 0 1025.49 680.89;" xml:space="preserve">
<style type="text/css">
	.st0{fill:#88A7E2;}
	.st1{fill:#FFFFFF;}
	.st2{fill:#BFD2EF;}
	.st3{fill:#EDBE96;}
	.st4{fill:#BC7F4C;}
	.st5{opacity:0.2;fill:#BC7F4C;enable-background:new    ;}
	.st6{opacity:0.196;fill:#BC7F4C;enable-background:new    ;}
	.st7{opacity:0.59;fill:#BC7F4C;enable-background:new    ;}
	.st8{opacity:0.581;fill:#BC7F4C;enable-background:new    ;}
	.st9{fill:#FFFFFF;stroke:#FFFFFF;stroke-width:0.25;stroke-miterlimit:10;}
	.st10{fill:#FFFFFF;stroke:#FFFFFF;stroke-miterlimit:10;}
	.st11{fill:#FFFFFF;stroke:#FFFFFF;stroke-width:0.75;stroke-miterlimit:10;}
</style>
<g id="scene" transform="translate(-191.43 -183.645)">
	<g id="sky_moon_ground" transform="translate(191.43 183.645)">
		<path id="Path_1" class="st0" d="M1025.49,418.88c-0.1,56.36-13.72,111.88-39.71,161.89c-9.25,17.98-19.86,35.22-31.76,51.56
			c-82.57,22.05-250.25,37.13-443.66,37.13c-188.94,0-353.31-14.39-437.78-35.62c-12.71-17.28-23.99-35.58-33.71-54.71
			C13.43,529.54,0.1,474.62,0,418.88C0,187.53,229.56,0,512.75,0S1025.49,187.53,1025.49,418.88z"/>
		<path id="Path_246" class="st1" d="M692.79,132.34c41.95,0,75.95,34,75.95,75.95s-34,75.95-75.95,75.95
			c-41.94,0-75.95-34-75.95-75.95S650.85,132.34,692.79,132.34C692.79,132.34,692.79,132.34,692.79,132.34z"/>
		<path id="Path_2" class="st1" d="M1011.5,602.45c0,9.71-14.81,18.95-41.49,27.3c-4.09,1.29-8.47,2.55-13.12,3.78
			c-2.49,0.67-5.06,1.33-7.72,1.97c-85,20.99-248.36,35.17-435.94,35.17c-183.76,0-344.27-13.61-430.65-33.89
			c-2.44-0.56-4.82-1.14-7.14-1.73c-5.11-1.29-9.92-2.6-14.43-3.92c-29.56-8.72-46.05-18.44-46.05-28.68
			c0-7.74,9.42-15.18,26.77-22.11c6.23-2.49,13.48-4.92,21.68-7.28c3.93-1.12,8.08-2.23,12.45-3.32
			c84.61-21.17,248.75-35.51,437.37-35.51c192.58,0,359.63,14.96,442.58,36.86c4.13,1.09,8.03,2.19,11.73,3.31
			c7.17,2.12,14.22,4.65,21.1,7.58C1003.5,588.43,1011.5,595.31,1011.5,602.45z"/>
	</g>
	<g id="iceberg" transform="translate(224.623 221.758)">
		<g id="Group_11">
			<path id="Path_233" class="st2" d="M95.19,549.08V396.19l105.7-120.8l41.52,24.54l177.43-77.39l90.6-113.25l122.69,100.05
				l50.96,128.35l47.19,22.65v73.6l47.19,26.42v88.71L95.19,549.08L95.19,549.08z"/>
			<path id="Path_234" class="st1" d="M200.89,275.39l-18.87,90.6l54.74,128.35l5.66-194.41L200.89,275.39z"/>
			<path id="Path_235" class="st1" d="M778.48,460.36h-45.3l-1.89-26.42L778.48,460.36z"/>
			<path id="Path_236" class="st1" d="M731.28,360.32h-54.74l7.55-22.65L731.28,360.32z"/>
			<path id="Path_237" class="st1" d="M633.13,209.34H529.32L510.45,109.3L633.13,209.34z"/>
			<path id="Path_238" class="st1" d="M419.84,222.54l-108.06,91.8l-69.37-14.42L419.84,222.54z"/>
			<path id="Path_239" class="st0" d="M331.13,549.08l-19.34-234.74l151.28-38.95L399.34,349l65.21-11.32l-44.72,96.27l-51.63,13.21
				l22.23,35.99l46.39,1.48l18.83,64.45"/>
			<path id="Path_240" class="st1" d="M315.56,360.32l43.84,188.75h-84.87l17.27-144.64L315.56,360.32z"/>
			<path id="Path_241" class="st1" d="M658.69,549.08c0,0-49.28-131.93-49.82-136.85c-0.54-4.91,0-111.39,0-111.39l-65.28,93.52
				l28.21,115.1l-14.02,39.61L658.69,549.08z"/>
			<path id="Path_242" class="st0" d="M153.21,549.08l10.36-33.02l29.05-21.72l-97.43,16.44v38.29L153.21,549.08z"/>
			<path id="Path_243" class="st0" d="M95.19,396.19l48.71-11.32l20.11-47.19h-20.11L95.19,396.19z"/>
			<path id="Path_244" class="st0" d="M511.43,549.08l-0.98-94.37l12.14-75.78L575.25,349l0,0l-24.83,73.28l21.37,87.2l-14.02,39.61
				L511.43,549.08z"/>
			<path id="Path_245" class="st0" d="M510.45,109.28l-26.24,100.05l13.12,139.68l32-139.68L510.45,109.28z"/>
		</g>
	</g>
	<g id="polar_bear" transform="translate(283.386 298.861)">
		<path id="Path_9" class="st3" d="M806.53,562.61c-11.22,1.87-41.27,5.84-48.56,0c-4.3-3.82-8.89-7.3-13.72-10.41
			c-3.36-1.87-7.03-3.11-10.83-3.67c-4.85-0.7-9.76-0.99-14.66-0.87c-22.63,0.22-82.67-1.16-105.46-14.35
			c-1.7-0.95-3.28-2.09-4.73-3.39c-4.42-4.08-21.24,2.41-44.26,8.35c-30.56,7.86-72.02,14.74-109.81-5.55
			c-24.27-13.03-31.96-12.82-41.81-7.99c-4.18,2.05-8.75,4.94-15.14,7.99c-18.14,8.66-81.52,28.64-115.99,11.07l0,0
			c-6.38-3.12-11.79-7.91-15.67-13.86c0,0-21.48-154.09,70.96-187.71c16.62-6.2,34.02-10.04,51.71-11.41
			c42.73-3.06,75.24,10.98,103.33,20.61c11.3,4.32,23.12,7.12,35.16,8.32c10.85,0.85,21.74-0.89,31.78-5.07l0,0
			c13.34-5.78,27.74-8.72,42.28-8.66c30.94-0.34,105.2,46.3,132.04,76.69c7.99,9.05,11.58,12.97,14.23,15.92
			c1.28,1.43,2.34,2.64,3.59,4.1c1.72,2.03,3.81,4.55,7.31,8.86c5.59,6.84,6.94-17.85,26.79-13.15c12.88,3.06,4.31,34.16,4.31,34.16
			c1.08,4.39,1.58,8.9,1.49,13.41c-0.28,5.88-2.73,18.65,1.34,25.91c0.43,0.79,0.96,1.51,1.58,2.17
			c6.22,6.54,21.16,15.88,23.98,25.21S817.74,560.74,806.53,562.61z"/>
		<path id="Path_10" class="st4" d="M668.27,536.03c-6.85-6.25-8.66-16.5-7.74-25.98c0.82-8.4,7.22-18.66,11.43-25.98
			c-2.93,8.41-4.89,17.12-5.84,25.98C664.86,527.58,668.27,536.03,668.27,536.03z"/>
		<path id="Path_11" class="st4" d="M746.53,553.61c-4.09-2.35-8.51-4.06-13.12-5.08c-2.69-4.54,6.76-19.81,6.76-19.81
			C738.59,537.55,740.9,546.63,746.53,553.61z"/>
		<path id="Path_12" class="st5" d="M792.19,511.89l-0.2,0.09c-0.14-0.46-17.16-12.44-17.16-12.44s0.43-16.63-9.26-24.39
			c-9.68-7.76-34.72-26.05-34.72-26.05s18.77-3.55,27.41,2.48c5.83,6.73,6.94-17.85,26.79-13.15c12.88,3.06,4.31,34.16,4.31,34.16
			c1.08,4.39,1.58,8.9,1.49,13.41C790.58,491.87,788.12,504.63,792.19,511.89z"/>
		<path id="Path_13" class="st4" d="M740.04,503.52c0,1.9-3.61,2.25-6.37,2.25s-6.27-0.99-6.27-2.89s3.52-3.98,6.27-3.98
			S740.04,501.63,740.04,503.52z"/>
		<path id="Path_268" class="st4" d="M805.27,541.21c4.36-0.63,8.18,0.89,8.55,3.41c0.37,2.51-2.86,5.07-7.22,5.7
			c-4.36,0.63-8.18-0.9-8.55-3.41S800.91,541.85,805.27,541.21z"/>
		<path id="Path_14" class="st6" d="M758.25,451.56c-17.29-11.55-66.79,9.52-66.79,9.52s-3.07-7.97-9.36-9.67
			c-6.3-1.7,51.92-22.31,65.21-12.85l0.05,0.03C750.43,442.06,752.26,444.21,758.25,451.56z"/>
		<path id="Path_15" class="st7" d="M701.33,465.69c-3.43,0.42-6.8-1.12-8.73-3.98c-1.85-2.83-3.93-5.49-6.23-7.96
			c-3.82-3.37-9.47-3.62-13.58-0.62c-3,2.6-4.97,6.19-5.54,10.12c-0.58,5.53,0.79,11.1,3.87,15.73c3.38,4.83,8.24,8.42,13.86,10.21"
			/>
		<path id="Path_16" class="st8" d="M764.14,449.09c4.34-6.88,7.47-10.58,14.8-11.22c3.22-0.5,6.52,0.26,9.19,2.13
			c-4.9,0.05-9.49,2.4-12.4,6.35c-2.68,3.78-3.98,8.37-3.68,12.99c-4-1.54-7.6-3.96-10.53-7.08"/>
		<path id="Path_17" class="st4" d="M608.56,529.93c-32.4-21.7-103.79-81.9-103.79-81.9s60.07,68.66,86.41,82.87
			C598.34,534.77,615.12,534.32,608.56,529.93z"/>
		<path id="Path_18" class="st4" d="M454.49,532.72c-24.27-13.03-31.96-12.82-41.81-7.99C394.64,402.16,293.5,402.16,293.5,402.16
			c79.51-1.61,119.21,63.29,119.21,63.29c0.18-3.72,0.6-7.43,1.26-11.1c2.83-16.76,12.68-49.1,45.98-56.17
			C459.95,398.2,404.2,465.47,454.49,532.72z"/>
		<path id="Path_20" class="st4" d="M388.54,330.83c-5.58,2-11.73,4.04-18.43,6.06c-42.07,12.73-45.39,19.93-68.07,39.84
			c-22.68,19.91-45.95,110.7-20.5,167.05c-6.38-3.12-11.79-7.91-15.67-13.86c0,0-21.47-154.07,70.97-187.68
			C353.46,336.04,370.86,332.2,388.54,330.83z"/>
		<path id="Path_21" class="st4" d="M563.34,373.98c-3.83-0.95-45.36-11.31-71.47-22.53c11.3,4.32,23.12,7.12,35.16,8.32
			c10.85,0.85,21.74-0.89,31.78-5.07C554.12,370.2,561.72,373.45,563.34,373.98z"/>
		<path id="Path_22" class="st9" d="M614.13,359.01c19.38,0.88,35.71,11.25,50.58,21.15c16.83,11.19,33.91,22.61,45.99,37.15
			c-24.3-3.48-50.61,4-66.63,18.91c0.39-30.06-15.19-60.04-42.16-81.15c8.59,1.12,16.93,3.67,24.68,7.52"/>
		<path id="Path_23" class="st10" d="M328,379.17c18.56-17.11,42.83-26.7,68.07-26.9c6.72-0.25,13.42,0.87,19.69,3.31
			c-10.33-0.24-20.21,4.2-26.89,12.08c-6.55,7.91-10.22,17.8-10.42,28.06c-4.7-2.09-9.09-4.8-13.06-8.06
			c-12.08-7.81-27.41-7.89-41.77-7.7c7.37-7.47,16.71-12.69,26.94-15.04"/>
		<path id="Path_24" class="st9" d="M570.85,474.84c19.68,20.63,42.75,37.71,68.23,50.51c-4.8-9.17-6.99-19.49-6.35-29.82
			c-7.17,0.76-14.41-0.31-21.06-3.09c-15.3-5.23-30.07-11.91-44.09-19.96l11.54,8.02"/>
		<path id="Path_25" class="st10" d="M786.54,537.01c4.5-5.97,12.2-8.55,19.39-6.49c-8.46-7.65-17.74-14.33-27.68-19.93
			c-0.99-0.62-2.06-1.09-3.18-1.41c-4.13-1-8.06,1.97-11.18,4.76c3.56,1.04,6.7,3.16,8.98,6.08c5.15,6.52,8.87,14.04,10.93,22.09
			c1.54-1.89,2.85-3.96,3.9-6.15"/>
		<path id="Path_26" class="st11" d="M337.79,435.08c17.14,8.39,22.46,14.16,31.92,30.17s14.31,34.25,19.06,52.22
			c-5.68-5.68-13.16-9.21-21.15-9.99c-7.87-1.16-15.9-0.89-23.81-1.71c-0.88-0.03-1.74-0.26-2.52-0.67
			c-1.76-1.09-1.93-3.54-2.01-5.61c-1.35-27.97-18.61-52.69-44.41-63.59c13.72-5.57,29.01-5.86,42.93-0.82"/>
	</g>
</g>
</svg>
