<?xml version="1.0" encoding="utf-8"?>
<!-- Generator: Adobe Illustrator 24.1.2, SVG Export Plug-In . SVG Version: 6.00 Build 0)  -->
<svg version="1.1" xmlns="http://www.w3.org/2000/svg" xmlns:xlink="http://www.w3.org/1999/xlink" x="0px" y="0px"
	 viewBox="0 0 690.19 660.45" style="enable-background:new 0 0 690.19 660.45;" xml:space="preserve">
<style type="text/css">
	.st0{fill:#EDBE96;}
	.st1{fill:#FFFFFF;}
	.st2{opacity:0.5;fill:#EDBE96;}
	.st3{fill:#BC7F4C;}
	.st4{opacity:0.5;fill:#BC7F4C;}
</style>
<g id="Layer_2">
	<path class="st0" d="M44.13,629.91c0,0-14.27-78.65-36.36-127.97c-32.23-71.97,37.29-228.16,180.32-274.85
		c17.92-5.85,19.33-38.67,59.62-69.8c42.52-32.85,76.99-10.27,101.8-17.45c23.79-6.88,56.73-56.83,75.62-63.99
		c20.62-7.81,24.03-32.49,42.17-39.26c5.45-2.03-10.73-12.11-6.21-23.97c4.63-12.16,24.23-15.07,31.5-10.7
		c7.27,4.36,11.58,17.17,11.58,17.17s56.91-10.52,77.88-5.25c15.84,3.98,11.93,3.69,11.93,3.69s10.6-1.69,14.04-0.34
		c4.57,1.8,9.82,11.41,17.79,13.59c11.91,3.25,49.88,8.15,56.71,14.01c4.55,3.9,12.06,42.78,4.31,46.57
		c-4.11,8.93-82.9,48-100.29,63.03c-19.14,16.54-57.66,107.65-90.16,132.33c-9.06,6.88,7.01,79.81,8.13,109.31
		c1.16,30.58-21.03,86.61-22.13,119.23c-0.69,20.45,0.98,69.36,12.54,88.47c0,0,18.73,5.35,26.41,19.62
		c4.78,8.87,9.07,25.72,2.74,29.63c-9.82,6.07-162.9,13.24-182.16,0c-7.41-5.09-22.97-24.47-27.71-46.4
		c-3.38-16.21-13.13-36.46-20.75-38.28c-10.58-2.53-33.25,31.39-33.25,31.39s46.26,12.42,47.29,42.4
		c0.48,13.79-65.77,8.53-87.42,5.28c-21.72-3.26-62.92-9.94-87.25-10.18C109.39,636.95,49.26,648.74,44.13,629.91z"/>
</g>
<g id="Layer_3">
	<path class="st1" d="M511.74,270.94c0,0-54.56,30.36-74.45,36.74c-8.46,2.71-11.86,33.5-11.86,33.5v20.94
		C468.58,337.82,481.93,306.72,511.74,270.94z"/>
	<path class="st1" d="M249.5,540.35c0.82,13.86,0,55.55,0,55.55l10.72,3.78c0,0,37.29-27.14,33.25-31.39
		c-7.64-8.01-3.89-4.48-13.11-17.16c-6-8.25-23.12-37.24-4.65-80l-28.98,42.41C246.2,509.52,248.79,528.27,249.5,540.35z"/>
</g>
<g id="Layer_4">
	<polygon class="st1" points="284.68,608.32 288.01,609.34 312.32,614.42 310.83,613.24 	"/>
	<polygon class="st2" points="278.23,606.79 283.58,609.7 316.71,615.34 316.1,613.53 	"/>
	<path class="st3" d="M246.73,513.56c-8.09-74.45-73.34-149.35-72.66-148.9s62.13,54.29,79.21,139.31L246.73,513.56z"/>
	<path class="st3" d="M396,499.75c35.64-51.34,28.87-155.8,29.14-155.03c0.27,0.77,8.83,88.13-20.76,157.26
		c-10.74,25.1,8.03,101.03,8.03,101.03C385,554.66,395.57,500.37,396,499.75z"/>
	<path class="st3" d="M275.63,471.34c10.44-29.29,35.51-74.56,35.21-74.32c-0.3,0.24-28.37,36.92-38.37,78.88L275.63,471.34z"/>
	<path class="st3" d="M285.49,439.66c6.9-30.17-12.44-93.93-12.13-93.5c0.31,0.43,19.42,36.84,18.17,81.75
		C291.49,428.84,285.28,440.56,285.49,439.66z"/>
	<path class="st3" d="M283.74,140.4c-53.41,9.31-111.78,126.88-111.78,126.06s22.38-63.96,75.77-109.17
		C263.18,144.2,283.74,140.4,283.74,140.4z"/>
	<path class="st3" d="M345.1,160.28c3.05-0.7,14.64-1.41,14.64,0s-5.62,26-5.62,26l14.06,51.31l-19.68-48.85l1.41-21.44
		L345.1,160.28z"/>
	<path class="st3" d="M559.71,192.94l5.71-41.54c-11.61,36.19-23.95,73.67-23.19,72.35C542.98,222.43,559.71,192.94,559.71,192.94z"
		/>
	<path class="st3" d="M613.49,136.78c0,0-14.98,2.15-23.76,0l14.85,5.33L613.49,136.78z"/>
	<path id="Path_374" class="st3" d="M686.08,51.04c0.2,2.25-0.55,5.97-2.77,7.77c-3,2.43,0.7,7.4-5.95,10.68c0,0-4.87-1.1-7.86-6.03
		c-1.96-0.58-6.28,1.65-8.23,1.03c-2.55-0.8-6.46-9.76-6.13-12.35c0.59-4.61,11.01-5.94,15.54-7.58c3.12-1.12,6.5-1.31,9.73-0.55
		C682.82,45.97,685.51,48.01,686.08,51.04z"/>
	<path class="st3" d="M678.69,68.72c0.15,0.06-1.26,11.61,0.4,15.24c1.18,2.58,9.45,1.65,10.03,4.32c0.38,1.78-4.11,4.11-5.92,4.21
		c-1.87,0.1-4.58-1.98-7.38-1.41c-7.03,1.45-27.39,10.99-39.74,12.47c-3.28,0.39-4.28-4.37-1.64-5.04
		c11.46-2.95,32.23-6.95,37.56-12.48c3.57-3.71,2.94-17.49,2.94-17.49L678.69,68.72z"/>
	<path id="Path_373" class="st3" d="M563,41.99l5.28,0.12c1.38,1.71,3.01,3.26,4.82,4.62c2.42,0.79,4.96,0.76,7.09-0.07
		c1.22-0.72,1.69-3.75,1.72-5.14c-0.13-2.31-1.24-4.62-3.11-6.46c-1.28-0.8-4.37-0.1-5.78,0.07c-4.24,0.73-8.36,1.76-12.32,3.09
		C560.25,39.08,563,41.99,563,41.99z"/>
	<path class="st4" d="M630.83,31.95c0,0-14.28,0.38-19.1-1.57c-4.84-1.96-17.78-13.56-17.76-13.21c0.02,0.35,11.51,6.39,14.51,8.33
		C615.41,30.01,623.27,31.58,630.83,31.95z"/>
	<path class="st3" d="M249.5,595.9c-11.92-4.97-31.92-9.75-31.92-9.75s23.42-1.95,31.98,6.74L249.5,595.9z"/>
	<path class="st3" d="M494.94,603.74c-15.42-6.67-38.49-8.21-38.49-8.21s26.76-3.33,36.33,4.04L494.94,603.74z"/>
	<path class="st3" d="M459.36,659.49c0,0,8.49-11.12,7.28-20.5c-2.94-22.86-13.35-26.69-20.3-30.68
		c-7.45-4.28-33.94-5.31-33.94-5.31s22.56,4.27,29.54,7.28c5.57,2.41,9.32,6.02,15.4,18.76
		C460.08,634.77,459.36,659.49,459.36,659.49z"/>
</g>
<g id="Layer_5">
	<path class="st1" d="M146.57,270.94c0,0-45.33,22.91-76.32,60.91c-38.63,47.37-50.11,93.05-50.11,93.05
		c48.7-46.53,97.64-62.79,97.64-62.79S115.57,314.69,146.57,270.94z"/>
	<path class="st1" d="M312.32,171.55c-5.25-8.74-29.41-15.65-38.97-12.08c-24.79,9.26-55.77,89.97-55.77,89.97
		s38.24-13.24,54.62-46.01c9.06-18.12,40.12-10.02,40.12-10.02S315.13,176.24,312.32,171.55z"/>
	<path class="st1" d="M379.4,139.35c0,1.58,0,48.24,0,48.24c28.99-72.65,57.98-79.65,57.98-79.65s-2.81-27.61-8-23.99
		C379.4,118.86,379.4,139.35,379.4,139.35z"/>
	<path class="st1" d="M412.44,347.92c0,0,0.94,66.14-7.01,88.54c-4.26,11.98-30.61,48.61-30.61,48.61s20.14-43.1,24.63-59.49
		C404.36,407.69,412.44,347.92,412.44,347.92z"/>
	<path class="st1" d="M486.32,322.04c0,0,14.89,59.97,12.26,83.59c-1.4,12.64-21.75,64.45-21.75,64.45s12.76-53.44,13.39-70.42
		C490.91,381.11,486.32,322.04,486.32,322.04z"/>
	<path class="st1" d="M174.06,397.02c0,0,47.1,65.19,54.95,91.56c11.89,39.91-7.46,78.72-7.46,78.72s-5.84-57.61-10.32-72.94
		C206.33,477.62,174.06,397.02,174.06,397.02z"/>
	<path class="st1" d="M395.7,615.37c0,0,25.19-6.95,34.44-2.52c14,6.71,25.01,33.22,25.01,33.22s-19.26-17-24.63-19.63
		C424.66,623.56,395.7,615.37,395.7,615.37z"/>
	<path class="st1" d="M481.94,615.24c0,0,15.3-5.03,21.15-1c8.85,6.1,16.5,28.77,16.5,28.77s-12.43-14.94-15.82-17.33
		C500.06,623.08,481.94,615.24,481.94,615.24z"/>
	<path id="Path_409" class="st1" d="M606.11,40.15c0,0-5.85,4.44,2.75,6.77c10.41,2.83,39.21-0.53,39.21-0.53
		s-16.54-4.74-26.18-6.68C616.69,38.71,611.3,38.86,606.11,40.15z"/>
	<path id="Path_408" class="st1" d="M543.06,25.75c16.19-2.29,40.69-6.45,40.69-6.45s-38.75,0.03-56.35,3.34
		c-14.52,2.72-12.82,9.2-12.82,9.2C523.81,29.27,533.33,27.24,543.06,25.75z"/>
	<path class="st1" d="M498.38,19.3c-0.29-1.73-4.47-13.29-12.05-15.5c-6.89-2.01-21.8,9.47-21.8,9.47s16.86-6.05,21.52-5.16
		C490.45,8.94,498.38,19.3,498.38,19.3z"/>
	<path class="st1" d="M227.84,612.63c0,0,27.62-6.96,37.58-3.21c15.07,5.67,26.34,29.31,26.34,29.31s-20.51-14.83-26.29-17.05
		C259.17,619.25,227.84,612.63,227.84,612.63z"/>
</g>
<g id="Layer_6">
	<path class="st1" d="M246.7,513.26C246.65,512.91,246.66,512.93,246.7,513.26L246.7,513.26z"/>
	<path class="st1" d="M274.57,473.92c-0.15-0.14-0.3-0.28-0.45-0.43l1.6-2.34C275.32,472.08,274.93,473,274.57,473.92z"/>
	<path class="st1" d="M246.7,513.26C246.65,512.91,246.66,512.93,246.7,513.26L246.7,513.26z"/>
	<path class="st4" d="M20.43,535.41c0,0,9,27.2,41.66,68.23c5.52,6.93,14.81,36.97,14.81,36.97s-30.73,0.13-32.36-8.59
		C37.77,595.9,20.43,535.41,20.43,535.41z"/>
	<path class="st4" d="M426.5,361.5c28.95-16.79,46.24-39.64,46.09-39.46S460.84,428.66,451.28,463
		C443.37,491.4,406,571.89,406,571.89s-11.35-47.45-2.6-67.18c9.08-20.48,17.12-53.79,19.37-72.46
		C425.42,410.08,426.5,361.5,426.5,361.5z"/>
	<path class="st4" d="M484.47,81.05c0,0,16.8,43.38,27.99,49.41c15.45,8.33,64.29,4.94,64.29,4.94s-45.82-5.96-59.44-12.2
		C506.96,118.46,484.47,81.05,484.47,81.05z"/>
	<path class="st4" d="M253.28,503.97l22.44-32.83c18.07-41.06,13.55-75.62,11.43-68.3c-14.94,51.57-44.79,63.46-44.79,63.46
		L253.28,503.97z"/>
	<path class="st2" d="M246.7,513.26l29.02-42.11c0,0-9.92,18.83-7.94,45.62c0,0-8.23,4.25-18.63,18.64L246.7,513.26z"/>
</g>
</svg>
