<?xml version="1.0" encoding="utf-8"?>
<!-- Generator: Adobe Illustrator 24.1.2, SVG Export Plug-In . SVG Version: 6.00 Build 0)  -->
<svg version="1.1" id="Layer_1" xmlns="http://www.w3.org/2000/svg" xmlns:xlink="http://www.w3.org/1999/xlink" x="0px" y="0px"
	 viewBox="0 0 340.6 908" style="enable-background:new 0 0 340.6 908;" xml:space="preserve">
<style type="text/css">
	.st0{fill:#EDBE96;}
	.st1{fill:#FFFFFF;}
	.st2{fill:#BC7F4C;}
	.st3{opacity:0.5;fill:#EDBE96;enable-background:new    ;}
	.st4{opacity:0.5;fill:#BC7F4C;enable-background:new    ;}
</style>
<g id="Layer_2_1_">
	<path class="st0" d="M259.6,80.5c-4.3-17.8-11.1-21.1-64.2-49.4c-16.2-8.7-22.2-0.3-36.5-7.1c-32.4-15.5-57.2-34-63.3-4.5
		c-8.5,40.9,43.2,60.6,55.4,121c6.2,30.8,0.8,60.1-7.5,94.8c-4.5,18.7-37.9,94.7-60,119.2c-10.1,11.1-56,49.7-75.1,67.2
		C-1.9,431-8.1,467.5,23,499.4c7,7.1,52.5-12.3,53.5-22.2c1.1-11.7,20.7-1,20.5,1.2c-1.8,19.5-12.7,83.5,8.5,154.8
		c3.6,12.2-6.5,20.2-22.6,68.5c-8,23.9-16,74.8,17.6,156.1c0.8,1.9-17.8,5.8-31.3,14c-24.5,14.9-22.1,41.9,16.3,29.4
		c20.8-6.8,46.5,4.6,61.4,1c0,0,37-28.6,23.2-107.2c-2.3-13.1,4.7-19.6,18.1-21.6c16.1-2.4,18-4.3,22.2,2.6
		c17.7,28.9,29.4,77.5,12.8,103.3c-10.4,16-6.5,27.2,36.2,28.3c17.9,0.5,52.6-5.7,58-14.6c11.3-18.8-6.2-29.1-7.5-51.2
		c-1.8-29.5,12.7-54.6,21.5-111.8c7-45.6,11.1-92.8,8.4-119c-6-58.6-11-78.6-14.2-115c-2.1-23.8-4.1-81.7-2.5-118.2
		c1.5-35.1-18.2-68-23.8-96.1c-7-34.7-15.1-62.6-20.5-97.1C271,136.3,265.4,104.3,259.6,80.5z"/>
	<path class="st1" d="M279.6,702.2c-5.8-6.6-26.4,3.9-28,11.3c-6.1,29.3,3.5,127.2,3.5,127.2S300.7,726.5,279.6,702.2z"/>
</g>
<g id="Layer_3">
	<path class="st1" d="M85.5,589.3c6.7,60.5,36.2,125.5,115.9,181.2c0,0,0-0.2,0-0.6c0.5-5.1,5.2-44.2,46.7-111.7
		c7.5-12.1,7.3-25.6,7.7-34.1c1.8-37.8-8.2-142.2-8.2-142.2s-24.7,12.5-37.4-8.5c-5.7-9.3-29.1,23.4-48.7,22.6
		c-16.9-0.7-40.6-23.6-39.9-43.4c0.7-18.7,13.7-45.1,22.9-49.7c18.8-9.5,47.5-5.3,68.1-18.1c24.5-15.2,10.6-57,9.3-81.1
		c-3.6-63.5-41.3-126-54.8-124.5c-5.9,0.6-51.2,215.3-51.2,215.3C107.8,417.2,79,530.5,85.5,589.3z"/>
</g>
<g id="Layer_4">
	<path class="st2" d="M183.4,42.1c0-0.3-5.6-6.2-7.8-7.9c-1-0.8-2.9-2.7-4.1-2.5c-1.5,0.2-4,2.8-4.5,4.3c-0.5,1.2-1.2,4.1-0.6,5.2
		c0.7,1.3,3.6,3.1,5.1,3.1c1.4,0,5.1-1.9,5.1-1.9l3.8,2.1C180.4,44.4,183.4,43,183.4,42.1z"/>
	<path class="st2" d="M102,0.4c1.2-0.7,4.4-0.3,5.8,0.2c2.7,0.9,8.9,1.5,9.3,4.2c0.2,1.5-1.9,6.9-3.4,7.5c-1.1,0.4-3.7-0.9-4.9-0.5
		c-2,0.7-9.4,2.1-9.4,2.1S99,8.4,99.4,5C99.5,3.7,100.8,1,102,0.4z"/>
	<path class="st2" d="M94.8,31.6c0,0,15.4,13.8,25.1,17.9c4.7,1.9,10.2,3.4,9.2,4.8c-1.5,2-3.9,2-10-0.1C111.7,51.7,95.4,36,95.4,36
		L94.8,31.6z"/>
	<path class="st2" d="M224.5,88c-0.3,0,16.7-9.7,18.6-13.8s-15.9,6.9-15.9,6.9L224.5,88z"/>
	<path class="st2" d="M230.7,114.9c-0.5-0.8,0-12.7,0-12.7l20.2-19.2L242,99c0,0-6.5,16.2-7.3,15.9S230.7,114.9,230.7,114.9z"/>
	<path class="st2" d="M247.6,481.9c19.7-3.9,54.5-24.8,54.5-24.8c-4.4,10.3-22.2,20.9-29.6,24.8c-7.2,3.8-24,9.5-24,9.5L247.6,481.9
		z"/>
	<path class="st2" d="M78.5,472.9L64,427.7l21.8,44.5C85.8,472.2,79.4,470.5,78.5,472.9z"/>
	<path class="st2" d="M32.3,500.6l5.3-1c-4.8-3.7-7.5-14.8-7.5-14.8S29.1,498.5,32.3,500.6z"/>
	<path class="st2" d="M44.1,497.7c0.3-0.1,7-2.6,7-2.6l-11-12.6L44.1,497.7z"/>
	<path class="st2" d="M56.3,492.8l5.9-3C62.4,486.1,52,479,52,479S58.5,488.2,56.3,492.8z"/>
	<path class="st2" d="M270.4,907.7c4-4.6,0-19.6-0.1-19.1s-0.4,14.9-7.8,19C262.5,907.6,269.8,908.3,270.4,907.7z"/>
	<path class="st2" d="M246.3,906.8c-4.5-3,3-20.5,3-20.5s-0.5,16.6,2.8,21.2C252.1,907.5,246.8,907.2,246.3,906.8z"/>
	<path class="st2" d="M229.3,903.5c-0.1-7,10.2-18.5,10.2-18.5s-15.4,3.3-15.9,15C223.6,900.4,229.3,903.5,229.3,903.5z"/>
	<path class="st2" d="M53.7,891.6c4-11.7,25-10,25-10s-21-3.5-24.4,4.5C52.5,890.5,53.7,891.6,53.7,891.6z"/>
	<path class="st1" d="M105.7,709l-4.3-26.1c0,0-12.9,19.3-17.1,49C81.5,752.4,95,813.8,95,813.8S84.3,731.9,105.7,709z"/>
	<path class="st1" d="M178.9,417.2c0,0-14-14.8-30.8-4.4c-17.1,10.7-15.4,37-15.4,37s10.4-18,20.8-26.2
		C164.1,415.3,178.9,417.2,178.9,417.2z"/>
	<path class="st1" d="M50.4,423.5c0,0-14-14.8-30.8-4.4c-17.1,10.7-7.6,37-7.6,37s2.6-18,13-26.2C35.6,421.6,50.4,423.5,50.4,423.5z
		"/>
	<path class="st1" d="M57.1,397.6c0,0,17.9-14.4,26.4-26.4c11.7-16.5,37.1-60.6,37.1-60.6s-14.2,41-32.9,65.1
		C76.3,390.3,57.1,397.6,57.1,397.6z"/>
	<path class="st1" d="M233.1,403.9c0,0,7.6-27.8,7.4-46.1c-0.3-25.4-6.8-88.6-6.8-88.6s15.6,52,14.3,90.1
		C247.3,382.4,233.1,403.9,233.1,403.9z"/>
	<path class="st2" d="M124.2,465.6l3.1,4.4c1.4-5.9,10.5-12.8,10.5-12.8S124.9,461.8,124.2,465.6z"/>
	<path class="st2" d="M131.7,477.1c0.2,0.2,5.2,5.3,5.2,5.3l7.1-15.1L131.7,477.1z"/>
	<path class="st2" d="M141.1,486.3l5.1,4.2c3.5-1.3,5.8-13.6,5.8-13.6S146.2,486.5,141.1,486.3z"/>
	<path class="st2" d="M228.1,116.7c0,0-34.1,34.3-48.7,39c-13.7,4.3-23.5-2-23.5-2s2.9,4.4,6.8,6.4c4.9,2.5,12.6,1.2,17.9-0.3
		c8.6-2.4,19.8-11.9,28.5-21.6C211.1,136,228.1,116.7,228.1,116.7z"/>
	<path class="st1" d="M100.2,874c0,0-11.5-8.7-15.9-8.2c-4.1,0.4-12.8,10.4-12.8,10.4s9.2-4.9,12.8-5.2
		C87.9,870.7,100.2,874,100.2,874z"/>
	<path class="st1" d="M292.3,870.9c0,0-9.9-9.8-26.9-9.8c-21,0-32.7,12.8-32.7,12.8s13.8-6.4,32.4-6.7
		C276.8,867,292.3,870.9,292.3,870.9z"/>
	<path class="st2" d="M302.2,863.3c0,0-11.5-11.4-31.4-11.4c-24.5,0-38.2,14.9-38.2,14.9s16-7.5,37.8-7.9
		C284.2,858.7,302.2,863.3,302.2,863.3z"/>
	<path class="st2" d="M108.3,857.5c0,0,19.6,3,25.7,8.4c7.7,6.8,8.1,11.7,8.1,11.7C130.8,862.3,108.3,857.5,108.3,857.5z"/>
	<path class="st2" d="M340.6,628.3c-10.4-12.2-34.8,0-34.8,0s12-16,34.6-7.8L340.6,628.3z"/>
</g>
<g id="Layer_5">
	<path class="st3" d="M201.5,770.4c0.5-5.1,5.2-44.2,46.7-111.7c7.5-12.1,7.3-25.6,7.7-34.1c1.8-37.8-8.2-142.8-8.2-142.8
		s-25.6,11.2-37.7-8.9C209.9,472.9,224.3,538.6,201.5,770.4z"/>
	<path class="st3" d="M95.6,476.7c0,0-6.6,43.4-6.6,90.1c0,50,13.6,87.9,13.4,87.5c-0.3-0.8-18.1-39.3-18.5-80.9
		C83.5,524.6,95.6,476.7,95.6,476.7z"/>
	<path class="st4" d="M247.6,481.9c38.1,7.5,75-52.4,75-52.4c0.2,50.1,7.2,111.7,13.2,146.6c5.1,29.7,5.9,65.1,3.3,96.9
		c-2.9,35.6-20,115.1-19.1,110.4c18.5-92.3-12.8-301-12.8-301s-13.4,8.5-15.1,10.4c-8.2,9.5-42.4,12.4-42.4,12.4L247.6,481.9z"/>
	<path class="st4" d="M310.7,320.2c-18.5-34.1-43.4-59.7-43.4-59.7C283.9,244.3,285,218,285,218s6.7,27,11,47.9
		c1,4.8,0.9,11.2,12.1,43.9C308.6,311.3,310.7,320.2,310.7,320.2z"/>
	<path class="st4" d="M263.8,99c0,0,3.2,60.2,3.6,61.5C270.9,172.2,285,218,285,218L263.8,99z"/>
	<path class="st4" d="M248.5,87.6c0,0-1.2,14.2-0.3,19.4c0,0-5.6,1.3-14.9,7.8L248.5,87.6z"/>
	<path class="st4" d="M204.7,774.5c0,0-44.4-29.6-67.8-63.6c0,0-12.2,58.4-12.3,76.2c-0.2,31.7,26,114.4,26,114.4
		c35.3-34.6,22.2-91.1,20.2-108.1c-0.7-5.6,3.7-11.6,7.4-13.3c6-2.8,12.2-3.6,16.2-4.4C199,774.8,204.7,774.5,204.7,774.5z"/>
</g>
<g id="Layer_6">
	<circle class="st1" cx="172" cy="36" r="2.2"/>
	<path class="st1" d="M240.9,67.8c0,0,2.9-5.8-7.6-12.9c-12.7-8.7-42.5-20.7-42.5-20.7s17.8,11.6,29.7,18.9
		C231,59.5,240.9,67.8,240.9,67.8z"/>
	<path class="st1" d="M153.1,31.6c0,0,6-1.7,0-6.4c-7.2-5.7-30.9-12.4-30.9-12.4s11.4,9.2,18.4,14C146.7,31,153.1,31.6,153.1,31.6z"
		/>
	<path class="st1" d="M250.9,79.3l-20,17.3c-2.9-2.5-4.9-6.8-4.9-6.8S248.5,74.3,250.9,79.3z"/>
</g>
</svg>
