<?xml version="1.0" encoding="utf-8"?>
<!-- Generator: Adobe Illustrator 24.1.2, SVG Export Plug-In . SVG Version: 6.00 Build 0)  -->
<svg version="1.1" id="Layer_1" xmlns="http://www.w3.org/2000/svg" xmlns:xlink="http://www.w3.org/1999/xlink" x="0px" y="0px"
	 viewBox="0 0 665.27 92" style="enable-background:new 0 0 665.27 92;" xml:space="preserve">
<style type="text/css">
	.st0{fill:#EDBE96;}
	.st1{fill:#FFFFFF;}
	.st2{font-family:'ObjektivMk1-Regular';}
	.st3{font-size:25px;}
	.st4{fill:none;stroke:#0C2553;stroke-width:4;}
	.st5{fill:#0C2553;stroke:#0C2553;stroke-width:4;}
</style>
<g id="button" transform="translate(4 36.129)">
	<g id="Button-2" transform="translate(5 -30.129)">
		<g transform="matrix(1, 0, 0, 1, -9, -6)">
			<path id="Rectangle_1-2" class="st0" d="M4,0h202c2.21,0,4,1.79,4,4v84c0,2.21-1.79,4-4,4H4c-2.21,0-4-1.79-4-4V4
				C0,1.79,1.79,0,4,0z"/>
		</g>
		<text transform="matrix(1 0 0 1 54.662 50)" class="st1 st2 st3">button</text>
	</g>
</g>
<g id="menu_btn" transform="translate(-1426.429 -49.067)">
	<path id="Path_269" class="st4" d="M1769.11,61.5h99.68"/>
	<path id="Path_270" class="st4" d="M1769.11,94.65h99.68"/>
	<path id="Path_271" class="st4" d="M1769.11,127.79h99.68"/>
</g>
<g id="x_button" transform="translate(-1208 -51.252)">
	<path id="Path_273" class="st5" d="M1790.28,56.51l81.42,81.42"/>
	<path id="Path_274" class="st5" d="M1790.28,137.94l81.42-81.42"/>
</g>
</svg>
